<svg version="1.1" id="Layer_1" xmlns="http://www.w3.org/2000/svg" xmlns:xlink="http://www.w3.org/1999/xlink" x="0px" y="0px"
	 width="100%" viewBox="0 0 236 137" enable-background="new 0 0 236 137" xml:space="preserve">
<path fill="#FEFEFE" opacity="1.000000" stroke="none" 
	d="
M145.000000,138.000000 
	C96.698746,138.000000 48.897488,138.000000 1.048116,138.000000 
	C1.048116,92.396080 1.048116,46.792091 1.048116,1.094053 
	C79.551109,1.094053 158.102371,1.094053 236.826813,1.094053 
	C236.826813,46.666145 236.826813,92.333008 236.826813,138.000000 
	C206.459061,138.000000 175.979523,138.000000 145.000000,138.000000 
M76.556763,105.822327 
	C76.556763,105.822327 76.487411,105.846725 76.635208,106.527687 
	C76.595108,106.990959 76.555008,107.454231 75.906883,107.992340 
	C75.721756,108.498543 75.536629,109.004753 75.351501,109.510948 
	C75.907997,109.257477 76.464493,109.003998 77.473854,108.667801 
	C77.708977,108.468620 77.927353,108.252518 78.624161,107.992416 
	C78.624161,107.992416 79.117592,107.942902 79.712173,107.883545 
	C79.984215,107.605621 80.256256,107.327698 81.199112,107.241791 
	C81.415131,106.763626 81.631142,106.285469 81.847153,105.807304 
	C81.191101,105.568352 80.535042,105.329399 79.505157,105.015465 
	C79.505157,105.015465 79.126221,105.057777 78.526733,105.009338 
	C78.326416,105.017136 78.126091,105.024933 77.530121,104.926804 
	C77.530121,104.926804 77.123856,104.874817 76.804703,104.318169 
	C76.254990,104.408234 75.705269,104.498299 75.155556,104.588356 
	C75.605736,105.004623 76.055923,105.420891 76.556763,105.822327 
M107.669342,106.840340 
	C107.592758,107.229713 107.516182,107.619095 106.871788,107.777924 
	C105.287819,107.218544 103.703857,106.659172 102.004845,106.059174 
	C101.850357,107.016754 101.636879,108.339989 101.360970,110.050186 
	C104.575233,110.050186 107.293747,110.050186 110.486496,109.911354 
	C110.576508,109.773911 110.764839,109.538002 110.741180,109.514381 
	C110.524719,109.298203 110.271439,109.118904 109.658539,108.792290 
	C109.442772,108.637520 109.253975,108.454857 109.129478,107.555244 
	C109.016075,106.887711 108.902672,106.220169 108.395714,104.938332 
	C107.094048,104.810982 105.792389,104.683632 104.490723,104.556282 
	C104.495239,104.933746 104.499756,105.311218 104.504272,105.688690 
	C105.573280,105.874184 106.642288,106.059677 107.669342,106.840340 
M162.068954,106.047615 
	C160.530365,105.327110 158.991760,104.606606 157.517853,103.916397 
	C157.138596,107.932533 158.507385,109.151749 163.828796,108.475792 
	C165.042679,107.682564 166.256561,106.889343 168.276733,106.057968 
	C170.765610,106.507149 173.253082,106.964340 175.743805,107.402962 
	C177.733032,107.753265 179.822205,108.169167 178.312378,104.954277 
	C178.213074,104.975891 178.113770,104.997513 177.220261,105.045654 
	C175.765137,104.621101 174.306046,103.843346 172.855865,103.859604 
	C170.956924,103.880913 169.064987,104.529297 166.698090,104.396194 
	C165.364182,104.904266 164.030289,105.412346 162.068954,106.047615 
M101.915627,93.249977 
	C104.512978,93.249977 107.110321,93.249977 109.733093,93.249977 
	C109.733093,82.575645 109.733093,72.264015 109.440399,61.333309 
	C107.064522,58.663399 104.132019,58.541611 100.312645,60.150753 
	C100.221153,70.579193 100.115646,81.007591 100.080765,91.436226 
	C100.079079,91.942093 100.697861,92.450043 101.915627,93.249977 
M113.521408,93.228912 
	C113.521408,93.228912 113.952713,93.109245 114.840714,93.289017 
	C122.059570,93.370934 122.036949,93.370827 122.069939,86.372208 
	C122.080086,84.220978 122.250923,82.070503 122.348175,79.919678 
	C122.921654,79.784615 123.495132,79.649559 124.068611,79.514496 
	C125.808861,82.721146 127.591217,85.905830 129.277893,89.140411 
	C131.084106,92.604263 133.351807,94.656639 137.548080,92.700310 
	C138.781082,92.125481 140.289780,92.141991 142.187897,91.792519 
	C139.308121,86.679733 136.708603,81.947487 133.992035,77.283409 
	C132.233734,74.264542 130.884689,71.719521 134.725525,68.880005 
	C137.275009,66.995178 138.972778,63.958317 141.222305,61.230389 
	C130.961655,56.701382 127.522293,64.766060 122.053360,69.992279 
	C122.053360,65.399254 122.055603,61.471092 122.052849,57.542931 
	C122.048508,51.345657 120.723373,50.129311 113.159210,50.062824 
	C112.776100,50.843185 112.063385,51.621727 112.059074,52.404171 
	C111.988907,65.143890 111.988281,77.884209 112.054573,90.623962 
	C112.058830,91.442917 112.736519,92.258362 113.521408,93.228912 
M32.336487,83.241669 
	C31.214888,84.496727 30.093288,85.751785 28.381308,87.388824 
	C27.305233,91.614975 26.229160,95.841118 25.054449,100.890160 
	C25.263819,109.038033 28.752693,112.583588 36.639641,111.805161 
	C40.705299,109.091209 45.086548,106.739525 48.742157,103.554886 
	C51.981953,100.732491 54.565399,97.096504 57.166988,93.616623 
	C60.558735,89.079819 58.578136,84.055412 57.743187,79.311317 
	C56.936764,74.729355 55.429066,70.270805 54.566799,65.235695 
	C56.387379,63.322987 58.202946,61.405476 60.029446,59.498432 
	C66.073410,53.187965 67.948013,43.682880 63.944199,36.306469 
	C60.481571,35.565392 56.053707,33.107674 53.739460,34.408939 
	C47.112362,38.135258 41.342545,43.386211 34.702404,48.262344 
	C34.406967,49.204502 34.111534,50.146656 33.578907,51.585552 
	C33.352913,52.621090 33.126919,53.656624 32.129089,54.835052 
	C31.800915,56.229317 31.472740,57.623577 31.020355,59.809067 
	C31.734966,62.880009 32.449581,65.950951 33.065800,69.811127 
	C33.833527,72.566399 34.601254,75.321663 35.595989,78.721939 
	C34.703251,80.146416 33.810516,81.570900 32.336487,83.241669 
M145.129059,50.004169 
	C144.753418,50.779842 144.054291,51.553875 144.050354,52.331429 
	C143.985748,65.068115 143.989395,77.805351 144.057098,90.542038 
	C144.061523,91.372559 144.708862,92.199669 145.910614,93.270599 
	C154.052490,93.438049 154.052460,93.438049 154.051895,85.579567 
	C154.051743,83.442314 154.051865,81.305061 154.051865,79.167816 
	C154.532944,79.105408 155.014023,79.043007 155.495102,78.980606 
	C157.381699,82.195488 159.374588,85.353531 161.130798,88.638123 
	C163.998489,94.001511 168.647705,95.152115 174.493500,91.585884 
	C171.837601,87.280243 169.343826,82.863579 166.481461,78.700333 
	C163.508408,74.376106 163.020142,70.933411 167.994843,67.551430 
	C170.241745,66.023903 171.621689,63.221142 173.311981,61.101051 
	C163.034912,56.192837 159.920242,65.236450 154.052643,69.811539 
	C154.052643,65.275833 154.054688,61.634739 154.052200,57.993645 
	C154.047623,51.277817 152.893234,50.151703 145.129059,50.004169 
M202.903244,65.274559 
	C199.915726,60.314415 191.369156,57.410797 184.257309,58.939789 
	C180.528183,59.741520 176.191589,64.572464 175.687561,69.263718 
	C181.808182,68.384460 187.726761,67.534233 193.645340,66.683998 
	C193.903961,67.284599 194.162598,67.885201 194.421234,68.485802 
	C193.202728,69.328667 192.091843,70.493805 190.742371,70.944466 
	C188.259384,71.773666 185.620667,72.122879 183.074142,72.778130 
	C175.901337,74.623787 173.958389,77.794945 174.862701,86.037231 
	C175.363647,90.602913 179.518585,93.996918 185.301498,93.988770 
	C190.866501,93.980934 196.430817,93.486336 202.875198,93.125702 
	C202.946564,84.050705 203.017929,74.975716 202.903244,65.274559 
M82.752502,66.344414 
	C84.111275,66.772804 86.198158,66.792984 86.705841,67.698524 
	C89.231407,72.203377 92.971886,70.863846 97.423576,70.468651 
	C96.768974,68.245651 96.766960,65.923920 95.607094,64.694733 
	C90.152412,58.913982 82.217384,56.432060 74.092400,60.561241 
	C70.318405,62.479221 68.544930,65.556648 68.603615,69.724350 
	C68.664230,74.028549 70.768837,77.016029 74.782776,78.444565 
	C77.716393,79.488609 80.820030,80.054977 83.753548,81.099258 
	C85.259392,81.635315 86.558693,82.751541 87.951332,83.605576 
	C86.386894,84.740692 84.833870,86.750099 83.254883,86.770706 
	C81.599503,86.792320 80.042847,84.490700 78.221519,83.948303 
	C75.319618,83.084114 72.234245,82.836037 69.226456,82.327415 
	C69.453690,84.695900 69.345100,87.170090 70.043892,89.390144 
	C70.416763,90.574730 72.082825,91.950386 73.340027,92.152504 
	C78.174263,92.929672 83.181030,94.125122 87.932816,93.560410 
	C94.427612,92.788551 98.455070,87.333809 98.122978,81.806519 
	C97.830856,76.944466 94.138672,74.302078 87.208412,72.910500 
	C84.029572,72.272202 81.115730,70.314133 76.871948,68.412460 
	C79.417435,67.490654 80.726883,67.016464 82.752502,66.344414 
M104.571968,57.817432 
	C106.516823,57.371269 108.461670,56.925110 110.406525,56.478947 
	C109.645149,54.794750 109.042625,53.008133 108.052002,51.471748 
	C107.591614,50.757721 106.226448,49.990990 105.533615,50.184895 
	C103.628525,50.718090 100.819534,51.323044 100.271263,52.672688 
	C99.313538,55.030304 99.460739,58.190228 104.571968,57.817432 
M96.511459,105.919106 
	C90.715103,103.804497 90.715103,103.804497 90.419746,107.519485 
	C92.266335,107.096741 94.194672,106.655289 96.511459,105.919106 
M191.895248,108.090691 
	C191.976791,106.456795 192.058334,104.822899 192.139877,103.189011 
	C191.622299,103.186005 191.104706,103.182999 190.587128,103.179993 
	C190.825531,105.036797 191.063919,106.893608 191.895248,108.090691 
z"/>
<path fill="#85B250" opacity="1.000000" stroke="none" 
	d="
M201.995438,93.205605 
	C196.430817,93.486336 190.866501,93.980934 185.301498,93.988770 
	C179.518585,93.996918 175.363647,90.602913 174.862701,86.037231 
	C173.958389,77.794945 175.901337,74.623787 183.074142,72.778130 
	C185.620667,72.122879 188.259384,71.773666 190.742371,70.944466 
	C192.091843,70.493805 193.202728,69.328667 194.421234,68.485802 
	C194.162598,67.885201 193.903961,67.284599 193.645340,66.683998 
	C187.726761,67.534233 181.808182,68.384460 175.687561,69.263718 
	C176.191589,64.572464 180.528183,59.741520 184.257309,58.939789 
	C191.369156,57.410797 199.915726,60.314415 202.962158,66.061371 
	C203.011047,69.632111 203.095810,72.420265 202.971542,75.199081 
	C202.703018,81.203796 202.327301,87.203720 201.995438,93.205605 
M184.481171,85.827744 
	C186.824707,85.577545 189.892670,86.144417 191.329010,84.870972 
	C193.137024,83.267967 193.611298,80.160606 194.661041,77.702339 
	C194.211334,77.448608 193.761612,77.194885 193.311905,76.941154 
	C191.577835,77.621765 189.883179,78.438911 188.101074,78.953033 
	C184.919907,79.870750 183.304077,81.654152 184.481171,85.827744 
z"/>
<path fill="#84B44D" opacity="1.000000" stroke="none" 
	d="
M145.997650,50.128304 
	C152.893234,50.151703 154.047623,51.277817 154.052200,57.993645 
	C154.054688,61.634739 154.052643,65.275833 154.052643,69.811539 
	C159.920242,65.236450 163.034912,56.192837 173.311981,61.101051 
	C171.621689,63.221142 170.241745,66.023903 167.994843,67.551430 
	C163.020142,70.933411 163.508408,74.376106 166.481461,78.700333 
	C169.343826,82.863579 171.837601,87.280243 174.493500,91.585884 
	C168.647705,95.152115 163.998489,94.001511 161.130798,88.638123 
	C159.374588,85.353531 157.381699,82.195488 155.495102,78.980606 
	C155.014023,79.043007 154.532944,79.105408 154.051865,79.167816 
	C154.051865,81.305061 154.051743,83.442314 154.051895,85.579567 
	C154.052460,93.438049 154.052490,93.438049 145.460083,92.678436 
	C145.005798,80.015549 144.958374,67.944527 145.043076,55.874424 
	C145.056519,53.956913 145.664536,52.043571 145.997650,50.128304 
z"/>
<path fill="#84B150" opacity="1.000000" stroke="none" 
	d="
M82.394409,66.443344 
	C80.726883,67.016464 79.417435,67.490654 76.871948,68.412460 
	C81.115730,70.314133 84.029572,72.272202 87.208412,72.910500 
	C94.138672,74.302078 97.830856,76.944466 98.122978,81.806519 
	C98.455070,87.333809 94.427612,92.788551 87.932816,93.560410 
	C83.181030,94.125122 78.174263,92.929672 73.340027,92.152504 
	C72.082825,91.950386 70.416763,90.574730 70.043892,89.390144 
	C69.345100,87.170090 69.453690,84.695900 69.226456,82.327415 
	C72.234245,82.836037 75.319618,83.084114 78.221519,83.948303 
	C80.042847,84.490700 81.599503,86.792320 83.254883,86.770706 
	C84.833870,86.750099 86.386894,84.740692 87.951332,83.605576 
	C86.558693,82.751541 85.259392,81.635315 83.753548,81.099258 
	C80.820030,80.054977 77.716393,79.488609 74.782776,78.444565 
	C70.768837,77.016029 68.664230,74.028549 68.603615,69.724350 
	C68.544930,65.556648 70.318405,62.479221 74.092400,60.561241 
	C82.217384,56.432060 90.152412,58.913982 95.607094,64.694733 
	C96.766960,65.923920 96.768974,68.245651 97.423576,70.468651 
	C92.971886,70.863846 89.231407,72.203377 86.705841,67.698524 
	C86.198158,66.792984 84.111275,66.772804 82.394409,66.443344 
z"/>
<path fill="#83B34D" opacity="1.000000" stroke="none" 
	d="
M114.016762,50.158207 
	C120.723373,50.129311 122.048508,51.345657 122.052849,57.542931 
	C122.055603,61.471092 122.053360,65.399254 122.053360,69.992279 
	C127.522293,64.766060 130.961655,56.701382 141.222305,61.230389 
	C138.972778,63.958317 137.275009,66.995178 134.725525,68.880005 
	C130.884689,71.719521 132.233734,74.264542 133.992035,77.283409 
	C136.708603,81.947487 139.308121,86.679733 142.187897,91.792519 
	C140.289780,92.141991 138.781082,92.125481 137.548080,92.700310 
	C133.351807,94.656639 131.084106,92.604263 129.277893,89.140411 
	C127.591217,85.905830 125.808861,82.721146 124.068611,79.514496 
	C123.495132,79.649559 122.921654,79.784615 122.348175,79.919678 
	C122.250923,82.070503 122.080086,84.220978 122.069939,86.372208 
	C122.036949,93.370827 122.059570,93.370934 114.414246,92.721603 
	C113.986176,78.422089 113.984581,64.689980 113.989456,50.757881 
	C113.995941,50.557880 114.016762,50.158207 114.016762,50.158207 
z"/>
<path fill="#639DCC" opacity="1.000000" stroke="none" 
	d="
M64.475067,36.929893 
	C67.948013,43.682880 66.073410,53.187965 60.029446,59.498432 
	C58.202946,61.405476 56.387379,63.322987 54.089722,65.662750 
	C52.448460,67.454720 51.284279,68.819626 49.722141,70.211983 
	C48.783371,72.399643 48.242554,74.559853 47.497932,76.973068 
	C46.206406,78.461670 45.118687,79.697258 44.021908,80.517792 
	C43.341629,76.735519 42.670410,73.368294 41.993492,69.592506 
	C39.896973,60.453392 39.896973,60.453392 31.144567,59.017841 
	C31.472740,57.623577 31.800915,56.229317 32.596695,55.157635 
	C34.940678,56.236938 36.859715,57.655334 38.679741,57.537994 
	C40.098965,57.446495 41.395073,55.445507 42.745892,54.293076 
	C41.753269,53.233204 40.926868,51.590282 39.729416,51.248894 
	C37.892406,50.725185 35.800076,51.097031 33.816101,51.088814 
	C34.111534,50.146656 34.406967,49.204502 35.343697,48.186592 
	C41.161774,50.084373 45.779716,50.255161 50.481998,46.177174 
	C54.669861,42.545303 59.774841,39.970955 64.475067,36.929893 
z"/>
<path fill="#80B54B" opacity="1.000000" stroke="none" 
	d="
M50.120098,70.184525 
	C51.284279,68.819626 52.448460,67.454720 53.921032,65.923935 
	C55.429066,70.270805 56.936764,74.729355 57.743187,79.311317 
	C58.578136,84.055412 60.558735,89.079819 57.166988,93.616623 
	C54.565399,97.096504 51.981953,100.732491 48.742157,103.554886 
	C45.086548,106.739525 40.705299,109.091209 36.020874,111.643845 
	C34.912148,108.014137 34.422180,104.545761 33.953873,100.698120 
	C35.310478,97.225601 36.645424,94.132347 38.257584,90.887604 
	C39.044506,89.881065 39.554214,89.026001 40.348434,87.984192 
	C43.446091,84.891121 46.259235,81.984810 49.396824,79.191696 
	C50.467098,78.859680 51.901199,78.304031 51.850277,77.986618 
	C51.429081,75.360970 50.732986,72.779419 50.120098,70.184525 
z"/>
<path fill="#497EB7" opacity="1.000000" stroke="none" 
	d="
M64.209633,36.618179 
	C59.774841,39.970955 54.669861,42.545303 50.481998,46.177174 
	C45.779716,50.255161 41.161774,50.084373 35.610325,48.074272 
	C41.342545,43.386211 47.112362,38.135258 53.739460,34.408939 
	C56.053707,33.107674 60.481571,35.565392 64.209633,36.618179 
z"/>
<path fill="#84A95F" opacity="1.000000" stroke="none" 
	d="
M37.980370,91.039085 
	C36.645424,94.132347 35.310478,97.225601 33.557869,100.663986 
	C30.477835,100.695160 27.815460,100.381218 25.153088,100.067268 
	C26.229160,95.841118 27.305233,91.614975 28.996408,87.349045 
	C32.401131,88.552544 35.190750,89.795815 37.980370,91.039085 
z"/>
<path fill="#5288C0" opacity="1.000000" stroke="none" 
	d="
M31.082462,59.413452 
	C39.896973,60.453392 39.896973,60.453392 41.758949,69.754524 
	C40.429718,71.567245 39.329323,72.809380 38.242405,74.036308 
	C37.745098,72.032280 37.244083,70.013329 36.866112,68.490189 
	C35.576023,68.675484 34.370110,68.848686 33.164192,69.021889 
	C32.449581,65.950951 31.734966,62.880009 31.082462,59.413452 
z"/>
<path fill="#5A7D47" opacity="1.000000" stroke="none" 
	d="
M25.103767,100.478714 
	C27.815460,100.381218 30.477835,100.695160 33.536213,101.043243 
	C34.422180,104.545761 34.912148,108.014137 35.685680,111.732407 
	C28.752693,112.583588 25.263819,109.038033 25.103767,100.478714 
z"/>
<path fill="#4478B5" opacity="1.000000" stroke="none" 
	d="
M33.114998,69.416504 
	C34.370110,68.848686 35.576023,68.675484 36.866112,68.490189 
	C37.244083,70.013329 37.745098,72.032280 38.242405,74.036308 
	C39.329323,72.809380 40.429718,71.567245 41.764648,70.163094 
	C42.670410,73.368294 43.341629,76.735519 43.646446,80.521484 
	C40.643024,79.985802 38.006001,79.031364 35.368980,78.076935 
	C34.601254,75.321663 33.833527,72.566399 33.114998,69.416504 
M36.812019,74.963646 
	C36.719048,74.560089 36.626072,74.156525 36.533100,73.752968 
	C36.414185,73.841866 36.184952,73.945602 36.194584,74.017220 
	C36.249672,74.426910 36.361557,74.828964 36.812019,74.963646 
z"/>
<path fill="#4F7345" opacity="1.000000" stroke="none" 
	d="
M35.482483,78.399437 
	C38.006001,79.031364 40.643024,79.985802 43.655506,80.936539 
	C45.118687,79.697258 46.206406,78.461670 47.803169,77.172852 
	C48.565605,77.772591 48.818996,78.425537 49.072384,79.078491 
	C46.259235,81.984810 43.446091,84.891121 40.166912,87.687454 
	C37.439846,86.050102 35.178814,84.522736 32.917778,82.995377 
	C33.810516,81.570900 34.703251,80.146416 35.482483,78.399437 
z"/>
<path fill="#89B159" opacity="1.000000" stroke="none" 
	d="
M104.141113,57.815430 
	C99.460739,58.190228 99.313538,55.030304 100.271263,52.672688 
	C100.819534,51.323044 103.628525,50.718090 105.533615,50.184895 
	C106.226448,49.990990 107.591614,50.757721 108.052002,51.471748 
	C109.042625,53.008133 109.645149,54.794750 110.406525,56.478951 
	C108.461670,56.925110 106.516823,57.371269 104.141113,57.815430 
z"/>
<path fill="#7EB2D8" opacity="1.000000" stroke="none" 
	d="
M33.697502,51.337181 
	C35.800076,51.097031 37.892406,50.725185 39.729416,51.248894 
	C40.926868,51.590282 41.753269,53.233204 42.745892,54.293076 
	C41.395073,55.445507 40.098965,57.446495 38.679741,57.537994 
	C36.859715,57.655334 34.940678,56.236938 32.982613,55.086189 
	C33.126919,53.656624 33.352913,52.621090 33.697502,51.337181 
z"/>
<path fill="#618746" opacity="1.000000" stroke="none" 
	d="
M32.627136,83.118515 
	C35.178814,84.522736 37.439846,86.050102 39.882401,87.874207 
	C39.554214,89.026001 39.044506,89.881065 38.257584,90.887604 
	C35.190750,89.795815 32.401131,88.552544 29.291599,87.158058 
	C30.093288,85.751785 31.214888,84.496727 32.627136,83.118515 
z"/>
<path fill="#8FB75E" opacity="1.000000" stroke="none" 
	d="
M100.967392,59.482433 
	C104.132019,58.541611 107.064522,58.663399 109.388535,61.675533 
	C109.336678,62.017757 108.934227,62.028343 108.546036,61.960396 
	C102.307205,60.242447 102.005989,60.464951 101.994225,66.565979 
	C101.977921,75.017815 101.974541,83.469658 101.731094,91.947800 
	C101.496567,91.974098 101.026680,92.018700 101.012032,91.548431 
	C100.987389,80.546249 100.977386,70.014343 100.967392,59.482433 
z"/>
<path fill="#7F8479" opacity="1.000000" stroke="none" 
	d="
M145.563354,50.066235 
	C145.664536,52.043571 145.056519,53.956913 145.043076,55.874424 
	C144.958374,67.944527 145.005798,80.015549 145.033356,92.557312 
	C144.708862,92.199669 144.061523,91.372559 144.057098,90.542038 
	C143.989395,77.805351 143.985748,65.068115 144.050354,52.331429 
	C144.054291,51.553875 144.753418,50.779842 145.563354,50.066235 
z"/>
<path fill="#898F80" opacity="1.000000" stroke="none" 
	d="
M113.587982,50.110516 
	C114.016762,50.158207 113.995941,50.557880 113.687782,51.053261 
	C113.286728,65.390907 113.193832,79.233170 113.100937,93.075439 
	C112.736519,92.258362 112.058830,91.442917 112.054573,90.623962 
	C111.988281,77.884209 111.988907,65.143890 112.059074,52.404171 
	C112.063385,51.621727 112.776100,50.843185 113.587982,50.110516 
z"/>
<path fill="#8EBF52" opacity="1.000000" stroke="none" 
	d="
M113.311172,93.152176 
	C113.193832,79.233170 113.286728,65.390907 113.681305,51.253258 
	C113.984581,64.689980 113.986176,78.422089 113.970245,92.631714 
	C113.952713,93.109245 113.521408,93.228912 113.311172,93.152176 
z"/>
<path fill="#627E44" opacity="1.000000" stroke="none" 
	d="
M108.934227,62.028343 
	C108.934227,62.028343 109.336678,62.017757 109.534882,61.985073 
	C109.733093,72.264015 109.733093,82.575645 109.733093,93.249977 
	C107.110321,93.249977 104.512978,93.249977 101.467758,92.868912 
	C101.019897,92.487846 101.026680,92.018700 101.026680,92.018700 
	C101.026680,92.018700 101.496567,91.974098 102.180893,91.975571 
	C104.768814,91.977043 106.672401,91.977043 108.934227,91.977043 
	C108.934227,81.471916 108.934227,71.750130 108.934227,62.028343 
z"/>
<path fill="#82867C" opacity="1.000000" stroke="none" 
	d="
M101.012032,91.548431 
	C101.026680,92.018700 101.019897,92.487846 101.023804,92.722435 
	C100.697861,92.450043 100.079079,91.942093 100.080765,91.436226 
	C100.115646,81.007591 100.221153,70.579193 100.640015,59.816593 
	C100.977386,70.014343 100.987389,80.546249 101.012032,91.548431 
z"/>
<path fill="#80817E" opacity="1.000000" stroke="none" 
	d="
M202.435318,93.165649 
	C202.327301,87.203720 202.703018,81.203796 202.971542,75.199081 
	C203.095810,72.420265 203.011047,69.632111 203.055176,66.374451 
	C203.017929,74.975716 202.946564,84.050705 202.435318,93.165649 
z"/>
<path fill="#C1C1C1" opacity="1.000000" stroke="none" 
	d="
M177.975037,104.977982 
	C179.822205,108.169167 177.733032,107.753265 175.743805,107.402962 
	C173.253082,106.964340 170.765610,106.507149 167.773560,105.786301 
	C167.236954,105.312401 167.203506,105.110176 167.170044,104.907944 
	C169.064987,104.529297 170.956924,103.880913 172.855865,103.859604 
	C174.306046,103.843346 175.765137,104.621101 177.608505,105.021439 
	C177.996750,104.997223 177.975037,104.977982 177.975037,104.977982 
z"/>
<path fill="#D9D9D9" opacity="1.000000" stroke="none" 
	d="
M109.092155,108.244308 
	C109.253975,108.454857 109.442772,108.637520 109.839813,109.141220 
	C110.018150,109.676834 110.015205,109.863510 110.012268,110.050186 
	C107.293747,110.050186 104.575233,110.050186 101.360970,110.050186 
	C101.636879,108.339989 101.850357,107.016754 102.004845,106.059174 
	C103.703857,106.659172 105.287819,107.218544 107.559319,108.019875 
	C108.528618,108.255989 108.810387,108.250145 109.092155,108.244308 
z"/>
<path fill="#D3D3D3" opacity="1.000000" stroke="none" 
	d="
M163.260223,108.768906 
	C158.507385,109.151749 157.138596,107.932533 157.517853,103.916397 
	C158.991760,104.606606 160.530365,105.327110 162.430664,106.344658 
	C162.948334,107.350769 163.104279,108.059837 163.260223,108.768906 
z"/>
<path fill="#5E5E5E" opacity="1.000000" stroke="none" 
	d="
M96.317238,106.066467 
	C94.194672,106.655289 92.266335,107.096741 90.419746,107.519485 
	C90.715103,103.804497 90.715103,103.804497 96.317238,106.066467 
z"/>
<path fill="#626262" opacity="1.000000" stroke="none" 
	d="
M163.544510,108.622345 
	C163.104279,108.059837 162.948334,107.350769 162.744385,106.281067 
	C164.030289,105.412346 165.364182,104.904266 166.934067,104.652069 
	C167.203506,105.110176 167.236954,105.312401 167.370422,105.805374 
	C166.256561,106.889343 165.042679,107.682564 163.544510,108.622345 
z"/>
<path fill="#5B5B5B" opacity="1.000000" stroke="none" 
	d="
M107.711296,106.245171 
	C106.642288,106.059677 105.573280,105.874184 104.504272,105.688690 
	C104.499756,105.311218 104.495239,104.933746 104.490723,104.556282 
	C105.792389,104.683632 107.094048,104.810982 108.310760,105.401062 
	C108.054306,105.990921 107.882797,106.118042 107.711296,106.245171 
z"/>
<path fill="#333333" opacity="1.000000" stroke="none" 
	d="
M191.598785,108.420555 
	C191.063919,106.893608 190.825531,105.036797 190.587128,103.179993 
	C191.104706,103.182999 191.622299,103.186005 192.139877,103.189011 
	C192.058334,104.822899 191.976791,106.456795 191.598785,108.420555 
z"/>
<path fill="#BDBDBD" opacity="1.000000" stroke="none" 
	d="
M79.878990,105.090446 
	C80.535042,105.329399 81.191101,105.568352 81.847153,105.807304 
	C81.631142,106.285469 81.415131,106.763626 80.763786,106.816238 
	C80.178635,105.957275 80.028816,105.523857 79.878990,105.090446 
z"/>
<path fill="#B5B5B5" opacity="1.000000" stroke="none" 
	d="
M77.020988,108.750519 
	C76.464493,109.003998 75.907997,109.257477 75.351501,109.510956 
	C75.536629,109.004753 75.721756,108.498543 76.422218,108.111832 
	C76.965363,108.404396 76.993179,108.577461 77.020988,108.750519 
z"/>
<path fill="#EAEAEA" opacity="1.000000" stroke="none" 
	d="
M79.117592,107.942902 
	C79.117592,107.942902 78.624161,107.992416 78.357178,107.667862 
	C78.026054,106.898743 77.961914,106.454178 77.932487,105.766190 
	C77.967201,105.522766 77.925758,105.032730 77.925758,105.032730 
	C78.126091,105.024933 78.326416,105.017136 78.772087,105.392136 
	C79.050827,106.497581 79.084206,107.220245 79.117592,107.942902 
z"/>
<path fill="#2A2A2A" opacity="1.000000" stroke="none" 
	d="
M79.414886,107.913223 
	C79.084206,107.220245 79.050827,106.497581 79.071831,105.416351 
	C79.126221,105.057777 79.505157,105.015465 79.692078,105.052956 
	C80.028816,105.523857 80.178635,105.957275 80.428375,106.720230 
	C80.256256,107.327698 79.984215,107.605621 79.414886,107.913223 
z"/>
<path fill="#4D4D4D" opacity="1.000000" stroke="none" 
	d="
M77.897774,106.009621 
	C77.961914,106.454178 78.026054,106.898743 78.109589,107.681396 
	C77.927353,108.252518 77.708977,108.468620 77.247421,108.709167 
	C76.993179,108.577461 76.965363,108.404396 76.726227,108.074417 
	C76.555008,107.454231 76.595108,106.990959 76.913925,106.234650 
	C77.427689,105.964279 77.662735,105.986954 77.897774,106.009621 
z"/>
<path fill="#5B5B5B" opacity="1.000000" stroke="none" 
	d="
M109.110817,107.899780 
	C108.810387,108.250145 108.528618,108.255989 107.843231,108.135147 
	C107.516182,107.619095 107.592758,107.229713 107.690323,106.542755 
	C107.882797,106.118042 108.054306,105.990921 108.507538,105.708221 
	C108.902672,106.220169 109.016075,106.887711 109.110817,107.899780 
z"/>
<path fill="#595959" opacity="1.000000" stroke="none" 
	d="
M76.506111,105.837158 
	C76.055923,105.420891 75.605736,105.004623 75.155556,104.588364 
	C75.705269,104.498299 76.254990,104.408234 76.786179,104.821884 
	C76.680466,105.496124 76.593285,105.666641 76.506111,105.837158 
z"/>
<path fill="#C1C1C1" opacity="1.000000" stroke="none" 
	d="
M178.005615,105.008179 
	C178.113770,104.997513 178.213074,104.975891 178.143707,104.966125 
	C177.975037,104.977982 177.996750,104.997223 178.005615,105.008179 
z"/>
<path fill="#595959" opacity="1.000000" stroke="none" 
	d="
M77.932487,105.766190 
	C77.662735,105.986954 77.427689,105.964279 76.840027,105.894165 
	C76.487411,105.846725 76.556763,105.822327 76.531433,105.829742 
	C76.593285,105.666641 76.680466,105.496124 76.945755,105.100204 
	C77.123856,104.874817 77.530121,104.926804 77.727936,104.979767 
	C77.925758,105.032730 77.967201,105.522766 77.932487,105.766190 
z"/>
<path fill="#DDDDDD" opacity="1.000000" stroke="none" 
	d="
M110.249382,109.980774 
	C110.015205,109.863510 110.018150,109.676834 110.024994,109.209503 
	C110.271439,109.118904 110.524719,109.298203 110.741180,109.514381 
	C110.764839,109.538002 110.576508,109.773911 110.249382,109.980774 
z"/>
<path fill="#FAFAFA" opacity="1.000000" stroke="none" 
	d="
M184.315125,85.461128 
	C183.304077,81.654152 184.919907,79.870750 188.101074,78.953033 
	C189.883179,78.438911 191.577835,77.621765 193.311905,76.941154 
	C193.761612,77.194885 194.211334,77.448608 194.661041,77.702339 
	C193.611298,80.160606 193.137024,83.267967 191.329010,84.870972 
	C189.892670,86.144417 186.824707,85.577545 184.315125,85.461128 
z"/>
<path fill="#689549" opacity="1.000000" stroke="none" 
	d="
M49.396824,79.191696 
	C48.818996,78.425537 48.565605,77.772591 48.006977,76.919846 
	C48.242554,74.559853 48.783371,72.399643 49.722141,70.211983 
	C50.732986,72.779419 51.429081,75.360970 51.850277,77.986618 
	C51.901199,78.304031 50.467098,78.859680 49.396824,79.191696 
z"/>
<path fill="#5288C0" opacity="1.000000" stroke="none" 
	d="
M36.633087,75.098633 
	C36.361557,74.828964 36.249672,74.426910 36.194584,74.017220 
	C36.184952,73.945602 36.414185,73.841866 36.533100,73.752968 
	C36.626072,74.156525 36.719048,74.560089 36.633087,75.098633 
z"/>
<path fill="#83B34B" opacity="1.000000" stroke="none" 
	d="
M108.546036,61.960396 
	C108.934227,71.750130 108.934227,81.471916 108.934227,91.977043 
	C106.672401,91.977043 104.768814,91.977043 102.415421,91.949272 
	C101.974541,83.469658 101.977921,75.017815 101.994225,66.565979 
	C102.005989,60.464951 102.307205,60.242447 108.546036,61.960396 
z"/>
</svg>