<svg version="1.1" id="Layer_1" xmlns="http://www.w3.org/2000/svg" xmlns:xlink="http://www.w3.org/1999/xlink" x="0px" y="0px"
	 width="100%" viewBox="0 0 236 137" enable-background="new 0 0 236 137" xml:space="preserve">
<path fill="#FEFEFE" opacity="1.000000" stroke="none" 
	d="
M131.000000,138.000000 
	C87.362282,138.000000 44.224564,138.000000 1.043422,138.000000 
	C1.043422,92.392944 1.043422,46.785831 1.043422,1.089359 
	C79.554253,1.089359 158.108643,1.089359 236.831512,1.089359 
	C236.831512,46.666183 236.831512,92.333023 236.831512,138.000000 
	C201.786133,138.000000 166.643066,138.000000 131.000000,138.000000 
M143.568787,106.916275 
	C141.607941,105.290817 139.647095,103.665367 137.226883,101.659119 
	C136.740051,105.807396 136.303162,109.530090 135.866287,113.252785 
	C136.288681,113.398743 136.711060,113.544701 137.133453,113.690659 
	C137.836487,112.073952 138.539520,110.457245 139.304581,108.697899 
	C140.342209,109.691124 141.261902,110.571472 141.698639,110.989525 
	C143.335449,110.261055 144.642792,109.679222 145.821976,109.832222 
	C146.228516,111.058205 146.635071,112.284180 147.041611,113.510162 
	C147.517532,113.326706 147.993439,113.143242 148.469360,112.959785 
	C147.901489,109.300613 147.333633,105.641434 146.765762,101.982254 
	C146.314896,101.926651 145.864029,101.871048 145.413147,101.815445 
	C144.928192,103.189163 144.443237,104.562874 143.568787,106.916275 
M189.757065,113.134583 
	C190.841995,113.105858 191.926910,113.077133 193.536057,113.555000 
	C195.866592,114.508278 197.652435,113.984680 197.792389,111.294121 
	C198.008240,107.144424 200.789719,107.541985 203.334076,107.307915 
	C205.206619,111.284393 197.266739,108.981956 200.268402,112.528763 
	C201.530548,114.020111 205.103821,113.555511 207.945221,114.033730 
	C207.945221,111.755936 208.608490,109.551315 207.800858,108.613655 
	C206.326324,106.901726 204.109924,105.219154 201.968155,104.835655 
	C198.820358,104.272026 195.466415,104.859642 192.099213,104.212967 
	C191.376083,103.370903 190.652954,102.528847 189.929825,101.686783 
	C189.634766,101.861229 189.339706,102.035675 189.044632,102.210121 
	C189.195999,103.188934 189.347351,104.167755 189.375168,104.347672 
	C186.664871,105.873772 184.224670,107.247795 180.871002,109.136169 
	C183.075668,110.895485 184.569366,112.087448 186.355850,113.802002 
	C187.217896,113.631737 188.079926,113.461472 189.757065,113.134583 
M84.038712,128.667831 
	C94.343430,116.579170 96.235596,87.642128 87.719391,74.664764 
	C85.981178,72.016006 83.972130,72.231316 81.748299,73.301804 
	C69.419540,79.236450 59.376812,87.689697 53.478867,100.280220 
	C52.269081,102.862793 51.652451,106.216034 52.145088,108.966370 
	C52.650002,111.785263 54.288528,115.189995 56.526802,116.605927 
	C57.815720,117.421288 61.713787,115.309883 63.663513,113.621964 
	C67.212975,110.549118 70.186081,106.810547 73.889725,102.822006 
	C73.889725,110.534286 73.447311,117.483345 74.017471,124.348297 
	C74.558762,130.865601 77.730965,132.175598 84.038712,128.667831 
M46.344074,44.861656 
	C46.611282,47.720097 46.339447,50.772999 47.282665,53.387566 
	C48.451687,56.628063 47.818054,58.207371 44.803112,59.686932 
	C41.093716,61.507290 37.340858,63.470745 34.145565,66.041916 
	C30.947409,68.615387 29.149578,72.121513 30.698322,76.666138 
	C32.312550,81.402901 35.323265,84.440033 40.258877,84.959076 
	C43.012157,85.248627 45.941044,84.977821 48.652306,84.355843 
	C57.916378,82.230606 65.753487,77.282402 73.298637,71.672775 
	C77.380135,68.638283 77.936592,65.122925 76.282188,60.759514 
	C73.344025,53.010250 68.091194,47.199333 60.972950,43.165348 
	C55.397987,40.005962 51.274357,40.504993 46.344074,44.861656 
M95.067169,53.541573 
	C98.265678,42.739120 101.764801,32.012501 104.518112,21.097746 
	C105.655502,16.588865 105.441704,11.607875 101.257126,7.729509 
	C93.461563,12.547861 91.816727,21.423283 86.819771,27.679886 
	C85.255661,24.521034 84.125084,21.312460 82.199593,18.686834 
	C80.993034,17.041553 78.402710,15.150503 76.777725,15.423101 
	C75.114655,15.702089 73.128967,18.287394 72.610863,20.218941 
	C71.726875,23.514595 70.968025,27.319820 71.775818,30.499655 
	C73.803528,38.481628 76.340546,46.398006 79.495514,53.999435 
	C80.815849,57.180576 83.842857,61.168476 86.759987,61.823574 
	C91.360413,62.856678 92.685555,57.518066 95.067169,53.541573 
M110.513153,53.974880 
	C105.959145,56.382759 101.341217,58.678738 96.870697,61.232738 
	C93.064270,63.407352 90.729027,66.766464 92.228226,71.207504 
	C94.823318,78.894867 98.978035,85.715942 105.832748,90.390694 
	C111.404259,94.190315 117.971596,93.258141 122.587288,88.424133 
	C125.081604,85.811844 125.786545,82.914612 123.475304,79.918182 
	C121.699074,77.615372 119.590576,75.568840 117.271309,73.013283 
	C118.867683,71.908401 120.278709,71.099869 121.491623,70.060211 
	C124.877144,67.158264 128.549911,64.466393 131.360870,61.071842 
	C132.768738,59.371662 133.739578,55.536572 132.774994,54.070248 
	C131.409439,51.994396 127.974106,49.960510 125.597649,50.145611 
	C120.739540,50.524014 115.997574,52.393398 110.513153,53.974880 
M157.036911,110.323898 
	C156.499039,104.997124 155.749893,104.444687 151.891571,105.845520 
	C151.735519,107.181671 151.284714,108.334389 151.568222,109.262863 
	C151.970612,110.580544 152.913635,111.733131 153.625626,112.956268 
	C154.586624,111.983994 157.913010,115.555763 157.036911,110.323898 
z"/>
<path fill="#B1D342" opacity="1.000000" stroke="none" 
	d="
M83.744896,128.895935 
	C77.730965,132.175598 74.558762,130.865601 74.017471,124.348297 
	C73.447311,117.483345 73.889725,110.534286 73.889725,102.822006 
	C70.186081,106.810547 67.212975,110.549118 63.663513,113.621964 
	C61.713787,115.309883 57.815720,117.421288 56.526802,116.605927 
	C54.288528,115.189995 52.650002,111.785263 52.145088,108.966370 
	C51.652451,106.216034 52.269081,102.862793 53.478867,100.280220 
	C59.376812,87.689697 69.419540,79.236450 81.748299,73.301804 
	C83.972130,72.231316 85.981178,72.016006 87.719391,74.664764 
	C96.235596,87.642128 94.343430,116.579170 83.744896,128.895935 
z"/>
<path fill="#F89A2F" opacity="1.000000" stroke="none" 
	d="
M46.572117,44.563820 
	C51.274357,40.504993 55.397987,40.005962 60.972950,43.165348 
	C68.091194,47.199333 73.344025,53.010250 76.282188,60.759514 
	C77.936592,65.122925 77.380135,68.638283 73.298637,71.672775 
	C65.753487,77.282402 57.916378,82.230606 48.652306,84.355843 
	C45.941044,84.977821 43.012157,85.248627 40.258877,84.959076 
	C35.323265,84.440033 32.312550,81.402901 30.698322,76.666138 
	C29.149578,72.121513 30.947409,68.615387 34.145565,66.041916 
	C37.340858,63.470745 41.093716,61.507290 44.803112,59.686932 
	C47.818054,58.207371 48.451687,56.628063 47.282665,53.387566 
	C46.339447,50.772999 46.611282,47.720097 46.572117,44.563820 
z"/>
<path fill="#04B7E3" opacity="1.000000" stroke="none" 
	d="
M94.901756,53.875992 
	C92.685555,57.518066 91.360413,62.856678 86.759987,61.823574 
	C83.842857,61.168476 80.815849,57.180576 79.495514,53.999435 
	C76.340546,46.398006 73.803528,38.481628 71.775818,30.499655 
	C70.968025,27.319820 71.726875,23.514595 72.610863,20.218941 
	C73.128967,18.287394 75.114655,15.702089 76.777725,15.423101 
	C78.402710,15.150503 80.993034,17.041553 82.199593,18.686834 
	C84.125084,21.312460 85.255661,24.521034 86.819771,27.679886 
	C91.816727,21.423283 93.461563,12.547861 101.257126,7.729509 
	C105.441704,11.607875 105.655502,16.588865 104.518112,21.097746 
	C101.764801,32.012501 98.265678,42.739120 94.901756,53.875992 
z"/>
<path fill="#FFD352" opacity="1.000000" stroke="none" 
	d="
M110.860458,53.811806 
	C115.997574,52.393398 120.739540,50.524014 125.597649,50.145611 
	C127.974106,49.960510 131.409439,51.994396 132.774994,54.070248 
	C133.739578,55.536572 132.768738,59.371662 131.360870,61.071842 
	C128.549911,64.466393 124.877144,67.158264 121.491623,70.060211 
	C120.278709,71.099869 118.867683,71.908401 117.271309,73.013283 
	C119.590576,75.568840 121.699074,77.615372 123.475304,79.918182 
	C125.786545,82.914612 125.081604,85.811844 122.587288,88.424133 
	C117.971596,93.258141 111.404259,94.190315 105.832748,90.390694 
	C98.978035,85.715942 94.823318,78.894867 92.228226,71.207504 
	C90.729027,66.766464 93.064270,63.407352 96.870697,61.232738 
	C101.341217,58.678738 105.959145,56.382759 110.860458,53.811806 
z"/>
<path fill="#D3D3D3" opacity="1.000000" stroke="none" 
	d="
M192.200302,104.956810 
	C195.466415,104.859642 198.820358,104.272026 201.968155,104.835655 
	C204.109924,105.219154 206.326324,106.901726 207.800858,108.613655 
	C208.608490,109.551315 207.945221,111.755936 207.945221,114.033730 
	C205.103821,113.555511 201.530548,114.020111 200.268402,112.528763 
	C197.266739,108.981956 205.206619,111.284393 203.334076,107.307915 
	C200.789719,107.541985 198.008240,107.144424 197.792389,111.294121 
	C197.652435,113.984680 195.866592,114.508278 193.177795,112.902481 
	C192.613113,109.818909 192.406708,107.387863 192.200302,104.956810 
z"/>
<path fill="#171717" opacity="1.000000" stroke="none" 
	d="
M192.149750,104.584885 
	C192.406708,107.387863 192.613113,109.818909 192.915680,112.649185 
	C191.926910,113.077133 190.841995,113.105858 189.223206,112.910889 
	C187.813934,112.884598 186.938492,113.082008 186.063065,113.279419 
	C184.569366,112.087448 183.075668,110.895485 180.871002,109.136169 
	C184.224670,107.247795 186.664871,105.873772 189.375168,104.347672 
	C189.347351,104.167755 189.195999,103.188934 189.044632,102.210121 
	C189.339706,102.035675 189.634766,101.861229 189.929825,101.686783 
	C190.652954,102.528847 191.376083,103.370903 192.149750,104.584885 
z"/>
<path fill="#353535" opacity="1.000000" stroke="none" 
	d="
M145.950119,109.097382 
	C144.642792,109.679222 143.335449,110.261055 141.698639,110.989525 
	C141.261902,110.571472 140.342209,109.691124 139.304581,108.697899 
	C138.539520,110.457245 137.836487,112.073952 137.133453,113.690659 
	C136.711060,113.544701 136.288681,113.398743 135.866287,113.252785 
	C136.303162,109.530090 136.740051,105.807396 137.226883,101.659119 
	C139.647095,103.665367 141.607941,105.290817 143.983124,106.688866 
	C144.915024,107.340096 145.432571,108.218735 145.950119,109.097382 
z"/>
<path fill="#383838" opacity="1.000000" stroke="none" 
	d="
M157.062759,110.738762 
	C157.913010,115.555763 154.586624,111.983994 153.625626,112.956268 
	C152.913635,111.733131 151.970612,110.580544 151.568222,109.262863 
	C151.284714,108.334389 151.735519,107.181671 151.891571,105.845520 
	C155.749893,104.444687 156.499039,104.997124 157.062759,110.738762 
z"/>
<path fill="#181818" opacity="1.000000" stroke="none" 
	d="
M145.886047,109.464798 
	C145.432571,108.218735 144.915024,107.340096 144.177872,106.199020 
	C144.443237,104.562874 144.928192,103.189163 145.413147,101.815445 
	C145.864029,101.871048 146.314896,101.926651 146.765762,101.982254 
	C147.333633,105.641434 147.901489,109.300613 148.469360,112.959785 
	C147.993439,113.143242 147.517532,113.326706 147.041611,113.510162 
	C146.635071,112.284180 146.228516,111.058205 145.886047,109.464798 
z"/>
<path fill="#D3D3D3" opacity="1.000000" stroke="none" 
	d="
M186.209457,113.540710 
	C186.938492,113.082008 187.813934,112.884598 188.815674,112.989197 
	C188.079926,113.461472 187.217896,113.631737 186.209457,113.540710 
z"/>
</svg>