<svg version="1.1" id="Layer_1" xmlns="http://www.w3.org/2000/svg" xmlns:xlink="http://www.w3.org/1999/xlink" x="0px" y="0px"
	 width="100%" viewBox="0 0 224 128" enable-background="new 0 0 224 128" xml:space="preserve">
<path fill="#000000" opacity="1.000000" stroke="none" 
	d="
M117.666672,1.000000 
	C123.507278,5.890214 129.875900,9.577491 135.905594,13.732153 
	C138.343903,15.412237 139.332260,17.364603 139.364166,20.369530 
	C139.466385,30.004044 144.621643,33.506050 153.300400,29.584393 
	C159.847488,26.625969 162.563995,32.444572 166.627548,34.848633 
	C170.161407,36.939316 167.291794,40.002422 166.241241,42.335365 
	C163.278000,48.915718 164.147552,55.805481 164.561356,62.541561 
	C165.001160,69.701134 165.054260,76.855049 165.307541,84.010719 
	C166.143280,107.621956 153.002274,118.929390 135.115005,125.145851 
	C132.463806,126.067238 129.565186,126.389961 127.197113,128.716599 
	C120.645599,129.000000 114.291206,129.000000 107.468399,129.000000 
	C105.016785,126.399086 101.910797,126.037964 99.117012,125.075134 
	C85.377419,120.340088 74.621445,112.461357 70.318207,97.782913 
	C68.073105,90.124832 68.474686,82.289833 69.157593,74.511261 
	C69.901840,66.034203 69.527473,57.561584 69.661858,49.087490 
	C69.716797,45.623596 68.232925,42.613453 66.717400,39.662743 
	C65.616158,37.518639 65.910469,35.965080 67.792572,34.471596 
	C72.612915,30.646574 76.919601,26.619989 84.071793,30.565924 
	C88.996773,33.283081 94.817406,28.878429 94.642235,22.535301 
	C94.493454,17.147146 96.906746,14.476230 100.994644,11.917947 
	C106.052605,8.752579 110.762413,5.030890 115.811325,1.274777 
	C116.444443,1.000000 116.888893,1.000000 117.666672,1.000000 
M145.172607,39.347607 
	C148.380310,41.314285 152.561142,41.100922 155.913269,44.033146 
	C151.695419,47.372341 154.442047,51.674950 154.314621,55.243923 
	C151.358932,57.290867 148.790176,54.492218 145.760986,55.727863 
	C150.687012,59.293842 149.199997,64.570473 149.585236,69.140755 
	C150.150452,75.845894 152.383347,82.498314 150.690384,89.341148 
	C148.812531,96.931328 145.388458,103.657120 139.801849,109.205734 
	C137.272400,111.717987 135.753265,114.458336 137.957306,118.518105 
	C149.247208,114.776093 156.656265,107.392525 159.656433,95.941422 
	C161.968246,87.117722 160.480774,78.082535 160.322525,69.130028 
	C160.173203,60.681911 158.704483,52.202229 160.890366,43.799870 
	C161.527863,41.349377 163.309341,38.955452 160.790039,36.404644 
	C158.103470,33.684483 155.307526,34.200191 152.072418,35.166283 
	C142.992538,37.877773 136.566589,34.370029 135.363342,25.043608 
	C134.621521,19.293726 131.808014,16.104870 127.375298,13.414775 
	C124.816856,11.862129 122.368927,10.126819 119.878395,8.463035 
	C118.407738,7.480567 116.916862,6.923743 115.267502,8.073020 
	C110.492569,11.400226 105.608696,14.583591 100.977356,18.099712 
	C98.155182,20.242311 99.420090,23.395163 100.254913,25.973995 
	C101.227882,28.979565 103.831528,27.677504 105.794060,27.167032 
	C111.677979,25.636574 117.625648,25.402050 123.636375,25.916183 
	C126.699631,26.178200 130.292313,26.776646 131.644943,29.326302 
	C134.528229,34.761211 139.967133,36.149483 145.172607,39.347607 
M74.282845,56.515205 
	C74.019867,61.991459 73.692047,67.465530 73.507576,72.944427 
	C73.138451,83.907036 72.204422,94.992577 78.489861,104.899963 
	C82.887512,111.831711 89.024673,116.349014 96.897079,118.635094 
	C98.940125,114.098854 96.921761,111.685097 94.489494,109.136414 
	C87.763695,102.088699 83.066711,93.829811 82.955833,83.932442 
	C82.882225,77.361221 84.330467,70.783661 84.878395,64.190720 
	C85.203705,60.276485 85.948799,56.846367 90.803268,55.779804 
	C90.001976,55.347412 89.746422,55.109169 89.464920,55.073044 
	C86.472908,54.689056 83.356796,57.099556 80.689217,55.602764 
	C77.329536,53.717632 80.769806,49.952030 79.399963,47.333794 
	C77.509384,43.720234 79.156044,42.192673 82.519882,41.318668 
	C84.104393,40.906975 86.086555,40.364582 86.200020,38.430878 
	C86.347549,35.916557 83.792282,36.157036 82.262955,35.412788 
	C81.670448,35.124443 81.013214,34.956352 80.372177,34.782475 
	C75.250580,33.393284 71.509125,36.709129 73.023392,41.714661 
	C74.411140,46.301987 74.332481,50.882786 74.282845,56.515205 
M102.615608,98.955528 
	C104.189255,100.322632 105.877510,101.530128 107.939980,100.038589 
	C110.214584,98.393639 111.921860,95.871010 111.398819,93.267578 
	C110.703629,89.807281 110.647179,86.367744 110.390610,82.915718 
	C110.045815,78.276619 108.747543,74.545677 104.201035,71.979958 
	C101.465225,70.436066 99.636948,67.278694 97.413223,64.835144 
	C96.444145,63.770264 95.793167,62.216702 93.911484,62.611572 
	C91.007889,70.805565 92.724129,90.099182 102.615608,98.955528 
z"/>
</svg>