<svg version="1.1" id="Layer_1" xmlns="http://www.w3.org/2000/svg" xmlns:xlink="http://www.w3.org/1999/xlink" x="0px" y="0px"
	 width="100%" viewBox="0 0 236 137" enable-background="new 0 0 236 137" xml:space="preserve">
<path fill="#FEFEFE" opacity="1.000000" stroke="none" 
	d="
M135.000000,138.000000 
	C90.029839,138.000000 45.559685,138.000000 1.044763,138.000000 
	C1.044763,92.393837 1.044763,46.787621 1.044763,1.090700 
	C79.553352,1.090700 158.106842,1.090700 236.830170,1.090700 
	C236.830170,46.666172 236.830170,92.333015 236.830170,138.000000 
	C203.121246,138.000000 169.310623,138.000000 135.000000,138.000000 
M162.601288,96.945389 
	C162.914917,96.630898 163.228546,96.316406 163.542175,96.001915 
	C163.330139,95.820976 163.118103,95.640030 162.906067,95.459091 
	C162.591507,95.963531 162.276962,96.467979 161.643204,97.174294 
	C161.760788,97.450554 161.878357,97.726807 161.685501,98.487373 
	C161.229874,98.899628 160.774231,99.311890 159.890717,100.111290 
	C161.817978,100.289597 163.221359,100.419434 164.624741,100.549271 
	C164.777344,100.154572 164.929947,99.759872 165.082550,99.365181 
	C164.056458,98.908691 163.030365,98.452209 162.012619,97.516487 
	C162.012619,97.516487 162.038071,97.037743 162.601288,96.945389 
M62.486294,43.007488 
	C62.486294,43.007488 62.936131,43.103092 62.989822,43.024212 
	C62.989822,43.024212 62.903046,43.063892 63.103100,43.605160 
	C63.432552,44.069420 63.762009,44.533684 64.071121,45.580078 
	C64.376060,46.068455 64.681000,46.556831 65.058792,47.754475 
	C65.092033,47.989811 65.125267,48.225143 65.344238,49.149014 
	C65.621109,50.770245 65.897972,52.391476 65.893776,54.527519 
	C66.089249,55.279015 66.284721,56.030510 65.556770,56.971424 
	C65.247696,57.028027 64.938629,57.084629 64.029419,57.391602 
	C60.591000,60.500835 56.779453,62.067310 51.676678,59.898201 
	C50.097477,58.919506 48.518272,57.940815 46.686390,56.199459 
	C45.457447,55.175175 44.228500,54.150890 43.024662,53.147533 
	C43.243362,51.648991 49.384197,52.785339 45.335075,48.403252 
	C45.862617,48.068752 46.390156,47.734253 47.558731,47.066853 
	C47.501705,46.207920 47.444679,45.348988 47.980190,43.927811 
	C48.147583,43.713062 48.314972,43.498318 49.145519,43.522854 
	C49.899525,43.017853 50.653530,42.512848 52.120625,41.975666 
	C52.594524,41.925301 53.068424,41.874935 54.298710,41.981438 
	C54.637215,39.439838 54.975719,36.898239 55.343960,34.133373 
	C43.392479,36.015923 36.612274,45.149349 39.079334,55.344898 
	C39.488888,57.037460 41.312469,58.387871 42.270611,60.591782 
	C42.865875,61.689045 43.461140,62.786308 43.756657,64.395561 
	C43.551498,67.854546 46.945072,66.194473 48.359409,67.565720 
	C50.459141,69.601486 52.213875,68.568771 53.528633,65.784546 
	C53.687820,65.846687 53.847012,65.908836 54.021236,66.776978 
	C54.875954,67.840332 55.730671,68.903679 56.585388,69.967033 
	C57.399960,69.022232 58.214527,68.077423 59.524643,67.098885 
	C59.524643,67.098885 59.996689,67.253403 60.036564,67.698898 
	C60.183529,67.933174 60.330494,68.167450 60.477459,68.401726 
	C60.652969,68.034309 60.828480,67.666901 61.657448,67.118004 
	C62.437302,66.693901 63.217155,66.269791 64.571663,65.853912 
	C65.015839,65.496796 65.460007,65.139679 66.296432,65.346352 
	C67.130608,64.352150 67.964783,63.357956 69.108513,61.981071 
	C69.373741,61.402416 69.638969,60.823761 69.976463,59.559380 
	C69.995674,59.330418 70.014885,59.101452 70.792137,58.982334 
	C74.873550,56.402130 74.207504,52.789639 72.997261,48.276836 
	C72.359947,46.461765 71.722633,44.646694 70.943886,42.246704 
	C70.314102,41.492599 69.684319,40.738495 68.799431,39.400505 
	C66.961838,38.271511 65.124252,37.142517 62.518837,36.003544 
	C61.756077,36.001133 60.993320,35.998726 60.020260,35.268131 
	C59.203979,34.990479 57.983963,34.228600 57.638992,34.516228 
	C55.825191,36.028507 57.402691,41.561211 60.138969,43.230030 
	C60.771069,43.125893 61.403172,43.021755 62.486294,43.007488 
M33.730461,76.699516 
	C33.704479,77.097961 33.678493,77.496399 32.977818,77.939629 
	C32.094120,78.218903 31.210423,78.498184 30.326725,78.777458 
	C30.402149,79.052689 30.477575,79.327927 30.552999,79.603165 
	C31.724703,79.383186 32.896404,79.163208 34.522484,79.003723 
	C34.522484,79.003723 34.974617,78.926849 35.507809,79.526535 
	C37.293610,79.676529 39.116764,80.105278 40.851318,79.872856 
	C41.906059,79.731529 43.133579,78.742363 43.665318,77.789200 
	C43.909863,77.350830 42.758873,75.429443 42.084015,75.338097 
	C40.897209,75.177460 39.550941,75.808624 38.344711,76.291283 
	C37.235374,76.735176 36.222492,77.420120 35.049999,77.299774 
	C34.748547,76.249359 34.447098,75.198944 33.467747,74.047531 
	C32.601154,74.047531 31.734562,74.047531 30.867970,74.047531 
	C30.825981,74.273598 30.783993,74.499664 30.742004,74.725731 
	C31.702267,75.186623 32.662529,75.647514 33.730461,76.699516 
M151.999710,78.541092 
	C152.136398,78.802063 152.273087,79.063026 152.409790,79.323990 
	C152.293961,78.869423 152.178131,78.414848 151.783401,77.451561 
	C151.123184,77.257507 150.469284,77.008766 149.795654,76.931099 
	C149.699738,76.920036 149.508133,77.738777 149.360825,78.173462 
	C150.215698,78.140602 151.070557,78.107750 151.999710,78.541092 
M79.381477,79.518387 
	C79.968925,79.238815 80.556381,78.959244 81.468018,78.038948 
	C81.198318,75.416451 80.928627,72.793945 81.232040,69.408478 
	C81.023087,68.518036 80.814125,67.627594 81.205330,66.397987 
	C81.206779,60.572781 81.208229,54.747578 81.380440,48.314949 
	C81.322090,47.902351 81.263741,47.489750 81.456490,46.305939 
	C81.456490,42.388451 81.456490,38.470959 81.456490,34.383064 
	C79.092590,34.177010 76.588669,33.062443 77.116249,37.658817 
	C77.168335,38.107204 77.220421,38.555592 77.125526,39.661770 
	C77.173988,40.105778 77.222450,40.549782 77.113464,41.659927 
	C77.165672,42.110176 77.217888,42.560421 77.116982,43.797798 
	C77.165802,44.861965 77.214622,45.926128 77.137314,47.501282 
	C77.180420,47.671349 77.223526,47.841412 77.123100,48.666527 
	C77.172668,49.108120 77.222229,49.549713 77.108871,50.737381 
	C77.162842,51.494884 77.216820,52.252388 77.123230,53.665173 
	C77.172279,54.107517 77.221329,54.549866 77.107582,55.737732 
	C77.162621,56.494591 77.217659,57.251446 77.119598,58.748135 
	C77.171555,59.497944 77.223518,60.247753 77.111786,61.844841 
	C77.164978,63.565636 77.218163,65.286430 77.123215,67.663170 
	C77.171997,68.106079 77.220787,68.548981 77.107506,69.736839 
	C77.162201,70.492928 77.216896,71.249008 77.119232,72.745224 
	C77.169792,73.495453 77.220360,74.245689 77.107834,75.761627 
	C77.747993,76.861259 78.388145,77.960892 79.381477,79.518387 
M113.024513,58.126972 
	C112.493851,58.832855 111.963188,59.538738 111.432526,60.244625 
	C111.839508,60.461487 112.510750,60.950680 112.611992,60.852448 
	C113.478714,60.011421 114.242218,59.064007 115.169205,57.580490 
	C115.491402,57.102390 115.813606,56.624294 116.737801,55.852116 
	C118.301941,54.192150 119.866089,52.532188 121.450455,50.850765 
	C130.076874,61.099953 130.076874,61.099953 134.939545,60.300152 
	C131.655914,55.748272 128.243835,51.018337 124.876717,46.350731 
	C127.885025,42.489258 130.434067,39.217312 133.696609,35.964714 
	C137.558136,40.644382 141.419678,45.324051 145.285583,50.918274 
	C145.285583,54.113354 145.285583,57.308430 145.285583,60.842766 
	C147.476349,60.696121 148.863953,60.603237 150.687973,60.481144 
	C150.521164,58.388485 150.381760,56.639675 150.402618,54.141964 
	C150.348175,53.126869 150.293732,52.111774 150.521469,50.471901 
	C153.277100,45.412266 156.032715,40.352631 158.788345,35.292995 
	C158.269897,34.994053 157.751450,34.695110 157.233002,34.396168 
	C154.836060,38.326786 152.439102,42.257404 149.315201,46.290241 
	C147.922852,44.505299 146.248077,42.871864 145.193405,40.905785 
	C142.498108,35.881298 138.559799,33.894871 132.302673,34.965096 
	C129.378250,37.872272 126.453827,40.779449 123.459534,43.756081 
	C120.151039,39.221706 118.050255,33.157970 110.955406,35.181652 
	C113.323029,38.426052 115.505600,41.888969 118.157219,44.944897 
	C122.654007,50.127323 115.818344,51.806263 114.700462,55.751678 
	C114.353806,56.519863 114.007141,57.288048 113.024513,58.126972 
M176.951614,35.419384 
	C176.096481,35.419384 175.241364,35.419384 174.386230,35.419384 
	C174.440079,35.810261 174.493942,36.201141 174.547806,36.592018 
	C175.351166,36.414555 176.154541,36.237091 177.047287,36.710251 
	C178.024506,37.801434 179.001724,38.892616 179.708481,40.105488 
	C179.811417,40.077740 179.914337,40.049992 180.623856,39.934174 
	C182.585190,35.766140 179.322144,36.304466 176.951614,35.419384 
M154.987457,68.837296 
	C154.733704,68.865456 154.479950,68.893608 153.488358,68.786682 
	C149.703262,70.857567 149.606689,72.227577 152.847809,74.504417 
	C154.179474,75.439888 155.188751,76.834236 156.984558,78.676147 
	C160.048218,77.778305 160.222153,77.131844 157.914520,73.038948 
	C159.378830,71.107094 159.734680,69.520493 156.460419,68.869751 
	C156.228943,68.635254 155.990158,68.584808 154.987457,68.837296 
M114.966232,68.846794 
	C114.729622,68.869240 114.493004,68.891685 113.583908,68.772835 
	C112.594116,69.250992 111.604317,69.729156 109.898415,70.087357 
	C102.147552,68.098114 102.147552,68.098114 99.848305,71.594826 
	C102.363655,71.803993 104.524391,71.983665 105.458717,72.061356 
	C107.126846,73.469727 108.045868,74.245636 108.596970,75.556602 
	C106.961250,76.847122 105.325523,78.137642 104.085686,79.115822 
	C106.755508,79.308853 109.588730,79.513695 113.018204,79.408836 
	C116.176308,79.490189 119.628120,79.977676 119.926590,74.882149 
	C120.191147,74.826233 120.455704,74.770325 120.965134,75.329002 
	C123.287498,79.376373 126.412430,80.734222 129.219940,78.644203 
	C132.011810,76.565834 132.560974,73.695992 130.674347,70.754471 
	C128.245438,66.967468 123.981506,67.781822 120.329475,72.111084 
	C119.123688,71.074905 117.917908,70.038734 116.504410,68.825768 
	C116.224152,68.538689 115.946632,68.511528 114.966232,68.846794 
M137.396225,68.916878 
	C136.136154,68.916878 134.876083,68.916878 134.044449,68.916878 
	C134.044449,71.782204 133.904816,74.208885 134.118820,76.603981 
	C134.195618,77.463501 135.125015,78.246834 135.665314,79.064934 
	C136.131821,78.186890 136.858276,77.351051 137.009171,76.421761 
	C137.297485,74.646111 137.258026,72.817245 138.067581,71.001945 
	C138.985901,70.413521 139.904221,69.825096 140.822540,69.236671 
	C139.947403,69.034035 139.072266,68.831398 137.396225,68.916878 
M102.893204,99.370041 
	C105.357071,99.865639 107.820938,100.361237 110.011261,100.801804 
	C110.011261,98.599533 110.011261,97.028000 110.011261,94.248627 
	C107.263222,95.584740 104.783928,96.790176 102.093765,97.329727 
	C101.996468,96.725281 101.899178,96.120834 101.801880,95.516380 
	C101.446098,95.626305 101.090317,95.736237 100.734528,95.846161 
	C101.258636,96.901794 101.782753,97.957420 102.893204,99.370041 
M86.800461,67.243645 
	C86.804993,69.046974 86.638367,70.871391 86.857368,72.648285 
	C87.131454,74.872055 87.722366,77.056778 88.176506,79.258362 
	C88.786263,77.176323 89.396019,75.094292 90.610199,73.088486 
	C91.414886,73.618973 92.219582,74.149467 93.012253,75.500450 
	C93.417404,78.948883 95.218826,81.003723 98.643669,79.412575 
	C100.697037,78.458603 104.959175,77.713043 101.874001,73.035866 
	C99.675743,76.730057 97.126060,77.931717 94.266304,74.360931 
	C94.343735,73.730385 94.300514,73.053734 94.520683,72.477737 
	C95.251526,70.565697 96.077126,68.689888 96.866386,66.800179 
	C94.562584,66.083359 92.258789,65.366539 89.235054,64.546288 
	C88.509155,64.569519 87.783264,64.592751 86.637886,64.340965 
	C86.267952,64.468643 85.898010,64.596329 85.528069,64.724007 
	C85.951935,65.269432 86.375793,65.814850 86.800461,67.243645 
M147.423065,69.931274 
	C147.745895,69.528481 148.068726,69.125679 148.391556,68.722885 
	C147.705078,68.554581 147.018616,68.386276 146.100830,67.604790 
	C145.988678,66.966492 145.876526,66.328201 145.764359,65.689903 
	C145.045334,66.169762 143.688843,66.676010 143.707458,67.125336 
	C143.865860,70.952415 144.245285,74.772469 144.681732,78.580505 
	C144.706985,78.800896 145.803345,78.898529 146.724197,79.136902 
	C146.724197,75.883278 146.724197,72.942062 147.423065,69.931274 
M17.954494,48.735847 
	C17.315399,47.903439 16.676304,47.071026 16.037209,46.238617 
	C16.037163,47.209347 16.037119,48.180080 15.264506,49.098045 
	C12.339152,49.172043 9.413799,49.246040 6.275133,49.325436 
	C10.438229,51.524239 13.726733,53.261108 17.135052,55.696911 
	C19.742676,60.907753 22.345642,66.123184 28.996386,67.432854 
	C28.305485,66.337906 27.614584,65.242950 27.320845,63.532200 
	C27.733698,63.275818 28.146549,63.019432 29.030462,63.130363 
	C30.430395,64.255440 31.830328,65.380516 32.907261,67.136536 
	C32.406487,67.892860 31.905714,68.649185 31.404940,69.405510 
	C31.770098,69.691711 32.135254,69.977905 32.500412,70.264107 
	C33.333134,69.244987 34.165852,68.225876 35.482960,67.161118 
	C35.791763,66.762337 36.437931,66.101059 36.361115,66.002327 
	C31.917446,60.291275 27.413853,54.626842 23.334160,48.306484 
	C24.257580,47.631466 25.224915,47.008247 26.095097,46.270439 
	C27.804348,44.821209 29.341139,43.139221 31.164974,41.861385 
	C33.879490,39.959507 36.780975,38.324486 40.435825,36.059792 
	C30.286331,31.833607 21.109356,36.124714 19.265804,43.793938 
	C20.725504,45.840118 21.858896,47.428883 22.131847,49.246624 
	C21.721876,50.571350 21.311905,51.896072 20.184324,52.421600 
	C19.405857,51.463123 18.627390,50.504650 17.954494,48.735847 
M176.812607,60.921638 
	C181.566071,60.749592 183.557495,58.460526 183.042938,53.588516 
	C182.827911,51.552582 183.704926,49.401318 184.111679,47.157509 
	C179.659348,47.123131 177.363113,49.092621 177.673859,54.087524 
	C177.774094,55.698685 176.661469,57.385303 175.202423,59.010197 
	C173.393524,59.034073 171.584625,59.057949 169.071213,59.035732 
	C164.027054,56.487953 163.961929,51.781910 163.904800,47.083324 
	C163.837448,41.542480 165.868423,37.286747 172.469376,35.241394 
	C164.630295,34.569302 160.796814,37.020790 158.937775,43.044319 
	C156.320312,51.525219 160.972748,59.086632 170.613419,61.672699 
	C172.417130,61.433311 174.220856,61.193924 176.812607,60.921638 
M97.301445,61.182785 
	C97.683830,61.365433 98.066216,61.548080 98.995949,61.778904 
	C99.311600,61.610817 99.627251,61.442734 100.676125,61.076523 
	C107.763206,58.950886 111.375366,53.833652 110.862198,46.646248 
	C110.355049,39.542931 106.400185,35.414757 98.211891,34.087326 
	C89.612671,34.721283 84.815933,39.826580 84.988884,48.160931 
	C85.147102,55.785583 89.791039,60.742867 97.000931,60.990143 
	C97.000931,60.990143 96.932961,60.955406 97.301445,61.182785 
M205.278168,57.227802 
	C201.666504,57.937599 198.054825,58.647400 193.954163,59.453304 
	C193.954163,55.135113 193.954163,51.919556 193.954163,48.446686 
	C197.269287,48.237282 200.368866,48.041489 203.468445,47.845699 
	C203.464157,47.407272 203.459854,46.968845 203.455551,46.530418 
	C200.313812,46.330334 197.172073,46.130249 193.962875,45.925869 
	C193.962875,42.770554 193.962875,40.042610 193.962875,35.913723 
	C198.441345,37.173264 202.255722,38.246029 206.667419,39.486794 
	C205.521851,38.096855 204.326080,35.268173 202.879120,35.133244 
	C197.173111,34.601158 191.388214,34.915043 184.990387,34.915043 
	C186.102463,35.915104 186.586151,36.350086 187.183090,37.275547 
	C187.413986,37.510254 187.644882,37.744961 188.094543,38.898148 
	C188.094543,46.126743 188.094543,53.355339 188.094543,60.816120 
	C193.388611,60.816120 197.740540,61.130802 202.000061,60.641399 
	C203.444763,60.475403 204.656189,58.279099 206.277725,56.677666 
	C206.364731,56.282589 206.451736,55.887512 206.538742,55.492439 
	C206.512238,55.487694 206.485733,55.482944 206.459229,55.478199 
	C206.317810,56.008701 206.176376,56.539204 205.278168,57.227802 
M213.133316,48.179089 
	C213.361618,46.886990 213.589920,45.594891 214.061096,42.928257 
	C219.953033,49.697796 224.877655,55.355930 230.295441,61.580681 
	C230.295441,52.287579 230.295441,44.113358 230.295441,35.939137 
	C229.853683,35.944450 229.411911,35.949760 228.970154,35.955074 
	C228.970154,41.065063 228.970154,46.175056 228.970154,52.135826 
	C225.233963,47.829956 222.148697,44.349449 219.149399,40.796352 
	C216.182037,37.281116 213.432541,33.415718 208.574707,35.043880 
	C213.673309,43.066700 209.081360,52.375565 211.557693,60.523975 
	C212.076324,60.517250 212.594955,60.510529 213.113586,60.503803 
	C213.113586,56.699089 213.113586,52.894379 213.133316,48.179089 
M49.303360,74.999771 
	C47.898537,75.237206 46.493717,75.474648 45.088894,75.712082 
	C53.327797,81.174698 61.954285,80.168236 70.896088,79.487816 
	C69.558716,75.237732 66.665733,75.323860 63.341797,75.256187 
	C58.930054,75.166382 54.444294,77.542412 49.303360,74.999771 
M88.335777,97.485451 
	C87.746071,96.660248 87.258171,95.246033 86.547066,95.123116 
	C84.612709,94.788750 82.578865,95.088158 80.593811,94.973892 
	C78.146317,94.833008 76.427147,95.704033 77.139977,98.289040 
	C77.490631,99.560677 79.180054,100.463150 80.748306,102.011055 
	C81.284302,99.497185 81.521492,98.384735 82.054657,95.884140 
	C83.182869,98.426918 83.721222,99.640266 84.347458,101.051697 
	C86.007469,100.954178 87.732903,100.852821 89.982124,100.720695 
	C89.190277,99.488205 88.773109,98.838898 88.335777,97.485451 
M211.804565,95.666260 
	C209.355148,95.802910 206.869003,95.724098 204.466171,96.133888 
	C201.807114,96.587364 200.011795,97.775978 202.522141,100.309990 
	C204.147385,99.906578 205.894592,98.861031 206.788971,99.356117 
	C210.805054,101.579292 211.051056,98.063248 211.804565,95.666260 
M44.967087,97.221809 
	C43.480247,96.668549 42.009907,95.750214 40.501152,95.682030 
	C39.373348,95.631058 37.175678,96.720070 37.197178,97.227615 
	C37.434166,102.821487 41.964005,98.504601 44.066494,100.039383 
	C44.562881,99.246864 45.059269,98.454338 44.967087,97.221809 
M96.823647,100.325569 
	C96.809052,98.846306 97.354156,96.529083 96.660835,96.065979 
	C95.307350,95.161957 93.261429,95.294632 90.944153,94.903984 
	C91.421707,97.571495 91.720619,99.241180 92.057068,101.120506 
	C93.608192,100.782478 94.876503,100.506081 96.823647,100.325569 
M130.984573,100.617943 
	C132.429398,100.617943 133.874237,100.617943 135.654938,100.617943 
	C135.654938,98.968689 135.654938,97.398605 135.654938,96.087318 
	C132.865982,95.762749 130.242737,95.457466 127.507881,95.139191 
	C128.641602,97.178696 129.523544,98.765297 130.984573,100.617943 
M115.459801,100.927269 
	C116.251411,99.423157 117.043030,97.919052 117.834648,96.414948 
	C116.589890,95.957909 115.365356,95.254967 114.091621,95.150230 
	C113.478348,95.099808 112.113678,96.460411 112.215729,96.697777 
	C112.854424,98.183357 113.811028,99.532265 115.459801,100.927269 
M72.764565,99.961754 
	C72.602455,98.334969 72.440346,96.708176 72.278236,95.081390 
	C71.808807,95.100342 71.339378,95.119293 70.869949,95.138252 
	C70.164932,96.949577 69.459915,98.760902 68.575912,101.032059 
	C70.126587,100.837982 71.210159,100.702362 72.764565,99.961754 
M123.594810,90.054741 
	C127.569366,92.366829 127.652252,89.327675 128.257263,86.807564 
	C124.987892,84.947960 124.025345,86.619125 123.594810,90.054741 
M121.780762,98.308784 
	C122.271912,97.535965 122.763062,96.763153 123.254211,95.990334 
	C122.065231,95.827217 120.876259,95.664101 119.687271,95.500984 
	C119.548424,97.142235 119.409569,98.783485 119.270714,100.424736 
	C119.654778,100.454643 120.038849,100.484543 120.422913,100.514450 
	C120.709961,99.948891 120.997009,99.383331 121.780762,98.308784 
M32.808334,99.115509 
	C32.904129,97.859772 32.999928,96.604034 33.095722,95.348289 
	C32.313305,95.387962 30.932449,95.237343 30.849144,95.499321 
	C30.424767,96.833900 30.336014,98.275200 30.129786,99.679146 
	C30.850208,99.659508 31.570631,99.639870 32.808334,99.115509 
M156.385986,99.930016 
	C161.602386,100.898911 157.844879,97.133301 159.402878,95.474709 
	C157.441330,95.753708 156.305984,95.915199 154.783096,96.131805 
	C155.103348,97.299141 155.428238,98.483398 156.385986,99.930016 
M222.166855,95.172844 
	C223.470886,97.809906 225.444153,99.035095 228.749054,97.535866 
	C226.791824,96.703857 224.834610,95.871857 222.166855,95.172844 
M190.587860,95.358055 
	C189.739212,96.948814 188.890564,98.539566 188.041916,100.130325 
	C188.464188,100.326698 188.886459,100.523079 189.308731,100.719452 
	C189.569550,98.745621 195.192795,99.440041 190.587860,95.358055 
M144.695526,99.084442 
	C144.698349,98.115807 144.701172,97.147163 144.703995,96.178528 
	C143.882919,96.510300 143.061859,96.842072 142.240784,97.173843 
	C142.843048,97.923111 143.445328,98.672371 144.695526,99.084442 
M60.513485,95.621208 
	C58.876133,95.518997 57.238781,95.416786 55.601429,95.314583 
	C55.635654,95.940781 55.669880,96.566986 55.704102,97.193192 
	C57.402180,96.893623 59.100258,96.594055 60.513485,95.621208 
M149.233795,97.875595 
	C149.610306,98.644386 149.986816,99.413170 150.363327,100.181953 
	C151.024124,98.884712 151.684937,97.587471 152.345749,96.290230 
	C152.044861,96.146523 151.743988,96.002815 151.443115,95.859108 
	C150.831299,96.355186 150.219498,96.851265 149.233795,97.875595 
M64.651413,96.528099 
	C64.736229,97.912918 64.821037,99.297729 64.905846,100.682549 
	C65.416557,100.597847 65.927277,100.513145 66.437988,100.428444 
	C66.061127,99.117172 65.684258,97.805893 64.651413,96.528099 
M28.957870,96.812309 
	C28.584620,96.394997 28.211367,95.977684 27.838114,95.560379 
	C27.838114,97.041565 27.838114,98.522751 27.838114,100.003937 
	C28.223511,99.954979 28.608910,99.906029 28.994307,99.857071 
	C28.994307,99.071007 28.994307,98.284950 28.957870,96.812309 
M75.957512,96.810768 
	C75.583809,96.392899 75.210114,95.975029 74.836411,95.557159 
	C74.836411,97.039490 74.836411,98.521820 74.836411,100.004150 
	C75.222328,99.955139 75.608246,99.906136 75.994164,99.857132 
	C75.994164,99.070648 75.994164,98.284164 75.957512,96.810768 
M182.604172,95.915382 
	C182.872269,97.406166 183.140350,98.896957 183.408432,100.387741 
	C184.008148,100.213661 184.607849,100.039589 185.207565,99.865517 
	C184.448792,98.383736 183.690018,96.901962 182.604172,95.915382 
M219.545868,97.625259 
	C218.741608,97.941864 217.937347,98.258469 217.133087,98.575073 
	C217.429596,99.110710 217.726089,99.646347 218.022598,100.181984 
	C218.580551,99.535912 219.138504,98.889839 219.545868,97.625259 
M179.474625,100.234306 
	C179.733276,99.279289 179.991943,98.324265 180.250595,97.369247 
	C179.785645,97.340134 179.320694,97.311020 178.855728,97.281906 
	C178.905533,98.147697 178.955338,99.013496 179.474625,100.234306 
M196.130264,98.794472 
	C196.270325,98.883430 196.405106,99.026306 196.552444,99.040672 
	C196.637787,99.048996 196.833481,98.843536 196.825958,98.746140 
	C196.740616,97.640488 196.625565,96.537117 196.518478,95.433144 
	C196.133102,95.495277 195.747726,95.557411 195.362335,95.619545 
	C195.557449,96.484276 195.752563,97.349007 196.130264,98.794472 
M25.985327,97.030144 
	C25.885668,96.736572 25.799723,96.436913 25.674515,96.154671 
	C25.650129,96.099709 25.473061,96.112480 25.366417,96.094009 
	C25.255957,97.375961 25.145498,98.657906 25.035040,99.939857 
	C25.318546,99.955597 25.602053,99.971336 25.885557,99.987076 
	C25.923237,99.218697 25.960915,98.450325 25.985327,97.030144 
M171.685638,99.526901 
	C172.024673,98.979317 172.363708,98.431732 172.702744,97.884148 
	C172.428207,97.749168 172.153687,97.614189 171.879150,97.479218 
	C171.673904,98.015450 171.468674,98.551682 171.685638,99.526901 
M167.182892,96.857780 
	C167.805878,96.798622 168.428864,96.739464 169.051849,96.680305 
	C169.014771,96.463158 168.977692,96.246017 168.940628,96.028870 
	C168.242477,96.170761 167.544327,96.312660 167.182892,96.857780 
M185.796539,95.388908 
	C185.792374,95.784943 185.788208,96.180984 185.784058,96.577019 
	C185.948410,96.578537 186.255615,96.591049 186.256470,96.579987 
	C186.286789,96.185875 186.288437,95.789551 185.796539,95.388908 
M123.353889,100.677376 
	C123.474022,100.426872 123.594162,100.176369 123.714294,99.925858 
	C123.473885,99.853195 123.233482,99.780533 122.993080,99.707870 
	C122.967163,100.052200 122.941246,100.396538 123.353889,100.677376 
M127.713020,99.996208 
	C127.787453,100.230904 127.861893,100.465607 127.936333,100.700302 
	C128.197617,100.435829 128.458908,100.171356 128.720200,99.906868 
	C128.485260,99.834267 128.250336,99.761665 127.713020,99.996208 
M19.626274,100.658234 
	C19.881405,100.583122 20.136536,100.508003 20.391665,100.432892 
	C20.114872,100.149742 19.838079,99.866592 19.561291,99.583435 
	C19.479954,99.836723 19.398617,100.090019 19.626274,100.658234 
M54.525181,99.624008 
	C54.470165,99.838470 54.415154,100.052940 54.360138,100.267403 
	C54.495594,100.129478 54.631050,99.991554 54.525181,99.624008 
M41.185467,67.260391 
	C41.027130,67.375504 40.868793,67.490608 40.710453,67.605713 
	C40.930767,67.582344 41.151085,67.558975 41.185467,67.260391 
z"/>
<path fill="#FCFDFA" opacity="1.000000" stroke="none" 
	d="
M99.942902,61.274651 
	C99.627251,61.442734 99.311600,61.610817 98.574326,61.606205 
	C97.746124,61.274139 97.339546,61.114773 96.932961,60.955406 
	C96.932961,60.955406 97.000931,60.990143 96.861565,60.706661 
	C90.101707,56.373035 90.223648,49.962067 90.980240,43.474220 
	C91.517097,38.870613 93.848862,35.775394 99.339211,35.958511 
	C106.330650,40.148727 107.520775,52.643318 101.853409,58.282959 
	C101.034821,59.097538 100.570938,60.268574 99.942902,61.274651 
z"/>
<path fill="#98AD43" opacity="1.000000" stroke="none" 
	d="
M213.123444,48.634377 
	C213.113586,52.894379 213.113586,56.699089 213.113586,60.503803 
	C212.594955,60.510529 212.076324,60.517250 211.557693,60.523975 
	C209.081360,52.375565 213.673309,43.066700 208.574707,35.043880 
	C213.432541,33.415718 216.182037,37.281116 219.149399,40.796352 
	C222.148697,44.349449 225.233963,47.829956 228.970154,52.135826 
	C228.970154,46.175056 228.970154,41.065063 228.970154,35.955074 
	C229.411911,35.949760 229.853683,35.944450 230.295441,35.939137 
	C230.295441,44.113358 230.295441,52.287579 230.295441,61.580681 
	C224.877655,55.355930 219.953033,49.697796 214.061096,42.928257 
	C213.589920,45.594891 213.361618,46.886990 213.123444,48.634377 
M213.741562,44.078037 
	C213.737091,43.584568 213.732620,43.091095 213.728134,42.597626 
	C213.552963,42.949539 213.377808,43.301449 213.741562,44.078037 
z"/>
<path fill="#99AD44" opacity="1.000000" stroke="none" 
	d="
M187.069855,36.785065 
	C186.586151,36.350086 186.102463,35.915104 184.990387,34.915043 
	C191.388214,34.915043 197.173111,34.601158 202.879120,35.133244 
	C204.326080,35.268173 205.521851,38.096855 206.667419,39.486794 
	C202.255722,38.246029 198.441345,37.173264 193.962875,35.913723 
	C193.962875,40.042610 193.962875,42.770554 193.962875,45.925869 
	C197.172073,46.130249 200.313812,46.330334 203.455551,46.530418 
	C203.459854,46.968845 203.464157,47.407272 203.468445,47.845699 
	C200.368866,48.041489 197.269287,48.237282 193.954163,48.446686 
	C193.954163,51.919556 193.954163,55.135113 193.954163,59.453304 
	C198.054825,58.647400 201.666504,57.937599 205.645813,57.129013 
	C206.013443,57.030220 205.974213,57.010590 205.974213,57.010590 
	C204.656189,58.279099 203.444763,60.475403 202.000061,60.641399 
	C197.740540,61.130802 193.388611,60.816120 188.094543,60.816120 
	C188.094543,53.355339 188.094543,46.126743 187.987701,38.167313 
	C187.610519,37.219341 187.340179,37.002205 187.069855,36.785065 
z"/>
<path fill="#93A837" opacity="1.000000" stroke="none" 
	d="
M132.983109,35.945362 
	C130.434067,39.217312 127.885025,42.489258 124.876717,46.350731 
	C128.243835,51.018337 131.655914,55.748272 134.939545,60.300152 
	C130.076874,61.099953 130.076874,61.099953 121.450455,50.850765 
	C119.866089,52.532188 118.301941,54.192150 116.220230,55.787178 
	C115.538971,55.603825 115.375275,55.485416 115.211578,55.367004 
	C115.818344,51.806263 122.654007,50.127323 118.157219,44.944897 
	C115.505600,41.888969 113.323029,38.426052 110.955406,35.181652 
	C118.050255,33.157970 120.151039,39.221706 123.459534,43.756081 
	C126.453827,40.779449 129.378250,37.872272 132.646027,35.255280 
	C132.989380,35.545464 132.983109,35.945362 132.983109,35.945362 
z"/>
<path fill="#E77922" opacity="1.000000" stroke="none" 
	d="
M47.387653,44.490055 
	C47.444679,45.348988 47.501705,46.207920 46.896759,47.153168 
	C45.311527,47.192055 44.388264,47.144630 43.465004,47.097202 
	C43.383385,47.318722 43.301765,47.540237 43.220146,47.761757 
	C43.830242,48.101170 44.440338,48.440586 45.050434,48.779999 
	C49.384197,52.785339 43.243362,51.648991 43.024662,53.147533 
	C44.228500,54.150890 45.457447,55.175175 46.834801,56.599026 
	C46.983208,56.998592 46.994450,56.942535 46.656631,56.681488 
	C45.026047,57.616619 43.733276,58.812794 42.455597,59.982533 
	C42.470688,59.956097 42.482609,59.896393 42.482609,59.896393 
	C41.312469,58.387871 39.488888,57.037460 39.079334,55.344898 
	C36.612274,45.149349 43.392479,36.015923 55.343960,34.133373 
	C54.975719,36.898239 54.637215,39.439838 53.771626,41.583233 
	C52.679306,40.505844 52.114071,39.826660 50.960789,38.440880 
	C51.186428,40.242458 51.296978,41.125153 51.407532,42.007843 
	C50.653530,42.512848 49.899525,43.017853 48.533821,43.227959 
	C47.743969,43.452057 47.565811,43.971058 47.387653,44.490055 
z"/>
<path fill="#35B1D0" opacity="1.000000" stroke="none" 
	d="
M22.992290,49.017651 
	C21.858896,47.428883 20.725504,45.840118 19.265804,43.793938 
	C21.109356,36.124714 30.286331,31.833607 40.435825,36.059792 
	C36.780975,38.324486 33.879490,39.959507 31.164974,41.861385 
	C29.341139,43.139221 27.804348,44.821209 26.095097,46.270439 
	C25.224915,47.008247 24.257580,47.631466 23.141327,48.650848 
	C22.948492,48.995213 22.992290,49.017651 22.992290,49.017651 
z"/>
<path fill="#95AA3C" opacity="1.000000" stroke="none" 
	d="
M99.001190,35.831280 
	C93.848862,35.775394 91.517097,38.870613 90.980240,43.474220 
	C90.223648,49.962067 90.101707,56.373035 96.889267,60.732906 
	C89.791039,60.742867 85.147102,55.785583 84.988884,48.160931 
	C84.815933,39.826580 89.612671,34.721283 98.606453,34.436676 
	C99.001076,35.134445 99.001137,35.482861 99.001190,35.831280 
z"/>
<path fill="#93A939" opacity="1.000000" stroke="none" 
	d="
M170.096771,61.180603 
	C160.972748,59.086632 156.320312,51.525219 158.937775,43.044319 
	C160.796814,37.020790 164.630295,34.569302 172.469376,35.241394 
	C165.868423,37.286747 163.837448,41.542480 163.904800,47.083324 
	C163.961929,51.781910 164.027054,56.487953 169.535278,59.397858 
	C170.031815,60.233524 170.064285,60.707066 170.096771,61.180603 
z"/>
<path fill="#94AA3B" opacity="1.000000" stroke="none" 
	d="
M99.339211,35.958511 
	C99.001137,35.482861 99.001076,35.134445 99.000153,34.524742 
	C106.400185,35.414757 110.355049,39.542931 110.862198,46.646248 
	C111.375366,53.833652 107.763206,58.950886 100.309509,61.175591 
	C100.570938,60.268574 101.034821,59.097538 101.853409,58.282959 
	C107.520775,52.643318 106.330650,40.148727 99.339211,35.958511 
z"/>
<path fill="#94AA3C" opacity="1.000000" stroke="none" 
	d="
M133.339859,35.955040 
	C132.983109,35.945362 132.989380,35.545464 132.992538,35.345543 
	C138.559799,33.894871 142.498108,35.881298 145.193405,40.905785 
	C146.248077,42.871864 147.922852,44.505299 149.660126,46.585861 
	C150.083130,48.286549 150.161209,49.691616 150.239288,51.096680 
	C150.293732,52.111774 150.348175,53.126869 150.018936,54.728668 
	C149.168030,56.387562 148.700821,57.459747 148.091690,58.857609 
	C147.050842,55.578644 146.166031,52.791180 145.281204,50.003719 
	C141.419678,45.324051 137.558136,40.644382 133.339859,35.955040 
z"/>
<path fill="#FDFDFD" opacity="1.000000" stroke="none" 
	d="
M49.700211,75.000580 
	C54.444294,77.542412 58.930054,75.166382 63.341797,75.256187 
	C66.665733,75.323860 69.558716,75.237732 70.896088,79.487816 
	C61.954285,80.168236 53.327797,81.174698 45.088894,75.712082 
	C46.493717,75.474648 47.898537,75.237206 49.700211,75.000580 
z"/>
<path fill="#95AA3C" opacity="1.000000" stroke="none" 
	d="
M63.997002,65.845680 
	C63.217155,66.269791 62.437302,66.693901 61.080994,67.151367 
	C60.335255,67.207619 60.165974,67.230507 59.996689,67.253403 
	C59.996689,67.253403 59.524643,67.098885 58.935013,67.003059 
	C57.216732,66.530128 56.088081,66.153023 54.968079,65.582214 
	C54.976727,65.388527 54.995544,65.001228 55.384056,65.001099 
	C57.050144,64.854866 58.327724,64.708763 59.591141,64.564278 
	C56.850655,62.979927 54.501781,61.621983 52.152905,60.264034 
	C56.779453,62.067310 60.591000,60.500835 64.544670,57.538902 
	C66.674675,58.539169 68.289436,59.392136 69.904190,60.245102 
	C69.638969,60.823761 69.373741,61.402416 68.633057,62.310844 
	C67.482910,62.776825 66.808220,62.913025 65.787712,63.074623 
	C64.960266,64.015244 64.478630,64.930458 63.997002,65.845680 
z"/>
<path fill="#39B4D1" opacity="1.000000" stroke="none" 
	d="
M22.932293,48.976547 
	C27.413853,54.626842 31.917446,60.291275 36.361115,66.002327 
	C36.437931,66.101059 35.791763,66.762337 34.952126,67.051773 
	C34.024281,66.796822 33.627270,66.651207 33.230259,66.505592 
	C31.830328,65.380516 30.430395,64.255440 28.609436,62.622780 
	C27.453768,61.746777 26.719124,61.378353 25.992279,61.004860 
	C26.000076,60.999790 25.989166,61.014648 26.266342,60.669121 
	C25.179888,58.879570 23.816257,57.435551 22.327553,55.783882 
	C21.891008,55.019714 21.579540,54.463196 21.227345,53.798866 
	C21.107609,53.522827 21.012714,53.366077 20.901934,53.220798 
	C21.311905,51.896072 21.721876,50.571350 22.562069,49.132137 
	C22.992290,49.017651 22.948492,48.995213 22.932293,48.976547 
z"/>
<path fill="#97AC3E" opacity="1.000000" stroke="none" 
	d="
M120.817566,72.504227 
	C123.981506,67.781822 128.245438,66.967468 130.674347,70.754471 
	C132.560974,73.695992 132.011810,76.565834 129.219940,78.644203 
	C126.412430,80.734222 123.287498,79.376373 120.881088,74.748070 
	C120.803886,73.612831 120.810722,73.058533 120.817566,72.504227 
M128.069229,76.631668 
	C128.069656,74.865074 128.292648,73.052902 127.945549,71.357460 
	C127.829567,70.790962 126.256416,70.522797 125.349358,70.118256 
	C124.939064,72.094704 124.305756,74.070053 124.296021,76.048477 
	C124.293930,76.472870 126.548523,76.908379 128.069229,76.631668 
z"/>
<path fill="#93A938" opacity="1.000000" stroke="none" 
	d="
M176.103683,59.037403 
	C176.661469,57.385303 177.774094,55.698685 177.673859,54.087524 
	C177.363113,49.092621 179.659348,47.123131 184.111679,47.157509 
	C183.704926,49.401318 182.827911,51.552582 183.042938,53.588516 
	C183.557495,58.460526 181.566071,60.749592 176.404694,60.615547 
	C176.032425,59.885437 176.068054,59.461418 176.103683,59.037403 
z"/>
<path fill="#AABB64" opacity="1.000000" stroke="none" 
	d="
M89.954987,64.649712 
	C92.258789,65.366539 94.562584,66.083359 96.866386,66.800179 
	C96.077126,68.689888 95.251526,70.565697 94.520683,72.477737 
	C94.300514,73.053734 94.343735,73.730385 93.867416,74.504608 
	C93.468529,74.648277 93.024269,74.679962 93.024269,74.679962 
	C92.219582,74.149467 91.414886,73.618973 90.253998,72.668106 
	C89.916862,69.715050 89.935921,67.182381 89.954987,64.649712 
z"/>
<path fill="#37B2D0" opacity="1.000000" stroke="none" 
	d="
M21.268070,53.906681 
	C21.579540,54.463196 21.891008,55.019714 22.468102,56.122826 
	C23.818874,58.117832 24.904020,59.566238 25.989166,61.014648 
	C25.989166,61.014648 26.000076,60.999790 25.732815,61.291359 
	C25.951595,62.437950 26.437641,63.292976 26.923685,64.148003 
	C27.614584,65.242950 28.305485,66.337906 28.996386,67.432854 
	C22.345642,66.123184 19.742676,60.907753 17.443090,55.342529 
	C18.923443,54.627659 20.095757,54.267170 21.268070,53.906681 
z"/>
<path fill="#FDFDFD" opacity="1.000000" stroke="none" 
	d="
M88.345856,97.837517 
	C88.773109,98.838898 89.190277,99.488205 89.982124,100.720695 
	C87.732903,100.852821 86.007469,100.954178 84.347458,101.051697 
	C83.721222,99.640266 83.182869,98.426918 82.054657,95.884140 
	C81.521492,98.384735 81.284302,99.497185 80.748306,102.011055 
	C79.180054,100.463150 77.490631,99.560677 77.139977,98.289040 
	C76.427147,95.704033 78.146317,94.833008 80.593811,94.973892 
	C82.578865,95.088158 84.612709,94.788750 86.547066,95.123116 
	C87.258171,95.246033 87.746071,96.660248 88.345856,97.837517 
z"/>
<path fill="#99AE43" opacity="1.000000" stroke="none" 
	d="
M51.914791,60.081116 
	C54.501781,61.621983 56.850655,62.979927 59.591141,64.564278 
	C58.327724,64.708763 57.050144,64.854866 55.203381,64.757057 
	C53.761303,64.664230 52.888412,64.815323 51.656208,64.897041 
	C48.883400,64.512970 46.469902,64.198265 44.056404,63.883572 
	C43.461140,62.786308 42.865875,61.689045 42.376610,60.244087 
	C42.482609,59.896393 42.470688,59.956097 42.827835,59.959908 
	C44.454803,58.956654 45.724625,57.949596 46.994450,56.942535 
	C46.994450,56.942535 46.983208,56.998592 46.961136,56.980358 
	C48.518272,57.940815 50.097477,58.919506 51.914791,60.081116 
z"/>
<path fill="#39B4D1" opacity="1.000000" stroke="none" 
	d="
M59.848755,42.691338 
	C57.402691,41.561211 55.825191,36.028507 57.638992,34.516228 
	C57.983963,34.228600 59.203979,34.990479 60.060188,35.968948 
	C61.162300,36.451015 62.224480,36.232269 63.286659,36.013523 
	C65.124252,37.142517 66.961838,38.271511 68.547493,39.704529 
	C66.498055,41.027000 64.700546,42.045444 62.903046,43.063892 
	C62.903046,43.063892 62.989822,43.024212 62.979206,42.733398 
	C62.685223,41.768299 62.401855,41.094013 62.118484,40.419724 
	C61.747532,40.848217 61.376583,41.276711 60.750336,41.784798 
	C60.279613,42.140041 60.064182,42.415688 59.848755,42.691338 
z"/>
<path fill="#EF821E" opacity="1.000000" stroke="none" 
	d="
M77.271805,49.991302 
	C77.222229,49.549713 77.172668,49.108120 77.532181,48.385895 
	C79.030739,48.377636 80.120209,48.650005 81.209679,48.922371 
	C81.208229,54.747578 81.206779,60.572781 80.709175,66.360382 
	C79.233833,64.547699 78.254654,62.772633 77.275475,60.997562 
	C77.223518,60.247753 77.171555,59.497944 77.540329,58.365189 
	C78.586288,57.451721 79.211502,56.921196 79.836716,56.390671 
	C78.981270,55.924515 78.125824,55.458363 77.270378,54.992210 
	C77.221329,54.549866 77.172279,54.107517 77.500862,53.371250 
	C78.571266,52.745007 79.264030,52.412685 79.956802,52.080364 
	C79.061806,51.384010 78.166801,50.687656 77.271805,49.991302 
z"/>
<path fill="#EF821E" opacity="1.000000" stroke="none" 
	d="
M77.270912,40.993790 
	C77.222450,40.549782 77.173988,40.105778 77.466171,39.284096 
	C77.629196,38.269470 77.451561,37.632526 77.273926,36.995579 
	C76.588669,33.062443 79.092590,34.177010 81.456490,34.383064 
	C81.456490,38.470959 81.456490,42.388451 80.936859,46.672226 
	C79.365974,47.022442 78.314705,47.006371 77.263443,46.990295 
	C77.214622,45.926128 77.165802,44.861965 77.466354,43.430073 
	C78.437149,42.962299 79.058571,42.862251 79.680000,42.762203 
	C78.876968,42.172733 78.073944,41.583263 77.270912,40.993790 
z"/>
<path fill="#57BED6" opacity="1.000000" stroke="none" 
	d="
M21.227345,53.798866 
	C20.095757,54.267170 18.923443,54.627659 17.383183,54.993065 
	C13.726733,53.261108 10.438229,51.524239 6.275133,49.325436 
	C9.413799,49.246040 12.339152,49.172043 15.934219,49.273670 
	C17.018929,49.481586 17.433926,49.513882 17.848923,49.546173 
	C18.627390,50.504650 19.405857,51.463123 20.543129,52.821198 
	C21.012714,53.366077 21.107609,53.522827 21.227345,53.798866 
z"/>
<path fill="#8DA42B" opacity="1.000000" stroke="none" 
	d="
M146.724197,70.000847 
	C146.724197,72.942062 146.724197,75.883278 146.724197,79.136902 
	C145.803345,78.898529 144.706985,78.800896 144.681732,78.580505 
	C144.245285,74.772469 143.865860,70.952415 143.707458,67.125336 
	C143.688843,66.676010 145.045334,66.169762 145.764359,65.689903 
	C145.876526,66.328201 145.988678,66.966492 146.217880,68.220169 
	C146.464691,69.223976 146.594452,69.612411 146.724197,70.000847 
z"/>
<path fill="#98AC40" opacity="1.000000" stroke="none" 
	d="
M110.614517,70.207321 
	C111.604317,69.729156 112.594116,69.250992 113.792175,69.231323 
	C115.707993,71.457817 117.415550,73.225822 119.123108,74.993820 
	C119.628120,79.977676 116.176308,79.490189 113.073242,79.499268 
	C114.151833,78.744911 115.175377,77.900131 116.830803,76.533836 
	C115.084045,75.811493 113.869164,75.309097 112.505905,74.550613 
	C111.778221,73.775658 111.198914,73.256790 110.574905,72.419067 
	C110.558311,71.469238 110.586418,70.838280 110.614517,70.207321 
z"/>
<path fill="#3A97D2" opacity="1.000000" stroke="none" 
	d="
M66.174843,54.012707 
	C65.897972,52.391476 65.621109,50.770245 65.481987,48.642063 
	C65.691429,47.781391 65.763115,47.427670 66.173615,47.053459 
	C68.523598,46.752449 70.759636,45.897560 71.657204,49.292385 
	C71.920036,50.370075 71.983971,51.124748 71.932236,52.159271 
	C69.935989,52.963650 68.055420,53.488178 66.174843,54.012707 
z"/>
<path fill="#93A837" opacity="1.000000" stroke="none" 
	d="
M157.147858,73.454727 
	C160.222153,77.131844 160.048218,77.778305 156.984558,78.676147 
	C155.188751,76.834236 154.179474,75.439888 152.847809,74.504417 
	C149.606689,72.227577 149.703262,70.857567 153.730377,69.229584 
	C155.030884,70.933228 156.089371,72.193977 157.147858,73.454727 
z"/>
<path fill="#96AA3B" opacity="1.000000" stroke="none" 
	d="
M150.380371,50.784290 
	C150.161209,49.691616 150.083130,48.286549 150.023605,46.534752 
	C152.439102,42.257404 154.836060,38.326786 157.233002,34.396168 
	C157.751450,34.695110 158.269897,34.994053 158.788345,35.292995 
	C156.032715,40.352631 153.277100,45.412266 150.380371,50.784290 
z"/>
<path fill="#9CB04C" opacity="1.000000" stroke="none" 
	d="
M89.595016,64.598000 
	C89.935921,67.182381 89.916862,69.715050 89.951782,72.629990 
	C89.396019,75.094292 88.786263,77.176323 88.176514,79.258362 
	C87.722366,77.056778 87.131454,74.872055 86.857368,72.648285 
	C86.638367,70.871391 86.804993,69.046974 86.865166,66.365814 
	C86.972366,65.197319 87.014862,64.906654 87.057365,64.615982 
	C87.783264,64.592751 88.509155,64.569519 89.595016,64.598000 
z"/>
<path fill="#FDFDFD" opacity="1.000000" stroke="none" 
	d="
M212.080933,95.879471 
	C211.051056,98.063248 210.805054,101.579292 206.788971,99.356117 
	C205.894592,98.861031 204.147385,99.906578 202.522141,100.309990 
	C200.011795,97.775978 201.807114,96.587364 204.466171,96.133888 
	C206.869003,95.724098 209.355148,95.802910 212.080933,95.879471 
z"/>
<path fill="#FDFDFD" opacity="1.000000" stroke="none" 
	d="
M110.256470,70.147339 
	C110.586418,70.838280 110.558311,71.469238 110.236618,72.577187 
	C109.637405,73.694519 109.331787,74.334869 109.011726,74.987640 
	C108.997284,75.000061 108.964890,75.021553 108.964890,75.021553 
	C108.045868,74.245636 107.126846,73.469727 105.458717,72.061356 
	C104.524391,71.983665 102.363655,71.803993 99.848305,71.594826 
	C102.147552,68.098114 102.147552,68.098114 110.256470,70.147339 
z"/>
<path fill="#39B4D1" opacity="1.000000" stroke="none" 
	d="
M66.034309,54.270111 
	C68.055420,53.488178 69.935989,52.963650 72.278793,52.056282 
	C72.836784,50.772179 72.932549,49.870911 73.009323,48.989548 
	C72.990326,49.009453 72.952049,49.048985 72.952049,49.048985 
	C74.207504,52.789639 74.873550,56.402130 70.238754,58.679329 
	C68.616974,57.844887 67.548584,57.313446 66.480194,56.782009 
	C66.284721,56.030510 66.089249,55.279015 66.034309,54.270111 
z"/>
<path fill="#96AA3B" opacity="1.000000" stroke="none" 
	d="
M145.283386,50.460999 
	C146.166031,52.791180 147.050842,55.578644 148.091690,58.857609 
	C148.700821,57.459747 149.168030,56.387562 149.938812,55.103119 
	C150.381760,56.639675 150.521164,58.388485 150.687973,60.481144 
	C148.863953,60.603237 147.476349,60.696121 145.285583,60.842766 
	C145.285583,57.308430 145.285583,54.113354 145.283386,50.460999 
z"/>
<path fill="#FDFDFD" opacity="1.000000" stroke="none" 
	d="
M93.018265,75.090210 
	C93.024269,74.679962 93.468529,74.648277 93.682800,74.702637 
	C97.126060,77.931717 99.675743,76.730057 101.874001,73.035866 
	C104.959175,77.713043 100.697037,78.458603 98.643669,79.412575 
	C95.218826,81.003723 93.417404,78.948883 93.018265,75.090210 
z"/>
<path fill="#FDFDFD" opacity="1.000000" stroke="none" 
	d="
M45.261372,97.441818 
	C45.059269,98.454338 44.562881,99.246864 44.066494,100.039383 
	C41.964005,98.504601 37.434166,102.821487 37.197178,97.227615 
	C37.175678,96.720070 39.373348,95.631058 40.501152,95.682030 
	C42.009907,95.750214 43.480247,96.668549 45.261372,97.441818 
z"/>
<path fill="#FDFDFD" opacity="1.000000" stroke="none" 
	d="
M96.484230,100.277626 
	C94.876503,100.506081 93.608192,100.782478 92.057068,101.120506 
	C91.720619,99.241180 91.421707,97.571495 90.944153,94.903984 
	C93.261429,95.294632 95.307350,95.161957 96.660835,96.065979 
	C97.354156,96.529083 96.809052,98.846306 96.484230,100.277626 
z"/>
<path fill="#FDFDFD" opacity="1.000000" stroke="none" 
	d="
M130.695038,100.484924 
	C129.523544,98.765297 128.641602,97.178696 127.507881,95.139191 
	C130.242737,95.457466 132.865982,95.762749 135.654938,96.087318 
	C135.654938,97.398605 135.654938,98.968689 135.654938,100.617943 
	C133.874237,100.617943 132.429398,100.617943 130.695038,100.484924 
z"/>
<path fill="#FDFDFD" opacity="1.000000" stroke="none" 
	d="
M102.304634,97.995621 
	C104.783928,96.790176 107.263222,95.584740 110.011261,94.248627 
	C110.011261,97.028000 110.011261,98.599533 110.011261,100.801804 
	C107.820938,100.361237 105.357071,99.865639 102.586563,98.937187 
	C102.288162,98.334763 102.296402,98.165192 102.304634,97.995621 
z"/>
<path fill="#FDFDFD" opacity="1.000000" stroke="none" 
	d="
M43.906532,64.139565 
	C46.469902,64.198265 48.883400,64.512970 51.874817,65.007523 
	C52.824532,65.278740 53.016582,65.515739 53.028896,65.898369 
	C52.213875,68.568771 50.459141,69.601486 48.359409,67.565720 
	C46.945072,66.194473 43.551498,67.854546 43.906532,64.139565 
z"/>
<path fill="#FDFDFD" opacity="1.000000" stroke="none" 
	d="
M112.654289,74.806709 
	C113.869164,75.309097 115.084045,75.811493 116.830803,76.533836 
	C115.175377,77.900131 114.151833,78.744911 112.775116,79.654114 
	C109.588730,79.513695 106.755508,79.308853 104.085686,79.115822 
	C105.325523,78.137642 106.961250,76.847122 108.780930,75.289078 
	C108.964890,75.021553 108.997284,75.000061 109.463470,74.993256 
	C110.837868,74.926544 111.746078,74.866623 112.654289,74.806709 
z"/>
<path fill="#FDFDFD" opacity="1.000000" stroke="none" 
	d="
M115.061096,100.926842 
	C113.811028,99.532265 112.854424,98.183357 112.215729,96.697777 
	C112.113678,96.460411 113.478348,95.099808 114.091621,95.150230 
	C115.365356,95.254967 116.589890,95.957909 117.834648,96.414948 
	C117.043030,97.919052 116.251411,99.423157 115.061096,100.926842 
z"/>
<path fill="#FDFDFD" opacity="1.000000" stroke="none" 
	d="
M35.167122,77.998871 
	C36.222492,77.420120 37.235374,76.735176 38.344711,76.291283 
	C39.550941,75.808624 40.897209,75.177460 42.084015,75.338097 
	C42.758873,75.429443 43.909863,77.350830 43.665318,77.789200 
	C43.133579,78.742363 41.906059,79.731529 40.851318,79.872856 
	C39.116764,80.105278 37.293610,79.676529 35.271164,78.990982 
	C35.034515,78.455421 35.167122,77.998871 35.167122,77.998871 
z"/>
<path fill="#92A834" opacity="1.000000" stroke="none" 
	d="
M137.354614,71.010468 
	C137.258026,72.817245 137.297485,74.646111 137.009171,76.421761 
	C136.858276,77.351051 136.131821,78.186890 135.665314,79.064934 
	C135.125015,78.246834 134.195618,77.463501 134.118820,76.603981 
	C133.904816,74.208885 134.044449,71.782204 134.044449,68.916878 
	C134.876083,68.916878 136.136154,68.916878 137.764557,69.096680 
	C137.873459,69.854485 137.614029,70.432472 137.354614,71.010468 
z"/>
<path fill="#EF821E" opacity="1.000000" stroke="none" 
	d="
M77.270920,74.995918 
	C77.220360,74.245689 77.169792,73.495453 77.483582,72.341492 
	C78.784927,71.348999 79.721931,70.760223 80.658936,70.171448 
	C80.928627,72.793945 81.198318,75.416451 81.164566,78.056473 
	C80.220230,77.971603 79.579338,77.869209 78.962593,77.449120 
	C78.414795,76.419586 77.842857,75.707748 77.270920,74.995918 
z"/>
<path fill="#39B4D1" opacity="1.000000" stroke="none" 
	d="
M71.458305,48.969368 
	C70.759636,45.897560 68.523598,46.752449 65.961517,47.040691 
	C65.410614,47.048412 64.985939,47.045208 64.985939,47.045208 
	C64.681000,46.556831 64.376060,46.068455 64.463699,45.283421 
	C66.932617,44.268383 69.008965,43.550007 71.085312,42.831627 
	C71.722633,44.646694 72.359947,46.461765 72.974655,48.662910 
	C72.952049,49.048985 72.990326,49.009453 72.616867,48.869804 
	C71.981705,48.809895 71.720001,48.889633 71.458305,48.969368 
z"/>
<path fill="#ED8424" opacity="1.000000" stroke="none" 
	d="
M80.945480,69.789963 
	C79.721931,70.760223 78.784927,71.348999 77.559761,71.971436 
	C77.216896,71.249008 77.162201,70.492928 77.456665,69.316605 
	C77.627663,68.266647 77.449509,67.636940 77.271347,67.007225 
	C77.218163,65.286430 77.164978,63.565636 77.193634,61.421204 
	C78.254654,62.772633 79.233833,64.547699 80.409088,66.529961 
	C80.814125,67.627594 81.023087,68.518036 80.945480,69.789963 
z"/>
<path fill="#36B3D0" opacity="1.000000" stroke="none" 
	d="
M71.014603,42.539169 
	C69.008965,43.550007 66.932617,44.268383 64.473862,44.992355 
	C63.762009,44.533684 63.432552,44.069420 63.003075,43.334526 
	C64.700546,42.045444 66.498055,41.027000 68.675049,39.996475 
	C69.684319,40.738495 70.314102,41.492599 71.014603,42.539169 
z"/>
<path fill="#FDFDFD" opacity="1.000000" stroke="none" 
	d="
M119.524849,74.937988 
	C117.415550,73.225822 115.707993,71.457817 114.128418,69.301971 
	C114.493004,68.891685 114.729622,68.869240 115.441956,68.793503 
	C115.917671,68.740211 116.271965,69.031464 116.271965,69.031464 
	C116.271965,69.031464 116.712120,69.002556 116.712120,69.002556 
	C117.917908,70.038734 119.123688,71.074905 120.573517,72.307655 
	C120.810722,73.058533 120.803886,73.612831 120.758652,74.440773 
	C120.455704,74.770325 120.191147,74.826233 119.524849,74.937988 
z"/>
<path fill="#FDFDFD" opacity="1.000000" stroke="none" 
	d="
M72.529152,100.264252 
	C71.210159,100.702362 70.126587,100.837982 68.575912,101.032059 
	C69.459915,98.760902 70.164932,96.949577 70.869949,95.138252 
	C71.339378,95.119293 71.808807,95.100342 72.278236,95.081390 
	C72.440346,96.708176 72.602455,98.334969 72.529152,100.264252 
z"/>
<path fill="#FDFDFD" opacity="1.000000" stroke="none" 
	d="
M123.678032,89.743576 
	C124.025345,86.619125 124.987892,84.947960 128.257263,86.807564 
	C127.652252,89.327675 127.569366,92.366829 123.678032,89.743576 
z"/>
<path fill="#FDFDFD" opacity="1.000000" stroke="none" 
	d="
M121.532410,98.563278 
	C120.997009,99.383331 120.709961,99.948891 120.422913,100.514450 
	C120.038849,100.484543 119.654778,100.454643 119.270714,100.424736 
	C119.409569,98.783485 119.548424,97.142235 119.687271,95.500984 
	C120.876259,95.664101 122.065231,95.827217 123.254211,95.990334 
	C122.763062,96.763153 122.271912,97.535965 121.532410,98.563278 
z"/>
<path fill="#FDFDFD" opacity="1.000000" stroke="none" 
	d="
M32.549694,99.367874 
	C31.570631,99.639870 30.850208,99.659508 30.129786,99.679146 
	C30.336014,98.275200 30.424767,96.833900 30.849144,95.499321 
	C30.932449,95.237343 32.313305,95.387962 33.095726,95.348297 
	C32.999928,96.604034 32.904129,97.859772 32.549694,99.367874 
z"/>
<path fill="#FDFDFD" opacity="1.000000" stroke="none" 
	d="
M156.069550,99.798828 
	C155.428238,98.483398 155.103348,97.299141 154.783096,96.131805 
	C156.305984,95.915199 157.441330,95.753708 159.402878,95.474709 
	C157.844879,97.133301 161.602386,100.898911 156.069550,99.798828 
z"/>
<path fill="#ECEFDD" opacity="1.000000" stroke="none" 
	d="
M54.959427,65.775909 
	C56.088081,66.153023 57.216732,66.530128 58.687241,67.019928 
	C58.214527,68.077423 57.399960,69.022232 56.585388,69.967033 
	C55.730671,68.903679 54.875954,67.840332 54.246948,66.300392 
	C54.472660,65.823807 54.959427,65.775909 54.959427,65.775909 
z"/>
<path fill="#FDFDFD" opacity="1.000000" stroke="none" 
	d="
M222.522125,95.106346 
	C224.834610,95.871857 226.791824,96.703857 228.749054,97.535866 
	C225.444153,99.035095 223.470886,97.809906 222.522125,95.106346 
z"/>
<path fill="#FDFDFD" opacity="1.000000" stroke="none" 
	d="
M157.531189,73.246841 
	C156.089371,72.193977 155.030884,70.933228 154.099304,69.297119 
	C154.479950,68.893608 154.733704,68.865456 155.476624,68.787292 
	C155.965790,68.737282 156.256546,69.028259 156.256546,69.028259 
	C156.256546,69.028259 156.657501,69.003166 156.657501,69.003166 
	C159.734680,69.520493 159.378830,71.107094 157.531189,73.246841 
z"/>
<path fill="#FDFDFD" opacity="1.000000" stroke="none" 
	d="
M175.653046,59.023800 
	C176.068054,59.461418 176.032425,59.885437 176.010681,60.631996 
	C174.220856,61.193924 172.417130,61.433311 170.355103,61.426651 
	C170.064285,60.707066 170.031815,60.233524 169.887527,59.420906 
	C171.584625,59.057949 173.393524,59.034073 175.653046,59.023800 
z"/>
<path fill="#FDFDFD" opacity="1.000000" stroke="none" 
	d="
M190.929825,95.371735 
	C195.192795,99.440041 189.569550,98.745621 189.308731,100.719452 
	C188.886459,100.523079 188.464188,100.326698 188.041916,100.130325 
	C188.890564,98.539566 189.739212,96.948814 190.929825,95.371735 
z"/>
<path fill="#FDFDFD" opacity="1.000000" stroke="none" 
	d="
M144.371552,99.253036 
	C143.445328,98.672371 142.843048,97.923111 142.240784,97.173843 
	C143.061859,96.842072 143.882919,96.510300 144.703995,96.178528 
	C144.701172,97.147163 144.698349,98.115807 144.371552,99.253036 
z"/>
<path fill="#FDFDFD" opacity="1.000000" stroke="none" 
	d="
M60.655910,95.957855 
	C59.100258,96.594055 57.402180,96.893623 55.704102,97.193192 
	C55.669880,96.566986 55.635654,95.940781 55.601429,95.314583 
	C57.238781,95.416786 58.876133,95.518997 60.655910,95.957855 
z"/>
<path fill="#FDFDFD" opacity="1.000000" stroke="none" 
	d="
M177.041641,35.957664 
	C179.322144,36.304466 182.585190,35.766140 180.312042,39.967484 
	C180.000214,40.000797 179.978928,39.983799 179.978928,39.983795 
	C179.001724,38.892616 178.024506,37.801434 177.022369,36.358494 
	C176.997452,36.006737 177.041641,35.957664 177.041641,35.957664 
z"/>
<path fill="#FDFDFD" opacity="1.000000" stroke="none" 
	d="
M149.420746,97.611465 
	C150.219498,96.851265 150.831299,96.355186 151.443115,95.859108 
	C151.743988,96.002815 152.044861,96.146523 152.345749,96.290230 
	C151.684937,97.587471 151.024124,98.884712 150.363327,100.181953 
	C149.986816,99.413170 149.610306,98.644386 149.420746,97.611465 
z"/>
<path fill="#FDFDFD" opacity="1.000000" stroke="none" 
	d="
M162.004272,97.995728 
	C163.030365,98.452209 164.056458,98.908691 165.082550,99.365181 
	C164.929947,99.759872 164.777344,100.154572 164.624741,100.549271 
	C163.221359,100.419434 161.817978,100.289597 159.890717,100.111290 
	C160.774231,99.311890 161.229874,98.899628 161.842743,98.243683 
	C162.000000,97.999992 162.004272,97.995728 162.004272,97.995728 
z"/>
<path fill="#FDFDFD" opacity="1.000000" stroke="none" 
	d="
M64.979401,96.511353 
	C65.684258,97.805893 66.061127,99.117172 66.437988,100.428444 
	C65.927277,100.513145 65.416557,100.597847 64.905846,100.682549 
	C64.821037,99.297729 64.736229,97.912918 64.979401,96.511353 
z"/>
<path fill="#FDFDFD" opacity="1.000000" stroke="none" 
	d="
M28.976089,97.155594 
	C28.994307,98.284950 28.994307,99.071007 28.994307,99.857071 
	C28.608910,99.906029 28.223511,99.954979 27.838114,100.003937 
	C27.838114,98.522751 27.838114,97.041565 27.838116,95.560379 
	C28.211367,95.977684 28.584620,96.394997 28.976089,97.155594 
z"/>
<path fill="#FDFDFD" opacity="1.000000" stroke="none" 
	d="
M137.711090,71.006210 
	C137.614029,70.432472 137.873459,69.854485 138.165009,68.952621 
	C139.072266,68.831398 139.947403,69.034035 140.822540,69.236679 
	C139.904221,69.825096 138.985901,70.413521 137.711090,71.006210 
z"/>
<path fill="#FDFDFD" opacity="1.000000" stroke="none" 
	d="
M75.975838,97.154221 
	C75.994164,98.284164 75.994164,99.070648 75.994164,99.857132 
	C75.608246,99.906136 75.222328,99.955139 74.836411,100.004150 
	C74.836411,98.521820 74.836411,97.039490 74.836411,95.557159 
	C75.210114,95.975029 75.583809,96.392899 75.975838,97.154221 
z"/>
<path fill="#ED8424" opacity="1.000000" stroke="none" 
	d="
M77.190338,50.364342 
	C78.166801,50.687656 79.061806,51.384010 79.956802,52.080364 
	C79.264030,52.412685 78.571266,52.745007 77.574646,53.043610 
	C77.216820,52.252388 77.162842,51.494884 77.190338,50.364342 
z"/>
<path fill="#FDFDFD" opacity="1.000000" stroke="none" 
	d="
M182.767700,95.667786 
	C183.690018,96.901962 184.448792,98.383736 185.207565,99.865517 
	C184.607849,100.039589 184.008148,100.213661 183.408432,100.387741 
	C183.140350,98.896957 182.872269,97.406166 182.767700,95.667786 
z"/>
<path fill="#FDFDFD" opacity="1.000000" stroke="none" 
	d="
M115.036591,58.148407 
	C114.242218,59.064007 113.478714,60.011421 112.611992,60.852448 
	C112.510750,60.950680 111.839508,60.461487 111.432526,60.244621 
	C111.963188,59.538738 112.493851,58.832855 113.684586,58.146072 
	C114.575294,58.159584 114.805946,58.153996 115.036591,58.148407 
z"/>
<path fill="#FDFDFD" opacity="1.000000" stroke="none" 
	d="
M33.068760,66.821060 
	C33.627270,66.651207 34.024281,66.796822 34.709930,67.074593 
	C34.165852,68.225876 33.333134,69.244987 32.500412,70.264107 
	C32.135254,69.977905 31.770098,69.691711 31.404940,69.405510 
	C31.905714,68.649185 32.406487,67.892860 33.068760,66.821060 
z"/>
<path fill="#ED8424" opacity="1.000000" stroke="none" 
	d="
M77.188980,55.364971 
	C78.125824,55.458363 78.981270,55.924515 79.836716,56.390671 
	C79.211502,56.921196 78.586288,57.451721 77.616882,57.995277 
	C77.217659,57.251446 77.162621,56.494591 77.188980,55.364971 
z"/>
<path fill="#FDFDFD" opacity="1.000000" stroke="none" 
	d="
M219.621155,97.934509 
	C219.138504,98.889839 218.580551,99.535912 218.022598,100.181984 
	C217.726089,99.646347 217.429596,99.110710 217.133087,98.575073 
	C217.937347,98.258469 218.741608,97.941864 219.621155,97.934509 
z"/>
<path fill="#FDFDFD" opacity="1.000000" stroke="none" 
	d="
M17.901709,49.141010 
	C17.433926,49.513882 17.018929,49.481586 16.320503,49.300053 
	C16.037119,48.180080 16.037163,47.209347 16.037209,46.238617 
	C16.676304,47.071026 17.315399,47.903439 17.901709,49.141010 
z"/>
<path fill="#ED8424" opacity="1.000000" stroke="none" 
	d="
M77.189377,75.378769 
	C77.842857,75.707748 78.414795,76.419586 79.007462,77.771332 
	C79.028236,78.627670 79.028267,78.844101 79.028305,79.060524 
	C78.388145,77.960892 77.747993,76.861259 77.189377,75.378769 
z"/>
<path fill="#FDFDFD" opacity="1.000000" stroke="none" 
	d="
M66.133530,63.049225 
	C66.808220,62.913025 67.482910,62.776825 68.478279,62.502190 
	C67.964783,63.357956 67.130608,64.352150 66.076439,64.768158 
	C65.948807,63.809719 66.041168,63.429470 66.133530,63.049225 
z"/>
<path fill="#FDFDFD" opacity="1.000000" stroke="none" 
	d="
M179.239883,100.056793 
	C178.955338,99.013496 178.905533,98.147697 178.855743,97.281906 
	C179.320694,97.311020 179.785645,97.340134 180.250610,97.369247 
	C179.991943,98.324265 179.733276,99.279289 179.239883,100.056793 
z"/>
<path fill="#FDFDFD" opacity="1.000000" stroke="none" 
	d="
M66.018478,56.876717 
	C67.548584,57.313446 68.616974,57.844887 69.859734,58.624409 
	C70.014885,59.101452 69.995674,59.330418 69.940323,59.902241 
	C68.289436,59.392136 66.674675,58.539169 64.844742,57.413719 
	C64.938629,57.084629 65.247696,57.028027 66.018478,56.876717 
z"/>
<path fill="#FDFDFD" opacity="1.000000" stroke="none" 
	d="
M196.038971,98.504105 
	C195.752563,97.349007 195.557449,96.484276 195.362335,95.619545 
	C195.747726,95.557411 196.133102,95.495277 196.518478,95.433144 
	C196.625565,96.537117 196.740616,97.640488 196.825958,98.746140 
	C196.833481,98.843536 196.637787,99.048996 196.552444,99.040672 
	C196.405106,99.026306 196.270325,98.883430 196.038971,98.504105 
z"/>
<path fill="#FDFDFD" opacity="1.000000" stroke="none" 
	d="
M25.991961,97.356049 
	C25.960915,98.450325 25.923237,99.218697 25.885557,99.987076 
	C25.602053,99.971336 25.318546,99.955597 25.035040,99.939857 
	C25.145498,98.657906 25.255957,97.375961 25.366417,96.094009 
	C25.473061,96.112480 25.650129,96.099709 25.674515,96.154671 
	C25.799723,96.436913 25.885668,96.736572 25.991961,97.356049 
z"/>
<path fill="#FDFDFD" opacity="1.000000" stroke="none" 
	d="
M171.474548,99.307404 
	C171.468674,98.551682 171.673904,98.015450 171.879150,97.479218 
	C172.153687,97.614189 172.428207,97.749168 172.702759,97.884155 
	C172.363708,98.431732 172.024673,98.979317 171.474548,99.307404 
z"/>
<path fill="#C2E6EF" opacity="1.000000" stroke="none" 
	d="
M34.068108,78.943230 
	C32.896404,79.163208 31.724703,79.383186 30.552999,79.603165 
	C30.477575,79.327927 30.402149,79.052689 30.326725,78.777458 
	C31.210423,78.498184 32.094120,78.218903 33.444588,78.169479 
	C33.963612,78.580627 34.015858,78.761932 34.068108,78.943230 
z"/>
<path fill="#ED8424" opacity="1.000000" stroke="none" 
	d="
M77.200378,47.245789 
	C78.314705,47.006371 79.365974,47.022442 80.811310,47.057835 
	C81.263741,47.489750 81.322090,47.902351 81.295059,48.618660 
	C80.120209,48.650005 79.030739,48.377636 77.603943,48.058369 
	C77.223526,47.841412 77.180420,47.671349 77.200378,47.245789 
z"/>
<path fill="#FDFDFD" opacity="1.000000" stroke="none" 
	d="
M176.977676,36.033180 
	C176.154541,36.237091 175.351166,36.414555 174.547806,36.592018 
	C174.493942,36.201141 174.440079,35.810261 174.386230,35.419384 
	C175.241364,35.419384 176.096481,35.419384 176.996628,35.688522 
	C177.041641,35.957664 176.997452,36.006737 176.977676,36.033180 
z"/>
<path fill="#ED8424" opacity="1.000000" stroke="none" 
	d="
M77.192184,41.326859 
	C78.073944,41.583263 78.876968,42.172733 79.680000,42.762203 
	C79.058571,42.862251 78.437149,42.962299 77.542908,43.036507 
	C77.217888,42.560421 77.165672,42.110176 77.192184,41.326859 
z"/>
<path fill="#FDFDFD" opacity="1.000000" stroke="none" 
	d="
M151.925430,78.074890 
	C151.070557,78.107750 150.215698,78.140602 149.360825,78.173462 
	C149.508133,77.738777 149.699738,76.920036 149.795654,76.931099 
	C150.469284,77.008766 151.123184,77.257507 151.887177,77.732834 
	C151.990952,78.014099 151.925430,78.074890 151.925430,78.074890 
z"/>
<path fill="#C2E6EF" opacity="1.000000" stroke="none" 
	d="
M33.622787,76.108406 
	C32.662529,75.647514 31.702267,75.186623 30.742004,74.725731 
	C30.783993,74.499664 30.825981,74.273598 30.867970,74.047531 
	C31.734562,74.047531 32.601154,74.047531 33.738045,74.429337 
	C33.879826,75.243561 33.751305,75.675987 33.622787,76.108406 
z"/>
<path fill="#FDFDFD" opacity="1.000000" stroke="none" 
	d="
M62.902748,36.008533 
	C62.224480,36.232269 61.162300,36.451015 60.165340,36.333038 
	C60.993320,35.998726 61.756077,36.001133 62.902748,36.008533 
z"/>
<path fill="#FDFDFD" opacity="1.000000" stroke="none" 
	d="
M45.192757,48.591625 
	C44.440338,48.440586 43.830242,48.101170 43.220146,47.761757 
	C43.301765,47.540237 43.383385,47.318722 43.465004,47.097202 
	C44.388264,47.144630 45.311527,47.192055 46.576241,47.319618 
	C46.390156,47.734253 45.862617,48.068752 45.192757,48.591625 
z"/>
<path fill="#36B3D0" opacity="1.000000" stroke="none" 
	d="
M61.005634,41.705204 
	C61.376583,41.276711 61.747532,40.848217 62.118484,40.419724 
	C62.401855,41.094013 62.685223,41.768299 62.952362,42.772842 
	C62.936131,43.103092 62.486294,43.007488 62.165504,42.706047 
	C61.565018,42.171471 61.285328,41.938335 61.005634,41.705204 
z"/>
<path fill="#FDFDFD" opacity="1.000000" stroke="none" 
	d="
M51.764076,41.991753 
	C51.296978,41.125153 51.186428,40.242458 50.960789,38.440880 
	C52.114071,39.826660 52.679306,40.505844 53.393433,41.504799 
	C53.068424,41.874935 52.594524,41.925301 51.764076,41.991753 
z"/>
<path fill="#FDFDFD" opacity="1.000000" stroke="none" 
	d="
M27.122265,63.840103 
	C26.437641,63.292976 25.951595,62.437950 25.725016,61.296425 
	C26.719124,61.378353 27.453768,61.746777 28.373905,62.439125 
	C28.146549,63.019432 27.733698,63.275818 27.122265,63.840103 
z"/>
<path fill="#96AB3E" opacity="1.000000" stroke="none" 
	d="
M65.787712,63.074623 
	C66.041168,63.429470 65.948807,63.809719 65.880310,64.486267 
	C65.460007,65.139679 65.015839,65.496796 64.284332,65.849792 
	C64.478630,64.930458 64.960266,64.015244 65.787712,63.074623 
z"/>
<path fill="#849D1B" opacity="1.000000" stroke="none" 
	d="
M54.968079,65.582214 
	C54.959427,65.775909 54.472660,65.823807 54.239433,65.897392 
	C53.847012,65.908836 53.687820,65.846687 53.278763,65.841461 
	C53.016582,65.515739 52.824532,65.278740 52.234131,65.076889 
	C52.888412,64.815323 53.761303,64.664230 54.814873,64.757187 
	C54.995544,65.001228 54.976727,65.388527 54.968079,65.582214 
z"/>
<path fill="#9F9F9F" opacity="1.000000" stroke="none" 
	d="
M102.199203,97.662674 
	C102.296402,98.165192 102.288162,98.334763 102.293396,98.758698 
	C101.782753,97.957420 101.258636,96.901794 100.734528,95.846161 
	C101.090317,95.736237 101.446098,95.626305 101.801880,95.516380 
	C101.899178,96.120834 101.996468,96.725281 102.199203,97.662674 
z"/>
<path fill="#57C2DA" opacity="1.000000" stroke="none" 
	d="
M33.676620,76.403961 
	C33.751305,75.675987 33.879826,75.243561 34.076996,74.479836 
	C34.447098,75.198944 34.748547,76.249359 35.108559,77.649323 
	C35.167122,77.998871 35.034515,78.455421 35.004566,78.691132 
	C34.974617,78.926849 34.522484,79.003723 34.295296,78.973480 
	C34.015858,78.761932 33.963612,78.580627 33.781937,78.147087 
	C33.678493,77.496399 33.704479,77.097961 33.676620,76.403961 
z"/>
<path fill="#EF821E" opacity="1.000000" stroke="none" 
	d="
M77.197281,67.335197 
	C77.449509,67.636940 77.627663,68.266647 77.537704,68.944122 
	C77.220787,68.548981 77.171997,68.106079 77.197281,67.335197 
z"/>
<path fill="#FDFDFD" opacity="1.000000" stroke="none" 
	d="
M167.014526,96.656166 
	C167.544327,96.312660 168.242477,96.170761 168.940628,96.028870 
	C168.977692,96.246017 169.014771,96.463158 169.051849,96.680305 
	C168.428864,96.739464 167.805878,96.798622 167.014526,96.656166 
z"/>
<path fill="#FDFDFD" opacity="1.000000" stroke="none" 
	d="
M79.204895,79.289459 
	C79.028267,78.844101 79.028236,78.627670 78.983322,78.089035 
	C79.579338,77.869209 80.220230,77.971603 81.002472,78.376831 
	C80.556381,78.959244 79.968925,79.238815 79.204895,79.289459 
z"/>
<path fill="#ED8424" opacity="1.000000" stroke="none" 
	d="
M77.195084,37.327198 
	C77.451561,37.632526 77.629196,38.269470 77.539665,38.955200 
	C77.220421,38.555592 77.168335,38.107204 77.195084,37.327198 
z"/>
<path fill="#AABB64" opacity="1.000000" stroke="none" 
	d="
M86.847626,64.478470 
	C87.014862,64.906654 86.972366,65.197319 86.864761,65.924126 
	C86.375793,65.814850 85.951935,65.269432 85.528076,64.724007 
	C85.898010,64.596329 86.267952,64.468643 86.847626,64.478470 
z"/>
<path fill="#FDFDFD" opacity="1.000000" stroke="none" 
	d="
M147.073639,69.966064 
	C146.594452,69.612411 146.464691,69.223976 146.333527,68.526764 
	C147.018616,68.386276 147.705078,68.554581 148.391556,68.722885 
	C148.068726,69.125679 147.745895,69.528481 147.073639,69.966064 
z"/>
<path fill="#FDFDFD" opacity="1.000000" stroke="none" 
	d="
M60.750336,41.784798 
	C61.285328,41.938335 61.565018,42.171471 61.939991,42.661110 
	C61.403172,43.021755 60.771069,43.125893 59.993858,42.960682 
	C60.064182,42.415688 60.279613,42.140041 60.750336,41.784798 
z"/>
<path fill="#FDFDFD" opacity="1.000000" stroke="none" 
	d="
M161.962418,96.972427 
	C162.276962,96.467979 162.591507,95.963531 162.906067,95.459091 
	C163.118103,95.640030 163.330139,95.820976 163.542175,96.001915 
	C163.228546,96.316406 162.914917,96.630898 162.301361,96.974167 
	C162.001419,97.002945 161.962418,96.972427 161.962418,96.972427 
z"/>
<path fill="#FDFDFD" opacity="1.000000" stroke="none" 
	d="
M186.045319,95.391220 
	C186.288437,95.789551 186.286789,96.185875 186.256470,96.579987 
	C186.255615,96.591049 185.948410,96.578537 185.784058,96.577019 
	C185.788208,96.180984 185.792374,95.784943 186.045319,95.391220 
z"/>
<path fill="#FDFDFD" opacity="1.000000" stroke="none" 
	d="
M123.134613,100.709122 
	C122.941246,100.396538 122.967163,100.052200 122.993073,99.707870 
	C123.233482,99.780533 123.473885,99.853195 123.714294,99.925858 
	C123.594162,100.176369 123.474022,100.426872 123.134613,100.709122 
z"/>
<path fill="#99AD44" opacity="1.000000" stroke="none" 
	d="
M206.024200,57.049965 
	C206.176376,56.539204 206.317810,56.008701 206.459229,55.478199 
	C206.485733,55.482944 206.512238,55.487694 206.538742,55.492439 
	C206.451736,55.887512 206.364731,56.282589 206.125977,56.844128 
	C205.974213,57.010590 206.013443,57.030220 206.024200,57.049965 
z"/>
<path fill="#93A837" opacity="1.000000" stroke="none" 
	d="
M115.102898,57.864449 
	C114.805946,58.153996 114.575294,58.159584 114.002563,58.110703 
	C114.007141,57.288048 114.353806,56.519863 114.956024,55.559341 
	C115.375275,55.485416 115.538971,55.603825 115.919235,55.934219 
	C115.813606,56.624294 115.491402,57.102390 115.102898,57.864449 
z"/>
<path fill="#FDFDFD" opacity="1.000000" stroke="none" 
	d="
M127.864212,99.842636 
	C128.250336,99.761665 128.485260,99.834267 128.720200,99.906876 
	C128.458908,100.171356 128.197617,100.435829 127.936333,100.700302 
	C127.861893,100.465607 127.787453,100.230904 127.864212,99.842636 
z"/>
<path fill="#FDFDFD" opacity="1.000000" stroke="none" 
	d="
M19.471779,100.500771 
	C19.398617,100.090019 19.479954,99.836723 19.561289,99.583435 
	C19.838079,99.866592 20.114872,100.149742 20.391666,100.432892 
	C20.136536,100.508003 19.881405,100.583122 19.471779,100.500771 
z"/>
<path fill="#93A837" opacity="1.000000" stroke="none" 
	d="
M156.558960,68.936462 
	C156.657501,69.003166 156.256546,69.028259 156.256546,69.028259 
	C156.256546,69.028259 155.965790,68.737282 155.854950,68.727852 
	C155.990158,68.584808 156.228943,68.635254 156.558960,68.936462 
z"/>
<path fill="#98AC40" opacity="1.000000" stroke="none" 
	d="
M116.608261,68.914162 
	C116.712120,69.002556 116.271965,69.031464 116.271965,69.031464 
	C116.271965,69.031464 115.917671,68.740211 115.794762,68.742249 
	C115.946632,68.511528 116.224152,68.538689 116.608261,68.914162 
z"/>
<path fill="#FDFDFD" opacity="1.000000" stroke="none" 
	d="
M54.645844,99.738823 
	C54.631050,99.991554 54.495594,100.129478 54.360138,100.267403 
	C54.415154,100.052940 54.470165,99.838470 54.645844,99.738823 
z"/>
<path fill="#95AA3C" opacity="1.000000" stroke="none" 
	d="
M97.117203,61.069096 
	C97.339546,61.114773 97.746124,61.274139 98.300659,61.582115 
	C98.066216,61.548080 97.683830,61.365433 97.117203,61.069096 
z"/>
<path fill="#FDFDFD" opacity="1.000000" stroke="none" 
	d="
M41.278435,67.398003 
	C41.151085,67.558975 40.930767,67.582344 40.710453,67.605713 
	C40.868793,67.490608 41.027130,67.375504 41.278435,67.398003 
z"/>
<path fill="#FDFDFD" opacity="1.000000" stroke="none" 
	d="
M60.016624,67.476151 
	C60.165974,67.230507 60.335255,67.207619 60.754265,67.242111 
	C60.828480,67.666901 60.652969,68.034309 60.477459,68.401726 
	C60.330494,68.167450 60.183529,67.933174 60.016624,67.476151 
z"/>
<path fill="#FDFDFD" opacity="1.000000" stroke="none" 
	d="
M152.026611,77.987190 
	C152.178131,78.414848 152.293961,78.869423 152.409790,79.323990 
	C152.273087,79.063026 152.136398,78.802063 151.962570,78.307991 
	C151.925430,78.074890 151.990952,78.014099 152.026611,77.987190 
z"/>
<path fill="#FDFDFD" opacity="1.000000" stroke="none" 
	d="
M161.997971,98.001526 
	C161.878357,97.726807 161.760788,97.450554 161.802811,97.073364 
	C161.962418,96.972427 162.001419,97.002945 162.019745,97.020340 
	C162.038071,97.037743 162.012619,97.516487 162.008453,97.756104 
	C162.004272,97.995728 162.000000,97.999992 161.997971,98.001526 
z"/>
<path fill="#FDFDFD" opacity="1.000000" stroke="none" 
	d="
M180.008743,40.011520 
	C179.914337,40.049992 179.811417,40.077740 179.843704,40.044643 
	C179.978928,39.983799 180.000214,40.000797 180.008743,40.011520 
z"/>
<path fill="#FDFDFD" opacity="1.000000" stroke="none" 
	d="
M65.022369,47.399841 
	C64.985939,47.045208 65.410614,47.048412 65.622711,47.061180 
	C65.763115,47.427670 65.691429,47.781391 65.389114,48.297791 
	C65.125267,48.225143 65.092033,47.989811 65.022369,47.399841 
z"/>
<path fill="#FDFDFD" opacity="1.000000" stroke="none" 
	d="
M187.126465,37.030308 
	C187.340179,37.002205 187.610519,37.219341 187.878311,37.708073 
	C187.644882,37.744961 187.413986,37.510254 187.126465,37.030308 
z"/>
<path fill="#FDFDFD" opacity="1.000000" stroke="none" 
	d="
M213.472107,43.865700 
	C213.377808,43.301449 213.552963,42.949539 213.728134,42.597626 
	C213.732620,43.091095 213.737091,43.584568 213.472107,43.865700 
z"/>
<path fill="#FDFDFD" opacity="1.000000" stroke="none" 
	d="
M46.656631,56.681488 
	C45.724625,57.949596 44.454803,58.956654 42.812744,59.986343 
	C43.733276,58.812794 45.026047,57.616619 46.656631,56.681488 
z"/>
<path fill="#FDFDFD" opacity="1.000000" stroke="none" 
	d="
M47.683922,44.208931 
	C47.565811,43.971058 47.743969,43.452057 48.202244,43.108315 
	C48.314972,43.498318 48.147583,43.713062 47.683922,44.208931 
z"/>
<path fill="#FDFDFD" opacity="1.000000" stroke="none" 
	d="
M26.266342,60.669121 
	C24.904020,59.566238 23.818874,58.117832 22.593178,56.330475 
	C23.816257,57.435551 25.179888,58.879570 26.266342,60.669121 
z"/>
<path fill="#F5F7EE" opacity="1.000000" stroke="none" 
	d="
M127.916382,76.985214 
	C126.548523,76.908379 124.293930,76.472870 124.296021,76.048477 
	C124.305756,74.070053 124.939064,72.094704 125.349365,70.118256 
	C126.256416,70.522797 127.829567,70.790962 127.945549,71.357460 
	C128.292648,73.052902 128.069656,74.865074 127.916382,76.985214 
z"/>
<path fill="#FEFEFE" opacity="1.000000" stroke="none" 
	d="
M112.505905,74.550613 
	C111.746078,74.866623 110.837868,74.926544 109.477913,74.980835 
	C109.331787,74.334869 109.637405,73.694519 110.281319,72.896042 
	C111.198914,73.256790 111.778221,73.775658 112.505905,74.550613 
z"/>
<path fill="#FDFDFD" opacity="1.000000" stroke="none" 
	d="
M71.657204,49.292385 
	C71.720001,48.889633 71.981705,48.809895 72.635864,48.849899 
	C72.932549,49.870911 72.836784,50.772179 72.394455,51.776432 
	C71.983971,51.124748 71.920036,50.370075 71.657204,49.292385 
z"/>
</svg>