<svg version="1.1" id="Layer_1" xmlns="http://www.w3.org/2000/svg" xmlns:xlink="http://www.w3.org/1999/xlink" x="0px" y="0px"
	 width="100%" viewBox="0 0 236 137" enable-background="new 0 0 236 137" xml:space="preserve">
<path fill="#E2E0DF" opacity="1.000000" stroke="none" 
	d="
M146.000000,1.000000 
	C176.248032,1.000000 206.496063,1.000000 237.000000,1.000000 
	C237.000000,22.353546 237.000000,43.708115 236.621094,65.541595 
	C234.545425,67.098747 232.686722,67.994446 231.202011,69.311707 
	C229.963989,70.410080 229.418594,72.685524 228.096695,73.177544 
	C226.864029,73.636330 225.012253,72.431709 224.431610,72.258018 
	C222.265549,74.729645 220.365784,76.897400 218.466019,79.065163 
	C217.938995,78.783211 217.411987,78.501259 216.884964,78.219315 
	C216.884964,75.781128 216.884964,73.342949 216.905029,70.927048 
	C216.925095,70.949318 216.866623,70.937836 217.102386,70.821815 
	C217.544128,70.428360 217.750092,70.150925 217.986877,69.611732 
	C216.319839,64.442299 214.286804,72.001617 212.119812,67.990578 
	C211.801758,66.773560 211.160843,64.321121 210.504028,61.807911 
	C208.394302,61.906116 206.443787,61.996914 204.083664,62.106773 
	C204.083664,63.272831 204.083664,64.374123 203.726654,65.596283 
	C200.122284,65.393875 198.364487,66.853668 197.815582,70.249878 
	C196.796143,71.698586 196.070129,73.009232 194.967041,74.293198 
	C194.338593,74.284920 194.087250,74.303322 193.846313,73.866455 
	C194.250854,63.554516 193.446106,62.994221 184.552567,66.918571 
	C184.422867,66.975807 184.228851,66.887321 184.047821,66.459404 
	C183.618317,65.004822 183.205856,63.957676 182.793381,62.910530 
	C181.817245,63.570160 180.475754,64.012978 179.932007,64.929214 
	C178.151535,67.929482 176.661270,71.101982 174.847458,74.459206 
	C170.635559,76.117867 172.101578,72.746750 172.206055,71.485573 
	C172.361542,69.608551 173.701843,67.830048 173.859406,65.952667 
	C173.951218,64.858757 172.720062,63.653816 172.084167,62.498833 
	C171.038849,63.106922 169.348312,63.503494 169.066864,64.362015 
	C168.153259,67.148743 167.755875,70.104713 166.868042,72.997269 
	C166.381897,73.000626 166.187439,73.002213 165.992050,72.565628 
	C165.292435,69.730942 167.793213,66.273972 163.747650,64.679001 
	C164.527832,62.555740 165.196884,60.777103 165.980072,58.781097 
	C166.094208,58.563725 166.155182,58.076504 166.414825,57.834587 
	C167.476761,54.734470 168.279053,51.876274 169.229065,48.678463 
	C169.475845,47.607815 169.574890,46.876778 169.807800,45.842201 
	C169.623642,44.013687 169.305618,42.488716 168.641144,40.906845 
	C166.950638,40.687363 165.606567,40.524776 164.196442,40.252190 
	C164.130402,40.142189 163.978622,39.935261 164.056946,39.607716 
	C166.810654,34.241226 172.296707,38.177872 175.755920,35.641998 
	C173.683395,32.608421 173.563782,32.572029 168.859879,33.543724 
	C162.566467,34.843773 162.045044,34.409367 160.600769,28.433908 
	C159.124420,22.325747 157.363876,16.286274 155.343964,8.793068 
	C152.427933,13.415199 152.092453,19.255970 146.000061,15.533952 
	C146.000076,10.378551 146.000031,5.689276 146.000000,1.000000 
z"/>
<path fill="#DFDEDD" opacity="1.000000" stroke="none" 
	d="
M216.884964,70.904770 
	C216.884964,73.342949 216.884964,75.781128 216.884964,78.219315 
	C217.411987,78.501259 217.938995,78.783211 218.466019,79.065163 
	C220.365784,76.897400 222.265549,74.729645 224.431610,72.258018 
	C225.012253,72.431709 226.864029,73.636330 228.096695,73.177544 
	C229.418594,72.685524 229.963989,70.410080 231.202011,69.311707 
	C232.686722,67.994446 234.545425,67.098747 236.621094,66.010254 
	C237.000000,89.932503 237.000000,113.865013 237.000000,138.000000 
	C209.312775,138.000000 181.625046,138.000000 153.468658,137.532944 
	C153.000000,135.899857 153.052597,134.731003 152.990341,133.568314 
	C152.787506,129.780472 153.826431,124.999481 151.906982,122.524033 
	C150.377029,120.550896 145.134354,121.721336 141.706955,120.843544 
	C139.980087,120.401268 138.624649,118.508820 137.101257,117.272125 
	C138.438629,115.857704 139.739685,114.406471 141.124252,113.039848 
	C142.356750,111.823326 144.953827,110.225609 144.729446,109.624550 
	C144.031906,107.755913 142.522278,105.945465 140.867569,104.748512 
	C139.237656,103.569496 137.046097,103.166931 135.100983,102.423698 
	C135.179413,101.943634 135.257858,101.463570 135.336288,100.983505 
	C136.512360,100.656677 137.688416,100.329849 138.925781,100.413307 
	C139.286407,101.276237 139.585739,101.728889 139.885071,102.181541 
	C140.130615,101.848114 140.376160,101.514687 140.873749,101.323273 
	C141.262115,101.328873 141.398453,101.192444 141.676483,101.200066 
	C141.818161,101.344116 142.224899,101.348824 142.224899,101.348824 
	C142.224899,101.348824 142.443268,101.005920 142.411621,101.428421 
	C142.912903,101.896637 143.445847,101.942345 144.266693,102.174881 
	C145.985901,103.222870 147.417206,104.084053 149.235107,104.962555 
	C150.389648,104.994347 151.157593,105.008804 152.298157,105.033417 
	C155.465088,104.364723 158.259415,103.685890 161.427368,103.005966 
	C162.785812,103.134590 163.872620,103.595406 164.735565,103.329559 
	C166.982849,102.637230 170.152298,103.584625 171.294922,99.999146 
	C171.716476,99.259071 171.848404,98.657677 171.897949,97.689148 
	C170.266312,96.628548 168.776764,95.685692 167.154449,95.297165 
	C164.377502,94.632095 161.517441,94.313965 158.727081,93.672821 
	C158.605728,93.225098 158.449585,92.954712 158.201630,92.281525 
	C155.859039,88.372551 158.166565,85.250671 159.128540,82.218964 
	C159.884033,82.921288 160.453659,83.404312 161.187759,84.150032 
	C161.928574,84.556824 162.504929,84.700912 163.404175,84.900162 
	C163.852997,84.270958 163.978958,83.586586 164.108231,82.506607 
	C164.044556,80.801964 163.977554,79.492950 164.059601,77.864807 
	C164.803436,76.031731 165.398224,74.517769 165.992996,73.003807 
	C166.187439,73.002213 166.381897,73.000626 167.070892,73.276138 
	C168.159332,74.888916 168.753250,76.224579 169.808228,78.597145 
	C171.715805,77.147476 173.335098,75.916901 175.294220,74.852257 
	C176.732849,75.390190 178.446030,75.448586 178.823761,76.188614 
	C180.436661,79.348564 182.131546,78.308990 183.601074,76.405914 
	C184.448013,75.309105 184.645325,73.710678 185.408020,72.075386 
	C186.411377,70.717506 187.141785,69.622284 187.676666,68.820251 
	C188.844177,72.367012 189.914841,75.619553 191.345703,78.967255 
	C193.257812,78.120872 194.809753,77.179306 196.621170,76.120926 
	C197.261902,75.365288 197.643143,74.726463 198.348679,73.828644 
	C200.935043,73.321396 203.197098,73.073143 205.880157,72.867065 
	C206.863876,72.935890 207.426636,72.962532 207.994385,72.994293 
	C207.999374,72.999413 208.009781,73.006432 208.127502,73.372169 
	C208.364120,73.964783 208.483017,74.191650 208.574799,74.433090 
	C208.547668,74.447662 208.553650,74.508972 208.257355,74.456139 
	C207.651688,74.631081 207.342316,74.858864 207.101807,75.389633 
	C207.250839,75.883621 207.331009,76.074615 207.391037,76.286606 
	C207.370880,76.307610 207.332047,76.350975 206.977386,76.320580 
	C206.103119,77.216698 205.583496,78.143211 205.033417,79.041069 
	C205.002930,79.012413 205.081558,79.040909 204.843048,79.222717 
	C204.427155,79.962387 204.249771,80.520248 204.038620,81.040207 
	C204.004852,81.002296 204.086639,81.062561 203.733215,81.159653 
	C201.957550,84.647736 200.218140,87.952164 199.258347,91.469345 
	C198.833115,93.027596 199.985031,95.016235 200.781830,96.932480 
	C203.133011,96.206352 206.084976,95.900658 206.930466,94.404541 
	C209.305847,90.201195 210.813400,85.507393 213.041077,80.967865 
	C218.131302,79.040352 213.628876,75.402451 215.052902,72.605042 
	C215.732849,71.861626 216.308914,71.383202 216.884964,70.904770 
z"/>
<path fill="#DCDAD8" opacity="1.000000" stroke="none" 
	d="
M138.864471,100.003021 
	C137.688416,100.329849 136.512360,100.656677 135.336288,100.983505 
	C135.257858,101.463570 135.179413,101.943634 135.100983,102.423698 
	C137.046097,103.166931 139.237656,103.569496 140.867569,104.748512 
	C142.522278,105.945465 144.031906,107.755913 144.729446,109.624550 
	C144.953827,110.225609 142.356750,111.823326 141.124252,113.039848 
	C139.739685,114.406471 138.438629,115.857704 137.101257,117.272125 
	C138.624649,118.508820 139.980087,120.401268 141.706955,120.843544 
	C145.134354,121.721336 150.377029,120.550896 151.906982,122.524033 
	C153.826431,124.999481 152.787506,129.780472 152.990341,133.568314 
	C153.052597,134.731003 153.000000,135.899857 153.000000,137.532944 
	C114.645775,138.000000 76.291542,138.000000 37.468597,137.531403 
	C36.999870,132.740616 36.998703,128.418427 37.000107,124.096230 
	C37.002445,116.916245 37.003139,116.916245 44.539478,116.555359 
	C44.797485,119.705528 46.063496,121.924576 49.834923,120.825134 
	C54.923943,119.341591 52.940475,115.098694 52.862106,112.026093 
	C52.709538,106.044250 47.873123,110.941978 45.705818,109.380356 
	C44.051037,102.555946 44.010960,102.718437 36.306572,100.818092 
	C34.725502,100.428116 32.870926,98.548859 32.350178,96.960190 
	C30.957119,92.710320 32.598812,89.509125 37.364918,87.998611 
	C39.819286,88.001152 41.908783,88.002838 44.206753,88.269379 
	C45.179249,89.567223 45.739624,90.975052 46.762844,91.530952 
	C47.851818,92.122574 49.439056,92.178162 50.683281,91.902168 
	C51.136333,91.801674 51.741848,89.712189 51.362846,89.171448 
	C50.810394,88.383247 49.467297,87.958321 48.394363,87.779114 
	C47.305676,87.597282 46.135731,87.901970 45.249008,87.712456 
	C48.330692,86.951973 51.164742,86.472618 54.251778,85.996788 
	C54.673431,86.002167 54.842098,86.004013 55.007336,86.338043 
	C55.004429,87.113197 55.004951,87.556175 54.951107,88.372917 
	C54.632500,91.276306 54.719112,93.906395 54.029720,96.314308 
	C52.666527,101.075722 53.410252,103.096985 57.759018,104.557236 
	C61.262508,105.733665 66.948257,103.756836 68.181557,100.769852 
	C68.911522,100.360794 69.457275,100.179443 70.001511,99.999046 
	C70.000000,100.000000 70.001221,99.999573 70.000717,100.374573 
	C70.000473,101.499474 70.000725,102.249367 70.000534,103.249512 
	C70.000053,103.666588 70.000023,103.833412 69.721489,104.155861 
	C69.144501,104.960991 68.846031,105.610504 68.547562,106.260025 
	C68.950470,106.426392 69.685997,106.772408 69.707436,106.732712 
	C70.185272,105.848061 70.584381,104.920883 71.249847,104.000732 
	C71.668816,103.998741 71.836372,103.997787 72.147087,103.900208 
	C72.193504,103.536880 72.096748,103.270172 72.000000,103.001724 
	C72.000000,103.000000 71.999268,103.000000 71.999702,102.624969 
	C71.999786,101.499794 71.999435,100.749657 72.112579,99.743683 
	C72.484047,98.991592 72.742020,98.495338 73.367340,97.990219 
	C75.873825,96.410828 78.012962,94.840302 79.706070,93.597237 
	C81.985458,94.803566 84.543709,97.083344 85.635803,96.520142 
	C87.306946,95.658333 88.159630,92.913422 88.999634,90.823135 
	C89.767685,88.911850 94.462021,87.226204 96.313522,88.746635 
	C97.756577,89.931656 98.730835,91.687561 99.606537,93.219398 
	C98.562668,95.208824 97.825684,97.168610 96.876152,98.898483 
	C95.832344,99.569298 95.001091,100.470024 94.169830,101.370743 
	C95.139938,102.234566 96.110039,103.098381 97.436020,104.125069 
	C105.541573,103.366447 113.282127,102.351997 121.047531,101.591034 
	C122.910461,101.408463 124.855949,102.068443 127.629402,102.464630 
	C127.303017,101.579636 126.648468,99.804840 125.947723,97.726807 
	C125.319923,96.963333 124.738319,96.503090 124.104156,95.680511 
	C124.017914,94.587608 123.984222,93.857018 124.095215,92.793732 
	C124.493073,91.309891 124.746254,90.158745 124.877197,88.796547 
	C124.550285,88.321762 124.293053,88.127693 123.624687,88.010880 
	C121.514626,88.679253 119.763138,89.340034 117.642097,89.985458 
	C116.613884,89.426857 115.955223,88.883621 115.296555,88.340385 
	C116.068810,87.899376 116.807358,87.164490 117.619522,87.071312 
	C120.276962,86.766434 123.007195,86.756813 123.353149,82.951141 
	C125.113228,81.637756 126.520515,80.373734 127.834442,78.863571 
	C128.839432,78.788742 129.937759,78.960045 131.435349,79.216202 
	C132.898972,79.119324 133.963348,78.937584 135.277740,78.756516 
	C135.774017,78.537079 136.020264,78.316956 136.592468,78.030090 
	C140.609680,73.593735 144.300934,69.224098 148.270538,65.029648 
	C147.753448,67.338745 146.546646,69.423103 146.281876,71.620956 
	C146.032486,73.691048 146.139191,76.403076 147.310455,77.830902 
	C148.068497,78.754967 151.022079,77.877991 152.977234,78.212433 
	C151.404312,83.746330 147.610916,79.409782 144.537735,80.709557 
	C145.032578,84.088127 145.552155,87.635666 145.851562,91.440117 
	C144.174011,93.097847 142.716629,94.498657 141.081360,95.590347 
	C140.328568,96.565399 139.753647,97.849579 139.103271,99.352203 
	C139.027847,99.570656 138.864471,100.003021 138.864471,100.003021 
z"/>
<path fill="#DCDAD8" opacity="1.000000" stroke="none" 
	d="
M78.000000,1.000000 
	C94.687561,1.000000 111.375122,1.000000 128.531189,1.429414 
	C129.187729,5.834695 129.297653,9.657734 123.856583,10.409623 
	C123.120209,10.511382 121.967995,12.615287 122.192879,13.486297 
	C122.529518,14.790196 123.874504,15.860652 124.866821,16.961720 
	C126.173714,18.411839 127.554474,19.795389 128.903473,21.207563 
	C127.412971,22.474192 125.888039,23.703022 124.442726,25.019274 
	C123.262329,26.094271 122.176994,27.273655 121.049507,28.406757 
	C122.375687,29.589405 123.545525,31.452959 125.063232,31.801434 
	C127.589661,32.381519 130.403946,31.645861 132.971832,32.129303 
	C134.679169,32.450729 137.503845,33.897999 137.527298,34.895435 
	C137.635773,39.509045 140.780243,40.152515 144.046310,40.852650 
	C147.087265,41.504524 150.161255,42.002243 153.237656,42.570961 
	C153.416275,43.985409 153.595306,45.403019 153.774338,46.820629 
	C154.221283,47.078785 154.668243,47.336941 155.115189,47.595097 
	C156.064972,42.239952 159.275925,40.045124 163.978622,39.935261 
	C163.978622,39.935261 164.130402,40.142189 164.033417,40.463875 
	C163.618759,41.190948 163.301071,41.596333 162.687988,42.177750 
	C160.308563,48.902363 158.224533,55.450935 156.081451,62.331345 
	C156.063232,63.109394 156.104050,63.555607 156.080856,64.421989 
	C155.521698,67.923943 155.026535,71.005722 154.531387,74.087502 
	C153.777847,73.932785 153.024323,73.778076 152.270782,73.623367 
	C152.651947,72.063484 152.981827,70.488838 153.425690,68.947006 
	C154.186951,66.302567 155.065994,63.659832 150.848389,62.717957 
	C150.425385,60.965767 150.162689,59.486954 150.059265,57.698166 
	C149.639175,55.960262 149.059799,54.532330 148.480423,53.104401 
	C147.179153,53.905880 145.021851,54.495800 144.760254,55.554237 
	C144.262634,57.567696 144.848694,59.848984 144.992981,62.009888 
	C145.001236,62.000729 144.978897,62.008888 145.009827,62.335434 
	C145.101822,63.093674 145.162903,63.525368 145.017044,64.234657 
	C141.541992,68.036850 138.273880,71.561440 134.600250,75.092361 
	C132.686996,74.590416 131.179276,74.082146 129.671555,73.573875 
	C132.155106,71.357719 134.805328,70.901772 136.125534,69.329224 
	C137.271698,67.963997 137.748459,64.957649 137.024002,63.352081 
	C135.915649,60.895714 133.472046,61.154930 131.224701,62.808483 
	C127.036743,65.889908 124.664925,69.693321 125.210632,75.000290 
	C124.104477,74.121635 123.419456,73.317146 122.725883,72.105125 
	C123.495583,64.069839 124.271606,56.441853 125.053047,48.814419 
	C125.437233,45.064560 123.718040,43.585651 119.920151,43.844749 
	C117.938591,39.572578 115.807053,41.188793 113.371773,43.197800 
	C112.726982,43.103409 112.365448,42.997723 111.993042,42.568726 
	C111.728409,41.695175 111.474632,41.144936 111.220856,40.594696 
	C110.786270,41.152020 110.351685,41.709347 109.615448,42.247597 
	C108.914314,42.280327 108.514816,42.332134 107.932243,42.102844 
	C102.784203,40.455906 98.111526,40.409908 94.098396,44.970833 
	C96.504326,47.890564 95.910599,50.132702 92.592690,52.103363 
	C90.567734,53.306076 89.072037,54.870453 90.526733,58.073223 
	C91.919815,61.140308 91.939285,64.831299 92.605209,68.482460 
	C88.472511,69.021286 84.491325,69.540352 80.533966,70.056320 
	C80.237411,68.227364 79.906982,66.475998 79.677094,64.711525 
	C79.212494,61.145512 77.967934,61.191216 75.035080,64.533051 
	C74.086517,61.805386 73.227928,59.431812 72.379395,57.086037 
	C71.633896,57.389812 70.892235,57.692017 70.142746,57.623631 
	C70.054382,56.519825 69.973846,55.786617 70.190399,54.899792 
	C71.057434,53.600864 71.627373,52.455555 72.197311,51.310242 
	C70.340645,50.935608 68.483994,50.560974 66.350342,50.161404 
	C65.716972,50.034580 65.360596,49.932693 64.925629,49.519905 
	C61.306320,47.304340 64.494774,43.574276 62.867638,41.020981 
	C63.397018,40.224590 63.733963,39.609951 64.392075,38.995010 
	C65.141449,38.999153 65.569641,39.003605 66.095100,39.150608 
	C66.460922,39.199398 66.729485,39.105633 67.400131,38.989044 
	C68.335838,38.907810 68.869461,38.849400 69.571014,38.841545 
	C69.738937,38.892101 69.982925,39.144066 70.093246,39.492188 
	C75.900711,40.189194 81.596817,40.568165 87.299217,40.763626 
	C87.501793,40.770573 87.766655,38.960186 87.880615,37.790504 
	C87.556656,37.326324 87.303528,37.136501 86.701324,36.877754 
	C82.053543,33.993877 77.721458,31.218128 73.334641,28.531773 
	C72.690071,28.137062 71.785561,28.166838 70.779922,27.735878 
	C69.037682,26.980970 67.516846,26.490391 65.835785,25.701443 
	C63.947979,24.425690 62.220402,23.448305 60.492828,22.470919 
	C59.331444,24.646631 58.170059,26.822344 57.004784,28.999001 
	C57.000896,28.999945 56.998180,29.008699 56.657906,28.924217 
	C55.527184,27.674225 54.736732,26.508713 53.817875,25.153862 
	C52.446102,25.595116 51.035675,26.048803 50.366428,26.264078 
	C50.585487,23.405361 50.792587,20.702642 51.464535,18.000031 
	C62.285484,17.997272 72.649162,18.192102 82.990189,17.795641 
	C84.700356,17.730080 86.878151,15.337775 87.718117,13.506284 
	C88.111092,12.649433 85.890930,9.306547 84.752258,9.252378 
	C79.099266,8.983453 77.623184,5.892839 78.000000,1.000000 
z"/>
<path fill="#D9D3D1" opacity="1.000000" stroke="none" 
	d="
M70.150581,57.994225 
	C70.892235,57.692017 71.633896,57.389812 72.379395,57.086037 
	C73.227928,59.431812 74.086517,61.805386 74.986443,64.584724 
	C75.027786,64.990486 74.920639,65.079636 74.554962,64.999802 
	C68.185471,63.282135 63.671089,66.697479 64.915947,72.161720 
	C66.101334,77.364876 70.123566,76.697861 74.220840,76.221268 
	C75.964272,76.296974 77.480858,76.146805 78.998726,75.998322 
	C79.000000,76.000000 79.003342,76.002487 79.027222,76.296005 
	C78.600044,78.727547 78.148979,80.865555 77.406898,82.857948 
	C74.715523,81.510689 72.397369,79.909981 69.857262,79.386780 
	C69.218781,79.255257 67.197495,82.503456 66.993919,84.330208 
	C66.637070,87.532249 69.060936,88.907028 72.082191,89.682556 
	C72.439598,92.705933 72.719795,95.352509 73.000000,97.999084 
	C72.742020,98.495338 72.484047,98.991592 71.779953,99.743912 
	C70.889626,99.999840 70.445419,99.999702 70.001221,99.999573 
	C70.001221,99.999573 70.000000,100.000000 70.092445,99.749695 
	C69.980934,98.938011 69.776985,98.376648 69.711655,97.498123 
	C71.329697,92.791939 69.697937,90.825027 65.115227,90.743652 
	C66.319008,82.242249 65.774063,81.537544 57.732189,80.814713 
	C57.407993,80.785568 57.090477,80.682053 56.797722,80.258804 
	C57.051327,79.112022 57.658073,78.186005 57.435349,77.550873 
	C56.574196,75.095222 56.062721,71.708740 54.249775,70.620895 
	C52.412472,69.518440 48.458248,69.814133 46.780869,71.168716 
	C45.073536,72.547478 44.065472,76.106438 44.421272,78.458046 
	C45.215382,83.706566 50.492886,84.517441 56.759048,81.113953 
	C55.887737,82.994446 54.943264,84.493851 53.998791,85.993263 
	C51.164742,86.472618 48.330692,86.951973 44.998226,87.715317 
	C44.332634,88.001045 44.165459,88.002785 43.998280,88.004532 
	C41.908783,88.002838 39.819286,88.001152 37.432571,87.665314 
	C37.341911,85.847733 37.548473,84.364281 37.921150,82.555801 
	C38.785587,81.524094 39.661171,80.922112 40.151161,80.092415 
	C42.140408,76.724091 41.083565,72.436874 37.853775,71.098648 
	C33.930222,69.472961 31.818542,71.251213 30.253361,74.963142 
	C28.384867,79.394386 31.606321,81.231377 34.003349,83.980820 
	C34.636604,87.422760 32.860794,87.956177 30.337051,87.621437 
	C28.886951,87.429108 27.440769,87.207275 25.764385,86.796814 
	C25.441929,84.837685 25.347914,83.080460 25.277958,81.772926 
	C22.788181,80.655037 20.647356,79.693817 18.394979,78.682510 
	C18.071302,79.232109 17.441633,79.801338 17.453884,80.356400 
	C17.606903,87.290077 17.693388,94.234467 18.245733,101.140221 
	C18.329445,102.186859 20.689848,103.051399 22.337423,104.045242 
	C24.118359,104.726883 25.559044,105.363449 27.305950,106.180313 
	C29.774673,110.635773 29.101305,111.873405 23.599859,112.999969 
	C22.133223,112.999954 21.066572,112.999977 19.571503,113.000000 
	C17.428875,112.999695 15.714668,112.999390 14.000307,112.569649 
	C14.484168,106.730980 12.284607,102.405914 8.376249,98.553047 
	C7.548590,100.990211 7.285584,103.357872 7.162184,105.732780 
	C7.036541,108.150856 7.048316,110.576080 6.622773,112.944916 
	C4.497084,112.594437 2.748542,112.297218 1.000000,112.000000 
	C1.000000,105.312355 1.000000,98.624710 1.406461,91.466370 
	C4.744098,91.165390 5.764546,89.750839 6.117818,86.866905 
	C6.386814,84.670944 7.659822,82.542068 8.733307,80.514183 
	C10.203229,77.737389 11.356045,75.160789 8.038092,72.848824 
	C5.052719,70.768608 5.846412,68.375862 7.085351,65.518257 
	C8.236426,62.863316 9.560801,59.613930 9.005899,57.010567 
	C7.105091,48.092800 10.694777,40.752842 15.438006,34.145401 
	C17.601685,31.131338 19.399275,28.696369 19.399906,24.998470 
	C21.200745,23.805002 22.787943,22.769331 23.952166,21.379375 
	C25.141172,19.959831 25.966581,18.220362 26.857340,16.570295 
	C27.954794,14.537330 29.496098,12.544188 29.867161,10.367073 
	C30.385555,7.325523 29.999218,4.129771 30.000000,1.000000 
	C30.750000,1.000000 31.500000,1.000000 32.624855,1.464778 
	C32.993279,5.421844 33.511791,9.017982 32.846687,12.379965 
	C32.027264,16.521996 32.744884,18.288940 37.291546,18.105551 
	C40.691757,17.968401 40.501106,22.262327 39.619900,22.508930 
	C34.562542,23.924213 33.152237,30.121763 30.151039,31.261011 
	C24.743355,33.313759 24.876053,36.225090 25.003216,40.240818 
	C25.120031,43.929710 25.426504,47.469593 20.893873,49.345879 
	C19.761644,49.814568 19.151859,52.719700 19.232607,54.461887 
	C19.274641,55.368805 21.428587,56.091888 22.474636,57.063702 
	C23.418957,57.941013 24.314434,58.953571 24.941748,60.069363 
	C25.803247,61.601692 26.462801,64.690300 27.084261,64.658730 
	C29.453201,64.538391 31.772108,63.433105 34.380215,62.861866 
	C35.266586,63.598930 35.882450,64.169930 36.161453,64.837883 
	C35.682827,65.559647 35.541058,66.184448 35.399284,66.809250 
	C37.272346,66.189392 39.145405,65.569527 41.161209,64.868805 
	C41.303955,64.787956 41.624592,64.857552 42.000633,64.902664 
	C43.918045,64.964973 45.459412,64.982170 47.000389,64.999680 
	C47.000000,65.000000 46.999413,65.000847 47.338631,64.920212 
	C47.841755,63.543800 48.148521,62.247379 48.142784,60.952347 
	C48.125576,57.068954 50.087738,55.429024 52.200787,55.343796 
	C54.530083,57.795040 55.915005,59.252464 57.274143,60.752289 
	C57.248360,60.794682 57.184696,60.718559 57.275242,60.987133 
	C57.668541,61.464947 57.971291,61.674191 58.452316,61.916489 
	C58.870987,62.042038 59.039459,62.207684 59.218327,62.742424 
	C60.172909,63.161350 61.045158,63.284336 62.282940,63.394112 
	C66.840454,63.940815 68.847427,61.457630 70.150581,57.994225 
M26.231859,73.449677 
	C26.472252,73.169884 26.712645,72.890083 27.472095,72.415833 
	C27.056299,70.684258 27.203371,68.226387 26.105196,67.375305 
	C23.951487,65.706184 21.472025,66.168274 19.574152,69.561378 
	C18.546675,75.500122 20.913900,77.865829 26.560591,75.916908 
	C26.878544,75.637642 27.196497,75.358376 27.514456,75.079117 
	C27.108234,74.719139 26.702013,74.359169 26.231859,73.449677 
M14.384937,63.380814 
	C15.691707,64.263771 16.998476,65.146721 18.305246,66.029678 
	C19.129818,64.737854 20.509325,63.481884 20.595856,62.142380 
	C20.660124,61.147499 19.046980,60.044254 18.180990,58.989277 
	C16.901321,60.200615 15.621650,61.411949 14.384937,63.380814 
M28.172380,84.530243 
	C28.106092,84.186241 28.039803,83.842232 27.973515,83.498230 
	C27.896164,83.840111 27.818813,84.181984 28.172380,84.530243 
M64.491066,78.261612 
	C64.203026,78.060760 63.914986,77.859917 63.626942,77.659073 
	C63.812008,77.957733 63.997074,78.256386 64.491066,78.261612 
M42.474617,79.494423 
	C42.474617,79.494423 42.509338,79.507401 42.474617,79.494423 
z"/>
<path fill="#E1DCDC" opacity="1.000000" stroke="none" 
	d="
M164.056946,39.607716 
	C159.275925,40.045124 156.064972,42.239952 155.115189,47.595097 
	C154.668243,47.336941 154.221283,47.078785 153.774338,46.820629 
	C153.595306,45.403019 153.416275,43.985409 153.237656,42.570961 
	C150.161255,42.002243 147.087265,41.504524 144.046310,40.852650 
	C140.780243,40.152515 137.635773,39.509045 137.527298,34.895435 
	C137.503845,33.897999 134.679169,32.450729 132.971832,32.129303 
	C130.403946,31.645861 127.589661,32.381519 125.063232,31.801434 
	C123.545525,31.452959 122.375687,29.589405 121.049507,28.406757 
	C122.176994,27.273655 123.262329,26.094271 124.442726,25.019274 
	C125.888039,23.703022 127.412971,22.474192 128.903473,21.207563 
	C127.554474,19.795389 126.173714,18.411839 124.866821,16.961720 
	C123.874504,15.860652 122.529518,14.790196 122.192879,13.486297 
	C121.967995,12.615287 123.120209,10.511382 123.856583,10.409623 
	C129.297653,9.657734 129.187729,5.834695 128.999847,1.429414 
	C131.370560,1.000000 133.741104,1.000000 136.555832,1.466432 
	C137.002899,5.568721 137.075272,9.206240 136.988297,12.839945 
	C136.908569,16.169594 138.673462,17.291380 141.665222,16.945122 
	C143.127029,16.775934 144.556107,16.324020 146.000000,16.000076 
	C152.092453,19.255970 152.427933,13.415199 155.343964,8.793068 
	C157.363876,16.286274 159.124420,22.325747 160.600769,28.433908 
	C162.045044,34.409367 162.566467,34.843773 168.859879,33.543724 
	C173.563782,32.572029 173.683395,32.608421 175.755920,35.641998 
	C172.296707,38.177872 166.810654,34.241226 164.056946,39.607716 
z"/>
<path fill="#D9D6D1" opacity="1.000000" stroke="none" 
	d="
M34.109707,62.695793 
	C31.772108,63.433105 29.453201,64.538391 27.084261,64.658730 
	C26.462801,64.690300 25.803247,61.601692 24.941748,60.069363 
	C24.314434,58.953571 23.418957,57.941013 22.474636,57.063702 
	C21.428587,56.091888 19.274641,55.368805 19.232607,54.461887 
	C19.151859,52.719700 19.761644,49.814568 20.893873,49.345879 
	C25.426504,47.469593 25.120031,43.929710 25.003216,40.240818 
	C24.876053,36.225090 24.743355,33.313759 30.151039,31.261011 
	C33.152237,30.121763 34.562542,23.924213 39.619900,22.508930 
	C40.501106,22.262327 40.691757,17.968401 37.291546,18.105551 
	C32.744884,18.288940 32.027264,16.521996 32.846687,12.379965 
	C33.511791,9.017982 32.993279,5.421844 32.999855,1.464778 
	C35.370556,1.000000 37.741116,1.000000 40.555740,1.437493 
	C41.000122,3.916620 41.000435,5.958252 40.839340,8.364515 
	C39.148224,15.450501 39.487526,16.010736 45.711170,17.143108 
	C47.145359,17.404055 48.570824,17.712946 50.250153,17.999958 
	C50.500000,18.000143 50.999695,17.999924 50.999695,17.999924 
	C50.792587,20.702642 50.585487,23.405361 50.366428,26.264078 
	C51.035675,26.048803 52.446102,25.595116 53.817875,25.153862 
	C54.736732,26.508713 55.527184,27.674225 56.659176,29.286144 
	C56.992302,30.456829 56.983887,31.181107 56.981049,31.941616 
	C56.986622,31.977852 56.913715,31.981956 56.742458,32.083324 
	C56.352997,32.344021 56.181618,32.543564 55.821724,33.054386 
	C55.421684,35.852695 55.256992,38.379944 55.008842,40.977318 
	C54.925392,41.047440 54.748066,41.174255 54.400597,41.207588 
	C50.869289,38.839211 47.305103,36.712059 43.904335,40.156185 
	C41.066383,43.030323 40.937820,46.697933 43.841568,50.194290 
	C43.278969,50.745667 42.910042,51.014580 42.156357,51.276283 
	C34.307659,51.035995 31.518604,55.195515 34.109707,62.695793 
z"/>
<path fill="#D9D7D5" opacity="1.000000" stroke="none" 
	d="
M19.999924,113.000000 
	C21.066572,112.999977 22.133223,112.999954 23.599899,113.411751 
	C23.532206,118.091103 25.106216,121.045151 29.017132,122.464989 
	C30.189316,118.206947 31.575603,114.317177 32.205582,110.308556 
	C32.451412,108.744293 31.154121,106.811989 30.183863,105.286324 
	C29.985937,104.975098 28.104893,105.734268 26.999729,106.000015 
	C25.559044,105.363449 24.118359,104.726883 22.338131,103.628632 
	C22.736568,100.553673 22.759230,97.308876 24.379034,95.474113 
	C26.850725,92.674431 27.288628,90.178696 25.992823,86.998718 
	C27.440769,87.207275 28.886951,87.429108 30.337051,87.621437 
	C32.860794,87.956177 34.636604,87.422760 34.238655,83.732529 
	C35.495514,83.075752 36.625275,82.978294 37.755035,82.880844 
	C37.548473,84.364281 37.341911,85.847733 37.067699,87.664474 
	C32.598812,89.509125 30.957119,92.710320 32.350178,96.960190 
	C32.870926,98.548859 34.725502,100.428116 36.306572,100.818092 
	C44.010960,102.718437 44.051037,102.555946 45.705818,109.380356 
	C47.873123,110.941978 52.709538,106.044250 52.862106,112.026093 
	C52.940475,115.098694 54.923943,119.341591 49.834923,120.825134 
	C46.063496,121.924576 44.797485,119.705528 44.539478,116.555359 
	C37.003139,116.916245 37.002445,116.916245 37.000107,124.096230 
	C36.998703,128.418427 36.999870,132.740616 36.999939,137.531403 
	C34.958332,138.000000 32.916668,138.000000 30.388760,137.717545 
	C29.586639,137.135666 29.270758,136.836227 28.954878,136.536804 
	C28.636587,137.024536 28.318295,137.512268 28.000000,138.000000 
	C27.250000,138.000000 26.500000,138.000000 25.375072,137.534027 
	C24.729322,132.326813 24.906776,127.501556 24.039381,122.872070 
	C23.398073,119.449257 21.395844,116.281425 19.999924,113.000000 
z"/>
<path fill="#DDD9D6" opacity="1.000000" stroke="none" 
	d="
M41.000751,7.999886 
	C41.000435,5.958252 41.000122,3.916620 40.999901,1.437493 
	C53.020893,1.000000 65.041786,1.000000 77.531342,1.000000 
	C77.623184,5.892839 79.099266,8.983453 84.752258,9.252378 
	C85.890930,9.306547 88.111092,12.649433 87.718117,13.506284 
	C86.878151,15.337775 84.700356,17.730080 82.990189,17.795641 
	C72.649162,18.192102 62.285484,17.997272 51.464539,18.000031 
	C50.999695,17.999924 50.500000,18.000143 50.249977,17.569950 
	C49.959721,8.903140 49.118484,8.048754 41.000751,7.999886 
z"/>
<path fill="#D3D1CE" opacity="1.000000" stroke="none" 
	d="
M1.000000,35.000000 
	C1.000000,23.752874 1.000000,12.505749 1.000000,1.000000 
	C8.685612,1.000000 16.374113,1.000000 24.531269,1.434609 
	C24.032871,5.954892 24.376022,11.962646 21.814274,13.708885 
	C17.106045,16.918295 16.915150,20.538940 16.729336,25.232323 
	C15.182378,27.394852 14.333688,30.155415 12.538931,31.080484 
	C8.967914,32.921093 4.876445,33.751961 1.000000,35.000000 
z"/>
<path fill="#D7D1CE" opacity="1.000000" stroke="none" 
	d="
M1.000000,35.468658 
	C4.876445,33.751961 8.967914,32.921093 12.538931,31.080484 
	C14.333688,30.155415 15.182378,27.394852 17.062809,25.232285 
	C18.111347,25.000408 18.555979,25.000586 19.000610,25.000763 
	C19.399275,28.696369 17.601685,31.131338 15.438006,34.145401 
	C10.694777,40.752842 7.105091,48.092800 9.005899,57.010567 
	C9.560801,59.613930 8.236426,62.863316 7.085351,65.518257 
	C5.846412,68.375862 5.052719,70.768608 8.038092,72.848824 
	C11.356045,75.160789 10.203229,77.737389 8.733307,80.514183 
	C7.659822,82.542068 6.386814,84.670944 6.117818,86.866905 
	C5.764546,89.750839 4.744098,91.165390 1.406461,90.997841 
	C1.000000,72.645775 1.000000,54.291546 1.000000,35.468658 
z"/>
<path fill="#D2D1CF" opacity="1.000000" stroke="none" 
	d="
M1.000000,112.468658 
	C2.748542,112.297218 4.497084,112.594437 6.959161,113.095306 
	C9.114954,113.532532 10.557210,113.766113 11.999554,114.443565 
	C12.046361,118.818626 11.256843,122.923973 15.096565,125.889893 
	C15.757929,126.400749 15.782812,128.022095 15.732040,129.113297 
	C15.593982,132.080460 15.257710,135.038406 15.000000,138.000000 
	C10.385001,138.000000 5.770002,138.000000 1.000000,138.000000 
	C1.000000,129.646271 1.000000,121.291801 1.000000,112.468658 
z"/>
<path fill="#D6D5D2" opacity="1.000000" stroke="none" 
	d="
M15.454111,138.000000 
	C15.257710,135.038406 15.593982,132.080460 15.732040,129.113297 
	C15.782812,128.022095 15.757929,126.400749 15.096565,125.889893 
	C11.256843,122.923973 12.046361,118.818626 12.255204,114.329559 
	C13.007333,113.514145 13.503898,113.256615 14.000462,112.999084 
	C15.714668,112.999390 17.428875,112.999695 19.571503,113.000000 
	C21.395844,116.281425 23.398073,119.449257 24.039381,122.872070 
	C24.906776,127.501556 24.729322,132.326813 25.000072,137.534027 
	C21.969406,138.000000 18.938814,138.000000 15.454111,138.000000 
z"/>
<path fill="#D6D4D1" opacity="1.000000" stroke="none" 
	d="
M19.399906,24.998470 
	C18.555979,25.000586 18.111347,25.000408 17.333244,25.000269 
	C16.915150,20.538940 17.106045,16.918295 21.814274,13.708885 
	C24.376022,11.962646 24.032871,5.954892 24.999962,1.434609 
	C26.388889,1.000000 27.777779,1.000000 29.583334,1.000000 
	C29.999218,4.129771 30.385555,7.325523 29.867161,10.367073 
	C29.496098,12.544188 27.954794,14.537330 26.857340,16.570295 
	C25.966581,18.220362 25.141172,19.959831 23.952166,21.379375 
	C22.787943,22.769331 21.200745,23.805002 19.399906,24.998470 
z"/>
<path fill="#DEDDDB" opacity="1.000000" stroke="none" 
	d="
M146.000061,15.533952 
	C144.556107,16.324020 143.127029,16.775934 141.665222,16.945122 
	C138.673462,17.291380 136.908569,16.169594 136.988297,12.839945 
	C137.075272,9.206240 137.002899,5.568721 137.000000,1.466432 
	C139.700012,1.000000 142.400024,1.000000 145.550018,1.000000 
	C146.000031,5.689276 146.000076,10.378551 146.000061,15.533952 
z"/>
<path fill="#D8D7D4" opacity="1.000000" stroke="none" 
	d="
M28.333334,138.000000 
	C28.318295,137.512268 28.636587,137.024536 28.954878,136.536804 
	C29.270758,136.836227 29.586639,137.135666 29.951260,137.717545 
	C29.555555,138.000000 29.111111,138.000000 28.333334,138.000000 
z"/>
<path fill="#8A2C60" opacity="1.000000" stroke="none" 
	d="
M151.008713,62.991333 
	C155.065994,63.659832 154.186951,66.302567 153.425690,68.947006 
	C152.981827,70.488838 152.651947,72.063484 152.270782,73.623367 
	C153.024323,73.778076 153.777847,73.932785 154.531387,74.087502 
	C155.026535,71.005722 155.521698,67.923943 156.434036,64.536835 
	C157.283279,66.977783 157.715332,69.724060 158.149094,72.481232 
	C163.051270,71.860687 163.445831,66.958839 159.004486,59.676590 
	C158.056198,60.445717 157.098343,61.222610 156.140488,61.999504 
	C158.224533,55.450935 160.308563,48.902363 163.065536,42.178474 
	C165.488174,41.656689 167.237900,41.310215 168.987610,40.963745 
	C169.305618,42.488716 169.623642,44.013687 169.481903,45.932384 
	C169.041870,47.223431 169.061615,48.120754 169.081345,49.018074 
	C168.279053,51.876274 167.476761,54.734470 166.148941,57.651566 
	C164.462296,57.710461 163.301163,57.710461 162.140030,57.710461 
	C162.265625,58.212437 162.391235,58.714413 162.516830,59.216389 
	C163.633194,59.143745 164.749557,59.071102 165.865936,58.998466 
	C165.196884,60.777103 164.527832,62.555740 163.521240,65.006241 
	C162.844971,68.799324 162.506256,71.920532 161.890564,75.208733 
	C160.715210,76.556252 159.816833,77.736786 158.911743,78.630737 
	C158.499695,78.160194 158.094376,77.976234 157.589355,77.431396 
	C157.172089,76.301071 156.854492,75.531616 156.321899,74.241295 
	C155.176529,75.760330 154.435974,76.742470 153.753418,77.711655 
	C153.811432,77.698685 153.707397,77.641174 153.517456,77.635559 
	C153.327530,77.629944 152.991837,77.808060 152.991837,77.808060 
	C151.022079,77.877991 148.068497,78.754967 147.310455,77.830902 
	C146.139191,76.403076 146.032486,73.691048 146.281876,71.620956 
	C146.546646,69.423103 147.753448,67.338745 148.355560,64.708984 
	C149.111053,63.805874 150.059891,63.398605 151.008713,62.991333 
M162.467621,49.750141 
	C161.659637,50.261040 160.851654,50.771938 160.043686,51.282837 
	C160.427307,51.710808 160.810944,52.138783 161.194580,52.566757 
	C161.660583,51.831505 162.126587,51.096252 162.467621,49.750141 
z"/>
<path fill="#7A1A51" opacity="1.000000" stroke="none" 
	d="
M216.905029,70.927048 
	C216.308914,71.383202 215.732849,71.861626 214.753754,72.759903 
	C213.918777,74.121719 213.486847,75.063690 212.969635,76.250969 
	C212.924866,76.664604 212.965393,76.832939 212.865891,77.383972 
	C212.704956,78.846786 212.684082,79.926903 212.663208,81.007019 
	C210.813400,85.507393 209.305847,90.201195 206.930466,94.404541 
	C206.084976,95.900658 203.133011,96.206352 200.746368,96.561562 
	C200.598862,94.240761 200.847610,92.413849 201.096375,90.586945 
	C201.491196,90.660255 201.886017,90.733566 202.280838,90.806877 
	C202.533875,91.601646 202.786911,92.396416 203.039948,93.191193 
	C203.431381,93.278168 203.822800,93.365150 204.214233,93.452133 
	C205.743286,89.895523 207.272354,86.338921 208.801407,82.782310 
	C208.457581,82.635330 208.113754,82.488350 207.769928,82.341370 
	C206.731369,82.959740 205.692810,83.578110 204.624542,84.214165 
	C204.323349,83.615585 204.076996,83.335579 204.054626,83.038704 
	C204.005341,82.384506 204.069046,81.721794 204.086639,81.062561 
	C204.086639,81.062561 204.004852,81.002296 204.301605,80.886490 
	C204.759430,80.194092 204.920486,79.617500 205.081558,79.040909 
	C205.081558,79.040909 205.002930,79.012413 205.314285,78.912476 
	C206.194443,77.992027 206.763245,77.171501 207.332047,76.350975 
	C207.332047,76.350975 207.370880,76.307610 207.617249,76.162575 
	C207.992798,75.705353 208.121979,75.393173 208.382233,74.967300 
	C208.513306,74.853622 208.553650,74.508972 208.553650,74.508972 
	C208.553650,74.508972 208.547668,74.447662 208.884949,74.267014 
	C209.891068,70.488052 206.753540,65.305008 204.009888,65.455055 
	C204.031494,65.469940 204.083664,65.475418 204.083664,65.475418 
	C204.083664,64.374123 204.083664,63.272831 204.083664,62.106773 
	C206.443787,61.996914 208.394302,61.906116 210.504028,61.807911 
	C211.160843,64.321121 211.801758,66.773560 212.119812,67.990578 
	C214.286804,72.001617 216.319839,64.442299 217.734085,69.705154 
	C217.255875,70.352829 217.061249,70.645332 216.866623,70.937836 
	C216.866623,70.937836 216.925095,70.949318 216.905029,70.927048 
z"/>
<path fill="#84205A" opacity="1.000000" stroke="none" 
	d="
M185.135056,72.338043 
	C184.645325,73.710678 184.448013,75.309105 183.601074,76.405914 
	C182.131546,78.308990 180.436661,79.348564 178.823761,76.188614 
	C178.446030,75.448586 176.732849,75.390190 175.327698,74.734329 
	C175.021301,74.450462 175.059418,74.208260 175.059418,74.208260 
	C176.661270,71.101982 178.151535,67.929482 179.932007,64.929214 
	C180.475754,64.012978 181.817245,63.570160 182.793381,62.910530 
	C183.205856,63.957676 183.618317,65.004822 184.175262,66.834915 
	C184.591522,69.191254 184.863281,70.764648 185.135056,72.338043 
z"/>
<path fill="#852A60" opacity="1.000000" stroke="none" 
	d="
M185.408020,72.075386 
	C184.863281,70.764648 184.591522,69.191254 184.192307,67.242348 
	C184.228851,66.887321 184.422867,66.975807 184.552567,66.918571 
	C193.446106,62.994221 194.250854,63.554516 193.704361,74.083359 
	C192.696487,76.127716 191.840988,77.499901 190.985504,78.872086 
	C189.914841,75.619553 188.844177,72.367012 187.676666,68.820251 
	C187.141785,69.622284 186.411377,70.717506 185.408020,72.075386 
z"/>
<path fill="#862761" opacity="1.000000" stroke="none" 
	d="
M174.847458,74.459206 
	C175.059418,74.208260 175.021301,74.450462 174.987839,74.568390 
	C173.335098,75.916901 171.715805,77.147476 169.808228,78.597145 
	C168.753250,76.224579 168.159332,74.888916 167.362579,73.274384 
	C167.755875,70.104713 168.153259,67.148743 169.066864,64.362015 
	C169.348312,63.503494 171.038849,63.106922 172.084167,62.498833 
	C172.720062,63.653816 173.951218,64.858757 173.859406,65.952667 
	C173.701843,67.830048 172.361542,69.608551 172.206055,71.485573 
	C172.101578,72.746750 170.635559,76.117867 174.847458,74.459206 
z"/>
<path fill="#8C2F69" opacity="1.000000" stroke="none" 
	d="
M203.726654,65.596283 
	C204.083664,65.475418 204.031494,65.469940 203.896057,65.818970 
	C203.775116,67.087357 203.601074,68.061188 203.847366,68.913574 
	C204.236435,70.260155 204.907471,71.525276 205.459167,72.824890 
	C203.197098,73.073143 200.935043,73.321396 198.446899,73.543579 
	C198.216217,72.423752 198.211594,71.330002 198.182114,70.205429 
	C198.157257,70.174614 198.109024,70.111832 198.109024,70.111832 
	C198.364487,66.853668 200.122284,65.393875 203.726654,65.596283 
z"/>
<path fill="#DBD2D4" opacity="1.000000" stroke="none" 
	d="
M162.167542,75.041740 
	C162.506256,71.920532 162.844971,68.799324 163.410095,65.350876 
	C167.793213,66.273972 165.292435,69.730942 165.992050,72.565628 
	C165.398224,74.517769 164.803436,76.031731 163.772217,77.695648 
	C162.946350,76.910988 162.556946,75.976364 162.167542,75.041740 
z"/>
<path fill="#8C2F69" opacity="1.000000" stroke="none" 
	d="
M191.345703,78.967255 
	C191.840988,77.499901 192.696487,76.127716 193.693939,74.538635 
	C194.087250,74.303322 194.338593,74.284920 194.954742,74.275635 
	C195.319534,74.284752 195.316589,74.244324 195.291580,74.547867 
	C195.631607,75.313522 195.996643,75.775642 196.361694,76.237747 
	C194.809753,77.179306 193.257812,78.120872 191.345703,78.967255 
z"/>
<path fill="#892A60" opacity="1.000000" stroke="none" 
	d="
M168.641159,40.906845 
	C167.237900,41.310215 165.488174,41.656689 163.360916,42.002434 
	C163.301071,41.596333 163.618759,41.190948 164.099472,40.573875 
	C165.606567,40.524776 166.950638,40.687363 168.641159,40.906845 
z"/>
<path fill="#892A60" opacity="1.000000" stroke="none" 
	d="
M165.980072,58.781094 
	C164.749557,59.071102 163.633194,59.143745 162.516830,59.216389 
	C162.391235,58.714413 162.265625,58.212437 162.140030,57.710461 
	C163.301163,57.710461 164.462296,57.710461 165.889313,57.893482 
	C166.155182,58.076504 166.094208,58.563725 165.980072,58.781094 
z"/>
<path fill="#8C2F69" opacity="1.000000" stroke="none" 
	d="
M195.331833,74.302322 
	C196.070129,73.009232 196.796143,71.698586 197.815582,70.249878 
	C198.109024,70.111832 198.157257,70.174614 198.077148,70.509575 
	C197.103561,71.977798 196.210068,73.111061 195.316589,74.244324 
	C195.316589,74.244324 195.319534,74.284752 195.331833,74.302322 
z"/>
<path fill="#892A60" opacity="1.000000" stroke="none" 
	d="
M169.229065,48.678463 
	C169.061615,48.120754 169.041870,47.223431 169.348038,46.235924 
	C169.574890,46.876778 169.475845,47.607815 169.229065,48.678463 
z"/>
<path fill="#DFDEDD" opacity="1.000000" stroke="none" 
	d="
M217.102386,70.821815 
	C217.061249,70.645332 217.255875,70.352829 217.703278,69.966904 
	C217.750092,70.150925 217.544128,70.428360 217.102386,70.821815 
z"/>
<path fill="#B6B6B4" opacity="1.000000" stroke="none" 
	d="
M141.259232,95.899475 
	C142.716629,94.498657 144.174011,93.097847 146.139206,91.360680 
	C147.696991,90.698921 148.746948,90.373520 149.739868,90.405960 
	C149.428085,92.265732 149.173325,93.767670 148.968857,94.973190 
	C152.295532,94.662987 155.080505,94.403297 157.829132,94.465317 
	C158.197830,96.202515 158.602890,97.618004 159.143677,99.311111 
	C159.868317,99.768379 160.457245,99.948044 161.034866,100.487427 
	C161.033615,101.567123 161.043671,102.287086 161.053741,103.007050 
	C158.259415,103.685890 155.465088,104.364723 152.389923,104.759003 
	C152.400024,103.979637 152.690933,103.484810 152.995575,102.662125 
	C152.992615,101.897301 152.975937,101.460342 153.112976,100.817673 
	C153.566147,99.132126 153.865585,97.652275 154.424255,94.891357 
	C151.709808,98.307892 149.945480,100.528587 147.704788,103.348839 
	C147.620132,103.230675 148.234314,104.087952 148.848511,104.945236 
	C147.417206,104.084053 145.985901,103.222870 144.262238,101.886436 
	C143.461014,101.276093 142.952148,101.141006 142.443268,101.005920 
	C142.443268,101.005920 142.224899,101.348824 142.224899,101.348824 
	C142.224899,101.348824 141.818161,101.344116 141.412109,100.838409 
	C141.090439,98.854958 141.174835,97.377213 141.259232,95.899475 
M145.773560,96.386719 
	C145.727127,96.752274 145.680695,97.117828 145.634262,97.483391 
	C145.889465,97.486549 146.144684,97.489716 146.399887,97.492867 
	C146.359985,97.128998 146.320084,96.765137 145.773560,96.386719 
M156.375183,99.494148 
	C156.375183,99.494148 156.503067,99.401482 156.375183,99.494148 
z"/>
<path fill="#DCDAD8" opacity="1.000000" stroke="none" 
	d="
M161.427368,103.005966 
	C161.043671,102.287086 161.033615,101.567123 161.305008,100.318779 
	C160.726959,99.538101 159.867447,99.285797 159.007965,99.033493 
	C158.602890,97.618004 158.197830,96.202515 157.893738,94.397141 
	C157.994720,94.007256 158.125580,93.872459 158.267395,93.870163 
	C158.409195,93.867874 158.692291,93.850151 158.692291,93.850151 
	C161.517441,94.313965 164.377502,94.632095 167.154449,95.297165 
	C168.776764,95.685692 170.266312,96.628548 171.566101,97.748795 
	C170.596817,98.616760 169.877014,99.057968 168.873474,99.673103 
	C169.810989,99.877464 170.408142,100.007637 171.005295,100.137810 
	C170.152298,103.584625 166.982849,102.637230 164.735565,103.329559 
	C163.872620,103.595406 162.785812,103.134590 161.427368,103.005966 
z"/>
<path fill="#DCDAD8" opacity="1.000000" stroke="none" 
	d="
M157.930099,94.075432 
	C155.080505,94.403297 152.295532,94.662987 148.968857,94.973190 
	C149.173325,93.767670 149.428085,92.265732 150.110718,90.427032 
	C151.746292,90.314507 152.953964,90.538757 154.246048,90.778671 
	C153.835724,88.685028 152.681641,86.061813 153.321350,85.507050 
	C156.438538,82.803780 154.412735,80.269424 153.707397,77.641174 
	C153.707397,77.641174 153.811432,77.698685 154.249756,77.792984 
	C155.688400,77.855621 156.688721,77.823944 157.689041,77.792267 
	C158.094376,77.976234 158.499695,78.160194 158.925034,78.642700 
	C158.945038,78.941238 158.927399,78.930748 158.697388,79.056595 
	C158.595139,79.627411 158.722900,80.072388 158.836319,80.658691 
	C158.821991,80.800011 159.021255,81.002510 159.007401,81.252258 
	C158.976593,81.667900 158.959625,81.833794 158.942673,81.999680 
	C158.166565,85.250671 155.859039,88.372551 158.142426,92.466263 
	C158.125580,93.324669 158.109085,93.597557 158.125580,93.872459 
	C158.125580,93.872459 157.994720,94.007256 157.930099,94.075432 
z"/>
<path fill="#D3B6CB" opacity="1.000000" stroke="none" 
	d="
M203.733215,81.159653 
	C204.069046,81.721794 204.005341,82.384506 204.054626,83.038704 
	C204.076996,83.335579 204.323349,83.615585 204.624542,84.214165 
	C205.692810,83.578110 206.731369,82.959740 207.769928,82.341370 
	C208.113754,82.488350 208.457581,82.635330 208.801407,82.782310 
	C207.272354,86.338921 205.743286,89.895523 204.214233,93.452133 
	C203.822800,93.365150 203.431381,93.278168 203.039948,93.191193 
	C202.786911,92.396416 202.533875,91.601646 202.280838,90.806877 
	C201.886017,90.733566 201.491196,90.660255 201.096375,90.586945 
	C200.847610,92.413849 200.598862,94.240761 200.385559,96.438583 
	C199.985031,95.016235 198.833115,93.027596 199.258347,91.469345 
	C200.218140,87.952164 201.957550,84.647736 203.733215,81.159653 
z"/>
<path fill="#E2D0E3" opacity="1.000000" stroke="none" 
	d="
M205.880157,72.867065 
	C204.907471,71.525276 204.236435,70.260155 203.847366,68.913574 
	C203.601074,68.061188 203.775116,67.087357 203.874466,65.804085 
	C206.753540,65.305008 209.891068,70.488052 208.912079,74.252441 
	C208.483017,74.191650 208.364120,73.964783 208.304199,73.249344 
	C208.423157,72.489861 208.483139,72.218925 208.543121,71.947998 
	C208.358551,72.295059 208.173965,72.642120 207.989380,72.989182 
	C207.426636,72.962532 206.863876,72.935890 205.880157,72.867065 
z"/>
<path fill="#DCDAD8" opacity="1.000000" stroke="none" 
	d="
M149.235107,104.962555 
	C148.234314,104.087952 147.620132,103.230675 147.704788,103.348839 
	C149.945480,100.528587 151.709808,98.307892 154.424255,94.891357 
	C153.865585,97.652275 153.566147,99.132126 152.915070,100.972351 
	C152.702927,101.885147 152.842392,102.437561 152.981842,102.989983 
	C152.690933,103.484810 152.400024,103.979637 152.017319,104.748863 
	C151.157593,105.008804 150.389648,104.994347 149.235107,104.962555 
z"/>
<path fill="#892A60" opacity="1.000000" stroke="none" 
	d="
M159.021255,81.002510 
	C159.021255,81.002510 158.821991,80.800011 158.863617,80.261726 
	C158.912628,79.459213 158.920013,79.194977 158.927399,78.930748 
	C158.927399,78.930748 158.945038,78.941238 158.931732,78.929276 
	C159.816833,77.736786 160.715210,76.556252 161.890564,75.208733 
	C162.556946,75.976364 162.946350,76.910988 163.623169,78.014771 
	C163.977554,79.492950 164.044556,80.801964 163.983826,82.751854 
	C163.597824,83.876816 163.339554,84.360916 163.081284,84.845009 
	C162.504929,84.700912 161.928574,84.556824 161.318542,83.865860 
	C160.530334,82.546837 159.775787,81.774673 159.021255,81.002510 
z"/>
<path fill="#E2E0DF" opacity="1.000000" stroke="none" 
	d="
M213.041077,80.967865 
	C212.684082,79.926903 212.704956,78.846786 213.011200,77.292763 
	C213.351364,76.719696 213.477234,76.582207 213.448166,76.528305 
	C213.345810,76.338585 213.190277,76.177559 213.054932,76.005653 
	C213.486847,75.063690 213.918777,74.121719 214.649857,73.024887 
	C213.628876,75.402451 218.131302,79.040352 213.041077,80.967865 
z"/>
<path fill="#852A60" opacity="1.000000" stroke="none" 
	d="
M195.291580,74.547867 
	C196.210068,73.111061 197.103561,71.977798 198.102020,70.540390 
	C198.211594,71.330002 198.216217,72.423752 198.122620,73.802574 
	C197.643143,74.726463 197.261902,75.365288 196.621170,76.120934 
	C195.996643,75.775642 195.631607,75.313522 195.291580,74.547867 
z"/>
<path fill="#787876" opacity="1.000000" stroke="none" 
	d="
M141.081360,95.590347 
	C141.174835,97.377213 141.090439,98.854958 141.270432,100.694359 
	C141.398453,101.192444 141.262115,101.328873 140.639557,101.101913 
	C139.828461,100.203613 139.503586,99.668686 139.178711,99.133759 
	C139.753647,97.849579 140.328568,96.565399 141.081360,95.590347 
z"/>
<path fill="#7D235B" opacity="1.000000" stroke="none" 
	d="
M159.007401,81.252258 
	C159.775787,81.774673 160.530334,82.546837 161.154083,83.603165 
	C160.453659,83.404312 159.884033,82.921288 159.128540,82.218964 
	C158.959625,81.833794 158.976593,81.667900 159.007401,81.252258 
z"/>
<path fill="#D3B6CB" opacity="1.000000" stroke="none" 
	d="
M206.977386,76.320580 
	C206.763245,77.171501 206.194443,77.992027 205.344757,78.941132 
	C205.583496,78.143211 206.103119,77.216698 206.977386,76.320580 
z"/>
<path fill="#505050" opacity="1.000000" stroke="none" 
	d="
M171.294922,99.999146 
	C170.408142,100.007637 169.810989,99.877464 168.873474,99.673103 
	C169.877014,99.057968 170.596817,98.616760 171.648468,98.115921 
	C171.848404,98.657677 171.716476,99.259071 171.294922,99.999146 
z"/>
<path fill="#61133F" opacity="1.000000" stroke="none" 
	d="
M163.404175,84.900162 
	C163.339554,84.360916 163.597824,83.876816 163.980499,83.147476 
	C163.978958,83.586586 163.852997,84.270958 163.404175,84.900162 
z"/>
<path fill="#333331" opacity="1.000000" stroke="none" 
	d="
M139.103271,99.352203 
	C139.503586,99.668686 139.828461,100.203613 140.387512,100.959900 
	C140.376160,101.514687 140.130615,101.848114 139.885071,102.181541 
	C139.585739,101.728889 139.286407,101.276237 138.925781,100.413307 
	C138.864471,100.003021 139.027847,99.570656 139.103271,99.352203 
z"/>
<path fill="#393937" opacity="1.000000" stroke="none" 
	d="
M142.411621,101.428421 
	C142.952148,101.141006 143.461014,101.276093 143.974335,101.699615 
	C143.445847,101.942345 142.912903,101.896637 142.411621,101.428421 
z"/>
<path fill="#B6B6B4" opacity="1.000000" stroke="none" 
	d="
M158.267395,93.870163 
	C158.109085,93.597557 158.125580,93.324669 158.234253,92.869064 
	C158.449585,92.954712 158.605728,93.225098 158.727081,93.672821 
	C158.692291,93.850151 158.409195,93.867874 158.267395,93.870163 
z"/>
<path fill="#D3B6CB" opacity="1.000000" stroke="none" 
	d="
M204.843048,79.222717 
	C204.920486,79.617500 204.759430,80.194092 204.335373,80.924393 
	C204.249771,80.520248 204.427155,79.962387 204.843048,79.222717 
z"/>
<path fill="#D3B6CB" opacity="1.000000" stroke="none" 
	d="
M208.251160,75.080986 
	C208.121979,75.393173 207.992798,75.705353 207.637405,76.141571 
	C207.331009,76.074615 207.250839,75.883621 207.406250,75.377220 
	C207.844925,75.068207 208.048050,75.074600 208.251160,75.080986 
z"/>
<path fill="#E2D0E3" opacity="1.000000" stroke="none" 
	d="
M208.382233,74.967300 
	C208.048050,75.074600 207.844925,75.068207 207.337387,75.074226 
	C207.342316,74.858864 207.651688,74.631081 208.257355,74.456139 
	C208.553650,74.508972 208.513306,74.853622 208.382233,74.967300 
z"/>
<path fill="#D9D7D5" opacity="1.000000" stroke="none" 
	d="
M78.997452,75.996635 
	C77.480858,76.146805 75.964272,76.296974 74.439575,75.940186 
	C78.152428,72.150116 77.707756,68.670212 74.920639,65.079636 
	C74.920639,65.079636 75.027786,64.990486 75.076416,64.938812 
	C77.967934,61.191216 79.212494,61.145512 79.677094,64.711525 
	C79.906982,66.475998 80.237411,68.227364 80.533966,70.056320 
	C84.491325,69.540352 88.472511,69.021286 92.605209,68.482460 
	C91.939285,64.831299 91.919815,61.140308 90.526733,58.073223 
	C89.072037,54.870453 90.567734,53.306076 92.592690,52.103363 
	C95.910599,50.132702 96.504326,47.890564 94.098396,44.970833 
	C98.111526,40.409908 102.784203,40.455906 107.705109,42.391914 
	C106.366852,43.173271 104.830475,43.007275 103.818016,43.657303 
	C97.575356,47.665203 94.907890,57.266148 97.978905,64.547157 
	C99.008720,66.988701 100.425446,69.267288 101.669113,71.618355 
	C104.746078,77.435135 103.198349,80.031738 96.145149,81.191330 
	C98.255318,82.669395 100.610306,84.190056 102.931786,84.140511 
	C108.395882,84.023903 112.240669,77.932076 110.675026,72.045441 
	C109.785316,68.700256 108.184311,65.537277 106.826096,62.325027 
	C102.971375,53.208473 105.359467,49.229195 115.407394,48.848396 
	C118.967407,50.464020 118.929665,51.610668 116.397392,53.920055 
	C116.780930,55.803982 117.292496,57.142002 117.285347,58.477242 
	C117.246475,65.728668 117.017815,72.979424 117.019844,80.230370 
	C117.020172,81.387123 117.857697,82.543640 118.308182,83.700272 
	C119.513565,83.159622 120.718948,82.618980 122.193344,82.308853 
	C122.641685,82.693092 122.821014,82.846794 123.000351,83.000504 
	C123.007195,86.756813 120.276962,86.766434 117.619522,87.071312 
	C116.807358,87.164490 116.068810,87.899376 115.296555,88.340385 
	C115.955223,88.883621 116.613884,89.426857 117.683762,90.274780 
	C118.745277,92.937157 119.395576,95.294838 119.852936,97.773743 
	C118.492424,96.647263 117.324844,95.399574 116.301491,94.306007 
	C111.935783,94.375290 108.386017,102.064232 103.351540,95.393181 
	C103.254623,95.264763 102.197586,95.930466 102.034500,95.770622 
	C101.243835,94.995667 100.605637,94.065163 99.913422,93.189766 
	C98.730835,91.687561 97.756577,89.931656 96.313522,88.746635 
	C94.462021,87.226204 89.767685,88.911850 88.999634,90.823135 
	C88.159630,92.913422 87.306946,95.658333 85.635803,96.520142 
	C84.543709,97.083344 81.985458,94.803566 79.706070,93.597237 
	C78.012962,94.840302 75.873825,96.410828 73.367340,97.990219 
	C72.719795,95.352509 72.439598,92.705933 72.441940,89.589218 
	C76.569328,88.859169 76.866432,85.714081 77.697914,83.003571 
	C78.148979,80.865555 78.600044,78.727547 79.137497,76.245682 
	C79.223877,75.901840 79.238396,75.604561 79.238396,75.604561 
	C79.238396,75.604561 78.997452,75.996635 78.997452,75.996635 
M113.489067,85.553032 
	C113.489067,85.553032 113.453377,85.481812 113.489067,85.553032 
z"/>
<path fill="#D9D7D5" opacity="1.000000" stroke="none" 
	d="
M56.769848,80.613190 
	C57.090477,80.682053 57.407993,80.785568 57.732189,80.814713 
	C65.774063,81.537544 66.319008,82.242249 65.099365,90.737274 
	C65.110962,91.121384 65.127625,91.099113 64.775902,91.137054 
	C64.009865,91.687332 63.595558,92.199677 63.158661,93.056755 
	C63.408314,94.932846 63.680553,96.464195 63.571701,97.999916 
	C62.235344,98.558052 61.280079,99.111824 60.324814,99.665596 
	C61.557850,100.122765 62.790886,100.579926 64.042557,101.261353 
	C64.217270,101.710579 64.373344,101.935532 64.529427,102.160484 
	C64.681198,101.772072 64.832970,101.383667 65.183937,100.829079 
	C66.254532,100.774460 67.125931,100.886009 67.997337,100.997559 
	C66.948257,103.756836 61.262508,105.733665 57.759018,104.557236 
	C53.410252,103.096985 52.666527,101.075722 54.029720,96.314308 
	C54.719112,93.906395 54.632500,91.276306 55.210045,88.462860 
	C55.957661,87.905922 56.391972,87.632790 56.826286,87.359665 
	C56.221111,86.908401 55.615936,86.457138 55.010761,86.005867 
	C54.842098,86.004013 54.673431,86.002167 54.251778,85.996788 
	C54.943264,84.493851 55.887737,82.994446 56.822594,81.113892 
	C56.812977,80.732742 56.769848,80.613190 56.769848,80.613190 
z"/>
<path fill="#BCBCBA" opacity="1.000000" stroke="none" 
	d="
M99.606537,93.219398 
	C100.605637,94.065163 101.243835,94.995667 102.034500,95.770622 
	C102.197586,95.930466 103.254623,95.264763 103.351540,95.393181 
	C108.386017,102.064232 111.935783,94.375290 116.301491,94.306007 
	C117.324844,95.399574 118.492424,96.647263 120.156792,97.866806 
	C121.752563,96.267914 122.851547,94.697174 123.950531,93.126434 
	C123.984222,93.857018 124.017914,94.587608 124.115585,95.990952 
	C124.784355,97.119156 125.389137,97.574593 125.993919,98.030037 
	C126.648468,99.804840 127.303017,101.579636 127.629402,102.464630 
	C124.855949,102.068443 122.910461,101.408463 121.047531,101.591034 
	C113.282127,102.351997 105.541573,103.366447 97.419296,103.721176 
	C97.060692,101.812408 97.074692,100.470398 97.088699,99.128395 
	C97.825684,97.168610 98.562668,95.208824 99.606537,93.219398 
M101.565155,102.516457 
	C101.565155,102.516457 101.468323,102.573837 101.565155,102.516457 
z"/>
<path fill="#8C2C60" opacity="1.000000" stroke="none" 
	d="
M125.631760,75.074448 
	C124.664925,69.693321 127.036743,65.889908 131.224701,62.808483 
	C133.472046,61.154930 135.915649,60.895714 137.024002,63.352081 
	C137.748459,64.957649 137.271698,67.963997 136.125534,69.329224 
	C134.805328,70.901772 132.155106,71.357719 129.671555,73.573875 
	C131.179276,74.082146 132.686996,74.590416 134.597702,75.319595 
	C135.000687,75.540504 135.006836,75.994972 135.003418,75.997482 
	C135.000000,76.000000 134.995209,76.006516 134.644424,76.016907 
	C133.207794,77.061981 132.121948,78.096664 131.036102,79.131348 
	C129.937759,78.960045 128.839432,78.788742 127.800537,78.633896 
	C127.117233,77.458389 126.374496,76.266418 125.631760,75.074448 
z"/>
<path fill="#DFDEDD" opacity="1.000000" stroke="none" 
	d="
M153.517456,77.635559 
	C154.412735,80.269424 156.438538,82.803780 153.321350,85.507050 
	C152.681641,86.061813 153.835724,88.685028 154.246048,90.778671 
	C152.953964,90.538757 151.746292,90.314507 150.167755,90.069191 
	C148.746948,90.373520 147.696991,90.698921 146.359375,91.103760 
	C145.552155,87.635666 145.032578,84.088127 144.537735,80.709557 
	C147.610916,79.409782 151.404312,83.746330 152.977234,78.212433 
	C152.991837,77.808060 153.327530,77.629944 153.517456,77.635559 
z"/>
<path fill="#872559" opacity="1.000000" stroke="none" 
	d="
M135.006836,75.994972 
	C135.006836,75.994972 135.000687,75.540504 135.003235,75.313263 
	C138.273880,71.561440 141.541992,68.036850 145.197083,64.064568 
	C145.382339,63.080879 145.180618,62.544884 144.978897,62.008888 
	C144.978897,62.008888 145.001236,62.000729 145.067184,61.680122 
	C146.722076,60.242390 148.311035,59.125259 149.899994,58.008133 
	C150.162689,59.486954 150.425385,60.965767 150.848389,62.717957 
	C150.059891,63.398605 149.111053,63.805874 148.077209,64.533806 
	C144.300934,69.224098 140.609680,73.593735 136.354584,78.073227 
	C135.477386,78.295395 135.223053,78.486313 135.027725,78.755836 
	C133.963348,78.937584 132.898972,79.119324 131.435349,79.216202 
	C132.121948,78.096664 133.207794,77.061981 134.695435,76.123398 
	C135.097229,76.219505 135.384872,76.235878 135.384872,76.235878 
	C135.384872,76.235878 135.006836,75.994972 135.006836,75.994972 
z"/>
<path fill="#E2E0DF" opacity="1.000000" stroke="none" 
	d="
M124.095215,92.793732 
	C122.851547,94.697174 121.752563,96.267914 120.349731,97.745590 
	C119.395576,95.294838 118.745277,92.937157 118.053314,90.290146 
	C119.763138,89.340034 121.514626,88.679253 123.749603,88.219795 
	C124.438263,88.682304 124.693703,88.877800 124.999435,89.007599 
	C124.746254,90.158745 124.493073,91.309891 124.095215,92.793732 
z"/>
<path fill="#D9D7D5" opacity="1.000000" stroke="none" 
	d="
M125.210632,75.000290 
	C126.374496,76.266418 127.117233,77.458389 127.893890,78.880035 
	C126.520515,80.373734 125.113228,81.637756 123.353149,82.951141 
	C122.821014,82.846794 122.641685,82.693092 122.130653,81.995636 
	C122.110779,78.472145 122.422607,75.492401 122.734436,72.512650 
	C123.419456,73.317146 124.104477,74.121635 125.210632,75.000290 
z"/>
<path fill="#D9D7D5" opacity="1.000000" stroke="none" 
	d="
M44.206753,88.269379 
	C44.165459,88.002785 44.332634,88.001045 44.750591,87.996445 
	C46.135731,87.901970 47.305676,87.597282 48.394363,87.779114 
	C49.467297,87.958321 50.810394,88.383247 51.362846,89.171448 
	C51.741848,89.712189 51.136333,91.801674 50.683281,91.902168 
	C49.439056,92.178162 47.851818,92.122574 46.762844,91.530952 
	C45.739624,90.975052 45.179249,89.567223 44.206753,88.269379 
z"/>
<path fill="#DFD8D9" opacity="1.000000" stroke="none" 
	d="
M68.181557,100.769852 
	C67.125931,100.886009 66.254532,100.774460 64.943680,100.836319 
	C64.504242,101.009743 64.023926,101.037086 64.023926,101.037086 
	C62.790886,100.579926 61.557850,100.122765 60.324814,99.665596 
	C61.280079,99.111824 62.235344,98.558052 63.888885,98.101746 
	C66.249115,98.071228 67.911072,97.943253 69.573029,97.815277 
	C69.776985,98.376648 69.980934,98.938011 70.093956,99.748734 
	C69.457275,100.179443 68.911522,100.360794 68.181557,100.769852 
z"/>
<path fill="#D9D7D5" opacity="1.000000" stroke="none" 
	d="
M96.876144,98.898483 
	C97.074692,100.470398 97.060692,101.812408 97.063416,103.558304 
	C96.110039,103.098381 95.139938,102.234566 94.169830,101.370743 
	C95.001091,100.470024 95.832344,99.569298 96.876144,98.898483 
z"/>
<path fill="#D9D7D5" opacity="1.000000" stroke="none" 
	d="
M70.998413,104.001770 
	C70.584381,104.920883 70.185272,105.848061 69.707436,106.732712 
	C69.685997,106.772408 68.950470,106.426392 68.547562,106.260025 
	C68.846031,105.610504 69.144501,104.960991 69.971092,104.156036 
	C70.499207,104.000603 70.998413,104.001770 70.998413,104.001770 
z"/>
<path fill="#D9D7D5" opacity="1.000000" stroke="none" 
	d="
M70.000717,100.374573 
	C70.445419,99.999702 70.889626,99.999840 71.666458,99.999741 
	C71.999435,100.749657 71.999786,101.499794 71.666992,102.624901 
	C70.889565,102.999664 70.445267,102.999466 70.000977,102.999268 
	C70.000725,102.249367 70.000473,101.499474 70.000717,100.374573 
z"/>
<path fill="#D9D3D1" opacity="1.000000" stroke="none" 
	d="
M55.007336,86.338043 
	C55.615936,86.457138 56.221111,86.908401 56.826286,87.359665 
	C56.391972,87.632790 55.957661,87.905922 55.264412,88.089111 
	C55.004951,87.556175 55.004429,87.113197 55.007336,86.338043 
z"/>
<path fill="#E2E0DF" opacity="1.000000" stroke="none" 
	d="
M125.947723,97.726807 
	C125.389137,97.574593 124.784355,97.119156 124.168144,96.353271 
	C124.738319,96.503090 125.319923,96.963333 125.947723,97.726807 
z"/>
<path fill="#DFD8D9" opacity="1.000000" stroke="none" 
	d="
M70.000534,103.249512 
	C70.445267,102.999466 70.889565,102.999664 71.666565,102.999931 
	C71.999268,103.000000 72.000000,103.000000 72.000504,103.250046 
	C72.000999,103.500099 72.003922,103.996826 72.003922,103.996826 
	C71.836372,103.997787 71.668816,103.998741 71.249840,104.000732 
	C70.998413,104.001770 70.499207,104.000603 70.249603,104.000427 
	C70.000023,103.833412 70.000053,103.666588 70.000534,103.249512 
z"/>
<path fill="#D9D7D5" opacity="1.000000" stroke="none" 
	d="
M72.147087,103.900208 
	C72.003922,103.996826 72.000999,103.500099 72.000504,103.251778 
	C72.096748,103.270172 72.193504,103.536880 72.147087,103.900208 
z"/>
<path fill="#8C2C60" opacity="1.000000" stroke="none" 
	d="
M135.277740,78.756516 
	C135.223053,78.486313 135.477386,78.295395 136.028625,78.139961 
	C136.020264,78.316956 135.774017,78.537079 135.277740,78.756516 
z"/>
<path fill="#D9D7D5" opacity="1.000000" stroke="none" 
	d="
M124.877197,88.796547 
	C124.693703,88.877800 124.438263,88.682304 124.108185,88.212189 
	C124.293053,88.127693 124.550285,88.321762 124.877197,88.796547 
z"/>
<path fill="#86265A" opacity="1.000000" stroke="none" 
	d="
M115.005966,48.771854 
	C105.359467,49.229195 102.971375,53.208473 106.826096,62.325027 
	C108.184311,65.537277 109.785316,68.700256 110.675026,72.045441 
	C112.240669,77.932076 108.395882,84.023903 102.931786,84.140511 
	C100.610306,84.190056 98.255318,82.669395 96.145149,81.191330 
	C103.198349,80.031738 104.746078,77.435135 101.669113,71.618355 
	C100.425446,69.267288 99.008720,66.988701 97.978905,64.547157 
	C94.907890,57.266148 97.575356,47.665203 103.818016,43.657303 
	C104.830475,43.007275 106.366852,43.173271 107.888191,42.673008 
	C108.514816,42.332134 108.914314,42.280327 109.769852,42.512054 
	C110.818573,42.827736 111.411240,42.859886 112.003906,42.892036 
	C112.365448,42.997723 112.726982,43.103409 113.627525,43.435997 
	C115.444351,44.191227 116.722168,44.719551 117.919144,45.546883 
	C116.894180,46.821209 115.950073,47.796532 115.005966,48.771854 
z"/>
<path fill="#88275A" opacity="1.000000" stroke="none" 
	d="
M115.407394,48.848396 
	C115.950073,47.796532 116.894180,46.821209 118.207092,45.456596 
	C119.073494,44.769707 119.571083,44.472107 120.068680,44.174507 
	C123.718040,43.585651 125.437233,45.064560 125.053047,48.814419 
	C124.271606,56.441853 123.495583,64.069839 122.725891,72.105125 
	C122.422607,75.492401 122.110779,78.472145 121.861633,81.765114 
	C120.718948,82.618980 119.513565,83.159622 118.308182,83.700272 
	C117.857697,82.543640 117.020172,81.387123 117.019844,80.230370 
	C117.017815,72.979424 117.246475,65.728668 117.285347,58.477242 
	C117.292496,57.142002 116.780930,55.803982 116.397392,53.920055 
	C118.929665,51.610668 118.967407,50.464020 115.407394,48.848396 
z"/>
<path fill="#E0D5CF" opacity="1.000000" stroke="none" 
	d="
M56.975475,31.905382 
	C56.983887,31.181107 56.992302,30.456829 56.999451,29.370626 
	C56.998180,29.008699 57.000896,28.999945 57.336735,29.001518 
	C58.115402,29.001925 58.558235,29.000759 59.426678,29.001661 
	C63.569576,29.333000 67.286858,29.662273 71.003693,29.659653 
	C71.002609,28.885242 71.001968,28.442726 71.001328,28.000208 
	C71.785561,28.166838 72.690071,28.137062 73.334641,28.531773 
	C77.721458,31.218128 82.053543,33.993877 86.823730,37.083237 
	C87.447037,37.682316 87.699814,37.872681 88.002487,37.996796 
	C87.766655,38.960186 87.501793,40.770573 87.299217,40.763626 
	C81.596817,40.568165 75.900711,40.189194 70.493332,39.491226 
	C72.399864,37.959118 74.016647,36.776093 75.633430,35.593071 
	C74.803856,34.485611 74.005684,32.497795 73.137711,32.466831 
	C71.652390,32.413849 69.555550,33.209419 68.791344,34.361969 
	C68.173660,35.293541 69.139626,37.275166 69.403091,38.790989 
	C68.869461,38.849400 68.335838,38.907810 67.150116,38.985352 
	C66.331299,39.005672 66.164574,39.006863 65.997841,39.008053 
	C65.569641,39.003605 65.141449,38.999153 64.428696,38.648758 
	C65.055901,32.737679 63.220142,31.099421 56.975475,31.905382 
z"/>
<path fill="#7B1C4E" opacity="1.000000" stroke="none" 
	d="
M59.135998,62.446487 
	C59.039459,62.207684 58.870987,62.042038 58.342194,61.659775 
	C57.764099,61.152859 57.474396,60.935711 57.184696,60.718559 
	C57.184696,60.718559 57.248360,60.794682 57.168728,60.413071 
	C57.006435,57.690144 56.923771,55.348835 57.008537,52.669724 
	C59.785381,51.498219 62.394802,50.664513 65.004227,49.830811 
	C65.360596,49.932693 65.716972,50.034580 66.567261,50.431519 
	C68.005226,52.168850 68.949265,53.611126 69.893311,55.053406 
	C69.973846,55.786617 70.054382,56.519825 70.142746,57.623631 
	C68.847427,61.457630 66.840454,63.940815 61.934368,63.273735 
	C60.525509,62.926537 59.830753,62.686516 59.135998,62.446487 
z"/>
<path fill="#D9D7D5" opacity="1.000000" stroke="none" 
	d="
M64.925629,49.519901 
	C62.394802,50.664513 59.785381,51.498219 56.595646,52.671406 
	C54.251431,53.296261 52.485165,53.567879 50.724201,53.870365 
	C48.332157,54.281258 46.847042,53.589996 47.368027,50.858597 
	C51.363506,51.409779 52.535801,48.824635 53.515114,46.209747 
	C54.116959,44.602734 54.349632,42.857452 54.748070,41.174255 
	C54.748066,41.174255 54.925392,41.047440 55.391357,40.987473 
	C58.129948,41.019249 60.402573,41.110992 62.675194,41.202732 
	C64.494774,43.574276 61.306320,47.304340 64.925629,49.519901 
z"/>
<path fill="#D89D1A" opacity="1.000000" stroke="none" 
	d="
M62.867638,41.020981 
	C60.402573,41.110992 58.129948,41.019249 55.474812,40.917351 
	C55.256992,38.379944 55.421684,35.852695 56.041977,33.029022 
	C56.771721,32.557503 56.910435,32.307289 56.913715,31.981956 
	C56.913715,31.981956 56.986622,31.977852 56.981049,31.941616 
	C63.220142,31.099421 65.055901,32.737679 64.107529,38.649067 
	C63.733963,39.609951 63.397018,40.224590 62.867638,41.020981 
z"/>
<path fill="#892A60" opacity="1.000000" stroke="none" 
	d="
M156.081451,62.331345 
	C157.098343,61.222610 158.056198,60.445717 159.004486,59.676590 
	C163.445831,66.958839 163.051270,71.860687 158.149094,72.481232 
	C157.715332,69.724060 157.283279,66.977783 156.498047,64.116661 
	C156.104050,63.555607 156.063232,63.109394 156.081451,62.331345 
z"/>
<path fill="#D8A024" opacity="1.000000" stroke="none" 
	d="
M69.571014,38.841545 
	C69.139626,37.275166 68.173660,35.293541 68.791344,34.361969 
	C69.555550,33.209419 71.652390,32.413849 73.137711,32.466831 
	C74.005684,32.497795 74.803856,34.485611 75.633430,35.593071 
	C74.016647,36.776093 72.399864,37.959118 70.383011,39.143105 
	C69.982925,39.144066 69.738937,38.892101 69.571014,38.841545 
z"/>
<path fill="#8C3263" opacity="1.000000" stroke="none" 
	d="
M150.059265,57.698162 
	C148.311035,59.125259 146.722076,60.242390 145.058929,61.689285 
	C144.848694,59.848984 144.262634,57.567696 144.760254,55.554237 
	C145.021851,54.495800 147.179153,53.905880 148.480423,53.104401 
	C149.059799,54.532330 149.639175,55.960262 150.059265,57.698162 
z"/>
<path fill="#D9D6D1" opacity="1.000000" stroke="none" 
	d="
M59.001064,28.999596 
	C58.558235,29.000759 58.115402,29.001925 57.340622,29.000574 
	C58.170059,26.822344 59.331444,24.646631 60.492828,22.470919 
	C62.220402,23.448305 63.947979,24.425690 65.627922,25.823914 
	C65.321281,26.448376 65.127686,26.701948 64.611908,27.003183 
	C62.483219,27.667131 60.742142,28.333363 59.001064,28.999596 
z"/>
<path fill="#D9D3D1" opacity="1.000000" stroke="none" 
	d="
M70.190399,54.899792 
	C68.949265,53.611126 68.005226,52.168850 66.844254,50.456455 
	C68.483994,50.560974 70.340645,50.935608 72.197311,51.310242 
	C71.627373,52.455555 71.057434,53.600864 70.190399,54.899792 
z"/>
<path fill="#D9D7D5" opacity="1.000000" stroke="none" 
	d="
M119.920151,43.844749 
	C119.571083,44.472107 119.073494,44.769707 118.287949,45.157593 
	C116.722168,44.719551 115.444351,44.191227 113.910774,43.424706 
	C115.807053,41.188793 117.938591,39.572578 119.920151,43.844749 
z"/>
<path fill="#DDD9D6" opacity="1.000000" stroke="none" 
	d="
M64.999512,27.005468 
	C65.127686,26.701948 65.321281,26.448376 65.788155,26.122280 
	C67.516846,26.490391 69.037682,26.980970 70.779922,27.735878 
	C71.001968,28.442726 71.002609,28.885242 70.698303,29.499474 
	C68.595413,28.782612 66.797462,27.894041 64.999512,27.005468 
z"/>
<path fill="#D9D7D5" opacity="1.000000" stroke="none" 
	d="
M111.993042,42.568726 
	C111.411240,42.859886 110.818573,42.827736 110.071503,42.531128 
	C110.351685,41.709347 110.786270,41.152020 111.220856,40.594696 
	C111.474632,41.144936 111.728409,41.695175 111.993042,42.568726 
z"/>
<path fill="#8C3263" opacity="1.000000" stroke="none" 
	d="
M145.009827,62.335434 
	C145.180618,62.544884 145.382339,63.080879 145.404022,63.786964 
	C145.162903,63.525368 145.101822,63.093674 145.009827,62.335434 
z"/>
<path fill="#D9D7D5" opacity="1.000000" stroke="none" 
	d="
M66.095100,39.150608 
	C66.164574,39.006863 66.331299,39.005672 66.748032,39.008175 
	C66.729485,39.105633 66.460922,39.199398 66.095100,39.150608 
z"/>
<path fill="#D9D7D5" opacity="1.000000" stroke="none" 
	d="
M87.880615,37.790504 
	C87.699814,37.872681 87.447037,37.682316 87.121750,37.220222 
	C87.303528,37.136501 87.556656,37.326324 87.880615,37.790504 
z"/>
<path fill="#DBD2D0" opacity="1.000000" stroke="none" 
	d="
M25.764385,86.796814 
	C27.288628,90.178696 26.850725,92.674431 24.379034,95.474113 
	C22.759230,97.308876 22.736568,100.553673 21.997883,103.583557 
	C20.689848,103.051399 18.329445,102.186859 18.245733,101.140221 
	C17.693388,94.234467 17.606903,87.290077 17.453884,80.356400 
	C17.441633,79.801338 18.071302,79.232109 18.394979,78.682510 
	C20.647356,79.693817 22.788181,80.655037 25.277958,81.772926 
	C25.347914,83.080460 25.441929,84.837685 25.764385,86.796814 
z"/>
<path fill="#D43721" opacity="1.000000" stroke="none" 
	d="
M56.749432,80.732811 
	C50.492886,84.517441 45.215382,83.706566 44.421272,78.458046 
	C44.065472,76.106438 45.073536,72.547478 46.780869,71.168716 
	C48.458248,69.814133 52.412472,69.518440 54.249775,70.620895 
	C56.062721,71.708740 56.574196,75.095222 57.435349,77.550873 
	C57.658073,78.186005 57.051327,79.112022 56.797722,80.258804 
	C56.769848,80.613190 56.812977,80.732742 56.749432,80.732811 
z"/>
<path fill="#D99817" opacity="1.000000" stroke="none" 
	d="
M34.380215,62.861866 
	C31.518604,55.195515 34.307659,51.035995 42.387436,51.559814 
	C47.712482,56.709801 47.340599,60.218277 41.624592,64.857552 
	C41.624592,64.857552 41.303955,64.787956 40.779743,64.844543 
	C39.003124,64.847733 37.750717,64.794327 36.498310,64.740921 
	C35.882450,64.169930 35.266586,63.598930 34.380215,62.861866 
z"/>
<path fill="#811852" opacity="1.000000" stroke="none" 
	d="
M74.554962,64.999802 
	C77.707756,68.670212 78.152428,72.150116 74.212746,75.714302 
	C70.123566,76.697861 66.101334,77.364876 64.915947,72.161720 
	C63.671089,66.697479 68.185471,63.282135 74.554962,64.999802 
z"/>
<path fill="#CF3720" opacity="1.000000" stroke="none" 
	d="
M37.921150,82.555801 
	C36.625275,82.978294 35.495514,83.075752 34.130451,83.421501 
	C31.606321,81.231377 28.384867,79.394386 30.253361,74.963142 
	C31.818542,71.251213 33.930222,69.472961 37.853775,71.098648 
	C41.083565,72.436874 42.140408,76.724091 40.151161,80.092415 
	C39.661171,80.922112 38.785587,81.524094 37.921150,82.555801 
z"/>
<path fill="#7E1753" opacity="1.000000" stroke="none" 
	d="
M77.406898,82.857948 
	C76.866432,85.714081 76.569328,88.859169 72.364746,89.212418 
	C69.060936,88.907028 66.637070,87.532249 66.993919,84.330208 
	C67.197495,82.503456 69.218781,79.255257 69.857262,79.386780 
	C72.397369,79.909981 74.715523,81.510689 77.406898,82.857948 
z"/>
<path fill="#D8D7D4" opacity="1.000000" stroke="none" 
	d="
M27.305950,106.180313 
	C28.104893,105.734268 29.985937,104.975098 30.183863,105.286324 
	C31.154121,106.811989 32.451412,108.744293 32.205582,110.308556 
	C31.575603,114.317177 30.189316,118.206947 29.017132,122.464989 
	C25.106216,121.045151 23.532206,118.091103 23.999887,113.411789 
	C29.101305,111.873405 29.774673,110.635773 27.305950,106.180313 
z"/>
<path fill="#D7D1CE" opacity="1.000000" stroke="none" 
	d="
M14.000307,112.569649 
	C13.503898,113.256615 13.007333,113.514145 12.255117,113.885681 
	C10.557210,113.766113 9.114954,113.532532 7.336308,113.148560 
	C7.048316,110.576080 7.036541,108.150856 7.162184,105.732780 
	C7.285584,103.357872 7.548590,100.990211 8.376249,98.553047 
	C12.284607,102.405914 14.484168,106.730980 14.000307,112.569649 
z"/>
<path fill="#DFCFC7" opacity="1.000000" stroke="none" 
	d="
M42.000633,64.902664 
	C47.340599,60.218277 47.712482,56.709801 42.772202,51.567024 
	C42.910042,51.014580 43.278969,50.745667 44.141953,50.304863 
	C45.418053,50.377407 46.200089,50.621841 46.982124,50.866276 
	C46.847042,53.589996 48.332157,54.281258 50.724201,53.870365 
	C52.485165,53.567879 54.251431,53.296261 56.428223,53.009205 
	C56.923771,55.348835 57.006435,57.690144 57.194511,60.370674 
	C55.915005,59.252464 54.530083,57.795040 52.200787,55.343796 
	C50.087738,55.429024 48.125576,57.068954 48.142784,60.952347 
	C48.148521,62.247379 47.841755,63.543800 47.289402,64.809746 
	C46.900959,64.779907 46.607109,64.763794 46.607109,64.763794 
	C46.607109,64.763794 47.000782,64.999374 47.000782,64.999374 
	C45.459412,64.982170 43.918045,64.964973 42.000633,64.902664 
z"/>
<path fill="#741C4E" opacity="1.000000" stroke="none" 
	d="
M69.711655,97.498123 
	C67.911072,97.943253 66.249115,98.071228 64.269974,98.097382 
	C63.680553,96.464195 63.408314,94.932846 63.450073,92.916290 
	C64.218590,91.987106 64.673103,91.543114 65.127625,91.099113 
	C65.127625,91.099113 65.110962,91.121384 65.126816,91.127762 
	C69.697937,90.825027 71.329697,92.791939 69.711655,97.498123 
z"/>
<path fill="#C94330" opacity="1.000000" stroke="none" 
	d="
M14.363459,63.002048 
	C15.621650,61.411949 16.901321,60.200615 18.180990,58.989277 
	C19.046980,60.044254 20.660124,61.147499 20.595856,62.142380 
	C20.509325,63.481884 19.129818,64.737854 18.305244,66.029678 
	C16.998476,65.146721 15.691707,64.263771 14.363459,63.002048 
z"/>
<path fill="#C93E28" opacity="1.000000" stroke="none" 
	d="
M20.106823,69.040985 
	C21.472025,66.168274 23.951487,65.706184 26.105196,67.375305 
	C27.203371,68.226387 27.056299,70.684258 27.093208,72.207901 
	C24.816553,71.327576 22.918783,70.655167 20.911549,69.787506 
	C20.618921,69.347221 20.387167,69.163467 20.106823,69.040985 
z"/>
<path fill="#C24222" opacity="1.000000" stroke="none" 
	d="
M19.840488,69.301178 
	C20.387167,69.163467 20.618921,69.347221 20.811440,70.072739 
	C22.446180,72.026398 24.071566,73.499565 25.714127,75.249695 
	C25.827019,75.684952 25.922739,75.843246 26.018461,76.001549 
	C20.913900,77.865829 18.546675,75.500122 19.840488,69.301178 
M21.913542,73.728210 
	C21.913542,73.728210 21.565268,73.735443 21.565268,73.735443 
	C21.565268,73.735443 21.955494,74.034821 22.214680,74.398804 
	C22.542723,74.388016 22.870766,74.377235 23.198809,74.366447 
	C22.810755,74.229439 22.422701,74.092422 21.913542,73.728210 
z"/>
<path fill="#DB2F17" opacity="1.000000" stroke="none" 
	d="
M25.696953,74.972740 
	C24.071566,73.499565 22.446180,72.026398 20.920904,70.267990 
	C22.918783,70.655167 24.816553,71.327576 26.833681,72.305130 
	C26.712645,72.890083 26.472252,73.169884 26.152529,73.991455 
	C25.947783,74.679741 25.822367,74.826241 25.696953,74.972740 
z"/>
<path fill="#D9D6D1" opacity="1.000000" stroke="none" 
	d="
M36.161453,64.837883 
	C37.750717,64.794327 39.003124,64.847733 40.637001,64.925400 
	C39.145405,65.569527 37.272346,66.189392 35.399284,66.809250 
	C35.541058,66.184448 35.682827,65.559647 36.161453,64.837883 
z"/>
<path fill="#D9D7D5" opacity="1.000000" stroke="none" 
	d="
M27.956921,84.527054 
	C27.818813,84.181984 27.896164,83.840111 27.973515,83.498230 
	C28.039803,83.842232 28.106092,84.186241 27.956921,84.527054 
z"/>
<path fill="#D9D7D5" opacity="1.000000" stroke="none" 
	d="
M64.336609,78.408325 
	C63.997074,78.256386 63.812008,77.957733 63.626942,77.659073 
	C63.914986,77.859917 64.203026,78.060760 64.336609,78.408325 
z"/>
<path fill="#DBD2D0" opacity="1.000000" stroke="none" 
	d="
M25.714127,75.249695 
	C25.822367,74.826241 25.947783,74.679741 26.184496,74.266220 
	C26.702013,74.359169 27.108234,74.719139 27.514454,75.079117 
	C27.196497,75.358376 26.878544,75.637642 26.289526,75.959229 
	C25.922739,75.843246 25.827019,75.684952 25.714127,75.249695 
z"/>
<path fill="#DFCFC7" opacity="1.000000" stroke="none" 
	d="
M59.218327,62.742424 
	C59.830753,62.686516 60.525509,62.926537 61.568840,63.286942 
	C61.045158,63.284336 60.172909,63.161350 59.218327,62.742424 
z"/>
<path fill="#CF3720" opacity="1.000000" stroke="none" 
	d="
M42.491978,79.500916 
	C42.509338,79.507401 42.474617,79.494423 42.491978,79.500916 
z"/>
<path fill="#DFCFC7" opacity="1.000000" stroke="none" 
	d="
M57.275242,60.987133 
	C57.474396,60.935711 57.764099,61.152859 58.163925,61.626717 
	C57.971291,61.674191 57.668541,61.464947 57.275242,60.987133 
z"/>
<path fill="#D89815" opacity="1.000000" stroke="none" 
	d="
M47.368027,50.858597 
	C46.200089,50.621841 45.418053,50.377407 44.335632,50.022400 
	C40.937820,46.697933 41.066383,43.030323 43.904335,40.156185 
	C47.305103,36.712059 50.869289,38.839211 54.400597,41.207588 
	C54.349632,42.857452 54.116959,44.602734 53.515114,46.209747 
	C52.535801,48.824635 51.363506,51.409779 47.368027,50.858597 
z"/>
<path fill="#DCDAD8" opacity="1.000000" stroke="none" 
	d="
M40.839340,8.364515 
	C49.118484,8.048754 49.959721,8.903140 50.000130,17.569765 
	C48.570824,17.712946 47.145359,17.404055 45.711170,17.143108 
	C39.487526,16.010736 39.148224,15.450501 40.839340,8.364515 
z"/>
<path fill="#E0D5CF" opacity="1.000000" stroke="none" 
	d="
M56.742458,32.083324 
	C56.910435,32.307289 56.771721,32.557503 56.277325,32.757965 
	C56.181618,32.543564 56.352997,32.344021 56.742458,32.083324 
z"/>
<path fill="#892A60" opacity="1.000000" stroke="none" 
	d="
M162.530121,50.055573 
	C162.126587,51.096252 161.660583,51.831505 161.194580,52.566757 
	C160.810944,52.138783 160.427307,51.710808 160.043686,51.282837 
	C160.851654,50.771938 161.659637,50.261040 162.530121,50.055573 
z"/>
<path fill="#DFDEDD" opacity="1.000000" stroke="none" 
	d="
M157.589355,77.431396 
	C156.688721,77.823944 155.688400,77.855621 154.191742,77.805954 
	C154.435974,76.742470 155.176529,75.760330 156.321899,74.241295 
	C156.854492,75.531616 157.172089,76.301071 157.589355,77.431396 
z"/>
<path fill="#DFDEDD" opacity="1.000000" stroke="none" 
	d="
M212.969635,76.250961 
	C213.190277,76.177559 213.345810,76.338585 213.448166,76.528305 
	C213.477234,76.582207 213.351364,76.719696 213.151245,76.910065 
	C212.965393,76.832939 212.924866,76.664604 212.969635,76.250961 
z"/>
<path fill="#DCDAD8" opacity="1.000000" stroke="none" 
	d="
M146.026871,96.393997 
	C146.320084,96.765137 146.359985,97.128998 146.399887,97.492874 
	C146.144684,97.489716 145.889465,97.486549 145.634262,97.483383 
	C145.680695,97.117828 145.727127,96.752274 146.026871,96.393997 
z"/>
<path fill="#555553" opacity="1.000000" stroke="none" 
	d="
M159.143677,99.311111 
	C159.867447,99.285797 160.726959,99.538101 161.316315,99.959053 
	C160.457245,99.948044 159.868317,99.768379 159.143677,99.311111 
z"/>
<path fill="#DFDEDD" opacity="1.000000" stroke="none" 
	d="
M152.995575,102.662125 
	C152.842392,102.437561 152.702927,101.885147 152.761353,101.178055 
	C152.975937,101.460342 152.992615,101.897301 152.995575,102.662125 
z"/>
<path fill="#DCDAD8" opacity="1.000000" stroke="none" 
	d="
M156.439117,99.447815 
	C156.503067,99.401482 156.375183,99.494148 156.439117,99.447815 
z"/>
<path fill="#8A2C60" opacity="1.000000" stroke="none" 
	d="
M158.697388,79.056595 
	C158.920013,79.194977 158.912628,79.459213 158.877945,80.120407 
	C158.722900,80.072388 158.595139,79.627411 158.697388,79.056595 
z"/>
<path fill="#DFDEDD" opacity="1.000000" stroke="none" 
	d="
M207.994385,72.994293 
	C208.173965,72.642120 208.358551,72.295059 208.543121,71.947998 
	C208.483139,72.218925 208.423157,72.489861 208.186478,72.883606 
	C208.009781,73.006432 207.999374,72.999413 207.994385,72.994293 
z"/>
<path fill="#D9D3D1" opacity="1.000000" stroke="none" 
	d="
M78.998726,75.998322 
	C78.997452,75.996635 79.238396,75.604561 79.238396,75.604561 
	C79.238396,75.604561 79.223877,75.901840 79.113609,75.952164 
	C79.003342,76.002487 79.000000,76.000000 78.998726,75.998322 
z"/>
<path fill="#DCDAD8" opacity="1.000000" stroke="none" 
	d="
M113.471222,85.517426 
	C113.453377,85.481812 113.489067,85.553032 113.471222,85.517426 
z"/>
<path fill="#DCDAD8" opacity="1.000000" stroke="none" 
	d="
M64.042557,101.261353 
	C64.023926,101.037086 64.504242,101.009743 64.744492,101.002502 
	C64.832970,101.383667 64.681198,101.772072 64.529427,102.160484 
	C64.373344,101.935532 64.217270,101.710579 64.042557,101.261353 
z"/>
<path fill="#D9D3D1" opacity="1.000000" stroke="none" 
	d="
M64.775902,91.137054 
	C64.673103,91.543114 64.218590,91.987106 63.472656,92.571564 
	C63.595558,92.199677 64.009865,91.687332 64.775902,91.137054 
z"/>
<path fill="#D9D7D5" opacity="1.000000" stroke="none" 
	d="
M101.516739,102.545151 
	C101.468323,102.573837 101.565155,102.516457 101.516739,102.545151 
z"/>
<path fill="#8C2C60" opacity="1.000000" stroke="none" 
	d="
M135.003418,75.997482 
	C135.006836,75.994972 135.384872,76.235878 135.384872,76.235878 
	C135.384872,76.235878 135.097229,76.219505 135.046219,76.113007 
	C134.995209,76.006516 135.000000,76.000000 135.003418,75.997482 
z"/>
<path fill="#DDDADF" opacity="1.000000" stroke="none" 
	d="
M64.611908,27.003183 
	C66.797462,27.894041 68.595413,28.782612 70.698753,29.831366 
	C67.286858,29.662273 63.569576,29.333000 59.426678,29.001659 
	C60.742142,28.333363 62.483219,27.667131 64.611908,27.003183 
z"/>
<path fill="#D9D3D1" opacity="1.000000" stroke="none" 
	d="
M47.000389,64.999687 
	C47.000782,64.999374 46.607109,64.763794 46.607109,64.763794 
	C46.607109,64.763794 46.900959,64.779907 46.950188,64.890381 
	C46.999413,65.000847 47.000000,65.000000 47.000389,64.999687 
z"/>
<path fill="#DB2F17" opacity="1.000000" stroke="none" 
	d="
M22.034647,73.955406 
	C22.422701,74.092422 22.810755,74.229439 23.198809,74.366447 
	C22.870766,74.377235 22.542723,74.388016 22.106230,74.198311 
	C21.997780,73.997818 22.034647,73.955406 22.034647,73.955406 
z"/>
<path fill="#DB2F17" opacity="1.000000" stroke="none" 
	d="
M21.976637,74.016319 
	C21.955494,74.034821 21.565268,73.735443 21.565268,73.735443 
	C21.565268,73.735443 21.913542,73.728210 21.974094,73.841812 
	C22.034647,73.955406 21.997780,73.997818 21.976637,74.016319 
z"/>
</svg>