<svg version="1.1" id="Layer_1" xmlns="http://www.w3.org/2000/svg" xmlns:xlink="http://www.w3.org/1999/xlink" x="0px" y="0px"
	 width="100%" viewBox="0 0 236 137" enable-background="new 0 0 236 137" xml:space="preserve">
<path fill="#FEFEFE" opacity="1.000000" stroke="none" 
	d="
M141.000000,138.000000 
	C94.031181,138.000000 47.562366,138.000000 1.046775,138.000000 
	C1.046775,92.395180 1.046775,46.790302 1.046775,1.092712 
	C79.552010,1.092712 158.104156,1.092712 236.828156,1.092712 
	C236.828156,46.666157 236.828156,92.333015 236.828156,138.000000 
	C205.123932,138.000000 173.311966,138.000000 141.000000,138.000000 
M181.003937,86.003075 
	C181.003937,86.003075 181.021515,85.989326 181.295044,85.541954 
	C181.355652,85.378014 181.416275,85.214073 181.947693,84.907387 
	C182.089706,84.398956 182.231720,83.890518 182.373749,83.382095 
	C181.947510,83.503891 181.521271,83.625687 180.388351,83.877586 
	C179.899521,84.588936 179.410690,85.300285 178.419327,86.478798 
	C178.374832,87.496948 178.330338,88.515099 178.285843,89.533257 
	C178.673477,89.765045 179.061096,89.996834 179.448730,90.228622 
	C180.327744,89.158508 181.206757,88.088402 181.899445,86.508575 
	C181.602051,86.333443 181.304657,86.158310 181.003937,86.003075 
M72.967331,90.720566 
	C73.375549,90.834679 73.783768,90.948799 74.640617,91.009872 
	C74.640617,91.009872 75.077835,90.896172 75.799973,90.883263 
	C76.885002,90.595490 77.970039,90.307716 79.543213,90.005051 
	C79.543213,90.005051 80.030945,89.980057 80.658775,89.709663 
	C81.775009,89.770775 82.904564,89.960327 84.002647,89.846420 
	C84.698051,89.774277 85.346535,89.249916 86.630325,89.108658 
	C86.843712,89.109566 87.057106,89.110481 87.754768,89.526573 
	C88.494431,89.929352 89.234100,90.332138 89.973763,90.734924 
	C90.258507,90.087646 90.543259,89.440376 91.113510,88.350540 
	C91.246292,88.235542 91.379082,88.120552 91.765747,88.189072 
	C91.765747,88.189072 92.059731,88.297249 92.431870,88.833893 
	C94.613159,89.259315 96.794456,89.684738 99.528786,89.932320 
	C99.999763,89.614151 100.470749,89.295982 101.621178,89.276115 
	C108.678276,91.858414 108.911362,91.723061 109.427246,84.783813 
	C109.703789,84.583611 109.891914,84.320244 110.287727,83.346611 
	C111.525307,81.231483 112.762878,79.116348 114.774979,77.003372 
	C116.183533,77.335907 117.592087,77.668442 118.491661,78.398895 
	C118.994125,79.260635 119.496597,80.122375 120.743256,80.979134 
	C121.495811,79.987160 122.248367,78.995193 123.585678,77.937119 
	C123.718170,77.293510 123.850662,76.649910 123.989906,75.165062 
	C124.358612,72.344170 124.614182,69.498642 125.217194,66.728760 
	C125.308311,66.310173 127.017807,66.243912 127.986252,66.760513 
	C127.988548,67.507561 127.990845,68.254608 127.987114,69.906654 
	C127.581299,74.351196 127.175476,78.795731 126.759926,83.346870 
	C128.377960,82.618538 130.178665,81.807991 131.990295,80.223167 
	C131.653824,78.819145 131.317368,77.415131 130.898605,75.232109 
	C130.601288,73.155289 130.303955,71.078476 130.010864,68.203087 
	C130.014648,67.139389 130.018433,66.075684 130.756912,65.006927 
	C131.491486,65.019371 132.226044,65.031822 133.255798,65.611839 
	C134.166153,66.080460 135.076492,66.549088 135.989197,67.942734 
	C136.007736,79.628624 136.007736,79.628624 143.083221,82.724869 
	C143.904846,83.576103 144.726456,84.427338 145.202606,85.800919 
	C144.490860,86.504860 143.779099,87.208794 143.017242,87.363174 
	C142.589554,87.235184 142.161880,87.107201 141.317078,86.461922 
	C138.208435,81.252190 135.784927,86.768272 132.956985,86.421570 
	C129.576981,85.974365 126.196976,85.527168 122.521156,84.557617 
	C121.163788,84.953835 119.806419,85.350060 117.733597,85.441025 
	C117.237663,85.297188 116.741730,85.153358 116.016754,84.352829 
	C114.682938,84.568275 113.349129,84.783730 111.832214,85.784584 
	C111.893570,86.852570 111.954926,87.920563 112.262573,89.683159 
	C113.741768,89.466049 115.220970,89.248932 117.238792,89.112862 
	C117.420357,89.112206 117.601921,89.111549 118.382172,89.400711 
	C118.572723,89.287361 118.763275,89.174019 119.000237,89.000999 
	C119.000237,89.000999 118.945496,89.052849 118.723038,89.588814 
	C119.785370,89.707436 120.847702,89.826057 122.640778,90.047966 
	C124.830833,89.706795 127.020882,89.365623 129.343689,89.540337 
	C130.485550,89.659737 131.627396,89.779137 133.534164,90.217789 
	C136.367111,90.110176 139.200073,90.002556 142.808136,89.854980 
	C143.822189,89.636253 144.836227,89.417519 146.037949,89.795662 
	C148.874863,89.513466 151.711777,89.231262 155.026215,88.901566 
	C154.635620,84.300240 150.983749,85.176613 147.195572,85.158569 
	C146.794678,85.126274 146.393784,85.093979 145.992966,84.369583 
	C145.992798,83.908218 145.992630,83.446854 146.784637,82.990562 
	C149.523666,81.993546 152.262711,80.996521 155.285324,80.576508 
	C156.192078,81.044479 157.098831,81.512451 158.527954,82.398621 
	C158.690338,83.264252 158.852737,84.129875 159.004990,85.801003 
	C158.843765,87.377464 158.682541,88.953926 158.517929,90.563599 
	C164.327087,90.563599 169.848312,90.563599 175.699234,90.563599 
	C175.185776,89.424477 174.575546,88.712219 174.602097,88.024559 
	C174.764328,83.824448 174.881332,84.161026 170.594482,85.042656 
	C167.897598,85.597298 164.724915,85.280167 164.992081,80.206032 
	C165.000473,79.145645 165.008865,78.085258 165.726456,76.871811 
	C166.146088,75.580956 166.565720,74.290100 167.522781,73.235229 
	C168.015182,73.823891 168.507584,74.412560 169.003525,75.791611 
	C169.669434,77.188911 170.335327,78.586212 171.001221,79.998779 
	C171.001221,79.998779 171.016479,79.999084 171.069000,80.584335 
	C171.711304,80.718842 172.353607,80.853355 173.725067,80.987633 
	C180.062271,80.242813 173.663177,76.803413 174.999298,74.249176 
	C174.999741,73.499245 175.000168,72.749321 175.002579,71.253220 
	C175.004150,70.507057 175.005707,69.760895 175.735703,68.861694 
	C177.770218,66.500412 176.993057,62.649857 174.828323,63.565685 
	C171.242264,65.082832 168.889816,62.639709 165.143448,63.007675 
	C163.428558,63.012432 161.713669,63.017189 159.268188,63.010201 
	C158.182358,63.341717 157.096527,63.673233 155.317780,63.939613 
	C154.211334,63.631916 153.104874,63.324219 151.329300,62.984383 
	C150.883209,63.002415 150.437134,63.020447 149.392471,63.030849 
	C148.906464,63.331818 148.420456,63.632790 147.466003,63.978168 
	C147.466003,63.978168 146.996048,64.001350 146.330215,63.983971 
	C145.886230,63.990742 145.442245,63.997513 144.571884,63.496178 
	C141.047974,63.332939 137.524063,63.169701 133.084015,63.001053 
	C129.722778,63.000938 126.361542,63.000824 122.260963,63.077572 
	C120.723122,63.081989 119.133751,62.843594 117.661301,63.156101 
	C116.046898,63.498741 114.540367,64.349594 112.992867,64.995590 
	C112.992867,64.995590 112.979797,64.988014 112.400948,65.061432 
	C112.263016,65.708603 112.125092,66.355774 111.986519,67.512688 
	C111.997337,67.682259 112.008156,67.851830 111.920319,68.501465 
	C111.920319,68.501465 111.742607,68.958229 111.062798,69.005226 
	C110.783020,70.029976 110.503242,71.054733 110.093567,72.861404 
	C110.034393,73.913322 109.975227,74.965248 109.344162,76.067604 
	C108.229439,76.377335 107.114723,76.687065 105.254341,77.002625 
	C103.835724,77.335403 102.417099,77.668182 100.498322,77.999329 
	C100.331604,77.999359 100.164886,77.999390 99.914589,77.360054 
	C99.277016,76.912094 98.639435,76.464134 98.008354,75.272751 
	C98.276276,70.863754 101.975349,69.750267 105.732315,67.986511 
	C106.775856,67.446678 107.819405,66.906853 109.939629,65.810043 
	C107.021431,64.924156 105.503952,64.463493 103.516701,63.982777 
	C103.516701,63.982777 103.046936,63.962208 102.520599,63.414875 
	C98.357491,63.003975 94.193489,62.324032 90.031784,62.337795 
	C88.694794,62.342216 86.275047,64.125443 86.224731,65.183952 
	C86.038979,69.091660 86.637680,73.036667 86.249161,77.059586 
	C82.489807,78.651398 80.296867,76.257019 78.060600,73.121338 
	C78.078651,72.135712 78.096703,71.150078 78.607498,69.553299 
	C79.072098,67.152054 80.110237,64.352928 76.417656,63.735401 
	C73.324432,63.218105 70.142174,63.233234 66.332924,63.003773 
	C65.888618,63.002361 65.444305,63.000950 64.333664,62.997379 
	C63.889442,62.997551 63.445225,62.997719 62.334038,62.997967 
	C61.889408,62.998695 61.444782,62.999424 60.398056,63.077892 
	C60.260021,64.648018 60.121990,66.218147 59.344208,68.350357 
	C59.344208,72.028870 59.344208,75.707390 59.344208,79.739151 
	C61.192287,79.903694 63.085823,80.072281 65.023949,80.997528 
	C67.023453,84.149910 69.015457,84.078163 71.519867,80.777199 
	C72.012024,80.513756 72.504181,80.250313 73.784607,79.995468 
	C74.871719,81.022881 75.958832,82.050293 77.018501,83.739014 
	C77.006577,84.181831 76.994644,84.624657 76.386086,85.036858 
	C75.988388,85.056923 75.590683,85.076988 74.752357,84.989952 
	C74.752357,84.989952 74.300362,84.953560 73.959305,84.447968 
	C73.335915,84.978409 72.712524,85.508842 71.908028,86.789871 
	C72.270576,87.879768 72.633125,88.969658 73.016052,90.013664 
	C73.016052,90.013664 72.974480,90.041008 72.967331,90.720566 
M3.092060,67.653572 
	C3.131960,68.091141 3.171860,68.528717 3.044326,69.816780 
	C4.981725,75.909653 6.919124,82.002518 9.108575,88.721397 
	C13.082148,93.796478 17.174017,98.727051 24.158890,101.152534 
	C32.997471,105.388168 41.963711,104.416878 51.059475,102.485970 
	C52.863670,102.942207 54.667866,103.398453 57.004387,103.989304 
	C56.616055,101.791885 56.369595,100.397247 56.152012,99.166031 
	C58.636982,95.448921 67.139366,98.594673 65.594810,90.622894 
	C58.257435,89.225662 54.018097,91.762184 51.277836,98.918892 
	C49.855122,99.248917 48.432404,99.578941 46.998154,99.210335 
	C46.965885,98.743958 46.933620,98.277588 46.891071,97.005501 
	C47.562965,94.906570 47.924576,92.636497 48.968941,90.743004 
	C51.425034,86.289948 54.207188,82.016731 56.570198,78.141731 
	C52.954479,75.481476 50.563152,73.206970 47.738201,71.808281 
	C45.519760,70.709892 42.686691,70.131088 40.287067,70.467072 
	C39.293724,70.606155 38.038364,73.771866 38.134407,75.492317 
	C38.242424,77.427269 39.728470,79.290771 40.639107,81.173729 
	C41.393646,82.733910 42.510963,84.201111 42.892071,85.843079 
	C43.819763,89.839943 44.413048,93.914429 44.237244,97.981842 
	C42.158009,97.986763 40.078773,97.991692 37.612659,97.527725 
	C37.074100,98.342285 36.535545,99.156837 35.240002,99.883759 
	C33.505070,99.443359 31.770136,99.002953 30.014013,97.821342 
	C28.504467,90.277046 36.158649,96.043190 38.239079,91.613190 
	C30.803717,91.034546 23.950378,90.501190 16.611721,89.731003 
	C16.340773,89.279602 16.069822,88.828194 16.120768,87.642761 
	C17.080446,85.761681 18.040125,83.880592 19.290171,82.452095 
	C19.860302,82.301468 20.430431,82.150833 21.837343,81.999474 
	C23.950096,81.676247 27.136967,83.213043 27.756771,79.006790 
	C28.503695,79.005066 29.250618,79.003334 30.083405,79.641663 
	C30.721218,80.095566 31.359034,80.549477 32.361511,81.465797 
	C32.668930,81.497139 32.978363,81.561272 33.282715,81.542603 
	C33.393860,81.535782 33.588650,81.327797 33.583672,81.218971 
	C33.407730,77.369759 33.212532,73.521423 33.023685,69.745819 
	C34.624516,69.494766 35.756935,69.317169 37.397736,69.059845 
	C35.692360,66.312958 34.325912,64.112000 33.445744,61.318287 
	C37.373352,61.390743 40.230030,59.480675 42.758907,56.637608 
	C44.281437,54.925922 46.265350,53.632740 47.958515,52.061604 
	C48.933758,51.156651 49.742775,50.072559 50.626621,49.069107 
	C48.797764,48.919861 46.963737,48.610653 45.141613,48.669582 
	C43.548111,48.721127 41.968002,49.186710 39.936893,49.548702 
	C41.020737,47.101944 41.516697,45.982319 41.987831,44.171295 
	C39.776993,42.794094 37.566154,41.416893 35.253208,39.976082 
	C36.064766,38.808556 36.813267,37.731747 37.964920,36.074944 
	C33.053982,35.817352 28.811100,35.951668 24.694384,35.295017 
	C18.558838,34.316338 16.877661,35.693455 17.391912,41.870186 
	C16.359091,42.619678 15.326270,43.369171 13.527903,44.057014 
	C10.137425,44.621567 9.979302,44.847260 11.078585,47.755680 
	C10.126678,48.975979 9.174770,50.196274 7.830276,50.780560 
	C4.864855,49.051258 3.788337,51.522713 3.519896,53.356312 
	C3.158191,55.826950 3.784073,58.442169 3.962116,61.758099 
	C3.934871,62.775146 3.907625,63.792194 3.379198,65.188820 
	C3.314902,65.792252 3.250606,66.395676 3.092060,67.653572 
M205.181152,90.285614 
	C205.439133,90.149658 205.697128,90.013702 206.495895,89.632294 
	C207.481384,89.787292 208.466858,89.942299 209.452347,90.097298 
	C209.758347,89.783669 210.064331,89.470032 210.370316,89.156395 
	C208.511673,87.466583 206.653030,85.776779 204.433746,83.759087 
	C203.864441,85.113953 203.506302,85.966301 202.764114,87.326614 
	C201.471420,86.285591 200.178741,85.244576 198.704651,84.057472 
	C198.591370,91.828156 198.596954,91.832863 205.093643,89.862160 
	C205.093643,89.862160 205.088806,89.886192 205.181152,90.285614 
M188.012634,66.921425 
	C187.505676,66.058502 186.998734,65.195580 186.491806,64.332657 
	C186.040695,65.097298 185.237640,65.845459 185.200928,66.629494 
	C185.060867,69.620895 184.991684,72.639236 185.251648,75.616463 
	C185.396362,77.274094 185.933121,80.031052 186.832626,80.271072 
	C189.272934,80.922241 192.001129,80.494446 194.615189,80.494446 
	C194.642334,79.919632 194.669495,79.344810 194.696640,78.769997 
	C192.552475,78.373589 190.408310,77.977173 188.004517,77.532761 
	C188.004517,74.107231 188.004517,70.964615 188.012634,66.921425 
M216.937515,75.979874 
	C216.937515,72.533676 216.937515,69.087479 216.937515,65.641281 
	C216.423386,65.630157 215.909256,65.619026 215.395111,65.607903 
	C215.123718,69.000717 214.852341,72.393539 214.546600,76.215637 
	C213.146683,75.033203 212.302902,74.320511 210.364410,72.683174 
	C211.548447,75.306068 211.943359,76.705688 212.751572,77.800117 
	C213.364090,78.629570 214.503387,79.070000 215.408279,79.683548 
	C215.910782,78.731239 216.413284,77.778931 216.937515,75.979874 
M221.012939,66.613670 
	C221.145325,67.180504 221.277710,67.747330 221.410110,68.314163 
	C221.642914,68.222916 221.875717,68.131668 222.108521,68.040421 
	C221.764282,67.339500 221.420044,66.638580 221.012939,66.613670 
z"/>
<path fill="#F1F6F9" opacity="1.000000" stroke="none" 
	d="
M175.007278,69.014732 
	C175.005707,69.760895 175.004150,70.507057 174.667480,71.676056 
	C174.552261,73.065590 174.772156,74.032295 174.992065,74.999001 
	C173.663177,76.803413 180.062271,80.242813 173.194397,80.745857 
	C172.114639,80.335754 171.565552,80.167419 171.016479,79.999084 
	C171.016479,79.999084 171.001221,79.998779 171.000580,79.597450 
	C170.333282,77.797821 169.666641,76.399521 169.000000,75.001221 
	C168.507584,74.412560 168.015182,73.823891 166.896805,73.184097 
	C165.852966,74.430275 165.435120,75.727570 165.017258,77.024872 
	C165.008865,78.085258 165.000473,79.145645 164.608597,80.604309 
	C162.488449,82.333557 160.751801,83.664528 159.015137,84.995506 
	C158.852737,84.129875 158.690338,83.264252 158.401581,81.883636 
	C159.163437,79.741371 160.051636,78.114082 161.210190,75.991493 
	C159.274734,75.703705 157.952454,75.507088 157.752869,75.477409 
	C156.527374,77.491783 155.764557,78.745644 155.001740,79.999496 
	C152.262711,80.996521 149.523666,81.993546 146.183594,82.728806 
	C144.725555,82.311165 143.868576,82.155281 143.011597,81.999405 
	C136.007736,79.628624 136.007736,79.628624 136.182770,67.208969 
	C138.132767,66.583679 139.889175,66.692139 142.332382,66.843010 
	C142.795044,66.350365 143.896652,65.177330 144.998260,64.004288 
	C145.442245,63.997513 145.886230,63.990742 146.766632,64.205124 
	C147.392517,64.695671 147.646683,64.871559 147.982635,64.974243 
	C147.999695,64.994560 148.036560,65.032715 148.230469,65.283569 
	C149.615723,64.695129 150.807083,63.855827 151.998428,63.016525 
	C153.104874,63.324219 154.211334,63.631916 155.961121,64.116272 
	C158.494446,65.895065 160.100983,66.740181 159.998779,63.021946 
	C161.713669,63.017189 163.428558,63.012432 165.576691,63.376244 
	C166.144287,68.817566 170.393982,65.272232 172.249146,66.728119 
	C173.188278,67.465141 174.089127,68.250969 175.007278,69.014732 
M168.704254,70.103462 
	C168.450226,69.832405 168.200943,69.556259 167.929733,69.303642 
	C167.914413,69.289375 167.719009,69.468452 167.607422,69.557541 
	C167.873108,69.841217 168.138809,70.124901 168.704254,70.103462 
M155.627991,67.474495 
	C155.840210,67.529045 156.052444,67.583595 156.264664,67.638138 
	C156.128235,67.503998 155.991791,67.369850 155.627991,67.474495 
z"/>
<path fill="#F4F9F9" opacity="1.000000" stroke="none" 
	d="
M99.998169,77.999413 
	C100.164886,77.999390 100.331604,77.999359 100.799072,78.329460 
	C102.732506,78.771637 104.365181,78.883682 105.998932,78.997864 
	C106.000000,79.000000 106.004272,79.002136 106.010063,79.360565 
	C107.341110,81.143890 108.666367,82.568802 109.991623,83.993706 
	C109.891914,84.320244 109.703789,84.583611 108.794174,84.890678 
	C106.701881,84.801186 105.148895,84.212700 103.812996,84.532104 
	C102.737595,84.789246 101.924690,86.144211 100.703995,86.909912 
	C99.307182,86.539536 98.201706,86.271324 96.767975,85.872826 
	C94.975548,85.796288 93.511383,85.850037 91.664711,85.868210 
	C89.606255,86.230118 87.930290,86.627609 86.136749,86.686180 
	C85.590584,86.573448 85.161995,86.799629 84.619644,86.983414 
	C84.505882,86.941010 84.281494,87.033783 84.327591,86.634460 
	C84.268181,85.988800 84.162666,85.742462 84.002472,85.222809 
	C81.647171,84.325562 79.346558,83.701637 77.045944,83.077705 
	C75.958832,82.050293 74.871719,81.022881 73.392181,79.574860 
	C73.318993,76.332146 73.638237,73.510033 73.957474,70.687920 
	C73.335876,70.626968 72.714287,70.566010 72.092690,70.505058 
	C71.728607,73.997910 71.364525,77.490768 71.000435,80.983627 
	C69.015457,84.078163 67.023453,84.149910 65.303818,80.509171 
	C65.747269,79.801010 65.930359,79.591637 66.058113,79.352669 
	C66.083893,79.304428 65.910370,79.060257 65.811378,79.048126 
	C64.373589,78.872002 62.932842,78.720032 61.655167,78.580078 
	C61.064579,74.766365 60.524269,71.277313 59.983955,67.788269 
	C60.121990,66.218147 60.260021,64.648018 60.737297,63.338062 
	C61.484680,63.917229 61.892822,64.236229 62.300964,64.555222 
	C62.534309,64.036110 62.767654,63.516998 63.001003,62.997887 
	C63.445225,62.997719 63.889442,62.997551 64.705917,63.365776 
	C66.233551,66.396233 67.388947,69.058281 68.544334,71.720337 
	C69.027313,71.644783 69.510292,71.569229 69.993279,71.493683 
	C69.879189,70.228027 70.028786,68.860474 69.588417,67.720909 
	C68.948608,66.065216 67.883224,64.573982 66.999336,63.012611 
	C70.142174,63.233234 73.324432,63.218105 76.417656,63.735401 
	C80.110237,64.352928 79.072098,67.152054 77.997833,69.852417 
	C75.282784,71.840843 74.981041,73.181358 78.105209,73.859360 
	C80.296867,76.257019 82.489807,78.651398 86.833214,77.284424 
	C89.305420,77.406593 91.193565,77.303925 93.333672,77.187561 
	C90.686775,72.555496 92.292793,69.701309 97.123398,68.794350 
	C98.209229,68.590485 99.031799,66.984489 99.986801,66.012688 
	C99.998032,66.001411 100.016182,65.975616 100.372208,65.978844 
	C101.501137,65.308784 102.274040,64.635498 103.046936,63.962208 
	C103.046936,63.962208 103.516701,63.982777 103.784943,64.337608 
	C104.369499,65.791985 104.685822,66.891533 105.002144,67.991074 
	C101.975349,69.750267 98.276276,70.863754 98.047462,75.962646 
	C98.723770,77.101501 99.360970,77.550453 99.998169,77.999413 
z"/>
<path fill="#F7FAFA" opacity="1.000000" stroke="none" 
	d="
M18.999805,81.999512 
	C18.040125,83.880592 17.080446,85.761681 15.712360,87.818588 
	C14.588630,87.251617 13.873304,86.508820 13.048394,85.490051 
	C12.650056,84.952316 12.361303,84.690544 12.163229,84.337097 
	C12.253906,84.245422 12.124682,84.022240 12.048486,83.659531 
	C10.306146,78.529625 8.640001,73.762428 7.027438,68.619797 
	C7.080873,67.234360 7.080727,66.224365 7.383840,65.085396 
	C9.305264,57.637516 11.679368,50.691460 17.541071,45.557858 
	C17.863440,45.871422 17.992117,45.997124 18.143848,46.458923 
	C19.342649,47.141472 20.499153,47.609337 21.699654,47.799587 
	C22.856733,47.982956 24.513102,47.420750 25.122160,48.023174 
	C25.818510,48.711941 25.959663,50.408035 25.700722,51.516628 
	C25.264595,53.383797 24.322605,55.132809 23.271366,57.024162 
	C22.291424,58.140617 21.373341,59.082607 21.021154,60.202557 
	C19.586386,64.765099 18.324909,69.382133 16.963591,73.643753 
	C15.936358,72.951561 14.945108,72.594696 13.953858,72.237823 
	C14.220659,73.448860 14.199703,75.531441 14.800820,75.729904 
	C18.796373,77.049103 22.925060,77.965057 27.010456,79.012131 
	C27.136967,83.213043 23.950096,81.676247 21.380093,81.701187 
	C20.515535,81.083641 20.108227,80.764381 19.700920,80.445122 
	C19.467215,80.963249 19.233511,81.481384 18.999805,81.999512 
z"/>
<path fill="#B6B6B6" opacity="1.000000" stroke="none" 
	d="
M23.593390,56.931519 
	C24.322605,55.132809 25.264595,53.383797 25.700722,51.516628 
	C25.959663,50.408035 25.818510,48.711941 25.122160,48.023174 
	C24.513102,47.420750 22.856733,47.982956 21.699654,47.799587 
	C20.499153,47.609337 19.342649,47.141472 18.511383,46.405266 
	C20.815296,45.293907 22.776258,43.960991 24.733875,43.965885 
	C30.494179,43.980278 36.253159,44.525364 42.012657,44.862694 
	C41.516697,45.982319 41.020737,47.101944 39.936893,49.548702 
	C41.968002,49.186710 43.548111,48.721127 45.141613,48.669582 
	C46.963737,48.610653 48.797764,48.919861 50.626617,49.069107 
	C49.742775,50.072559 48.933758,51.156651 47.958515,52.061604 
	C46.265350,53.632740 44.281437,54.925922 42.758907,56.637608 
	C40.230030,59.480675 37.373352,61.390743 32.848198,61.717007 
	C31.534330,63.715267 30.818012,65.314804 30.000130,67.141144 
	C27.862211,64.126495 26.001602,61.502872 24.087101,58.545296 
	C23.886602,57.784733 23.739996,57.358124 23.593390,56.931519 
z"/>
<path fill="#B6B6B6" opacity="1.000000" stroke="none" 
	d="
M45.141018,97.957642 
	C44.413048,93.914429 43.819763,89.839943 42.892071,85.843079 
	C42.510963,84.201111 41.393646,82.733910 40.639107,81.173729 
	C39.728470,79.290771 38.242424,77.427269 38.134407,75.492317 
	C38.038364,73.771866 39.293724,70.606155 40.287067,70.467072 
	C42.686691,70.131088 45.519760,70.709892 47.738201,71.808281 
	C50.563152,73.206970 52.954479,75.481476 56.570198,78.141731 
	C54.207188,82.016731 51.425034,86.289948 48.968941,90.743004 
	C47.924576,92.636497 47.562965,94.906570 46.604340,97.448898 
	C45.925407,97.914078 45.533215,97.935860 45.141018,97.957642 
z"/>
<path fill="#F5F8F9" opacity="1.000000" stroke="none" 
	d="
M24.140993,58.879250 
	C26.001602,61.502872 27.862211,64.126495 30.000130,67.141144 
	C30.818012,65.314804 31.534330,63.715267 32.605057,62.013382 
	C34.325912,64.112000 35.692360,66.312958 37.397736,69.059845 
	C35.756935,69.317169 34.624516,69.494766 33.023685,69.745819 
	C33.212532,73.521423 33.407730,77.369759 33.583672,81.218971 
	C33.588650,81.327797 33.393860,81.535782 33.282715,81.542603 
	C32.978363,81.561272 32.668930,81.497139 32.138912,80.913254 
	C31.276722,79.907677 30.637133,79.454643 29.997543,79.001610 
	C29.250618,79.003334 28.503695,79.005066 27.383614,79.009460 
	C22.925060,77.965057 18.796373,77.049103 14.800820,75.729904 
	C14.199703,75.531441 14.220659,73.448860 13.953858,72.237823 
	C14.945108,72.594696 15.936358,72.951561 17.017044,74.015366 
	C20.309431,77.189621 19.586050,74.425827 20.049784,72.681168 
	C21.281929,68.045547 22.760458,63.475426 24.140993,58.879250 
M33.482159,67.588455 
	C33.482159,67.588455 33.417278,67.478546 33.482159,67.588455 
z"/>
<path fill="#F7FAFA" opacity="1.000000" stroke="none" 
	d="
M42.000244,44.516994 
	C36.253159,44.525364 30.494179,43.980278 24.733875,43.965885 
	C22.776258,43.960991 20.815296,45.293907 18.488327,46.069168 
	C17.992117,45.997124 17.863440,45.871422 17.722481,45.293003 
	C17.806046,43.778645 17.901894,42.716995 17.997742,41.655350 
	C16.877661,35.693455 18.558838,34.316338 24.694384,35.295017 
	C28.811100,35.951668 33.053982,35.817352 37.964920,36.074944 
	C36.813267,37.731747 36.064766,38.808556 35.253208,39.976082 
	C37.566154,41.416893 39.776993,42.794094 42.000244,44.516994 
z"/>
<path fill="#F2F5F6" opacity="1.000000" stroke="none" 
	d="
M102.783768,63.688541 
	C102.274040,64.635498 101.501137,65.308784 100.240692,65.783745 
	C99.406197,65.600647 99.059250,65.615868 98.712296,65.631096 
	C99.133385,65.762054 99.554474,65.893005 99.975563,66.023964 
	C99.031799,66.984489 98.209229,68.590485 97.123398,68.794350 
	C92.292793,69.701309 90.686775,72.555496 93.333672,77.187561 
	C91.193565,77.303925 89.305420,77.406593 87.179359,77.238449 
	C86.637680,73.036667 86.038979,69.091660 86.224731,65.183952 
	C86.275047,64.125443 88.694794,62.342216 90.031784,62.337795 
	C94.193489,62.324032 98.357491,63.003975 102.783768,63.688541 
z"/>
<path fill="#F2F5F6" opacity="1.000000" stroke="none" 
	d="
M159.010071,85.398254 
	C160.751801,83.664528 162.488449,82.333557 164.601562,81.001900 
	C164.724915,85.280167 167.897598,85.597298 170.594482,85.042656 
	C174.881332,84.161026 174.764328,83.824448 174.602097,88.024559 
	C174.575546,88.712219 175.185776,89.424477 175.699234,90.563599 
	C169.848312,90.563599 164.327087,90.563599 158.517929,90.563599 
	C158.682541,88.953926 158.843765,87.377464 159.010071,85.398254 
M162.710770,85.897362 
	C162.216812,85.952484 161.722855,86.007599 161.228897,86.062714 
	C161.341888,86.507149 161.454880,86.951591 161.567871,87.396027 
	C161.988037,87.094955 162.408188,86.793877 162.710770,85.897362 
M167.756821,88.470085 
	C168.144958,88.595146 168.528442,88.741646 168.925064,88.827499 
	C169.006058,88.845016 169.136322,88.634796 169.243866,88.529549 
	C168.854446,88.403374 168.465012,88.277191 167.756821,88.470085 
z"/>
<path fill="#65A4D5" opacity="1.000000" stroke="none" 
	d="
M13.157979,85.766022 
	C13.873304,86.508820 14.588630,87.251617 15.551414,88.185608 
	C16.069822,88.828194 16.340773,89.279602 16.983152,90.157135 
	C21.046396,93.058006 24.738207,95.532738 28.396378,98.143669 
	C28.362740,98.279869 28.325411,98.557961 27.898319,98.683746 
	C26.217154,99.430695 24.963083,100.051865 23.709011,100.673027 
	C17.174017,98.727051 13.082148,93.796478 9.249254,88.217125 
	C9.895251,86.181602 8.560296,83.286713 12.124682,84.022240 
	C12.124682,84.022240 12.253906,84.245422 12.156691,84.634674 
	C12.425643,85.271301 12.791810,85.518661 13.157979,85.766022 
z"/>
<path fill="#70B1DF" opacity="1.000000" stroke="none" 
	d="
M23.933952,100.912781 
	C24.963083,100.051865 26.217154,99.430695 27.865177,98.749451 
	C28.259127,98.689369 28.131544,98.751472 28.158779,98.960892 
	C28.438940,99.051361 28.691868,98.932419 28.787569,98.648651 
	C28.630342,98.483833 28.464853,98.059402 28.842930,98.230476 
	C29.492403,98.455215 29.763802,98.508881 30.035202,98.562553 
	C31.770136,99.002953 33.505070,99.443359 35.932518,100.011200 
	C37.056248,100.172783 37.487453,100.206924 38.235535,100.449646 
	C41.371498,100.408470 44.190594,100.158722 47.009689,99.908966 
	C48.432404,99.578941 49.855122,99.248917 51.938171,98.862495 
	C52.055695,99.807358 51.512875,100.808624 50.970055,101.809883 
	C41.963711,104.416878 32.997471,105.388168 23.933952,100.912781 
z"/>
<path fill="#F2F5F6" opacity="1.000000" stroke="none" 
	d="
M51.014763,102.147926 
	C51.512875,100.808624 52.055695,99.807358 52.276649,98.718742 
	C54.018097,91.762184 58.257435,89.225662 65.594810,90.622894 
	C67.139366,98.594673 58.636982,95.448921 56.152012,99.166031 
	C56.369595,100.397247 56.616055,101.791885 57.004387,103.989304 
	C54.667866,103.398453 52.863670,102.942207 51.014763,102.147926 
z"/>
<path fill="#3875B5" opacity="1.000000" stroke="none" 
	d="
M17.694828,41.762768 
	C17.901894,42.716995 17.806046,43.778645 17.528788,45.105145 
	C11.679368,50.691460 9.305264,57.637516 7.364013,64.728699 
	C6.941245,63.668686 6.841564,62.836395 6.772960,62.263592 
	C5.869402,63.513634 4.979558,64.744705 4.051207,65.681664 
	C3.968593,65.194778 3.924486,65.002014 3.880379,64.809242 
	C3.907625,63.792194 3.934871,62.775146 4.262044,61.161156 
	C5.782269,57.514999 7.002567,54.465786 8.222864,51.416573 
	C9.174770,50.196274 10.126678,48.975979 11.491054,47.318970 
	C12.700165,45.961063 13.496806,45.039864 14.293448,44.118668 
	C15.326270,43.369171 16.359091,42.619678 17.694828,41.762768 
z"/>
<path fill="#5794CA" opacity="1.000000" stroke="none" 
	d="
M12.048486,83.659531 
	C8.560296,83.286713 9.895251,86.181602 9.123228,87.904121 
	C6.919124,82.002518 4.981725,75.909653 3.504036,69.402237 
	C4.967116,68.990211 5.970487,68.992722 6.973858,68.995239 
	C8.640001,73.762428 10.306146,78.529625 12.048486,83.659531 
z"/>
<path fill="#F1F6F9" opacity="1.000000" stroke="none" 
	d="
M119.000641,78.000969 
	C117.592087,77.668442 116.183533,77.335907 114.029640,77.006096 
	C110.857628,77.673264 108.430946,78.337700 106.004272,79.002136 
	C106.004272,79.002136 106.000000,79.000000 105.999451,78.664795 
	C105.999260,77.885323 105.999634,77.441063 106.000000,76.996803 
	C107.114723,76.687065 108.229439,76.377335 110.091217,76.061417 
	C113.001938,76.046562 115.242439,76.370270 117.298203,75.894958 
	C118.395645,75.641220 119.174149,74.008018 120.462646,72.914139 
	C121.552567,69.554146 122.276436,66.277428 123.000305,63.000713 
	C126.361542,63.000824 129.722778,63.000938 133.519287,63.306870 
	C133.623245,64.089882 133.291931,64.567078 132.960617,65.044273 
	C132.226044,65.031822 131.491486,65.019371 130.118835,65.102440 
	C128.980087,65.470200 128.479385,65.742439 127.978699,66.014679 
	C127.017807,66.243912 125.308311,66.310173 125.217194,66.728760 
	C124.614182,69.498642 124.358612,72.344170 123.744240,75.753609 
	C123.332687,76.895844 123.166801,77.449532 123.000916,78.003220 
	C122.248367,78.995193 121.495811,79.987160 120.346603,80.664597 
	C119.633522,79.567032 119.317085,78.783997 119.000641,78.000969 
z"/>
<path fill="#F7FAFA" opacity="1.000000" stroke="none" 
	d="
M30.024609,98.191948 
	C29.763802,98.508881 29.492403,98.455215 28.835327,98.242874 
	C28.449650,98.084198 28.430019,98.007469 28.430019,98.007469 
	C24.738207,95.532738 21.046396,93.058006 17.225811,90.275558 
	C23.950378,90.501190 30.803717,91.034546 38.239079,91.613190 
	C36.158649,96.043190 28.504467,90.277046 30.024609,98.191948 
z"/>
<path fill="#F2F5F6" opacity="1.000000" stroke="none" 
	d="
M122.630630,63.039143 
	C122.276436,66.277428 121.552567,69.554146 120.308945,72.712112 
	C119.523880,72.387932 119.258575,72.182503 118.838715,71.746742 
	C118.272171,71.538383 117.860184,71.560341 117.448196,71.582298 
	C117.676056,72.073456 117.903915,72.564613 117.899010,73.366028 
	C115.979416,73.813095 114.292587,73.949913 112.170334,74.122047 
	C113.025475,71.630936 113.655914,69.794411 114.563873,67.981804 
	C115.757721,68.508575 116.674042,69.011429 117.631950,69.537109 
	C119.065384,64.639847 115.669373,65.200027 112.986824,64.978989 
	C114.540367,64.349594 116.046898,63.498741 117.661301,63.156101 
	C119.133751,62.843594 120.723122,63.081989 122.630630,63.039143 
z"/>
<path fill="#A4C4E0" opacity="1.000000" stroke="none" 
	d="
M188.008575,67.371719 
	C188.004517,70.964615 188.004517,74.107231 188.004517,77.532761 
	C190.408310,77.977173 192.552475,78.373589 194.696640,78.769997 
	C194.669495,79.344810 194.642334,79.919632 194.615189,80.494446 
	C192.001129,80.494446 189.272934,80.922241 186.832626,80.271072 
	C185.933121,80.031052 185.396362,77.274094 185.251648,75.616463 
	C184.991684,72.639236 185.060867,69.620895 185.200928,66.629494 
	C185.237640,65.845459 186.040695,65.097298 186.491791,64.332657 
	C186.998734,65.195580 187.505676,66.058502 188.008575,67.371719 
z"/>
<path fill="#D7D7D7" opacity="1.000000" stroke="none" 
	d="
M84.281494,87.033783 
	C84.281494,87.033783 84.505882,86.941010 85.000061,87.011383 
	C85.747604,87.062866 86.000961,87.043976 86.254326,87.025101 
	C87.930290,86.627609 89.606255,86.230118 91.699585,86.267044 
	C92.097885,87.233383 92.078804,87.765320 92.059731,88.297249 
	C92.059731,88.297249 91.765747,88.189072 91.257919,88.047409 
	C90.497231,87.940681 90.244377,87.975624 89.944717,87.839050 
	C89.778740,87.623604 89.659546,87.579674 89.540359,87.535744 
	C89.696106,87.688583 89.851845,87.841415 90.067673,88.192940 
	C90.299393,88.633202 90.532814,88.767029 90.828011,88.793106 
	C90.543259,89.440376 90.258507,90.087646 89.973763,90.734924 
	C89.234100,90.332138 88.494431,89.929352 87.437332,89.073402 
	C86.751953,88.722946 86.384010,88.825661 86.016060,88.928375 
	C85.346535,89.249916 84.698051,89.774277 84.002647,89.846420 
	C82.904564,89.960327 81.775009,89.770775 80.321648,89.591797 
	C79.818810,89.208908 79.653099,88.943893 79.487381,88.678879 
	C79.343277,89.125900 79.199173,89.572922 79.055069,90.019943 
	C77.970039,90.307716 76.885002,90.595490 75.438522,90.527412 
	C75.106483,89.686180 75.135887,89.200806 75.457504,88.755493 
	C76.160721,87.552864 76.571716,86.310173 76.982719,85.067474 
	C76.994644,84.624657 77.006577,84.181831 77.032227,83.408356 
	C79.346558,83.701637 81.647171,84.325562 83.742920,85.429413 
	C83.785866,86.284157 84.033676,86.658966 84.281494,87.033783 
z"/>
<path fill="#F2F5F6" opacity="1.000000" stroke="none" 
	d="
M133.023346,86.991699 
	C135.784927,86.768272 138.208435,81.252190 141.569855,87.048218 
	C141.931030,88.061424 142.039459,88.488342 142.101746,89.158134 
	C142.055588,89.401009 142.033020,89.894936 142.033020,89.894936 
	C139.200073,90.002556 136.367111,90.110176 133.200500,89.773781 
	C132.873215,88.946434 132.879578,88.563103 132.918137,87.882500 
	C132.974655,87.387390 132.998993,87.189545 133.023346,86.991699 
z"/>
<path fill="#D7D7D7" opacity="1.000000" stroke="none" 
	d="
M132.990173,86.706635 
	C132.998993,87.189545 132.974655,87.387390 132.611755,87.959686 
	C131.252426,88.564240 130.231674,88.794342 129.210938,89.024445 
	C127.020882,89.365623 124.830833,89.706795 122.228668,89.733398 
	C120.859543,89.296837 119.902519,89.174843 118.945496,89.052849 
	C118.945496,89.052849 119.000237,89.000999 119.085632,88.707947 
	C120.386337,87.303253 121.601654,86.191612 122.816971,85.079964 
	C126.196976,85.527168 129.576981,85.974365 132.990173,86.706635 
M124.743164,87.968781 
	C125.199921,87.837219 125.656677,87.705666 126.113441,87.574104 
	C126.002541,87.339996 125.891640,87.105881 125.780739,86.871773 
	C125.252678,87.210144 124.724609,87.548515 124.743164,87.968781 
z"/>
<path fill="#F2F5F6" opacity="1.000000" stroke="none" 
	d="
M100.995316,87.012085 
	C101.924690,86.144211 102.737595,84.789246 103.812996,84.532104 
	C105.148895,84.212700 106.701881,84.801186 108.572922,84.998772 
	C108.911362,91.723061 108.678276,91.858414 101.350906,88.803177 
	C101.052193,87.890854 101.023750,87.451469 100.995316,87.012085 
z"/>
<path fill="#8AB1D7" opacity="1.000000" stroke="none" 
	d="
M216.926636,76.403244 
	C216.413284,77.778931 215.910782,78.731239 215.408279,79.683548 
	C214.503387,79.070000 213.364090,78.629570 212.751572,77.800117 
	C211.943359,76.705688 211.548447,75.306068 210.364410,72.683174 
	C212.302902,74.320511 213.146683,75.033203 214.546600,76.215637 
	C214.852341,72.393539 215.123718,69.000717 215.395111,65.607903 
	C215.909256,65.619026 216.423386,65.630157 216.937515,65.641281 
	C216.937515,69.087479 216.937515,72.533676 216.926636,76.403244 
z"/>
<path fill="#F1F6F9" opacity="1.000000" stroke="none" 
	d="
M131.979370,80.997437 
	C130.178665,81.807991 128.377960,82.618538 126.759926,83.346870 
	C127.175476,78.795731 127.581299,74.351196 128.325775,69.453987 
	C129.111832,69.001434 129.559219,69.001541 130.006622,69.001656 
	C130.303955,71.078476 130.601288,73.155289 130.671783,75.859360 
	C130.956421,77.990219 131.467896,79.493828 131.979370,80.997437 
z"/>
<path fill="#F2F5F6" opacity="1.000000" stroke="none" 
	d="
M175.371490,68.938217 
	C174.089127,68.250969 173.188278,67.465141 172.249146,66.728119 
	C170.393982,65.272232 166.144287,68.817566 166.005280,63.380058 
	C168.889816,62.639709 171.242264,65.082832 174.828323,63.565685 
	C176.993057,62.649857 177.770218,66.500412 175.371490,68.938217 
z"/>
<path fill="#92B4D5" opacity="1.000000" stroke="none" 
	d="
M114.286346,67.957886 
	C113.655914,69.794411 113.025475,71.630936 112.170334,74.122047 
	C114.292587,73.949913 115.979416,73.813095 118.112343,73.248039 
	C118.845200,72.612099 118.990143,72.331184 118.993271,71.977066 
	C119.258575,72.182503 119.523880,72.387932 119.942886,72.795380 
	C119.174149,74.008018 118.395645,75.641220 117.298203,75.894958 
	C115.242439,76.370270 113.001938,76.046562 110.377167,76.036194 
	C109.975227,74.965248 110.034393,73.913322 110.369423,72.267441 
	C111.011055,70.768402 111.376831,69.863312 111.742607,68.958229 
	C111.742607,68.958229 111.920319,68.501465 112.344658,68.225174 
	C113.274780,67.951881 113.780563,67.954880 114.286346,67.957886 
z"/>
<path fill="#F2F5F6" opacity="1.000000" stroke="none" 
	d="
M133.108215,65.328056 
	C133.291931,64.567078 133.623245,64.089882 133.977356,63.309570 
	C137.524063,63.169701 141.047974,63.332939 144.785065,63.750233 
	C143.896652,65.177330 142.795044,66.350365 142.332382,66.843010 
	C139.889175,66.692139 138.132767,66.583679 136.181610,66.746460 
	C135.076492,66.549088 134.166153,66.080460 133.108215,65.328056 
z"/>
<path fill="#D7D7D7" opacity="1.000000" stroke="none" 
	d="
M147.778091,85.317352 
	C150.983749,85.176613 154.635620,84.300240 155.026215,88.901566 
	C151.711777,89.231262 148.874863,89.513466 146.046448,89.230408 
	C146.629333,87.549217 147.203705,86.433289 147.778091,85.317352 
z"/>
<path fill="#F2F5F6" opacity="1.000000" stroke="none" 
	d="
M92.245804,88.565567 
	C92.078804,87.765320 92.097885,87.233383 92.082085,86.302620 
	C93.511383,85.850037 94.975548,85.796288 96.994080,86.125717 
	C98.024208,87.709320 98.499977,88.909737 98.975746,90.110161 
	C96.794456,89.684738 94.613159,89.259315 92.245804,88.565567 
z"/>
<path fill="#90B6D9" opacity="1.000000" stroke="none" 
	d="
M59.664082,68.069313 
	C60.524269,71.277313 61.064579,74.766365 61.655167,78.580078 
	C62.932842,78.720032 64.373589,78.872002 65.811378,79.048126 
	C65.910370,79.060257 66.083893,79.304428 66.058113,79.352669 
	C65.930359,79.591637 65.747269,79.801010 65.281517,80.130844 
	C63.085823,80.072281 61.192287,79.903694 59.344208,79.739151 
	C59.344208,75.707390 59.344208,72.028870 59.664082,68.069313 
z"/>
<path fill="#F7FAFA" opacity="1.000000" stroke="none" 
	d="
M8.026570,51.098564 
	C7.002567,54.465786 5.782269,57.514999 4.274045,60.779778 
	C3.784073,58.442169 3.158191,55.826950 3.519896,53.356312 
	C3.788337,51.522713 4.864855,49.051258 8.026570,51.098564 
z"/>
<path fill="#F2F5F6" opacity="1.000000" stroke="none" 
	d="
M106.010063,79.360565 
	C108.430946,78.337700 110.857628,77.673264 113.642380,77.005020 
	C112.762878,79.116348 111.525307,81.231483 110.139679,83.670158 
	C108.666367,82.568802 107.341110,81.143890 106.010063,79.360565 
z"/>
<path fill="#E9EBEC" opacity="1.000000" stroke="none" 
	d="
M205.130295,89.842644 
	C198.596954,91.832863 198.591370,91.828156 198.704651,84.057472 
	C200.178741,85.244576 201.471420,86.285591 203.290833,87.159317 
	C204.255142,87.942223 204.692719,88.892433 205.130295,89.842644 
z"/>
<path fill="#B6B6B6" opacity="1.000000" stroke="none" 
	d="
M205.111969,89.852402 
	C204.692719,88.892433 204.255142,87.942223 203.482849,86.905334 
	C203.506302,85.966301 203.864441,85.113953 204.433746,83.759087 
	C206.653030,85.776779 208.511673,87.466583 210.370316,89.156395 
	C210.064331,89.470032 209.758347,89.783669 209.452347,90.097298 
	C208.466858,89.942299 207.481384,89.787292 206.009064,89.750084 
	C205.522217,89.867874 205.088806,89.886192 205.088806,89.886192 
	C205.088806,89.886192 205.093643,89.862160 205.111969,89.852402 
z"/>
<path fill="#F2F5F6" opacity="1.000000" stroke="none" 
	d="
M47.003922,99.559654 
	C44.190594,100.158722 41.371498,100.408470 38.261864,100.074890 
	C37.980732,98.993240 37.990135,98.494926 37.999538,97.996613 
	C40.078773,97.991692 42.158009,97.986763 44.689133,97.969742 
	C45.533215,97.935860 45.925407,97.914078 46.609478,97.851746 
	C46.933620,98.277588 46.965885,98.743958 47.003922,99.559654 
z"/>
<path fill="#F2F5F6" opacity="1.000000" stroke="none" 
	d="
M71.260147,80.880417 
	C71.364525,77.490768 71.728607,73.997910 72.092690,70.505058 
	C72.714287,70.566010 73.335876,70.626968 73.957474,70.687920 
	C73.638237,73.510033 73.318993,76.332146 72.998047,79.570572 
	C72.504181,80.250313 72.012024,80.513756 71.260147,80.880417 
z"/>
<path fill="#F2F5F6" opacity="1.000000" stroke="none" 
	d="
M155.143524,80.288002 
	C155.764557,78.745644 156.527374,77.491783 157.752869,75.477409 
	C157.952454,75.507088 159.274734,75.703705 161.210190,75.991493 
	C160.051636,78.114082 159.163437,79.741371 158.140411,81.674538 
	C157.098831,81.512451 156.192078,81.044479 155.143524,80.288002 
z"/>
<path fill="#F2F5F6" opacity="1.000000" stroke="none" 
	d="
M66.666130,63.008194 
	C67.883224,64.573982 68.948608,66.065216 69.588417,67.720909 
	C70.028786,68.860474 69.879189,70.228027 69.993279,71.493683 
	C69.510292,71.569229 69.027313,71.644783 68.544334,71.720337 
	C67.388947,69.058281 66.233551,66.396233 65.039078,63.366859 
	C65.444305,63.000950 65.888618,63.002361 66.666130,63.008194 
z"/>
<path fill="#E6EEF5" opacity="1.000000" stroke="none" 
	d="
M114.563873,67.981796 
	C113.780563,67.954880 113.274780,67.951881 112.393982,67.985138 
	C112.008156,67.851830 111.997337,67.682259 112.234619,67.090561 
	C112.648407,66.108292 112.814102,65.548157 112.979797,64.988014 
	C112.979797,64.988014 112.992867,64.995590 112.989845,64.987289 
	C115.669373,65.200027 119.065384,64.639847 117.631950,69.537109 
	C116.674042,69.011429 115.757721,68.508575 114.563873,67.981796 
z"/>
<path fill="#CCCCCC" opacity="1.000000" stroke="none" 
	d="
M116.245796,85.009521 
	C116.741730,85.153358 117.237663,85.297188 117.934532,85.902634 
	C118.018135,87.279793 117.900810,88.195351 117.783478,89.110901 
	C117.601921,89.111549 117.420357,89.112206 116.631119,89.066055 
	C115.309547,88.329384 114.595650,87.639511 113.903412,86.621292 
	C113.847618,85.863457 113.770142,85.433975 114.117401,84.970764 
	C115.110031,84.961205 115.677910,84.985359 116.245796,85.009521 
z"/>
<path fill="#3E80C2" opacity="1.000000" stroke="none" 
	d="
M7.027439,68.619797 
	C5.970487,68.992722 4.967116,68.990211 3.587753,68.976990 
	C3.171860,68.528717 3.131960,68.091141 3.331457,67.197357 
	C3.794206,66.520203 3.967160,66.265076 4.089713,65.975777 
	C4.979558,64.744705 5.869402,63.513634 6.772960,62.263592 
	C6.841564,62.836395 6.941245,63.668686 7.060754,64.857681 
	C7.080727,66.224365 7.080873,67.234360 7.027439,68.619797 
z"/>
<path fill="#969696" opacity="1.000000" stroke="none" 
	d="
M147.486832,85.237961 
	C147.203705,86.433289 146.629333,87.549217 145.952606,88.931969 
	C144.836227,89.417519 143.822189,89.636253 142.420578,89.874954 
	C142.033020,89.894936 142.055588,89.401009 142.309296,89.049973 
	C142.775558,88.465385 142.943680,88.203316 143.067352,87.912735 
	C143.779099,87.208794 144.490860,86.504860 145.500977,85.517624 
	C145.799362,85.234329 145.992889,85.061691 145.992889,85.061691 
	C146.393784,85.093979 146.794678,85.126274 147.486832,85.237961 
z"/>
<path fill="#F2F5F6" opacity="1.000000" stroke="none" 
	d="
M182.085785,87.018295 
	C181.206757,88.088402 180.327744,89.158508 179.448730,90.228622 
	C179.061096,89.996834 178.673477,89.765045 178.285843,89.533257 
	C178.330338,88.515099 178.374832,87.496948 179.021240,86.262894 
	C180.089279,86.027763 180.555389,86.008545 181.021515,85.989326 
	C181.021515,85.989326 181.003937,86.003075 181.097687,86.242844 
	C181.489563,86.661179 181.787674,86.839737 182.085785,87.018295 
z"/>
<path fill="#F2F5F6" opacity="1.000000" stroke="none" 
	d="
M105.367233,67.988792 
	C104.685822,66.891533 104.369499,65.791985 104.019821,64.347641 
	C105.503952,64.463493 107.021431,64.924156 109.939629,65.810043 
	C107.819405,66.906853 106.775856,67.446678 105.367233,67.988792 
z"/>
<path fill="#818080" opacity="1.000000" stroke="none" 
	d="
M118.082825,89.255806 
	C117.900810,88.195351 118.018135,87.279793 118.292259,86.055267 
	C119.806419,85.350060 121.163788,84.953835 122.669067,84.818787 
	C121.601654,86.191612 120.386337,87.303253 119.062424,88.737785 
	C118.763275,89.174019 118.572723,89.287361 118.082825,89.255806 
z"/>
<path fill="#818080" opacity="1.000000" stroke="none" 
	d="
M99.252266,90.021240 
	C98.499977,88.909737 98.024208,87.709320 97.322327,86.256004 
	C98.201706,86.271324 99.307182,86.539536 100.703987,86.909912 
	C101.023750,87.451469 101.052193,87.890854 101.011185,88.654022 
	C100.470749,89.295982 99.999763,89.614151 99.252266,90.021240 
z"/>
<path fill="#F2F5F6" opacity="1.000000" stroke="none" 
	d="
M105.627167,76.999710 
	C105.999634,77.441063 105.999260,77.885323 105.998383,78.662659 
	C104.365181,78.883682 102.732506,78.771637 101.049149,78.330276 
	C102.417099,77.668182 103.835724,77.335403 105.627167,76.999710 
z"/>
<path fill="#E9EBEC" opacity="1.000000" stroke="none" 
	d="
M75.165298,88.715424 
	C75.135887,89.200806 75.106483,89.686180 75.077454,90.533867 
	C75.077835,90.896172 74.640617,91.009872 74.313644,90.739105 
	C73.649269,90.325890 73.311874,90.183449 72.974480,90.041008 
	C72.974480,90.041008 73.016052,90.013664 73.150467,89.644066 
	C73.391479,88.180969 73.498070,87.087479 73.759964,85.851303 
	C74.023422,85.446632 74.151794,85.194946 74.300362,84.953560 
	C74.300362,84.953560 74.752357,84.989952 74.926224,85.405144 
	C75.121826,86.785362 75.143555,87.750397 75.165298,88.715424 
z"/>
<path fill="#F2F5F6" opacity="1.000000" stroke="none" 
	d="
M169.001770,75.396416 
	C169.666641,76.399521 170.333282,77.797821 171.000580,79.589821 
	C170.335327,78.586212 169.669434,77.188911 169.001770,75.396416 
z"/>
<path fill="#F2F5F6" opacity="1.000000" stroke="none" 
	d="
M131.984833,80.610306 
	C131.467896,79.493828 130.956421,77.990219 130.712936,76.248856 
	C131.317368,77.415131 131.653824,78.819145 131.984833,80.610306 
z"/>
<path fill="#F2F5F6" opacity="1.000000" stroke="none" 
	d="
M159.633484,63.016075 
	C160.100983,66.740181 158.494446,65.895065 156.307587,64.148849 
	C157.096527,63.673233 158.182358,63.341717 159.633484,63.016075 
z"/>
<path fill="#F2F5F6" opacity="1.000000" stroke="none" 
	d="
M165.371857,76.948341 
	C165.435120,75.727570 165.852966,74.430275 166.628082,73.066101 
	C166.565720,74.290100 166.146088,75.580956 165.371857,76.948341 
z"/>
<path fill="#F2F5F6" opacity="1.000000" stroke="none" 
	d="
M78.082901,73.490349 
	C74.981041,73.181358 75.282784,71.840843 77.751465,70.157990 
	C78.096703,71.150078 78.078651,72.135712 78.082901,73.490349 
z"/>
<path fill="#F2F5F6" opacity="1.000000" stroke="none" 
	d="
M145.992920,84.715637 
	C145.992889,85.061691 145.799362,85.234329 145.673721,85.256454 
	C144.726456,84.427338 143.904846,83.576103 143.047409,82.362137 
	C143.868576,82.155281 144.725555,82.311165 145.787506,82.726265 
	C145.992630,83.446854 145.992798,83.908218 145.992920,84.715637 
z"/>
<path fill="#F7FAFA" opacity="1.000000" stroke="none" 
	d="
M13.910675,44.087837 
	C13.496806,45.039864 12.700165,45.961063 11.631459,47.017220 
	C9.979302,44.847260 10.137425,44.621567 13.910675,44.087837 
z"/>
<path fill="#818080" opacity="1.000000" stroke="none" 
	d="
M113.881744,86.949638 
	C114.595650,87.639511 115.309547,88.329384 116.361801,89.025536 
	C115.220970,89.248932 113.741768,89.466049 112.396141,89.205978 
	C112.980392,88.135750 113.431068,87.542694 113.881744,86.949638 
z"/>
<path fill="#F2F5F6" opacity="1.000000" stroke="none" 
	d="
M111.402702,68.981728 
	C111.376831,69.863312 111.011055,70.768402 110.434372,71.876480 
	C110.503242,71.054733 110.783020,70.029976 111.402702,68.981728 
z"/>
<path fill="#8E8E8D" opacity="1.000000" stroke="none" 
	d="
M129.277313,89.282394 
	C130.231674,88.794342 131.252426,88.564240 132.579559,88.256950 
	C132.879578,88.563103 132.873215,88.946434 132.818054,89.614159 
	C131.627396,89.779137 130.485550,89.659737 129.277313,89.282394 
z"/>
<path fill="#F2F5F6" opacity="1.000000" stroke="none" 
	d="
M130.008743,68.602371 
	C129.559219,69.001541 129.111832,69.001434 128.328781,69.001488 
	C127.990845,68.254608 127.988548,67.507561 127.982475,66.387596 
	C128.479385,65.742439 128.980087,65.470200 129.751495,65.104965 
	C130.018433,66.075684 130.014648,67.139389 130.008743,68.602371 
z"/>
<path fill="#F2F5F6" opacity="1.000000" stroke="none" 
	d="
M151.663864,63.000454 
	C150.807083,63.855827 149.615723,64.695129 148.542358,65.228821 
	C149.103897,64.294960 149.547470,63.666718 149.991043,63.038475 
	C150.437134,63.020447 150.883209,63.002415 151.663864,63.000454 
z"/>
<path fill="#4C4C4C" opacity="1.000000" stroke="none" 
	d="
M75.457504,88.755493 
	C75.143555,87.750397 75.121826,86.785362 75.146545,85.458694 
	C75.590683,85.076988 75.988388,85.056923 76.684402,85.052170 
	C76.571716,86.310173 76.160721,87.552864 75.457504,88.755493 
z"/>
<path fill="#F7FAFA" opacity="1.000000" stroke="none" 
	d="
M37.806099,97.762169 
	C37.990135,98.494926 37.980732,98.993240 37.944996,99.866310 
	C37.487453,100.206924 37.056248,100.172783 36.311012,100.055023 
	C36.535545,99.156837 37.074100,98.342285 37.806099,97.762169 
z"/>
<path fill="#4C4C4C" opacity="1.000000" stroke="none" 
	d="
M113.903412,86.621292 
	C113.431068,87.542694 112.980392,88.135750 112.272995,88.858673 
	C111.954926,87.920563 111.893570,86.852570 112.204391,85.393700 
	C112.948593,85.003372 113.320633,85.003929 113.692665,85.004486 
	C113.770142,85.433975 113.847618,85.863457 113.903412,86.621292 
z"/>
<path fill="#818080" opacity="1.000000" stroke="none" 
	d="
M118.834267,89.320831 
	C119.902519,89.174843 120.859543,89.296837 121.863297,89.681755 
	C120.847702,89.826057 119.785370,89.707436 118.834267,89.320831 
z"/>
<path fill="#F2F5F6" opacity="1.000000" stroke="none" 
	d="
M174.995682,74.624084 
	C174.772156,74.032295 174.552261,73.065590 174.666473,72.049133 
	C175.000168,72.749321 174.999741,73.499245 174.995682,74.624084 
z"/>
<path fill="#F5F8F9" opacity="1.000000" stroke="none" 
	d="
M19.144989,82.225800 
	C19.233511,81.481384 19.467215,80.963249 19.700920,80.445122 
	C20.108227,80.764381 20.515535,81.083641 20.961700,81.701553 
	C20.430431,82.150833 19.860302,82.301468 19.144989,82.225800 
z"/>
<path fill="#818080" opacity="1.000000" stroke="none" 
	d="
M114.117401,84.970772 
	C113.320633,85.003929 112.948593,85.003372 112.295937,85.000992 
	C113.349129,84.783730 114.682938,84.568275 116.131271,84.681168 
	C115.677910,84.985359 115.110031,84.961205 114.117401,84.970772 
z"/>
<path fill="#F2F5F6" opacity="1.000000" stroke="none" 
	d="
M118.746155,78.199936 
	C119.317085,78.783997 119.633522,79.567032 119.974518,80.667084 
	C119.496597,80.122375 118.994125,79.260635 118.746155,78.199936 
z"/>
<path fill="#F1F6F9" opacity="1.000000" stroke="none" 
	d="
M149.691757,63.034660 
	C149.547470,63.666718 149.103897,64.294960 148.348450,64.977959 
	C148.036560,65.032715 147.999695,64.994560 147.986038,64.719101 
	C147.959732,64.273682 147.947098,64.103722 147.934448,63.933762 
	C148.420456,63.632790 148.906464,63.331818 149.691757,63.034660 
z"/>
<path fill="#F2F5F6" opacity="1.000000" stroke="none" 
	d="
M112.690369,65.024719 
	C112.814102,65.548157 112.648407,66.108292 112.234940,66.835693 
	C112.125092,66.355774 112.263016,65.708603 112.690369,65.024719 
z"/>
<path fill="#5794CA" opacity="1.000000" stroke="none" 
	d="
M221.044373,66.275665 
	C221.420044,66.638580 221.764282,67.339500 222.108521,68.040421 
	C221.875717,68.131668 221.642914,68.222916 221.410110,68.314163 
	C221.277710,67.747330 221.145325,67.180504 221.044373,66.275665 
z"/>
<path fill="#F2F5F6" opacity="1.000000" stroke="none" 
	d="
M99.956375,77.679733 
	C99.360970,77.550453 98.723770,77.101501 98.044220,76.334366 
	C98.639435,76.464134 99.277016,76.912094 99.956375,77.679733 
z"/>
<path fill="#6F6F6F" opacity="1.000000" stroke="none" 
	d="
M73.604660,85.993980 
	C73.498070,87.087479 73.391479,88.180969 73.140274,89.667007 
	C72.633125,88.969658 72.270576,87.879768 72.377579,86.407364 
	C73.099640,86.014557 73.352158,86.004265 73.604660,85.993980 
z"/>
<path fill="#CCCCCC" opacity="1.000000" stroke="none" 
	d="
M181.158279,85.765640 
	C180.555389,86.008545 180.089279,86.027763 179.272507,86.029312 
	C179.410690,85.300285 179.899521,84.588936 180.796158,84.151154 
	C181.294952,84.633194 181.385925,84.841660 181.476913,85.050133 
	C181.416275,85.214073 181.355652,85.378014 181.158279,85.765640 
z"/>
<path fill="#F7FAFA" opacity="1.000000" stroke="none" 
	d="
M30.040474,79.321640 
	C30.637133,79.454643 31.276722,79.907677 31.956581,80.682053 
	C31.359034,80.549477 30.721218,80.095566 30.040474,79.321640 
z"/>
<path fill="#F2F5F6" opacity="1.000000" stroke="none" 
	d="
M181.712311,84.978760 
	C181.385925,84.841660 181.294952,84.633194 181.149506,84.086105 
	C181.521271,83.625687 181.947510,83.503891 182.373749,83.382095 
	C182.231720,83.890518 182.089706,84.398956 181.712311,84.978760 
z"/>
<path fill="#F2F5F6" opacity="1.000000" stroke="none" 
	d="
M171.042740,80.291710 
	C171.565552,80.167419 172.114639,80.335754 172.829803,80.745972 
	C172.353607,80.853355 171.711304,80.718842 171.042740,80.291710 
z"/>
<path fill="#F2F5F6" opacity="1.000000" stroke="none" 
	d="
M123.293289,77.970169 
	C123.166801,77.449532 123.332687,76.895844 123.740860,76.174225 
	C123.850662,76.649910 123.718170,77.293510 123.293289,77.970169 
z"/>
<path fill="#F2F5F6" opacity="1.000000" stroke="none" 
	d="
M62.667519,62.997925 
	C62.767654,63.516998 62.534309,64.036110 62.300964,64.555222 
	C61.892822,64.236229 61.484680,63.917229 61.038345,63.299191 
	C61.444782,62.999424 61.889408,62.998695 62.667519,62.997925 
z"/>
<path fill="#969696" opacity="1.000000" stroke="none" 
	d="
M73.759964,85.851303 
	C73.352158,86.004265 73.099640,86.014557 72.468132,86.032066 
	C72.712524,85.508842 73.335915,84.978409 74.129837,84.700760 
	C74.151794,85.194946 74.023422,85.446632 73.759964,85.851303 
z"/>
<path fill="#6F6F6F" opacity="1.000000" stroke="none" 
	d="
M143.042297,87.637955 
	C142.943680,88.203316 142.775558,88.465385 142.355453,88.807098 
	C142.039459,88.488342 141.931030,88.061424 141.778412,87.306854 
	C142.161880,87.107201 142.589554,87.235184 143.042297,87.637955 
z"/>
<path fill="#F2F5F6" opacity="1.000000" stroke="none" 
	d="
M79.299141,90.012497 
	C79.199173,89.572922 79.343277,89.125900 79.487381,88.678879 
	C79.653099,88.943893 79.818810,89.208908 80.007736,89.726990 
	C80.030945,89.980057 79.543213,90.005051 79.299141,90.012497 
z"/>
<path fill="#5794CA" opacity="1.000000" stroke="none" 
	d="
M4.051207,65.681664 
	C3.967160,66.265076 3.794206,66.520203 3.378581,66.870132 
	C3.250606,66.395676 3.314902,65.792252 3.629789,64.999031 
	C3.924486,65.002014 3.968593,65.194778 4.051207,65.681664 
z"/>
<path fill="#969696" opacity="1.000000" stroke="none" 
	d="
M89.991516,88.010559 
	C90.244377,87.975624 90.497231,87.940681 91.130981,87.955650 
	C91.379082,88.120552 91.246292,88.235542 90.970764,88.571823 
	C90.532814,88.767029 90.299393,88.633202 90.063629,88.196098 
	C89.999489,88.000572 89.991516,88.010559 89.991516,88.010559 
z"/>
<path fill="#F2F5F6" opacity="1.000000" stroke="none" 
	d="
M147.700226,63.955967 
	C147.947098,64.103722 147.959732,64.273682 147.968964,64.698792 
	C147.646683,64.871559 147.392517,64.695671 147.099548,64.213806 
	C146.996048,64.001350 147.466003,63.978168 147.700226,63.955967 
z"/>
<path fill="#E9EBEC" opacity="1.000000" stroke="none" 
	d="
M205.134979,90.085907 
	C205.088806,89.886192 205.522217,89.867874 205.738678,89.872818 
	C205.697128,90.013702 205.439133,90.149658 205.134979,90.085907 
z"/>
<path fill="#969696" opacity="1.000000" stroke="none" 
	d="
M72.970901,90.380783 
	C73.311874,90.183449 73.649269,90.325890 74.089325,90.765625 
	C73.783768,90.948799 73.375549,90.834679 72.970901,90.380783 
z"/>
<path fill="#8E8E8D" opacity="1.000000" stroke="none" 
	d="
M86.323196,89.018517 
	C86.384010,88.825661 86.751953,88.722946 87.195190,88.865814 
	C87.057106,89.110481 86.843712,89.109566 86.323196,89.018517 
z"/>
<path fill="#CCCCCC" opacity="1.000000" stroke="none" 
	d="
M181.992615,86.763435 
	C181.787674,86.839737 181.489563,86.661179 181.099365,86.232895 
	C181.304657,86.158310 181.602051,86.333443 181.992615,86.763435 
z"/>
<path fill="#F2F5F6" opacity="1.000000" stroke="none" 
	d="
M168.554382,70.256027 
	C168.138809,70.124901 167.873108,69.841217 167.607422,69.557541 
	C167.719009,69.468452 167.914413,69.289375 167.929733,69.303642 
	C168.200943,69.556259 168.450226,69.832405 168.554382,70.256027 
z"/>
<path fill="#F2F5F6" opacity="1.000000" stroke="none" 
	d="
M155.741669,67.355103 
	C155.991791,67.369850 156.128235,67.503998 156.264664,67.638138 
	C156.052444,67.583595 155.840210,67.529045 155.741669,67.355103 
z"/>
<path fill="#6F6F6F" opacity="1.000000" stroke="none" 
	d="
M86.136749,86.686172 
	C86.000961,87.043976 85.747604,87.062866 85.113831,87.053787 
	C85.161995,86.799629 85.590584,86.573448 86.136749,86.686172 
z"/>
<path fill="#6F6F6F" opacity="1.000000" stroke="none" 
	d="
M84.327591,86.634460 
	C84.033676,86.658966 83.785866,86.284157 83.797607,85.702728 
	C84.162666,85.742462 84.268181,85.988800 84.327591,86.634460 
z"/>
<path fill="#E9EBEC" opacity="1.000000" stroke="none" 
	d="
M24.087101,58.545296 
	C22.760458,63.475426 21.281929,68.045547 20.049784,72.681168 
	C19.586050,74.425827 20.309431,77.189621 17.053024,74.350693 
	C18.324909,69.382133 19.586386,64.765099 21.021154,60.202557 
	C21.373341,59.082607 22.291424,58.140617 23.271366,57.024162 
	C23.739996,57.358124 23.886602,57.784733 24.087101,58.545296 
z"/>
<path fill="#5794CA" opacity="1.000000" stroke="none" 
	d="
M13.048393,85.490051 
	C12.791810,85.518661 12.425643,85.271301 12.066013,84.726349 
	C12.361303,84.690544 12.650056,84.952316 13.048393,85.490051 
z"/>
<path fill="#FEFEFE" opacity="1.000000" stroke="none" 
	d="
M33.449718,67.533501 
	C33.417278,67.478546 33.482159,67.588455 33.449718,67.533501 
z"/>
<path fill="#F4F9F9" opacity="1.000000" stroke="none" 
	d="
M99.986801,66.012688 
	C99.554474,65.893005 99.133385,65.762054 98.712296,65.631096 
	C99.059250,65.615868 99.406197,65.600647 99.884666,65.780518 
	C100.016182,65.975616 99.998032,66.001411 99.986801,66.012688 
z"/>
<path fill="#FEFEFE" opacity="1.000000" stroke="none" 
	d="
M162.769562,86.195084 
	C162.408188,86.793877 161.988037,87.094955 161.567871,87.396027 
	C161.454880,86.951591 161.341888,86.507149 161.228897,86.062714 
	C161.722855,86.007599 162.216812,85.952484 162.769562,86.195084 
z"/>
<path fill="#FEFEFE" opacity="1.000000" stroke="none" 
	d="
M167.916199,88.310547 
	C168.465012,88.277191 168.854446,88.403374 169.243866,88.529556 
	C169.136322,88.634796 169.006058,88.845016 168.925064,88.827499 
	C168.528442,88.741646 168.144958,88.595146 167.916199,88.310547 
z"/>
<path fill="#FEFEFE" opacity="1.000000" stroke="none" 
	d="
M28.396379,98.143669 
	C28.430019,98.007469 28.449650,98.084198 28.457253,98.071800 
	C28.464853,98.059402 28.630342,98.483833 28.589926,98.562874 
	C28.549509,98.641914 28.131544,98.751472 28.131544,98.751472 
	C28.131544,98.751472 28.259127,98.689369 28.292269,98.623665 
	C28.325411,98.557961 28.362740,98.279869 28.396379,98.143669 
z"/>
<path fill="#65A4D5" opacity="1.000000" stroke="none" 
	d="
M28.158779,98.960892 
	C28.131544,98.751472 28.549509,98.641914 28.747152,98.727692 
	C28.691868,98.932419 28.438940,99.051361 28.158779,98.960892 
z"/>
<path fill="#E6EEF5" opacity="1.000000" stroke="none" 
	d="
M118.838715,71.746742 
	C118.990143,72.331184 118.845200,72.612099 118.345108,72.937790 
	C117.903915,72.564613 117.676056,72.073456 117.448196,71.582298 
	C117.860184,71.560341 118.272171,71.538383 118.838715,71.746742 
z"/>
<path fill="#969696" opacity="1.000000" stroke="none" 
	d="
M90.003540,87.997414 
	C89.851845,87.841415 89.696106,87.688583 89.540359,87.535744 
	C89.659546,87.579674 89.778740,87.623604 89.944717,87.839050 
	C89.991516,88.010559 89.999489,88.000572 90.003540,87.997414 
z"/>
<path fill="#FEFEFE" opacity="1.000000" stroke="none" 
	d="
M124.469849,87.927834 
	C124.724609,87.548515 125.252678,87.210144 125.780739,86.871773 
	C125.891640,87.105881 126.002541,87.339996 126.113441,87.574104 
	C125.656677,87.705666 125.199921,87.837219 124.469849,87.927834 
z"/>
</svg>