<svg version="1.1" id="Layer_1" xmlns="http://www.w3.org/2000/svg" xmlns:xlink="http://www.w3.org/1999/xlink" x="0px" y="0px"
	 width="100%" viewBox="0 0 236 137" enable-background="new 0 0 236 137" xml:space="preserve">
<path fill="#FDFDFD" opacity="1.000000" stroke="none" 
	d="
M182.000000,138.000000 
	C121.333336,138.000000 61.166676,138.000000 1.000008,138.000000 
	C1.000005,92.333336 1.000005,46.666679 1.000003,1.000014 
	C79.666656,1.000010 158.333313,1.000010 236.999969,1.000005 
	C236.999985,46.666653 236.999985,92.333305 237.000000,137.999969 
	C218.833328,138.000000 200.666672,138.000000 182.000000,138.000000 
M137.368637,101.759308 
	C137.254669,101.133080 137.140701,100.506859 137.397751,99.380798 
	C137.765045,98.751450 138.132355,98.122101 138.499664,97.492760 
	C137.887650,97.428589 136.798645,97.177879 136.739227,97.329811 
	C136.272354,98.523590 136.002472,99.794426 135.726059,101.571739 
	C135.799591,101.733467 135.873138,101.895195 136.105637,102.485992 
	C136.457428,102.416466 136.809219,102.346939 137.368637,101.759308 
M137.233719,75.422554 
	C137.281708,75.114639 137.329697,74.806725 137.377701,74.498810 
	C137.092239,74.484055 136.806793,74.469292 136.521332,74.454536 
	C136.648514,74.992958 136.775696,75.531387 136.628540,76.520187 
	C136.743790,77.500603 136.859055,78.481010 136.974319,79.461426 
	C137.416687,79.354843 137.859039,79.248260 138.301392,79.141670 
	C137.918686,78.057793 137.535995,76.973915 137.233719,75.422554 
M212.208267,82.544365 
	C212.619614,82.514153 213.030960,82.483948 213.442307,82.453735 
	C213.017685,82.241142 212.593063,82.028542 212.050323,81.045181 
	C211.578018,78.663979 211.105728,76.282768 210.633438,73.901558 
	C210.343521,76.760170 207.360168,80.024246 212.208267,82.544365 
M54.377712,27.062252 
	C53.931847,27.430199 53.485977,27.798147 52.358749,28.264513 
	C45.438343,32.279369 38.472179,36.219185 31.642658,40.383114 
	C30.507353,41.075306 29.967634,42.744354 28.953806,44.886921 
	C28.993952,54.250183 29.034100,63.613445 28.812021,73.388512 
	C28.631590,73.669189 28.393639,73.887039 27.361115,74.023087 
	C20.376585,78.098656 13.392057,82.174225 6.407529,86.249794 
	C6.462742,86.807274 6.517954,87.364754 6.573167,87.922234 
	C10.578516,89.641922 14.592316,91.342239 18.587255,93.085777 
	C24.737999,95.770195 30.905102,98.778252 35.274105,90.360146 
	C35.590454,89.750618 36.529690,89.464378 37.871384,88.648560 
	C38.203751,84.770012 38.536121,80.891464 38.969692,76.211411 
	C38.678772,75.470230 38.251476,74.752548 38.119118,73.984055 
	C37.274189,69.078300 38.377117,67.948441 43.275326,69.073273 
	C45.896702,69.675247 48.406033,70.765137 51.523205,71.992363 
	C55.047646,72.698586 56.241558,74.740623 55.992207,78.373497 
	C55.606613,83.991364 55.760757,89.646271 55.119305,95.728279 
	C52.036564,98.317131 48.953823,100.905991 45.557091,103.758530 
	C53.805473,107.096199 61.604671,110.365417 69.518082,113.329727 
	C70.679520,113.764786 72.698044,113.161301 73.779694,112.332870 
	C77.484970,109.495071 80.833626,106.192665 84.530220,103.342293 
	C92.214554,97.417068 100.075119,91.720390 107.758530,85.794006 
	C109.017761,84.822739 109.742714,83.158791 110.862999,81.609787 
	C96.410431,76.518456 82.720284,71.695709 68.956131,66.515343 
	C68.956131,66.515343 68.825768,66.174271 68.896606,65.278229 
	C69.048851,57.590988 69.079506,57.493702 60.931244,54.925884 
	C58.179497,54.058708 55.747360,53.228542 55.166119,49.019821 
	C55.212734,42.021832 55.259354,35.023838 55.605362,27.756914 
	C55.388718,27.510790 55.172070,27.264668 54.377712,27.062252 
M75.334167,34.989552 
	C75.075966,35.284367 74.817757,35.579178 73.779503,35.920948 
	C70.475601,36.446938 72.240242,37.624050 73.269630,38.987770 
	C74.267639,40.309914 75.545235,41.855679 75.623962,43.359562 
	C75.917740,48.971481 75.363991,54.651329 75.978088,60.211830 
	C76.239723,62.580833 78.596123,64.718491 80.575089,67.044930 
	C80.753746,66.710556 80.932396,66.376183 81.850555,65.580742 
	C81.762321,57.376186 81.674088,49.171627 81.789711,40.508759 
	C81.763565,40.343613 81.737427,40.178467 82.320686,39.390656 
	C85.052010,39.194672 87.783340,38.998688 90.514664,38.802704 
	C90.520065,38.311504 90.525467,37.820305 90.530876,37.329105 
	C87.533630,36.914307 84.536392,36.499504 81.677635,35.345974 
	C81.677635,31.924484 81.677635,28.502995 81.677635,25.081505 
	C81.373306,25.106220 81.068970,25.130938 80.764641,25.155655 
	C79.120155,28.396231 77.475670,31.636806 75.925064,34.902084 
	C75.925064,34.902084 75.912186,34.805874 75.334167,34.989552 
M196.386002,49.087574 
	C196.147507,49.411545 195.909027,49.735516 195.164154,49.900944 
	C193.443192,50.283646 191.722229,50.666348 189.278854,51.023968 
	C183.274902,53.748905 181.366837,56.498856 182.438263,60.882778 
	C183.528061,65.341896 187.909470,68.535347 193.363907,67.852356 
	C197.146423,67.378731 200.774887,65.674713 204.628220,64.471718 
	C207.463196,68.434235 210.399277,68.673508 214.115402,65.108360 
	C212.925705,64.067825 211.748474,63.038200 210.739990,61.539871 
	C210.739990,61.539871 210.530197,61.088039 210.708038,60.161209 
	C210.576233,55.070866 210.444443,49.980526 210.414505,44.406292 
	C210.414505,44.406292 210.174438,43.973980 210.272995,43.302502 
	C209.938095,42.502064 209.603210,41.701626 209.084183,40.348618 
	C208.740448,40.179626 208.396698,40.010632 207.978775,39.264435 
	C207.641174,38.877163 207.303574,38.489887 206.385574,37.592720 
	C199.219727,35.053787 192.414886,34.701633 186.179077,40.173359 
	C184.346970,41.780964 182.759140,43.028839 184.952316,45.201122 
	C187.532364,47.756592 188.966293,45.317039 190.278519,43.563374 
	C194.360886,38.107750 198.626907,37.353237 203.975266,42.160137 
	C203.909393,44.344578 206.955719,47.560341 201.261856,47.994381 
	C199.837738,48.377636 198.413620,48.760891 196.386002,49.087574 
M164.923447,40.243202 
	C164.467407,39.060356 163.957504,36.838108 163.563812,36.858505 
	C160.307693,37.027241 157.073090,37.611156 153.820892,38.070969 
	C155.917465,40.446243 157.482422,42.219212 158.913040,44.740929 
	C158.985825,45.494129 159.058609,46.247334 158.955765,47.894794 
	C159.013992,50.929729 159.072235,53.964668 158.950195,57.819000 
	C159.886490,62.174240 157.585266,64.682800 154.031555,66.616394 
	C159.359970,66.616394 164.688400,66.616394 170.559952,66.616394 
	C168.252258,64.731346 166.570450,63.357559 164.996384,61.056175 
	C164.988647,56.588833 164.813858,52.113831 165.018143,47.656204 
	C165.241364,42.785694 170.277985,39.756870 174.682755,41.363060 
	C176.015762,41.849140 177.709366,41.539570 179.186020,41.289169 
	C179.514496,41.233471 180.038330,39.498215 179.763245,39.207752 
	C178.605103,37.984932 177.189484,36.166664 175.847473,36.149189 
	C173.702454,36.121254 171.461548,37.175686 169.412048,38.105183 
	C167.812836,38.830467 166.442841,40.061172 164.995316,41.005146 
	C164.995316,41.005146 164.933182,41.029541 164.923447,40.243202 
M137.580704,37.705154 
	C136.413605,37.813702 135.246521,37.922245 133.200562,37.942509 
	C132.086761,38.166374 130.972961,38.390236 129.528900,38.343990 
	C129.147552,38.182980 128.766190,38.021973 127.253616,37.383354 
	C128.723022,38.322773 129.156158,38.599686 129.032639,39.437958 
	C129.906387,40.995586 130.780136,42.553211 131.439560,44.501949 
	C131.439560,44.501949 131.611938,44.913269 131.283188,45.807430 
	C131.266098,49.108673 131.212448,52.410236 131.240921,55.711086 
	C131.278748,60.097603 132.339523,64.923439 126.292473,66.687744 
	C131.769669,66.687744 137.246872,66.687744 141.742142,66.687744 
	C140.176041,64.202827 138.655655,61.790424 137.593933,58.644115 
	C137.440277,54.639992 137.286636,50.635868 137.363510,46.028580 
	C140.209564,42.458870 142.711334,38.088333 148.372223,42.092884 
	C149.008682,42.543137 150.878586,42.221954 151.389633,41.605827 
	C151.907883,40.981026 151.799454,39.367439 151.354279,38.500938 
	C150.050980,35.964230 147.760468,35.134384 145.203583,36.381184 
	C142.610519,37.645630 140.218491,39.322304 137.592194,40.906639 
	C137.476669,39.874340 137.374405,38.960609 137.580704,37.705154 
M105.307686,37.928795 
	C104.569160,37.685421 103.491837,36.999290 103.143494,37.265835 
	C98.704521,40.662498 95.185677,44.664639 94.605247,50.607338 
	C93.956322,57.251152 96.583542,62.196030 102.672882,66.244858 
	C110.722969,69.466278 117.339417,68.210831 119.174400,63.937550 
	C114.700249,63.937550 109.911919,63.937550 105.007347,63.194298 
	C101.842354,59.601559 100.336693,55.549564 101.524376,50.205177 
	C108.690414,50.205177 115.831711,50.205177 122.967979,50.205177 
	C122.761002,43.332474 120.567848,40.156395 114.865898,37.347721 
	C111.751915,35.290752 108.627396,33.088871 105.307686,37.928795 
M177.950851,74.393005 
	C176.211044,73.894432 174.471222,73.395851 172.731415,72.897278 
	C172.652832,73.264366 172.574249,73.631454 172.495667,73.998543 
	C174.553574,75.370918 176.611496,76.743286 179.078705,78.388611 
	C178.814804,77.071838 178.605118,76.025581 177.950851,74.393005 
M142.796600,75.005745 
	C141.889191,74.314354 140.981766,73.622971 140.074356,72.931587 
	C139.846878,73.479424 139.619385,74.027267 139.391907,74.575111 
	C140.377396,74.893112 141.362900,75.211105 142.796600,75.005745 
M141.690063,79.350296 
	C141.252090,79.942650 140.814117,80.535004 140.376144,81.127350 
	C140.906357,81.350922 141.436569,81.574493 141.966782,81.798073 
	C142.094574,81.017532 142.222366,80.236984 141.690063,79.350296 
M216.550858,75.432671 
	C215.431091,74.960968 214.311310,74.489273 213.191544,74.017578 
	C213.081818,74.378693 212.972107,74.739799 212.862381,75.100914 
	C214.143585,75.401466 215.424789,75.702019 216.550858,75.432671 
M196.581848,99.371017 
	C196.968811,100.079819 197.355774,100.788628 197.280716,100.651154 
	C197.300064,100.807930 197.192749,99.938141 196.581848,99.371017 
M216.453522,78.574875 
	C215.906433,78.852112 215.359344,79.129349 214.812256,79.406586 
	C214.937119,79.612671 215.061996,79.818764 215.186874,80.024849 
	C215.705963,79.683304 216.225067,79.341766 216.453522,78.574875 
M176.043335,79.669830 
	C175.893646,79.916550 175.743958,80.163277 175.594254,80.409996 
	C175.849457,80.500069 176.104660,80.590141 176.359863,80.680214 
	C176.402069,80.313980 176.444275,79.947746 176.043335,79.669830 
M144.038040,101.329391 
	C144.147766,101.442322 144.241974,101.582283 144.373260,101.657608 
	C144.446869,101.699852 144.672958,101.644760 144.675888,101.617142 
	C144.749481,100.923035 144.802505,100.226730 144.859161,99.530823 
	C144.717529,99.510788 144.575882,99.490746 144.434250,99.470711 
	C144.284531,99.865082 144.134827,100.259460 144.038040,101.329391 
M170.746643,76.186035 
	C170.630142,76.025993 170.513657,75.865952 170.397171,75.705902 
	C170.420959,75.929153 170.444763,76.152405 170.746643,76.186035 
M170.815689,79.228668 
	C170.875290,79.406578 170.934891,79.584496 170.994476,79.762413 
	C171.052109,79.583443 171.109741,79.404472 170.815689,79.228668 
M173.393616,80.485992 
	C173.393616,80.485992 173.517899,80.409096 173.393616,80.485992 
M174.617645,82.520065 
	C174.617645,82.520065 174.450363,82.424744 174.450363,82.424744 
	C174.450363,82.424744 174.473999,82.611328 174.617645,82.520065 
z"/>
<path fill="#33A33E" opacity="1.000000" stroke="none" 
	d="
M69.030136,66.872963 
	C82.720284,71.695709 96.410431,76.518456 110.862999,81.609787 
	C109.742714,83.158791 109.017761,84.822739 107.758530,85.794006 
	C100.075119,91.720390 92.214554,97.417068 84.530220,103.342293 
	C80.833626,106.192665 77.484970,109.495071 73.779694,112.332870 
	C72.698044,113.161301 70.679520,113.764786 69.518082,113.329727 
	C61.604671,110.365417 53.805473,107.096199 45.557091,103.758530 
	C48.953823,100.905991 52.036564,98.317131 55.767258,95.696609 
	C60.211880,97.147057 64.008553,98.629158 67.948929,100.266251 
	C68.435539,100.327553 68.778450,100.233871 69.123451,100.159416 
	C69.125542,100.178642 69.163338,100.186829 69.464157,100.160629 
	C74.209679,96.413002 78.192947,91.756889 83.243843,89.263397 
	C87.346756,87.237900 90.312386,85.266769 91.660301,80.544548 
	C84.180428,77.887840 76.678825,75.223419 69.152451,72.410690 
	C69.127678,72.262390 69.004501,71.988052 69.003143,71.562073 
	C69.011230,69.715057 69.020683,68.294006 69.030136,66.872963 
z"/>
<path fill="#3398CC" opacity="1.000000" stroke="none" 
	d="
M28.098166,74.042061 
	C28.393639,73.887039 28.631590,73.669189 29.227417,72.881210 
	C29.739969,62.885551 29.837128,53.397190 30.166073,43.665283 
	C32.248589,43.934742 34.131630,44.353920 35.944057,44.978127 
	C41.648224,46.942657 47.325871,48.984192 53.246498,51.158203 
	C53.973228,51.871258 54.467239,52.422031 55.068329,53.403450 
	C55.199234,56.454910 55.223057,59.075729 55.180912,62.130745 
	C55.103924,64.012222 55.092903,65.459496 54.909698,67.232071 
	C53.480320,68.916527 52.223125,70.275688 50.965927,71.634842 
	C48.406033,70.765137 45.896702,69.675247 43.275326,69.073273 
	C38.377117,67.948441 37.274189,69.078300 38.119118,73.984055 
	C38.251476,74.752548 38.678772,75.470230 38.666473,76.824295 
	C35.796955,79.965439 33.262760,82.575500 29.072830,80.659348 
	C28.721485,78.181824 28.409826,76.111946 28.098166,74.042061 
z"/>
<path fill="#4DB2DC" opacity="1.000000" stroke="none" 
	d="
M51.244568,71.813599 
	C52.223125,70.275688 53.480320,68.916527 55.260319,67.310059 
	C60.190247,68.704521 64.597374,70.346283 69.004501,71.988052 
	C69.004501,71.988052 69.127678,72.262390 69.098747,72.915840 
	C69.100990,82.441803 69.132164,91.314316 69.163338,100.186829 
	C69.163338,100.186829 69.125542,100.178642 68.794487,100.133255 
	C68.244034,100.095673 68.024628,100.103470 67.805229,100.111267 
	C64.008553,98.629158 60.211880,97.147057 56.050610,95.475204 
	C55.760757,89.646271 55.606613,83.991364 55.992207,78.373497 
	C56.241558,74.740623 55.047646,72.698586 51.244568,71.813599 
z"/>
<path fill="#34A33E" opacity="1.000000" stroke="none" 
	d="
M27.729641,74.032578 
	C28.409826,76.111946 28.721485,78.181824 28.901932,80.958145 
	C29.503973,82.893578 29.978651,84.448814 31.027258,85.279907 
	C32.894917,86.760147 35.109707,87.802399 37.179321,89.027824 
	C36.529690,89.464378 35.590454,89.750618 35.274105,90.360146 
	C30.905102,98.778252 24.737999,95.770195 18.587255,93.085777 
	C14.592316,91.342239 10.578516,89.641922 6.573167,87.922234 
	C6.517954,87.364754 6.462742,86.807274 6.407529,86.249794 
	C13.392057,82.174225 20.376585,78.098656 27.729641,74.032578 
z"/>
<path fill="#55201B" opacity="1.000000" stroke="none" 
	d="
M210.571243,62.008575 
	C211.748474,63.038200 212.925705,64.067825 214.115402,65.108360 
	C210.399277,68.673508 207.463196,68.434235 204.628220,64.471718 
	C200.774887,65.674713 197.146423,67.378731 193.363907,67.852356 
	C187.909470,68.535347 183.528061,65.341896 182.438263,60.882778 
	C181.366837,56.498856 183.274902,53.748905 189.646149,51.486610 
	C190.109268,52.842957 190.205093,53.736656 190.098831,54.934219 
	C188.202667,59.836788 189.311371,63.094532 193.057587,63.810894 
	C197.498123,64.660034 201.230637,62.979038 204.035080,59.604023 
	C206.066711,57.159077 204.649490,51.897182 202.002319,50.687698 
	C202.001694,49.588982 202.000320,48.856510 201.998947,48.124035 
	C206.955719,47.560341 203.909393,44.344578 203.989365,41.383854 
	C204.990967,39.772583 205.978470,38.937595 206.965973,38.102608 
	C207.303574,38.489887 207.641174,38.877163 208.136047,39.811565 
	C208.618301,40.539524 208.943314,40.720356 209.268311,40.901188 
	C209.603210,41.701626 209.938095,42.502064 210.038025,43.732445 
	C209.972916,44.404991 210.142776,44.647591 210.312653,44.890186 
	C210.444443,49.980526 210.576233,55.070866 210.489624,60.746716 
	C210.121231,61.521072 210.013824,61.731647 209.817535,62.032364 
	C209.805969,62.088573 209.925858,62.076355 210.176666,62.045925 
	C210.307587,62.027710 210.571243,62.008579 210.571243,62.008575 
z"/>
<path fill="#047AB2" opacity="1.000000" stroke="none" 
	d="
M53.013783,50.995914 
	C47.325871,48.984192 41.648224,46.942657 35.944057,44.978127 
	C34.131630,44.353920 32.248589,43.934742 29.971298,43.683243 
	C29.544739,43.944744 29.152691,43.961990 29.152691,43.961990 
	C29.967634,42.744354 30.507353,41.075306 31.642658,40.383114 
	C38.472179,36.219185 45.438343,32.279369 52.875923,28.582392 
	C53.266663,36.265484 53.140221,43.630699 53.013783,50.995914 
z"/>
<path fill="#592620" opacity="1.000000" stroke="none" 
	d="
M102.031960,65.811943 
	C96.583542,62.196030 93.956322,57.251152 94.605247,50.607338 
	C95.185677,44.664639 98.704521,40.662498 103.143494,37.265835 
	C103.491837,36.999290 104.569160,37.685421 105.777710,38.315586 
	C104.492256,41.349331 102.736786,43.996288 100.437851,47.462692 
	C106.874573,47.462692 111.752975,47.462692 117.717384,47.462692 
	C115.710762,43.886013 114.045753,40.918224 112.170822,37.576275 
	C113.405853,37.806793 114.183769,37.951992 114.961685,38.097191 
	C120.567848,40.156395 122.761002,43.332474 122.967979,50.205177 
	C115.831711,50.205177 108.690414,50.205177 101.524376,50.205177 
	C100.336693,55.549564 101.842354,59.601559 104.783249,63.685341 
	C103.716751,64.721573 102.874359,65.266754 102.031960,65.811943 
z"/>
<path fill="#53201D" opacity="1.000000" stroke="none" 
	d="
M131.653885,44.110836 
	C130.780136,42.553211 129.906387,40.995586 129.385513,39.153183 
	C129.738388,38.868412 129.859161,38.614101 129.859161,38.614101 
	C130.972961,38.390236 132.086761,38.166374 134.036819,38.015312 
	C135.672760,38.074368 136.472458,38.060623 137.272141,38.046879 
	C137.374405,38.960609 137.476669,39.874340 137.592194,40.906639 
	C140.218491,39.322304 142.610519,37.645630 145.203583,36.381184 
	C147.760468,35.134384 150.050980,35.964230 151.354279,38.500938 
	C151.799454,39.367439 151.907883,40.981026 151.389633,41.605827 
	C150.878586,42.221954 149.008682,42.543137 148.372223,42.092884 
	C142.711334,38.088333 140.209564,42.458870 137.187286,46.820282 
	C137.052475,51.533993 137.093857,55.456009 137.135254,59.378021 
	C138.655655,61.790424 140.176041,64.202827 141.742142,66.687744 
	C137.246872,66.687744 131.769669,66.687744 126.292473,66.687744 
	C132.339523,64.923439 131.278748,60.097603 131.240921,55.711086 
	C131.212448,52.410236 131.266098,49.108673 131.543533,45.282867 
	C131.927307,44.506344 131.877304,44.290524 131.653885,44.110836 
z"/>
<path fill="#521716" opacity="1.000000" stroke="none" 
	d="
M81.539146,36.084705 
	C84.536392,36.499504 87.533630,36.914307 90.530876,37.329105 
	C90.525467,37.820305 90.520065,38.311504 90.514664,38.802704 
	C87.783340,38.998688 85.052010,39.194672 81.863937,39.773048 
	C81.349808,40.251034 81.222244,40.376865 81.248001,40.436630 
	C81.329895,40.626682 81.468910,40.792122 81.585861,40.967072 
	C81.674088,49.171627 81.762321,57.376186 81.241402,65.888428 
	C80.421700,66.451164 80.211143,66.706223 80.000587,66.961281 
	C78.596123,64.718491 76.239723,62.580833 75.978088,60.211830 
	C75.363991,54.651329 75.917740,48.971481 75.623962,43.359562 
	C75.545235,41.855679 74.267639,40.309914 73.269630,38.987770 
	C72.240242,37.624050 70.475601,36.446938 74.468887,35.826431 
	C75.409584,35.423233 75.660881,35.114552 75.912186,34.805874 
	C75.912186,34.805874 75.925064,34.902084 76.211868,34.906017 
	C77.327576,34.607243 78.156494,34.304535 79.234261,33.997093 
	C79.483116,33.992355 79.980484,33.971306 80.009361,34.260139 
	C80.538544,35.060883 81.038841,35.572792 81.539146,36.084705 
z"/>
<path fill="#57201C" opacity="1.000000" stroke="none" 
	d="
M164.888641,61.983768 
	C166.570450,63.357559 168.252258,64.731346 170.559952,66.616394 
	C164.688400,66.616394 159.359970,66.616394 154.031555,66.616394 
	C157.585266,64.682800 159.886490,62.174240 159.442490,57.390518 
	C163.330795,54.054760 162.880753,48.474598 159.131393,47.000534 
	C159.058609,46.247334 158.985825,45.494129 159.237869,44.145416 
	C159.670288,43.085598 159.798630,42.624958 159.881470,42.156281 
	C160.104538,40.894638 160.308197,39.629562 160.519562,38.365849 
	C161.537445,39.088455 162.536713,39.839737 163.582779,40.518940 
	C163.977158,40.775017 164.479858,40.864250 164.933182,41.029541 
	C164.933182,41.029541 164.995316,41.005146 164.982635,41.454735 
	C164.942856,48.597473 164.915741,55.290623 164.888641,61.983768 
z"/>
<path fill="#F6F4F4" opacity="1.000000" stroke="none" 
	d="
M114.913788,37.722458 
	C114.183769,37.951992 113.405853,37.806793 112.170822,37.576275 
	C114.045753,40.918224 115.710762,43.886013 117.717384,47.462692 
	C111.752975,47.462692 106.874573,47.462692 100.437851,47.462692 
	C102.736786,43.996288 104.492256,41.349331 106.133575,38.346672 
	C108.627396,33.088871 111.751915,35.290752 114.913788,37.722458 
z"/>
<path fill="#C5E7EF" opacity="1.000000" stroke="none" 
	d="
M55.246880,61.696545 
	C55.223057,59.075729 55.199234,56.454910 55.108635,53.022568 
	C55.128582,51.453926 55.215302,50.696812 55.302017,49.939701 
	C55.747360,53.228542 58.179497,54.058708 60.931244,54.925884 
	C69.079506,57.493702 69.048851,57.590988 68.555771,65.708504 
	C63.892250,64.658035 59.569565,63.177288 55.246880,61.696545 
z"/>
<path fill="#531E19" opacity="1.000000" stroke="none" 
	d="
M206.675781,37.847664 
	C205.978470,38.937595 204.990967,39.772583 203.946762,40.949387 
	C198.626907,37.353237 194.360886,38.107750 190.278519,43.563374 
	C188.966293,45.317039 187.532364,47.756592 184.952316,45.201122 
	C182.759140,43.028839 184.346970,41.780964 186.179077,40.173359 
	C192.414886,34.701633 199.219727,35.053787 206.675781,37.847664 
z"/>
<path fill="#521E1B" opacity="1.000000" stroke="none" 
	d="
M164.942505,61.519974 
	C164.915741,55.290623 164.942856,48.597473 164.970459,41.485809 
	C166.442841,40.061172 167.812836,38.830467 169.412048,38.105183 
	C171.461548,37.175686 173.702454,36.121254 175.847473,36.149189 
	C177.189484,36.166664 178.605103,37.984932 179.763245,39.207752 
	C180.038330,39.498215 179.514496,41.233471 179.186020,41.289169 
	C177.709366,41.539570 176.015762,41.849140 174.682755,41.363060 
	C170.277985,39.756870 165.241364,42.785694 165.018143,47.656204 
	C164.813858,52.113831 164.988647,56.588833 164.942505,61.519974 
z"/>
<path fill="#51AF85" opacity="1.000000" stroke="none" 
	d="
M55.180912,62.130745 
	C59.569565,63.177288 63.892250,64.658035 68.520355,66.156525 
	C68.825768,66.174271 68.956131,66.515343 68.993134,66.694153 
	C69.020683,68.294006 69.011230,69.715057 69.003143,71.562073 
	C64.597374,70.346283 60.190247,68.704521 55.432503,66.984756 
	C55.092903,65.459496 55.103924,64.012222 55.180912,62.130745 
z"/>
<path fill="#49B2DD" opacity="1.000000" stroke="none" 
	d="
M37.525352,88.838196 
	C35.109707,87.802399 32.894917,86.760147 31.027258,85.279907 
	C29.978651,84.448814 29.503973,82.893578 28.941614,81.365791 
	C33.262760,82.575500 35.796955,79.965439 38.615871,77.225052 
	C38.536121,80.891464 38.203751,84.770012 37.525352,88.838196 
z"/>
<path fill="#531C19" opacity="1.000000" stroke="none" 
	d="
M102.352417,66.028397 
	C102.874359,65.266754 103.716751,64.721573 104.841370,64.056969 
	C109.911919,63.937550 114.700249,63.937550 119.174400,63.937550 
	C117.339417,68.210831 110.722969,69.466278 102.352417,66.028397 
z"/>
<path fill="#521E1B" opacity="1.000000" stroke="none" 
	d="
M164.928314,40.636372 
	C164.479858,40.864250 163.977158,40.775017 163.582779,40.518940 
	C162.536713,39.839737 161.537445,39.088455 160.519562,38.365849 
	C160.308197,39.629562 160.104538,40.894638 159.881470,42.156281 
	C159.798630,42.624958 159.670288,43.085598 159.305023,43.771042 
	C157.482422,42.219212 155.917465,40.446243 153.820892,38.070969 
	C157.073090,37.611156 160.307693,37.027241 163.563812,36.858505 
	C163.957504,36.838108 164.467407,39.060356 164.928314,40.636372 
z"/>
<path fill="#531E19" opacity="1.000000" stroke="none" 
	d="
M190.300934,54.630352 
	C190.205093,53.736656 190.109268,52.842957 190.007355,51.499153 
	C191.722229,50.666348 193.443192,50.283646 195.681671,49.894569 
	C196.462646,49.640182 196.726074,49.392166 196.989502,49.144150 
	C198.413620,48.760891 199.837738,48.377636 201.630402,48.059208 
	C202.000320,48.856510 202.001694,49.588982 201.666061,50.888393 
	C197.653015,52.513672 193.976974,53.572010 190.300934,54.630352 
z"/>
<path fill="#4B1411" opacity="1.000000" stroke="none" 
	d="
M81.608391,35.715340 
	C81.038841,35.572792 80.538544,35.060883 79.993546,34.014877 
	C79.791771,33.223560 79.634697,32.966339 79.477631,32.709114 
	C79.313553,33.140018 79.149483,33.570927 78.985405,34.001831 
	C78.156494,34.304535 77.327576,34.607243 76.164932,34.893669 
	C77.475670,31.636806 79.120155,28.396231 80.764641,25.155655 
	C81.068970,25.130938 81.373306,25.106220 81.677635,25.081505 
	C81.677635,28.502995 81.677635,31.924484 81.608391,35.715340 
z"/>
<path fill="#521E1B" opacity="1.000000" stroke="none" 
	d="
M159.043579,47.447662 
	C162.880753,48.474598 163.330795,54.054760 159.532623,56.980820 
	C159.072235,53.964668 159.013992,50.929729 159.043579,47.447662 
z"/>
<path fill="#2797C3" opacity="1.000000" stroke="none" 
	d="
M29.053249,44.424454 
	C29.152691,43.961990 29.544739,43.944744 29.739513,43.926785 
	C29.837128,53.397190 29.739969,62.885551 29.358528,72.675308 
	C29.034100,63.613445 28.993952,54.250183 29.053249,44.424454 
z"/>
<path fill="#0065A4" opacity="1.000000" stroke="none" 
	d="
M55.234070,49.479759 
	C55.215302,50.696812 55.128582,51.453926 55.001556,52.591919 
	C54.467239,52.422031 53.973228,51.871258 53.246498,51.158203 
	C53.140221,43.630699 53.266663,36.265484 53.216606,28.533182 
	C53.485977,27.798147 53.931847,27.430199 54.732224,27.299887 
	C55.159817,27.700296 55.232895,27.863073 55.305969,28.025848 
	C55.259354,35.023838 55.212734,42.021832 55.234070,49.479759 
z"/>
<path fill="#F2EFEF" opacity="1.000000" stroke="none" 
	d="
M178.173141,74.686165 
	C178.605118,76.025581 178.814804,77.071838 179.078705,78.388611 
	C176.611496,76.743286 174.553574,75.370918 172.495667,73.998543 
	C172.574249,73.631454 172.652832,73.264366 172.731415,72.897278 
	C174.471222,73.395851 176.211044,73.894432 178.173141,74.686165 
z"/>
<path fill="#5D2D29" opacity="1.000000" stroke="none" 
	d="
M137.364594,59.011070 
	C137.093857,55.456009 137.052475,51.533993 137.072037,47.121864 
	C137.286636,50.635868 137.440277,54.639992 137.364594,59.011070 
z"/>
<path fill="#E5E2E2" opacity="1.000000" stroke="none" 
	d="
M211.874985,82.159256 
	C207.360168,80.024246 210.343521,76.760170 210.633438,73.901558 
	C211.105728,76.282768 211.578018,78.663979 212.034882,81.515411 
	C212.019424,81.985641 211.874985,82.159256 211.874985,82.159256 
z"/>
<path fill="#EFEBEA" opacity="1.000000" stroke="none" 
	d="
M142.572495,75.267426 
	C141.362900,75.211105 140.377396,74.893112 139.391907,74.575111 
	C139.619385,74.027267 139.846878,73.479424 140.074356,72.931587 
	C140.981766,73.622971 141.889191,74.314354 142.572495,75.267426 
z"/>
<path fill="#E8E7E6" opacity="1.000000" stroke="none" 
	d="
M135.671906,101.041512 
	C136.002472,99.794426 136.272354,98.523590 136.739227,97.329811 
	C136.798645,97.177879 137.887650,97.428589 138.499664,97.492760 
	C138.132355,98.122101 137.765045,98.751450 136.942749,99.766281 
	C136.215790,100.448349 135.943848,100.744934 135.671906,101.041512 
z"/>
<path fill="#EFEBEA" opacity="1.000000" stroke="none" 
	d="
M142.020111,79.403366 
	C142.222366,80.236984 142.094574,81.017532 141.966782,81.798073 
	C141.436569,81.574493 140.906357,81.350922 140.376160,81.127350 
	C140.814117,80.535004 141.252090,79.942650 142.020111,79.403366 
z"/>
<path fill="#E5E2E2" opacity="1.000000" stroke="none" 
	d="
M216.628418,75.717621 
	C215.424789,75.702019 214.143585,75.401466 212.862381,75.100914 
	C212.972107,74.739799 213.081818,74.378693 213.191544,74.017578 
	C214.311310,74.489273 215.431091,74.960968 216.628418,75.717621 
z"/>
<path fill="#5D2D29" opacity="1.000000" stroke="none" 
	d="
M137.426422,37.876015 
	C136.472458,38.060623 135.672760,38.074368 134.476257,38.059456 
	C135.246521,37.922245 136.413605,37.813702 137.426422,37.876015 
z"/>
<path fill="#EFEBEA" opacity="1.000000" stroke="none" 
	d="
M137.153290,75.890038 
	C137.535995,76.973915 137.918686,78.057793 138.301392,79.141670 
	C137.859039,79.248260 137.416687,79.354843 136.974319,79.461426 
	C136.859055,78.481010 136.743790,77.500603 136.828079,76.249733 
	C137.027618,75.979279 137.153290,75.890038 137.153290,75.890038 
z"/>
<path fill="#5D2D29" opacity="1.000000" stroke="none" 
	d="
M129.694031,38.479046 
	C129.859161,38.614101 129.738388,38.868412 129.663849,38.872505 
	C129.156158,38.599686 128.723022,38.322773 127.253616,37.383354 
	C128.766190,38.021973 129.147552,38.182980 129.694031,38.479046 
z"/>
<path fill="#6E6D6C" opacity="1.000000" stroke="none" 
	d="
M196.833649,99.219681 
	C197.192749,99.938141 197.300064,100.807930 197.280716,100.651154 
	C197.355774,100.788628 196.968811,100.079819 196.833649,99.219681 
z"/>
<path fill="#E5E2E2" opacity="1.000000" stroke="none" 
	d="
M216.598846,78.787552 
	C216.225067,79.341766 215.705963,79.683304 215.186874,80.024849 
	C215.061996,79.818764 214.937119,79.612671 214.812256,79.406586 
	C215.359344,79.129349 215.906433,78.852112 216.598846,78.787552 
z"/>
<path fill="#EFEBEA" opacity="1.000000" stroke="none" 
	d="
M136.965240,76.024544 
	C136.775696,75.531387 136.648514,74.992958 136.521332,74.454536 
	C136.806793,74.469292 137.092239,74.484055 137.377701,74.498810 
	C137.329697,74.806725 137.281708,75.114639 137.193512,75.656296 
	C137.153290,75.890038 137.027618,75.979279 136.965240,76.024544 
z"/>
<path fill="#F2EFEF" opacity="1.000000" stroke="none" 
	d="
M176.264908,79.625671 
	C176.444275,79.947746 176.402069,80.313980 176.359863,80.680222 
	C176.104660,80.590141 175.849457,80.500069 175.594269,80.409996 
	C175.743958,80.163277 175.893646,79.916550 176.264908,79.625671 
z"/>
<path fill="#8F8C8D" opacity="1.000000" stroke="none" 
	d="
M135.698975,101.306625 
	C135.943848,100.744934 136.215790,100.448349 136.757233,100.016197 
	C137.140701,100.506859 137.254669,101.133080 136.963470,101.947632 
	C136.354431,102.109619 136.150543,102.083267 135.946671,102.056923 
	C135.873138,101.895195 135.799591,101.733467 135.698975,101.306625 
z"/>
<path fill="#545150" opacity="1.000000" stroke="none" 
	d="
M144.011581,100.991608 
	C144.134827,100.259460 144.284531,99.865082 144.434250,99.470711 
	C144.575882,99.490746 144.717529,99.510788 144.859161,99.530823 
	C144.802505,100.226730 144.749481,100.923035 144.675888,101.617142 
	C144.672958,101.644760 144.446869,101.699852 144.373260,101.657608 
	C144.241974,101.582283 144.147766,101.442322 144.011581,100.991608 
z"/>
<path fill="#F2EFEF" opacity="1.000000" stroke="none" 
	d="
M170.607605,76.280846 
	C170.444763,76.152405 170.420959,75.929153 170.397171,75.705902 
	C170.513657,75.865952 170.630142,76.025993 170.607605,76.280846 
z"/>
<path fill="#F2EFEF" opacity="1.000000" stroke="none" 
	d="
M170.991531,79.227081 
	C171.109741,79.404472 171.052109,79.583443 170.994476,79.762413 
	C170.934891,79.584496 170.875290,79.406578 170.991531,79.227081 
z"/>
<path fill="#E5E2E2" opacity="1.000000" stroke="none" 
	d="
M212.093933,81.900795 
	C212.593063,82.028542 213.017685,82.241142 213.442307,82.453735 
	C213.030960,82.483948 212.619614,82.514153 212.041626,82.351807 
	C211.874985,82.159256 212.019424,81.985641 212.093933,81.900795 
z"/>
<path fill="#F2EFEF" opacity="1.000000" stroke="none" 
	d="
M173.455750,80.447540 
	C173.517899,80.409096 173.393616,80.485992 173.455750,80.447540 
z"/>
<path fill="#C0BFBF" opacity="1.000000" stroke="none" 
	d="
M136.026154,102.271454 
	C136.150543,102.083267 136.354431,102.109619 136.859650,102.206688 
	C136.809219,102.346939 136.457428,102.416466 136.026154,102.271454 
z"/>
<path fill="#F2EFEF" opacity="1.000000" stroke="none" 
	d="
M174.545822,82.565697 
	C174.473999,82.611328 174.450363,82.424744 174.450363,82.424744 
	C174.450363,82.424744 174.617645,82.520065 174.545822,82.565697 
z"/>
<path fill="#5E2C27" opacity="1.000000" stroke="none" 
	d="
M80.287842,67.003105 
	C80.211143,66.706223 80.421700,66.451164 80.871651,66.118958 
	C80.932396,66.376183 80.753746,66.710556 80.287842,67.003105 
z"/>
<path fill="#531E19" opacity="1.000000" stroke="none" 
	d="
M209.948990,61.963940 
	C210.013824,61.731647 210.121231,61.521072 210.400711,61.210129 
	C210.530197,61.088039 210.739990,61.539871 210.655609,61.774223 
	C210.571243,62.008579 210.307587,62.027710 210.154572,62.018848 
	C210.001572,62.009987 209.948990,61.963940 209.948990,61.963940 
z"/>
<path fill="#55201B" opacity="1.000000" stroke="none" 
	d="
M196.687744,49.115860 
	C196.726074,49.392166 196.462646,49.640182 195.934875,49.973843 
	C195.909027,49.735516 196.147507,49.411545 196.687744,49.115860 
z"/>
<path fill="#531E19" opacity="1.000000" stroke="none" 
	d="
M210.363571,44.648239 
	C210.142776,44.647591 209.972916,44.404991 209.988739,44.068184 
	C210.174438,43.973980 210.414505,44.406292 210.363571,44.648239 
z"/>
<path fill="#5D2D29" opacity="1.000000" stroke="none" 
	d="
M131.546722,44.306393 
	C131.877304,44.290524 131.927307,44.506344 131.707916,44.835785 
	C131.611938,44.913269 131.439560,44.501949 131.546722,44.306393 
z"/>
<path fill="#531E19" opacity="1.000000" stroke="none" 
	d="
M209.176239,40.624901 
	C208.943314,40.720356 208.618301,40.539524 208.173126,40.100166 
	C208.396698,40.010632 208.740448,40.179626 209.176239,40.624901 
z"/>
<path fill="#5E2C27" opacity="1.000000" stroke="none" 
	d="
M81.687782,40.737915 
	C81.468910,40.792122 81.329895,40.626682 81.248001,40.436630 
	C81.222244,40.376865 81.349808,40.251034 81.559242,40.084385 
	C81.737427,40.178467 81.763565,40.343613 81.687782,40.737915 
z"/>
<path fill="#4B1411" opacity="1.000000" stroke="none" 
	d="
M75.623177,34.897713 
	C75.660881,35.114552 75.409584,35.423233 74.858917,35.802952 
	C74.817757,35.579178 75.075966,35.284367 75.623177,34.897713 
z"/>
<path fill="#C5E7EF" opacity="1.000000" stroke="none" 
	d="
M55.455666,27.891380 
	C55.232895,27.863073 55.159817,27.700296 55.021080,27.278032 
	C55.172070,27.264668 55.388718,27.510790 55.455666,27.891380 
z"/>
<path fill="#35AED8" opacity="1.000000" stroke="none" 
	d="
M69.464157,100.160629 
	C69.132164,91.314316 69.100990,82.441803 69.123520,73.064148 
	C76.678825,75.223419 84.180428,77.887840 91.660301,80.544548 
	C90.312386,85.266769 87.346756,87.237900 83.243843,89.263397 
	C78.192947,91.756889 74.209679,96.413002 69.464157,100.160629 
z"/>
<path fill="#35AED8" opacity="1.000000" stroke="none" 
	d="
M67.948929,100.266251 
	C68.024628,100.103470 68.244034,100.095673 68.792397,100.114029 
	C68.778450,100.233871 68.435539,100.327553 67.948929,100.266251 
z"/>
<path fill="#F6F4F4" opacity="1.000000" stroke="none" 
	d="
M190.098846,54.934219 
	C193.976974,53.572010 197.653015,52.513672 201.665283,51.254631 
	C204.649490,51.897182 206.066711,57.159077 204.035080,59.604023 
	C201.230637,62.979038 197.498123,64.660034 193.057587,63.810894 
	C189.311371,63.094532 188.202667,59.836788 190.098846,54.934219 
z"/>
<path fill="#531E19" opacity="1.000000" stroke="none" 
	d="
M210.023666,62.037064 
	C209.925858,62.076355 209.805969,62.088573 209.817535,62.032364 
	C209.948990,61.963940 210.001572,62.009987 210.023666,62.037064 
z"/>
<path fill="#5E2C27" opacity="1.000000" stroke="none" 
	d="
M79.234261,33.997093 
	C79.149483,33.570927 79.313553,33.140018 79.477631,32.709114 
	C79.634697,32.966339 79.791771,33.223560 79.964661,33.726044 
	C79.980484,33.971306 79.483116,33.992355 79.234261,33.997093 
z"/>
</svg>