<svg version="1.1" id="Layer_1" xmlns="http://www.w3.org/2000/svg" xmlns:xlink="http://www.w3.org/1999/xlink" x="0px" y="0px"
	 width="100%" viewBox="0 0 252 147" enable-background="new 0 0 252 147" xml:space="preserve">
<path fill="#F7F7F7" opacity="1.000000" stroke="none" 
	d="
M142.000000,1.000000 
	C178.906738,1.000000 215.813492,1.000000 253.000000,1.000000 
	C253.000000,21.686720 253.000000,42.374702 252.625854,63.487038 
	C248.554626,61.808052 246.051392,64.278786 243.332642,66.161858 
	C240.276749,68.278412 237.126801,70.259201 234.017776,72.299042 
	C233.292389,70.356003 233.750732,69.463211 233.518585,68.819420 
	C232.825272,66.896698 231.861343,65.071564 231.003113,63.208313 
	C230.002014,64.737679 228.268768,66.207092 228.137711,67.807693 
	C227.751541,72.523682 227.802292,77.304459 228.108276,82.032295 
	C228.214783,83.677971 229.566528,85.243065 230.349548,86.844963 
	C231.554459,85.270218 232.904129,83.783134 233.925095,82.097008 
	C235.027908,80.275688 235.823532,78.268356 236.753159,76.342163 
	C238.483078,77.704056 240.654648,78.759758 241.853928,80.489548 
	C244.628021,84.490807 247.364960,88.088905 253.000000,87.000000 
	C253.000000,107.258919 253.000000,127.517845 253.000000,148.000000 
	C233.646347,148.000000 214.291824,148.000000 194.454041,147.626312 
	C194.658844,145.186981 195.346893,143.121307 196.139435,140.844254 
	C196.399658,140.354294 196.605667,140.119919 197.220428,139.916077 
	C198.438522,138.648071 199.298111,137.393692 200.485092,136.023865 
	C201.805573,134.137283 202.798676,132.366150 203.846329,130.425140 
	C203.900879,130.255264 204.208496,130.074448 204.581757,130.067047 
	C205.486282,129.175461 206.017517,128.291275 206.559738,127.259476 
	C206.570724,127.111870 206.770706,126.893600 207.163788,126.895447 
	C208.185959,125.727425 208.815063,124.557564 209.451782,123.223145 
	C209.459396,123.058586 209.676743,122.810951 209.989166,122.851021 
	C210.555527,122.259712 210.809448,121.628342 211.129700,120.685860 
	C212.130249,119.255577 213.064499,118.136398 214.245926,116.911057 
	C214.640030,116.490517 214.786942,116.176147 215.073029,115.596733 
	C215.817001,114.559731 216.421799,113.787766 217.269104,112.936806 
	C217.677521,112.574394 217.843430,112.290977 218.085632,111.762604 
	C218.264618,111.380859 218.367310,111.244064 218.758606,110.999374 
	C218.674683,109.945465 218.302170,108.999451 217.955566,108.023987 
	C217.981491,107.994530 217.955292,108.068291 217.881165,107.815155 
	C217.509247,107.397064 217.211472,107.232117 216.957794,107.037949 
	C217.001877,107.008728 216.925522,107.082535 216.904968,106.845642 
	C216.769592,106.287399 216.550705,106.071678 216.043121,105.754913 
	C215.538803,105.098175 215.219086,104.648109 214.850250,103.919777 
	C214.503174,103.430069 214.205231,103.218628 213.773132,102.802711 
	C213.485718,102.301811 213.410767,101.986755 213.558731,101.299515 
	C212.902618,100.261162 212.101929,99.576363 211.127151,98.671463 
	C210.617447,98.005165 210.281830,97.558983 209.976166,96.737579 
	C209.660812,94.934013 209.315491,93.505661 209.031403,91.731461 
	C210.196960,90.189476 211.398346,89.066216 212.370941,87.771141 
	C213.000122,86.933304 213.918930,85.441528 213.604691,84.954224 
	C213.013092,84.036797 211.668045,83.235527 210.555664,83.112068 
	C208.969452,82.936012 207.315247,83.512192 205.681778,83.587807 
	C203.535934,83.687141 201.382050,83.612190 199.161057,83.612190 
	C199.629105,81.182220 200.255554,79.515877 200.196915,77.874001 
	C200.101746,75.208992 199.551849,72.560783 199.205383,69.903976 
	C199.013565,68.432930 198.845032,66.958847 198.665985,65.486130 
	C197.801804,65.668770 196.381775,65.606590 196.174011,66.078331 
	C195.448639,67.725403 194.708969,69.572235 194.770325,71.315163 
	C194.884338,74.553452 195.558456,77.772026 195.651855,81.060730 
	C193.854004,82.094711 192.403687,83.066780 190.958344,84.033188 
	C190.963318,84.027534 190.946564,84.061363 191.097885,83.729477 
	C193.140717,75.663040 190.873184,68.998344 186.342285,62.951988 
	C187.723602,62.321732 188.765671,61.742615 190.568283,60.740845 
	C187.340988,57.527184 184.605087,54.802841 181.629181,51.932892 
	C180.891769,51.239349 180.394379,50.691418 179.940308,49.768471 
	C178.282990,47.308506 176.582336,45.223560 174.892563,43.124222 
	C174.903427,43.109821 174.894913,43.080959 174.886047,42.845512 
	C174.768387,42.289513 174.554245,42.073395 174.117737,41.786919 
	C174.000748,41.612133 173.853760,41.217976 173.877747,40.859909 
	C172.555511,39.357304 171.209320,38.212765 169.670105,36.810921 
	C168.809814,35.223022 168.142532,33.892429 167.601059,32.195110 
	C166.836212,31.208784 165.945572,30.589182 164.936493,29.849535 
	C164.818054,29.729490 164.706116,29.411339 164.786896,28.980965 
	C165.420364,22.448547 160.423828,21.176762 156.381073,18.734127 
	C156.150101,18.366280 156.054794,18.220982 155.872559,17.829334 
	C155.493759,17.410257 155.201904,17.237530 154.921356,17.061235 
	C154.932648,17.057669 154.909027,17.090988 154.948517,16.720798 
	C151.897232,12.631067 148.806442,8.911527 145.420090,5.072658 
	C144.083023,3.635553 143.041504,2.317777 142.000000,1.000000 
M222.550705,84.598381 
	C222.569061,78.563026 222.669724,72.525444 222.506088,66.495033 
	C222.484589,65.702705 221.110306,64.947083 220.362564,64.174454 
	C219.588837,65.096672 218.185928,65.992378 218.145767,66.945511 
	C217.922623,72.241257 217.917343,77.554314 218.075684,82.854332 
	C218.147766,85.266876 219.377838,86.642296 222.550705,84.598381 
z"/>
<path fill="#F7F7F7" opacity="1.000000" stroke="none" 
	d="
M185.000000,148.000000 
	C123.787193,148.000000 62.574394,148.000000 1.000000,148.000000 
	C1.000000,135.314728 1.000000,122.626022 1.410844,109.388504 
	C3.591398,108.543533 5.357521,108.019592 7.131454,107.991653 
	C13.886078,107.885307 20.645819,108.037537 27.397488,107.859535 
	C28.967861,107.818146 30.513971,106.856430 32.527710,106.234055 
	C41.987293,106.081116 50.990414,106.012299 60.197746,106.217422 
	C61.417892,106.241005 62.752842,106.311813 63.389423,105.679527 
	C65.233124,103.848236 67.000198,101.868637 68.425446,99.702545 
	C71.106590,95.627739 73.526878,91.381294 76.256653,87.004227 
	C76.946022,86.510902 77.434357,86.219566 78.193527,85.985672 
	C78.648430,86.056526 78.832512,86.069931 79.324219,86.355728 
	C84.389992,87.015640 89.149536,87.741890 93.905975,87.722008 
	C104.663017,87.677071 115.417450,87.200668 126.174973,87.020683 
	C134.638168,86.879066 135.260742,86.181122 134.124725,77.367653 
	C134.036835,76.685684 134.515717,75.930649 134.731155,75.209579 
	C135.106979,75.089828 135.482788,74.970078 135.858612,74.850327 
	C137.504593,78.611946 139.150574,82.373558 141.166275,86.980087 
	C140.515289,88.131241 138.533646,90.167946 138.251404,92.417839 
	C137.493408,98.460243 144.943970,95.866684 146.774902,99.681778 
	C146.995010,100.140427 149.534195,99.486099 151.046906,99.078125 
	C151.053955,98.457146 151.012589,98.105652 151.070419,97.633865 
	C151.169617,97.513565 151.422073,97.330505 151.483246,97.673340 
	C151.861176,98.340172 152.177963,98.664177 152.506134,99.224365 
	C152.727676,99.882515 152.937836,100.304482 153.077835,101.118721 
	C152.897568,104.645096 154.012207,106.790627 157.626282,107.262695 
	C157.857285,107.644066 157.934677,107.805374 158.002258,108.336853 
	C160.869293,113.178398 162.329742,118.784142 167.939819,121.452789 
	C171.958420,127.215958 175.947220,132.616699 179.966522,138.378845 
	C181.664688,141.826828 183.332352,144.913406 185.000000,148.000000 
M120.236328,93.940445 
	C120.791222,93.644234 121.346107,93.348022 121.900993,93.051811 
	C121.632072,92.560966 121.363152,92.070129 121.094223,91.579285 
	C120.755875,92.154060 120.417519,92.728836 120.236328,93.940445 
z"/>
<path fill="#9B1B1F" opacity="1.000000" stroke="none" 
	d="
M84.000000,0.999999 
	C85.714378,1.000000 87.428749,1.000000 89.663757,1.394768 
	C95.784843,1.888355 101.385307,1.987173 107.419907,2.076519 
	C118.251930,2.444754 128.649826,2.822461 139.035889,3.566493 
	C138.242020,5.259006 137.542511,6.642861 136.663406,7.901256 
	C133.134811,12.952226 129.550583,17.964331 125.647308,23.048141 
	C122.538254,27.403452 119.768822,31.701427 116.619720,35.999908 
	C114.828873,36.989590 113.417686,37.978767 111.670891,39.040745 
	C110.933250,39.832066 110.531219,40.550587 110.087753,41.471321 
	C110.046310,41.673531 109.756027,41.967072 109.425652,42.013008 
	C108.062172,42.860409 106.831024,43.500919 106.027779,44.489212 
	C100.393791,51.421158 94.686577,58.304317 89.346260,65.459442 
	C86.890709,68.749474 85.209778,72.617645 83.168137,76.228638 
	C83.158684,76.233604 83.200089,76.242569 82.835297,76.175125 
	C77.407227,79.023125 74.195114,83.289528 73.012871,89.024826 
	C72.998642,89.001984 73.047813,89.023827 72.673859,89.010986 
	C68.186867,90.716125 65.237480,93.340965 65.123817,98.183075 
	C65.108932,98.178833 65.153114,98.193420 64.786179,98.146622 
	C63.797047,98.258644 62.820477,98.220314 62.605923,98.605942 
	C59.498611,104.190918 54.377304,104.410568 48.910290,104.018730 
	C46.284546,103.830536 43.634491,103.981567 40.941288,103.653030 
	C39.929623,103.545319 38.972115,103.763550 37.559959,103.985855 
	C34.075401,104.020844 31.045496,104.051743 27.830479,103.824760 
	C26.756666,103.743637 25.867966,103.920387 24.513309,104.075691 
	C18.671324,104.025223 13.295298,103.996208 7.947722,103.604973 
	C8.898404,101.736465 9.679013,100.117813 10.768692,98.744377 
	C14.437926,94.119659 18.282877,89.634071 21.939795,84.999916 
	C28.463552,76.732803 34.972988,68.451759 41.310143,60.042206 
	C42.599579,58.331097 43.101578,56.026604 43.981689,53.989983 
	C43.996803,53.984303 44.011181,53.957241 44.236607,53.952316 
	C44.602394,53.627594 44.742752,53.307800 44.925041,52.641586 
	C44.957146,51.831455 44.947323,51.367744 44.957321,50.946609 
	C44.977139,50.989193 44.899307,50.936596 45.253159,50.969963 
	C46.076683,50.945122 46.546364,50.886909 47.220543,50.767914 
	C47.681118,50.541435 47.829983,50.307461 48.009605,49.778969 
	C48.423481,49.336136 48.699402,49.119530 49.355988,48.915482 
	C50.449482,47.619053 51.162315,46.310070 51.902607,44.967926 
	C51.930065,44.934769 51.991867,44.874809 52.215111,44.755234 
	C52.298756,44.082645 52.159157,43.529633 52.048950,42.691864 
	C52.095188,42.026157 52.112034,41.645203 52.045517,41.145508 
	C51.962154,41.026768 51.872074,40.750931 52.159805,40.750713 
	C52.932789,40.448021 53.418045,40.145546 54.086998,40.104424 
	C56.375107,38.824429 58.660526,37.473663 60.536480,35.691803 
	C62.708443,33.628777 64.840767,31.386999 66.417786,28.864841 
	C69.191231,24.429203 71.529518,19.721476 74.354279,14.948627 
	C76.604492,12.461651 78.734802,10.280790 80.439865,7.806840 
	C81.882210,5.714078 82.832146,3.281942 84.000000,0.999999 
z"/>
<path fill="#F7F7F7" opacity="1.000000" stroke="none" 
	d="
M1.000000,102.000000 
	C1.000000,68.414894 1.000000,34.829792 1.000000,1.000000 
	C27.353724,1.000000 53.708202,1.000000 80.403511,1.323032 
	C79.058617,3.743706 77.090164,5.678936 75.765953,7.984236 
	C74.416328,10.333750 73.700325,13.047225 72.651688,15.680685 
	C72.596466,15.760028 72.407036,15.798657 72.072556,15.593649 
	C71.012917,16.400398 70.287758,17.412157 69.514793,18.442446 
	C69.466988,18.460976 69.402679,18.540848 69.099442,18.511259 
	C68.645981,18.824778 68.495766,19.167883 68.295883,19.665710 
	C68.246231,19.820433 67.973579,19.997295 67.609917,20.023235 
	C66.367676,21.585003 65.489105,23.120829 64.620811,24.829033 
	C64.631088,25.001413 64.427071,25.280083 64.049286,25.218174 
	C59.339119,28.268730 55.835312,31.996412 54.544289,37.420204 
	C54.505138,37.444260 54.512333,37.535873 54.162136,37.475761 
	C53.165318,38.527412 52.518692,39.639172 51.872070,40.750931 
	C51.872074,40.750931 51.962154,41.026768 51.749317,41.121765 
	C50.883625,41.916756 50.230766,42.616749 49.231083,43.334625 
	C48.622456,43.936497 48.360653,44.520489 48.062943,45.047081 
	C48.027039,44.989689 48.115421,45.093636 47.772148,45.075638 
	C46.663765,46.383507 45.898663,47.709373 45.080116,49.352337 
	C44.984219,50.091820 44.941761,50.514210 44.899307,50.936596 
	C44.899307,50.936596 44.977139,50.989193 44.658028,50.957008 
	C43.849640,51.266510 43.360359,51.608200 42.531891,51.993950 
	C39.473419,55.722309 36.754135,59.406605 33.851830,63.303650 
	C33.353035,63.979561 33.037266,64.442719 32.369545,64.918640 
	C29.895325,68.100838 27.773056,71.270264 25.606163,74.476089 
	C25.561539,74.512482 25.532598,74.623947 25.224464,74.537506 
	C24.600561,74.944321 24.284794,75.437561 23.819477,76.123169 
	C23.458138,76.564117 23.220539,76.784935 22.612005,77.006790 
	C20.482853,79.142303 16.628948,79.954689 17.889816,84.279861 
	C17.294542,85.080887 16.730677,85.587120 15.800487,86.072815 
	C14.671238,87.114723 13.908313,88.177155 13.102691,89.438942 
	C13.059995,89.638298 12.780201,89.934921 12.409964,89.956619 
	C11.506003,91.099838 10.972281,92.221359 10.369210,93.322472 
	C10.299864,93.302055 10.395374,93.410591 10.113611,93.410118 
	C9.767097,93.516487 9.638106,93.631660 9.650672,93.728462 
	C9.678722,93.944572 9.777407,94.151505 9.796339,94.502014 
	C9.745365,94.641853 9.499482,94.809654 9.222244,94.608414 
	C8.448111,94.607635 7.951216,94.808090 7.454321,95.008545 
	C7.694238,95.354668 7.934155,95.700790 8.093298,96.345383 
	C7.150099,97.497147 6.287674,98.350449 5.071870,99.161880 
	C3.478995,100.080009 2.239497,101.040009 1.000000,102.000000 
z"/>
<path fill="#FBFBFB" opacity="1.000000" stroke="none" 
	d="
M253.000000,86.583336 
	C247.364960,88.088905 244.628021,84.490807 241.853928,80.489548 
	C240.654648,78.759758 238.483078,77.704056 236.753159,76.342163 
	C235.823532,78.268356 235.027908,80.275688 233.925095,82.097008 
	C232.904129,83.783134 231.554459,85.270218 230.349548,86.844963 
	C229.566528,85.243065 228.214783,83.677971 228.108276,82.032295 
	C227.802292,77.304459 227.751541,72.523682 228.137711,67.807693 
	C228.268768,66.207092 230.002014,64.737679 231.003113,63.208313 
	C231.861343,65.071564 232.825272,66.896698 233.518585,68.819420 
	C233.750732,69.463211 233.292389,70.356003 234.017776,72.299042 
	C237.126801,70.259201 240.276749,68.278412 243.332642,66.161858 
	C246.051392,64.278786 248.554626,61.808052 252.625854,63.955696 
	C253.000000,64.444443 253.000000,64.888893 252.648773,65.705818 
	C249.905411,67.517448 247.373016,68.776039 245.183716,70.476364 
	C244.177689,71.257698 243.298019,72.918571 243.327698,74.157448 
	C243.378891,76.294647 250.575867,81.794456 253.000000,82.000000 
	C253.000000,83.388893 253.000000,84.777779 253.000000,86.583336 
z"/>
<path fill="#741215" opacity="1.000000" stroke="none" 
	d="
M125.986923,22.990805 
	C129.550583,17.964331 133.134811,12.952226 136.663406,7.901256 
	C137.542511,6.642861 138.242020,5.259006 139.350266,3.467921 
	C140.117630,2.335351 140.558823,1.667676 141.000000,1.000001 
	C141.000000,1.000000 141.500000,1.000000 141.750000,1.000000 
	C143.041504,2.317777 144.083023,3.635553 145.419434,5.444232 
	C146.906616,8.594928 148.098877,11.254721 148.920822,13.911798 
	C146.357834,13.355107 144.132019,10.425373 141.633133,14.006836 
	C138.179535,16.674955 135.089767,19.336752 131.847321,22.302071 
	C127.597687,26.480074 127.172874,26.508743 125.986923,22.990805 
z"/>
<path fill="#F7F7F7" opacity="1.000000" stroke="none" 
	d="
M253.000000,81.533142 
	C250.575867,81.794456 243.378891,76.294647 243.327698,74.157448 
	C243.298019,72.918571 244.177689,71.257698 245.183716,70.476364 
	C247.373016,68.776039 249.905411,67.517448 252.648773,66.039154 
	C253.000000,71.022095 253.000000,76.044182 253.000000,81.533142 
z"/>
<path fill="#F0CECD" opacity="1.000000" stroke="none" 
	d="
M32.071247,106.318176 
	C30.513971,106.856430 28.967861,107.818146 27.397488,107.859535 
	C20.645819,108.037537 13.886078,107.885307 7.131454,107.991653 
	C5.357521,108.019592 3.591398,108.543533 1.410844,108.919846 
	C1.000000,108.250000 1.000000,107.500000 1.467044,106.325455 
	C9.625669,105.839195 17.317251,105.777473 25.376648,105.807693 
	C26.493704,105.831566 27.242949,105.763512 28.395065,105.795746 
	C29.889044,106.036743 30.980146,106.177460 32.071247,106.318176 
z"/>
<path fill="#B64344" opacity="1.000000" stroke="none" 
	d="
M140.531342,1.000001 
	C140.558823,1.667676 140.117630,2.335351 139.362091,3.101598 
	C128.649826,2.822461 118.251930,2.444754 107.425690,1.804593 
	C106.998222,1.361427 106.999107,1.180713 107.000000,1.000000 
	C118.020897,1.000000 129.041794,1.000000 140.531342,1.000001 
z"/>
<path fill="#EBC9C9" opacity="1.000000" stroke="none" 
	d="
M72.706902,15.601343 
	C73.700325,13.047225 74.416328,10.333750 75.765953,7.984236 
	C77.090164,5.678936 79.058617,3.743706 80.872169,1.323032 
	C81.750000,1.000000 82.500000,1.000000 83.625000,0.999999 
	C82.832146,3.281942 81.882210,5.714078 80.439865,7.806840 
	C78.734802,10.280790 76.604492,12.461651 74.105347,14.913700 
	C73.270424,15.239007 72.988663,15.420176 72.706902,15.601343 
z"/>
<path fill="#8A393C" opacity="1.000000" stroke="none" 
	d="
M25.008833,105.715759 
	C17.317251,105.777473 9.625669,105.839195 1.467044,105.950455 
	C1.000000,105.555557 1.000000,105.111107 1.339962,104.375038 
	C2.512068,103.742058 3.344213,103.400711 4.474319,103.196335 
	C5.821275,103.544609 6.870273,103.755898 7.919271,103.967194 
	C13.295298,103.996208 18.671324,104.025223 24.520157,104.344208 
	C24.998251,104.994698 25.003542,105.355225 25.008833,105.715759 
z"/>
<path fill="#AD3134" opacity="1.000000" stroke="none" 
	d="
M106.532394,1.000000 
	C106.999107,1.180713 106.998222,1.361427 106.991547,1.814066 
	C101.385307,1.987173 95.784843,1.888355 90.092194,1.394768 
	C95.354927,1.000000 100.709862,1.000000 106.532394,1.000000 
z"/>
<path fill="#FACECE" opacity="1.000000" stroke="none" 
	d="
M185.375000,148.000000 
	C183.332352,144.913406 181.664688,141.826828 180.242950,138.368652 
	C180.672821,137.990936 180.856750,137.984818 181.351257,138.106308 
	C183.490845,140.454117 185.319839,142.674332 187.203613,145.224487 
	C187.505569,146.369614 187.752792,147.184814 188.000000,148.000000 
	C187.250000,148.000000 186.500000,148.000000 185.375000,148.000000 
z"/>
<path fill="#FACECE" opacity="1.000000" stroke="none" 
	d="
M196.034958,141.055649 
	C195.346893,143.121307 194.658844,145.186981 193.985382,147.626312 
	C193.250000,148.000000 192.500000,148.000000 191.318787,147.634491 
	C190.957886,146.534866 191.028214,145.800751 191.329514,144.811798 
	C192.631744,143.339935 193.703003,142.122910 194.744614,140.923370 
	C194.714981,140.940857 194.649429,140.923126 194.995117,140.963531 
	C195.572189,141.021179 195.803574,141.038422 196.034958,141.055649 
z"/>
<path fill="#EBC9C9" opacity="1.000000" stroke="none" 
	d="
M4.176358,103.059357 
	C3.344213,103.400711 2.512068,103.742058 1.339962,104.041702 
	C1.000000,103.555557 1.000000,103.111107 1.000000,102.333328 
	C2.239497,101.040009 3.478995,100.080009 5.027806,99.507599 
	C4.950199,100.949905 4.563278,102.004631 4.176358,103.059357 
z"/>
<path fill="#D36D72" opacity="1.000000" stroke="none" 
	d="
M191.098541,145.066650 
	C191.028214,145.800751 190.957886,146.534866 190.943787,147.634491 
	C190.250000,148.000000 189.500000,148.000000 188.375000,148.000000 
	C187.752792,147.184814 187.505569,146.369614 187.597916,145.235703 
	C188.991165,144.966873 190.044846,145.016769 191.098541,145.066650 
z"/>
<path fill="#FBF9F9" opacity="1.000000" stroke="none" 
	d="
M150.998505,99.347626 
	C149.534195,99.486099 146.995010,100.140427 146.774902,99.681778 
	C144.943970,95.866684 137.493408,98.460243 138.251404,92.417839 
	C138.533646,90.167946 140.515289,88.131241 141.166275,86.980087 
	C139.150574,82.373558 137.504593,78.611946 135.858612,74.850327 
	C135.482788,74.970078 135.106979,75.089828 134.731155,75.209579 
	C134.515717,75.930649 134.036835,76.685684 134.124725,77.367653 
	C135.260742,86.181122 134.638168,86.879066 126.174973,87.020683 
	C115.417450,87.200668 104.663017,87.677071 93.905975,87.722008 
	C89.149536,87.741890 84.389992,87.015640 79.490265,86.055878 
	C80.884003,83.950928 82.419327,82.418221 83.986084,81.311623 
	C85.391647,82.491661 86.762215,83.890572 88.140450,83.898170 
	C99.852867,83.962776 111.570671,83.913994 123.277702,83.578888 
	C126.930481,83.474335 129.649338,81.103851 129.845718,77.297447 
	C130.042709,73.478874 127.071648,72.940323 123.991066,72.929588 
	C123.443787,72.927689 122.898033,72.490639 122.351570,72.254532 
	C122.391174,71.848480 122.430771,71.442436 122.470367,71.036385 
	C124.447411,71.036385 126.424454,71.036385 127.244102,71.036385 
	C127.904373,67.985489 128.449554,65.466408 129.291611,62.929802 
	C130.059311,62.603531 130.530136,62.294788 131.401520,61.941505 
	C132.866592,61.976540 133.931107,62.056118 134.998840,62.475677 
	C135.668839,64.210197 136.335632,65.604729 137.042328,67.355301 
	C138.399277,70.334717 139.559113,73.056320 141.107437,75.535271 
	C141.766891,76.591057 143.194977,77.642036 144.356583,77.743095 
	C145.141098,77.811348 146.449127,76.368057 146.863556,75.336067 
	C148.084900,72.294678 148.977890,69.121414 150.133850,65.692490 
	C150.514679,64.317879 150.761032,63.250546 151.433487,62.072136 
	C153.904297,62.026535 155.948990,62.092007 158.001541,62.527580 
	C158.716721,64.905174 159.424057,66.912666 160.131393,68.920151 
	C160.714447,69.093170 161.297501,69.266182 161.880554,69.439201 
	C163.589325,67.023178 165.298096,64.607162 167.431931,62.082703 
	C169.901489,61.970684 171.945984,61.967113 174.232315,62.245003 
	C176.319656,62.333748 178.165161,62.141033 180.424591,61.906448 
	C182.222214,61.924541 183.605911,61.984512 185.102051,62.256775 
	C185.429123,62.718296 185.691971,62.896317 186.003052,63.003132 
	C190.873184,68.998344 193.140717,75.663040 190.725830,83.801132 
	C188.081955,84.821716 185.968552,85.942337 183.839737,85.972458 
	C171.786224,86.143013 159.728012,85.978531 147.674377,86.144249 
	C146.171112,86.164909 144.426987,87.208984 143.339905,88.314957 
	C142.987289,88.673698 144.376312,90.744316 144.998734,92.385498 
	C146.000290,93.845161 146.971817,94.951225 148.049469,96.271576 
	C148.335709,96.755524 148.561874,96.978424 148.931580,97.460953 
	C149.685501,98.294106 150.342010,98.820869 150.998505,99.347626 
M168.041733,76.265976 
	C169.838501,78.619545 171.635254,80.973122 173.432022,83.326691 
	C174.008362,83.117142 174.584702,82.907585 175.161041,82.698029 
	C175.301758,80.680412 175.442474,78.662788 175.603516,76.353500 
	C177.356903,76.711212 179.089035,77.298912 180.832870,77.336029 
	C181.951416,77.359833 183.614212,76.881195 184.087830,76.073524 
	C184.745850,74.951431 185.185791,72.668251 184.549301,72.005409 
	C182.229050,69.589081 179.576813,67.382713 176.710571,65.662148 
	C175.784058,65.105972 173.109711,65.807175 172.456665,66.765640 
	C170.634171,69.440491 169.451355,72.551193 168.041733,76.265976 
z"/>
<path fill="#FACFD0" opacity="1.000000" stroke="none" 
	d="
M144.968704,92.031906 
	C144.376312,90.744316 142.987289,88.673698 143.339905,88.314957 
	C144.426987,87.208984 146.171112,86.164909 147.674377,86.144249 
	C159.728012,85.978531 171.786224,86.143013 183.839737,85.972458 
	C185.968552,85.942337 188.081955,84.821716 190.574524,84.133026 
	C190.946564,84.061363 190.963318,84.027534 191.029633,84.391243 
	C192.396896,85.179619 193.697845,85.604294 195.415924,86.041153 
	C201.239792,85.820175 205.568924,87.936989 208.970169,92.077316 
	C209.315491,93.505661 209.660812,94.934013 209.660431,96.604385 
	C207.932739,95.051353 206.778152,92.992584 205.097809,91.543488 
	C203.718292,90.353813 201.713837,89.888809 199.590454,89.037201 
	C198.126938,88.984192 197.059326,88.996567 195.674957,88.752205 
	C190.906647,88.659210 186.455109,88.822968 181.550705,88.942429 
	C178.061661,88.939285 175.025497,88.980446 171.662048,88.776947 
	C163.418686,88.413246 155.502823,88.246048 147.586334,88.208336 
	C145.554932,88.198654 143.590958,88.640358 145.457825,91.527466 
	C145.294800,91.695633 144.968704,92.031906 144.968704,92.031906 
z"/>
<path fill="#FCF9FB" opacity="1.000000" stroke="none" 
	d="
M209.031403,91.731461 
	C205.568924,87.936989 201.239792,85.820175 195.421341,85.668900 
	C195.339523,83.855911 195.669449,82.427361 195.999390,80.998810 
	C195.558456,77.772026 194.884338,74.553452 194.770325,71.315163 
	C194.708969,69.572235 195.448639,67.725403 196.174011,66.078331 
	C196.381775,65.606590 197.801804,65.668770 198.665985,65.486130 
	C198.845032,66.958847 199.013565,68.432930 199.205383,69.903976 
	C199.551849,72.560783 200.101746,75.208992 200.196915,77.874001 
	C200.255554,79.515877 199.629105,81.182220 199.161057,83.612190 
	C201.382050,83.612190 203.535934,83.687141 205.681778,83.587807 
	C207.315247,83.512192 208.969452,82.936012 210.555664,83.112068 
	C211.668045,83.235527 213.013092,84.036797 213.604691,84.954224 
	C213.918930,85.441528 213.000122,86.933304 212.370941,87.771141 
	C211.398346,89.066216 210.196960,90.189476 209.031403,91.731461 
z"/>
<path fill="#D24D53" opacity="1.000000" stroke="none" 
	d="
M199.986374,89.102600 
	C201.713837,89.888809 203.718292,90.353813 205.097809,91.543488 
	C206.778152,92.992584 207.932739,95.051353 209.630463,96.979614 
	C210.281830,97.558983 210.617447,98.005165 211.111847,98.989014 
	C211.985138,100.235474 212.699631,100.944267 213.414139,101.653061 
	C213.410767,101.986755 213.485718,102.301811 213.808899,103.088776 
	C214.285675,103.785561 214.592514,103.991798 214.899368,104.198044 
	C215.219086,104.648109 215.538803,105.098175 216.013611,106.010155 
	C216.420975,106.675560 216.673248,106.879044 216.925522,107.082535 
	C216.925522,107.082535 217.001877,107.008728 217.015320,107.301964 
	C217.337601,107.752899 217.646454,107.910599 217.955292,108.068291 
	C217.955292,108.068291 217.981491,107.994530 217.985962,108.411179 
	C218.150284,109.587646 218.310135,110.347466 218.469986,111.107277 
	C218.367310,111.244064 218.264618,111.380859 217.826172,111.814133 
	C217.335815,112.412346 217.181213,112.714073 217.026611,113.015800 
	C216.421799,113.787766 215.817001,114.559731 214.803589,115.676910 
	C214.262878,116.353821 214.130814,116.685516 213.998734,117.017212 
	C213.064499,118.136398 212.130249,119.255577 210.845215,120.803833 
	C210.221848,121.758926 209.949295,122.284943 209.676743,122.810951 
	C209.676743,122.810951 209.459396,123.058586 209.181396,123.397079 
	C208.192490,124.788246 207.481598,125.840919 206.770706,126.893600 
	C206.770706,126.893600 206.570724,127.111870 206.310913,127.355698 
	C205.559753,127.791885 205.068405,127.984253 204.177490,128.128143 
	C203.512817,128.038071 203.247711,127.996475 203.010681,127.598007 
	C205.098450,124.299217 207.334900,121.463081 209.174652,118.389503 
	C211.659668,114.237907 215.756821,110.447487 211.268829,104.852730 
	C207.823257,100.557434 205.197189,95.604752 202.020142,90.711502 
	C201.217850,90.019920 200.602112,89.561264 199.986374,89.102600 
z"/>
<path fill="#FBFCFC" opacity="1.000000" stroke="none" 
	d="
M222.286163,84.922379 
	C219.377838,86.642296 218.147766,85.266876 218.075684,82.854332 
	C217.917343,77.554314 217.922623,72.241257 218.145767,66.945511 
	C218.185928,65.992378 219.588837,65.096672 220.362564,64.174454 
	C221.110306,64.947083 222.484589,65.702705 222.506088,66.495033 
	C222.669724,72.525444 222.569061,78.563026 222.286163,84.922379 
z"/>
<path fill="#C62D35" opacity="1.000000" stroke="none" 
	d="
M202.982620,127.954887 
	C203.247711,127.996475 203.512817,128.038071 204.053818,128.433899 
	C204.289322,129.216919 204.248917,129.645676 204.208496,130.074448 
	C204.208496,130.074448 203.900879,130.255264 203.510544,130.475006 
	C202.062744,131.785416 201.005264,132.876099 199.612793,134.019867 
	C198.845749,135.042236 198.413727,136.011536 197.790909,137.137146 
	C197.337036,137.491196 197.083786,137.700760 196.457977,138.049377 
	C195.577591,139.104919 195.079529,140.033264 194.615204,140.941345 
	C194.648941,140.921082 194.774261,140.905884 194.774261,140.905884 
	C193.703003,142.122910 192.631744,143.339935 191.329514,144.811813 
	C190.044846,145.016769 188.991165,144.966873 187.543152,144.905762 
	C185.319839,142.674332 183.490845,140.454117 181.314667,137.780579 
	C180.965439,136.889969 180.963394,136.452713 181.324142,136.028931 
	C182.782776,136.720001 184.059845,137.217377 184.943390,138.106049 
	C188.969910,142.156021 190.155289,141.832352 193.517563,137.462769 
	C196.222626,133.947250 199.795044,131.099136 202.982620,127.954887 
z"/>
<path fill="#CD565C" opacity="1.000000" stroke="none" 
	d="
M167.475250,32.561836 
	C168.142532,33.892429 168.809814,35.223022 169.679871,37.133854 
	C169.937790,38.139374 169.992935,38.564659 169.711914,38.970383 
	C168.291016,38.225704 167.206253,37.500584 166.074860,36.441566 
	C164.406509,34.057392 162.784790,32.007118 161.089355,29.620319 
	C160.023499,28.505693 159.031342,27.727592 158.024872,26.977423 
	C158.010559,27.005352 158.053925,26.958059 158.072174,26.733965 
	C158.090424,26.509871 158.064484,26.060944 158.059906,25.734146 
	C157.717743,24.880184 157.380142,24.353020 156.961899,23.642708 
	C156.732864,23.224590 156.528137,23.059484 156.235199,22.583290 
	C156.324310,21.709702 156.445282,21.217068 156.891907,20.784378 
	C159.713745,23.699995 162.209930,26.555668 164.706116,29.411339 
	C164.706116,29.411339 164.818054,29.729490 164.997101,30.154404 
	C165.942520,31.240158 166.708893,31.900997 167.475250,32.561836 
z"/>
<path fill="#F0CECD" opacity="1.000000" stroke="none" 
	d="
M149.291138,13.914515 
	C148.098877,11.254721 146.906616,8.594928 145.714996,5.563560 
	C148.806442,8.911527 151.897232,12.631067 154.669968,16.687935 
	C153.982407,16.970701 153.612915,16.916142 153.080444,16.575138 
	C151.979752,15.778596 151.042053,15.268498 150.062042,14.541934 
	C149.868225,14.026514 149.625351,13.889530 149.291138,13.914515 
z"/>
<path fill="#F0CECD" opacity="1.000000" stroke="none" 
	d="
M164.786896,28.980965 
	C162.209930,26.555668 159.713745,23.699995 156.864426,20.493801 
	C156.413742,19.974241 156.316208,19.805204 156.335968,19.485062 
	C156.453262,19.333956 156.516754,18.956680 156.516754,18.956680 
	C160.423828,21.176762 165.420364,22.448547 164.786896,28.980965 
z"/>
<path fill="#F0CECD" opacity="1.000000" stroke="none" 
	d="
M186.342285,62.951988 
	C185.691971,62.896317 185.429123,62.718296 185.380630,62.027229 
	C184.884430,59.907867 184.222092,58.230343 183.513046,56.247261 
	C182.958603,55.301670 182.450851,54.661636 181.968262,53.696823 
	C181.952011,52.940865 181.910599,52.509682 181.869171,52.078499 
	C184.605087,54.802841 187.340988,57.527184 190.568283,60.740845 
	C188.765671,61.742615 187.723602,62.321732 186.342285,62.951988 
z"/>
<path fill="#F0CECD" opacity="1.000000" stroke="none" 
	d="
M174.881683,43.138618 
	C176.582336,45.223560 178.282990,47.308506 179.678864,49.647816 
	C178.764267,49.448315 178.154449,48.994446 177.433945,48.249863 
	C176.727875,47.129013 176.132492,46.298882 175.439713,45.176903 
	C175.188766,44.302914 175.035217,43.720768 174.881683,43.138618 
z"/>
<path fill="#FBF9F9" opacity="1.000000" stroke="none" 
	d="
M195.651855,81.060730 
	C195.669449,82.427361 195.339523,83.855911 195.004181,85.656715 
	C193.697845,85.604294 192.396896,85.179619 191.024658,84.396896 
	C192.403687,83.066780 193.854004,82.094711 195.651855,81.060730 
z"/>
<path fill="#CD565C" opacity="1.000000" stroke="none" 
	d="
M177.544647,48.540581 
	C178.154449,48.994446 178.764267,49.448315 179.635529,50.022835 
	C180.394379,50.691418 180.891769,51.239349 181.629181,51.932888 
	C181.910599,52.509682 181.952011,52.940865 181.646606,53.686264 
	C180.210281,53.326244 179.120743,52.652012 178.016220,51.985085 
	C178.001221,51.992393 178.031189,51.968639 178.018707,51.651218 
	C177.665176,50.563240 177.324142,49.792686 177.123917,48.902237 
	C177.264725,48.782337 177.544647,48.540577 177.544647,48.540581 
z"/>
<path fill="#F0CECD" opacity="1.000000" stroke="none" 
	d="
M170.048065,38.989944 
	C169.992935,38.564659 169.937790,38.139374 169.872894,37.391159 
	C171.209320,38.212765 172.555511,39.357304 173.560852,40.834301 
	C172.799500,41.141106 172.378998,41.115448 171.770599,40.873245 
	C171.071152,40.101116 170.559601,39.545532 170.048065,38.989944 
z"/>
<path fill="#FACECE" opacity="1.000000" stroke="none" 
	d="
M199.947800,133.966782 
	C201.005264,132.876099 202.062744,131.785416 203.455994,130.644867 
	C202.798676,132.366150 201.805573,134.137283 200.373016,135.929260 
	C199.933563,135.950089 199.710953,135.763947 199.783295,135.468063 
	C199.886368,134.770386 199.917084,134.368576 199.947800,133.966782 
z"/>
<path fill="#CD565C" opacity="1.000000" stroke="none" 
	d="
M171.958496,41.089790 
	C172.378998,41.115448 172.799500,41.141106 173.536880,41.192368 
	C173.853760,41.217976 174.000748,41.612133 174.091202,42.035374 
	C174.280045,42.825760 174.517792,43.033211 174.894913,43.080959 
	C174.894913,43.080959 174.903427,43.109821 174.892548,43.124222 
	C175.035217,43.720768 175.188766,44.302914 175.296173,45.307571 
	C175.250061,45.730083 174.985458,46.014137 174.663574,45.973465 
	C173.909775,45.936119 173.477844,45.939445 173.021515,45.968529 
	C172.997101,45.994278 173.056747,45.956959 173.068146,45.594078 
	C172.705872,43.850727 172.332184,42.470257 171.958496,41.089790 
z"/>
<path fill="#FACECE" opacity="1.000000" stroke="none" 
	d="
M196.840302,137.922180 
	C197.083786,137.700760 197.337036,137.491196 198.055481,137.076111 
	C198.910889,136.493835 199.310928,136.128891 199.710953,135.763947 
	C199.710953,135.763947 199.933563,135.950089 200.045639,136.044708 
	C199.298111,137.393692 198.438522,138.648071 197.214951,139.580734 
	C196.847412,138.813400 196.843857,138.367798 196.840302,137.922180 
z"/>
<path fill="#FACECE" opacity="1.000000" stroke="none" 
	d="
M207.163788,126.895439 
	C207.481598,125.840919 208.192490,124.788246 209.173798,123.561638 
	C208.815063,124.557564 208.185959,125.727425 207.163788,126.895439 
z"/>
<path fill="#FACECE" opacity="1.000000" stroke="none" 
	d="
M204.581757,130.067047 
	C204.248917,129.645676 204.289322,129.216919 204.453400,128.482376 
	C205.068405,127.984253 205.559753,127.791885 206.299927,127.503311 
	C206.017517,128.291275 205.486282,129.175461 204.581757,130.067047 
z"/>
<path fill="#CD565C" opacity="1.000000" stroke="none" 
	d="
M156.381073,18.734127 
	C156.516754,18.956680 156.453262,19.333956 156.001129,19.460415 
	C154.780472,18.678442 154.011948,17.770012 153.243408,16.861584 
	C153.612915,16.916142 153.982407,16.970701 154.630463,17.058125 
	C154.909027,17.090988 154.932648,17.057669 154.977005,17.329609 
	C155.334076,17.759596 155.646774,17.917643 155.959488,18.075687 
	C156.054794,18.220982 156.150101,18.366280 156.381073,18.734127 
z"/>
<path fill="#FACECE" opacity="1.000000" stroke="none" 
	d="
M218.758606,110.999374 
	C218.310135,110.347466 218.150284,109.587646 217.960037,108.440636 
	C218.302170,108.999451 218.674683,109.945465 218.758606,110.999374 
z"/>
<path fill="#F0CECD" opacity="1.000000" stroke="none" 
	d="
M167.601059,32.195110 
	C166.708893,31.900997 165.942520,31.240158 165.115540,30.274448 
	C165.945572,30.589182 166.836212,31.208784 167.601059,32.195110 
z"/>
<path fill="#FACECE" opacity="1.000000" stroke="none" 
	d="
M213.558731,101.299515 
	C212.699631,100.944267 211.985138,100.235474 211.285934,99.209122 
	C212.101929,99.576363 212.902618,100.261162 213.558731,101.299515 
z"/>
<path fill="#D36D72" opacity="1.000000" stroke="none" 
	d="
M196.457977,138.049377 
	C196.843857,138.367798 196.847412,138.813400 196.856445,139.594360 
	C196.605667,140.119919 196.399658,140.354294 196.139435,140.844254 
	C195.803574,141.038422 195.572189,141.021179 194.961334,140.946198 
	C194.581879,140.888458 194.581451,140.961609 194.581451,140.961609 
	C195.079529,140.033264 195.577591,139.104919 196.457977,138.049377 
z"/>
<path fill="#FACECE" opacity="1.000000" stroke="none" 
	d="
M209.989166,122.851021 
	C209.949295,122.284943 210.221848,121.758926 210.778885,121.114944 
	C210.809448,121.628342 210.555527,122.259712 209.989166,122.851021 
z"/>
<path fill="#FACECE" opacity="1.000000" stroke="none" 
	d="
M214.850250,103.919777 
	C214.592514,103.991798 214.285675,103.785561 213.943054,103.293251 
	C214.205231,103.218628 214.503174,103.430069 214.850250,103.919777 
z"/>
<path fill="#F0CECD" opacity="1.000000" stroke="none" 
	d="
M174.886047,42.845512 
	C174.517792,43.033211 174.280045,42.825760 174.208191,42.210159 
	C174.554245,42.073395 174.768387,42.289513 174.886047,42.845512 
z"/>
<path fill="#F0CECD" opacity="1.000000" stroke="none" 
	d="
M155.872559,17.829338 
	C155.646774,17.917643 155.334076,17.759596 154.965698,17.333176 
	C155.201904,17.237530 155.493759,17.410257 155.872559,17.829338 
z"/>
<path fill="#FACECE" opacity="1.000000" stroke="none" 
	d="
M216.904968,106.845642 
	C216.673248,106.879044 216.420975,106.675560 216.198212,106.216827 
	C216.550705,106.071678 216.769592,106.287399 216.904968,106.845642 
z"/>
<path fill="#FACECE" opacity="1.000000" stroke="none" 
	d="
M217.881165,107.815155 
	C217.646454,107.910599 217.337601,107.752899 216.971222,107.331184 
	C217.211472,107.232117 217.509247,107.397064 217.881165,107.815155 
z"/>
<path fill="#FACECE" opacity="1.000000" stroke="none" 
	d="
M217.269104,112.936806 
	C217.181213,112.714073 217.335815,112.412346 217.749878,112.059090 
	C217.843430,112.290977 217.677521,112.574394 217.269104,112.936806 
z"/>
<path fill="#FACECE" opacity="1.000000" stroke="none" 
	d="
M214.245926,116.911057 
	C214.130814,116.685516 214.262878,116.353821 214.664398,115.941948 
	C214.786942,116.176147 214.640030,116.490517 214.245926,116.911057 
z"/>
<path fill="#EB1B24" opacity="1.000000" stroke="none" 
	d="
M203.010681,127.598007 
	C199.795044,131.099136 196.222626,133.947250 193.517563,137.462769 
	C190.155289,141.832352 188.969910,142.156021 184.943390,138.106049 
	C184.059845,137.217377 182.782776,136.720001 181.342072,136.023743 
	C180.997208,136.005051 180.987900,136.039322 181.014267,135.660950 
	C181.025681,134.524872 181.010742,133.767136 180.892807,132.786682 
	C180.594543,132.287018 180.337234,132.091843 180.012268,131.735275 
	C180.006622,131.492111 179.983948,131.006195 179.949768,130.665161 
	C178.299774,128.859268 176.683990,127.394402 175.028687,125.643158 
	C174.674072,124.899139 174.358948,124.441490 174.026428,123.618927 
	C171.295288,119.082832 168.784668,114.757225 165.781158,110.806328 
	C164.303162,108.862137 161.912857,107.611488 159.938828,106.048874 
	C159.942261,106.050751 159.918823,106.080238 159.941498,105.709557 
	C158.004364,102.891785 156.044556,100.444687 153.829895,97.726753 
	C152.857391,97.414116 152.139725,97.372307 151.422073,97.330505 
	C151.422073,97.330505 151.169617,97.513565 151.133606,97.437790 
	C151.097580,97.362007 151.029724,96.957146 151.044525,96.598053 
	C151.008179,95.521973 150.957062,94.804977 151.200119,93.828613 
	C153.198761,92.713890 154.893143,91.139732 156.609253,91.115662 
	C171.806198,90.902420 187.007004,90.964005 202.206665,90.944427 
	C205.197189,95.604752 207.823257,100.557434 211.268829,104.852730 
	C215.756821,110.447487 211.659668,114.237907 209.174652,118.389503 
	C207.334900,121.463081 205.098450,124.299217 203.010681,127.598007 
z"/>
<path fill="#8A393C" opacity="1.000000" stroke="none" 
	d="
M32.527710,106.234055 
	C30.980146,106.177460 29.889044,106.036743 28.396347,105.526474 
	C28.001699,104.798828 28.008644,104.440727 28.015589,104.082634 
	C31.045496,104.051743 34.075401,104.020844 37.932247,103.994614 
	C39.504604,103.992508 40.250027,103.985741 40.995445,103.978973 
	C43.634491,103.981567 46.284546,103.830536 48.910290,104.018730 
	C54.377304,104.410568 59.498611,104.190918 62.605923,98.605942 
	C62.820477,98.220314 63.797047,98.258644 64.675835,98.471771 
	C63.286133,101.210320 61.639835,103.576904 59.993538,105.943481 
	C50.990414,106.012299 41.987293,106.081116 32.527710,106.234055 
z"/>
<path fill="#F0CECD" opacity="1.000000" stroke="none" 
	d="
M60.197746,106.217422 
	C61.639835,103.576904 63.286133,101.210320 65.042770,98.518578 
	C65.153114,98.193420 65.108932,98.178833 65.476883,98.154961 
	C68.245827,95.095337 70.646820,92.059586 73.047813,89.023827 
	C73.047813,89.023827 72.998642,89.001984 73.306793,88.936676 
	C74.428505,88.316315 75.242065,87.761261 76.055626,87.206215 
	C73.526878,91.381294 71.106590,95.627739 68.425446,99.702545 
	C67.000198,101.868637 65.233124,103.848236 63.389423,105.679527 
	C62.752842,106.311813 61.417892,106.241005 60.197746,106.217422 
z"/>
<path fill="#FACFD0" opacity="1.000000" stroke="none" 
	d="
M180.979279,136.010254 
	C180.963394,136.452713 180.965439,136.889969 181.004089,137.652985 
	C180.856750,137.984818 180.672821,137.990936 180.212463,138.007263 
	C175.947220,132.616699 171.958420,127.215958 168.105957,121.283783 
	C168.242310,120.752350 168.574326,120.414093 168.819489,120.593567 
	C169.645309,121.541061 170.225967,122.309082 170.860809,123.407715 
	C171.923416,124.835159 172.931854,125.931992 173.969025,127.348511 
	C174.640869,128.456848 175.283981,129.245483 176.052795,130.344055 
	C177.781647,132.449097 179.384766,134.244217 180.987900,136.039322 
	C180.987900,136.039322 180.997208,136.005051 180.979279,136.010254 
z"/>
<path fill="#8A393C" opacity="1.000000" stroke="none" 
	d="
M76.256653,87.004227 
	C75.242065,87.761261 74.428505,88.316315 73.321030,88.959518 
	C74.195114,83.289528 77.407227,79.023125 82.775040,76.516838 
	C81.360619,79.926750 79.641655,82.927490 77.922699,85.928238 
	C77.434357,86.219566 76.946022,86.510902 76.256653,87.004227 
z"/>
<path fill="#FACFD0" opacity="1.000000" stroke="none" 
	d="
M168.076172,120.921356 
	C162.329742,118.784142 160.869293,113.178398 158.296799,108.444611 
	C159.334198,108.541885 160.067230,108.901566 160.993378,109.442924 
	C161.457306,110.081055 161.728149,110.537506 161.982574,111.325394 
	C162.890686,112.852592 163.815201,114.048347 164.906998,115.522858 
	C166.240952,117.339111 167.407639,118.876602 168.574326,120.414093 
	C168.574326,120.414093 168.242310,120.752350 168.076172,120.921356 
z"/>
<path fill="#CC232E" opacity="1.000000" stroke="none" 
	d="
M154.084732,97.997589 
	C156.044556,100.444687 158.004364,102.891785 159.584763,105.704460 
	C158.729782,106.098351 158.254211,106.126656 157.579529,105.969559 
	C157.157013,105.292152 156.933609,104.800140 156.796951,104.020744 
	C156.280807,103.354416 155.677917,102.975471 154.857971,102.430428 
	C154.143280,101.751701 153.645645,101.239075 153.147995,100.726456 
	C152.937836,100.304482 152.727676,99.882515 152.718536,99.125000 
	C153.307968,98.525505 153.696350,98.261551 154.084732,97.997589 
z"/>
<path fill="#F0CECD" opacity="1.000000" stroke="none" 
	d="
M78.193527,85.985672 
	C79.641655,82.927490 81.360619,79.926750 83.139832,76.584290 
	C83.200089,76.242569 83.158684,76.233604 83.474716,76.183823 
	C84.337090,75.840019 84.883438,75.546005 85.555595,75.635628 
	C85.105812,77.641357 84.530235,79.263443 83.954651,80.885521 
	C82.419327,82.418221 80.884003,83.950928 79.182632,85.783478 
	C78.832512,86.069931 78.648430,86.056526 78.193527,85.985672 
z"/>
<path fill="#FACFD0" opacity="1.000000" stroke="none" 
	d="
M153.077835,101.118713 
	C153.645645,101.239075 154.143280,101.751701 154.918732,102.744377 
	C155.701096,103.585670 156.205658,103.946899 156.710220,104.308136 
	C156.933609,104.800140 157.157013,105.292152 157.508881,106.193382 
	C157.637375,106.602608 157.472687,107.042641 157.472687,107.042641 
	C154.012207,106.790627 152.897568,104.645096 153.077835,101.118713 
z"/>
<path fill="#FBF9F9" opacity="1.000000" stroke="none" 
	d="
M120.157745,93.622025 
	C120.417519,92.728836 120.755875,92.154060 121.094223,91.579285 
	C121.363152,92.070129 121.632072,92.560966 121.900993,93.051811 
	C121.346107,93.348022 120.791222,93.644234 120.157745,93.622025 
z"/>
<path fill="#D3646B" opacity="1.000000" stroke="none" 
	d="
M157.626282,107.262695 
	C157.472687,107.042641 157.637375,106.602608 157.708008,106.378784 
	C158.254211,106.126656 158.729782,106.098351 159.562073,106.075142 
	C159.918823,106.080238 159.942261,106.050751 159.959320,106.383377 
	C160.251022,107.564423 160.525650,108.412834 160.800278,109.261246 
	C160.067230,108.901566 159.334198,108.541885 158.306610,108.074440 
	C157.934677,107.805374 157.857285,107.644066 157.626282,107.262695 
z"/>
<path fill="#FACFD0" opacity="1.000000" stroke="none" 
	d="
M151.046906,99.078133 
	C150.342010,98.820869 149.685501,98.294106 149.041870,97.348343 
	C149.054733,96.929359 149.270370,96.699387 149.559769,96.777710 
	C150.242691,96.889740 150.636200,96.923447 151.029724,96.957146 
	C151.029724,96.957146 151.097580,97.362007 151.034393,97.558090 
	C151.012589,98.105652 151.053955,98.457146 151.046906,99.078133 
z"/>
<path fill="#D24D53" opacity="1.000000" stroke="none" 
	d="
M153.829895,97.726761 
	C153.696350,98.261551 153.307968,98.525505 152.707153,98.888824 
	C152.177963,98.664177 151.861176,98.340172 151.483246,97.673340 
	C152.139725,97.372307 152.857391,97.414116 153.829895,97.726761 
z"/>
<path fill="#903236" opacity="1.000000" stroke="none" 
	d="
M4.474318,103.196335 
	C4.563278,102.004631 4.950199,100.949905 5.381185,99.549461 
	C6.287674,98.350449 7.150099,97.497147 8.338423,96.304024 
	C8.942707,95.579346 9.221093,95.194496 9.499481,94.809654 
	C9.499482,94.809654 9.745365,94.641853 9.978437,94.410812 
	C10.433449,93.961861 10.494738,93.705467 10.395374,93.410591 
	C10.395374,93.410591 10.299864,93.302055 10.660446,93.202515 
	C11.607419,92.046951 12.193810,90.990936 12.780201,89.934921 
	C12.780201,89.934921 13.059995,89.638298 13.429153,89.369865 
	C14.587811,88.098740 15.377309,87.096039 16.166809,86.093346 
	C16.730677,85.587120 17.294542,85.080887 18.204130,84.150253 
	C20.018946,81.476570 21.488039,79.227280 22.957134,76.977989 
	C23.220539,76.784935 23.458138,76.564117 24.112158,76.126099 
	C24.880459,75.499084 25.206528,75.061516 25.532598,74.623947 
	C25.532598,74.623947 25.561539,74.512482 25.901016,74.356270 
	C28.400827,71.101990 30.561159,68.003929 32.721493,64.905869 
	C33.037266,64.442719 33.353035,63.979561 34.198906,63.291840 
	C37.388485,60.008598 40.047966,56.949917 43.021713,53.923618 
	C43.546173,53.969219 43.756378,53.982441 43.966576,53.995659 
	C43.101578,56.026604 42.599579,58.331097 41.310143,60.042206 
	C34.972988,68.451759 28.463552,76.732803 21.939795,84.999916 
	C18.282877,89.634071 14.437926,94.119659 10.768692,98.744377 
	C9.679013,100.117813 8.898404,101.736465 7.947722,103.604965 
	C6.870273,103.755898 5.821275,103.544609 4.474318,103.196335 
z"/>
<path fill="#8A393C" opacity="1.000000" stroke="none" 
	d="
M85.429794,75.251984 
	C84.883438,75.546005 84.337090,75.840019 83.484169,76.178848 
	C85.209778,72.617645 86.890709,68.749474 89.346260,65.459442 
	C94.686577,58.304317 100.393791,51.421158 106.027779,44.489212 
	C106.831024,43.500919 108.062172,42.860409 109.554535,42.298759 
	C110.110550,42.722984 110.207306,42.907394 110.125488,43.316139 
	C109.633072,44.020023 109.319206,44.499577 108.665421,45.024685 
	C107.294937,46.735096 106.264374,48.399956 105.053894,50.249313 
	C104.522903,50.809811 104.171837,51.185810 103.501068,51.630791 
	C102.970009,52.062828 102.758652,52.425884 102.323685,52.989452 
	C101.454041,54.139210 100.807999,55.088455 99.856873,56.185513 
	C97.989510,58.520065 96.427216,60.706810 94.922295,62.935982 
	C94.979668,62.978405 94.892738,62.865223 94.550735,62.910027 
	C93.030289,64.587486 91.851845,66.220154 90.563759,67.944038 
	C90.454117,68.035263 90.439026,68.320122 90.155823,68.500641 
	C88.459831,70.727142 87.047058,72.773140 85.526306,74.900490 
	C85.418335,74.981850 85.429794,75.251991 85.429794,75.251984 
z"/>
<path fill="#91383D" opacity="1.000000" stroke="none" 
	d="
M72.651688,15.680686 
	C72.988663,15.420176 73.270424,15.239007 73.801117,15.092766 
	C71.529518,19.721476 69.191231,24.429203 66.417786,28.864841 
	C64.840767,31.386999 62.708443,33.628777 60.536480,35.691803 
	C58.660526,37.473663 56.375107,38.824429 54.142853,39.806194 
	C54.180779,38.676373 54.346554,38.106121 54.512329,37.535873 
	C54.512333,37.535873 54.505138,37.444260 54.825039,37.270794 
	C58.238983,33.158249 61.333027,29.219166 64.427071,25.280083 
	C64.427071,25.280083 64.631088,25.001413 64.893097,24.645519 
	C66.094597,22.858849 67.034088,21.428072 67.973579,19.997295 
	C67.973579,19.997295 68.246231,19.820433 68.546448,19.598740 
	C69.032013,19.098312 69.217346,18.819580 69.402679,18.540848 
	C69.402679,18.540848 69.466988,18.460976 69.805450,18.376221 
	C70.898285,17.460531 71.652664,16.629595 72.407036,15.798658 
	C72.407036,15.798657 72.596466,15.760028 72.651688,15.680686 
z"/>
<path fill="#8F1418" opacity="1.000000" stroke="none" 
	d="
M125.647308,23.048141 
	C127.172874,26.508743 127.597687,26.480074 132.216400,22.297741 
	C134.159744,21.661444 135.581360,21.333004 136.945969,21.346977 
	C135.923126,23.456726 134.957291,25.224058 133.580505,26.993828 
	C130.483719,28.127636 127.668945,29.030109 125.146194,30.451033 
	C122.293785,32.057629 119.703606,34.129765 116.999695,35.999729 
	C117.000000,36.000000 116.999390,35.999405 116.999390,35.999405 
	C119.768822,31.701427 122.538254,27.403452 125.647308,23.048141 
z"/>
<path fill="#F0CECD" opacity="1.000000" stroke="none" 
	d="
M110.304054,43.091805 
	C110.207306,42.907394 110.110550,42.722984 109.884911,42.252823 
	C109.756027,41.967072 110.046310,41.673531 110.375259,41.424667 
	C111.137886,40.813736 111.571571,40.451668 112.332397,40.100639 
	C113.666580,40.430786 114.673622,40.749897 115.721107,41.406334 
	C116.467621,42.594372 117.173698,43.445076 117.941360,44.542465 
	C118.297165,44.940342 118.591385,45.091534 118.878555,45.568634 
	C119.551559,46.679089 120.231628,47.463627 120.898438,48.440292 
	C120.885178,48.632420 121.000542,48.999905 120.959900,49.307892 
	C121.019226,50.017437 121.119194,50.418991 121.108299,50.914391 
	C120.997437,51.008228 120.775375,51.195503 120.449738,51.092804 
	C118.798897,49.407413 117.676399,47.569828 116.093552,46.311157 
	C114.388535,44.955334 112.252205,44.141884 110.304054,43.091805 
z"/>
<path fill="#8A393C" opacity="1.000000" stroke="none" 
	d="
M72.673859,89.010986 
	C70.646820,92.059586 68.245827,95.095337 65.491768,98.159195 
	C65.237480,93.340965 68.186867,90.716125 72.673859,89.010986 
z"/>
<path fill="#91383D" opacity="1.000000" stroke="none" 
	d="
M49.577911,43.316742 
	C50.230766,42.616749 50.883625,41.916756 51.832680,41.240509 
	C52.112034,41.645203 52.095188,42.026157 52.036308,43.009140 
	C51.993477,44.032383 51.992672,44.453598 51.991867,44.874809 
	C51.991867,44.874809 51.930065,44.934769 51.583225,45.022705 
	C50.482697,46.374733 49.729008,47.638828 48.975319,48.902924 
	C48.699402,49.119530 48.423481,49.336136 47.831520,49.875366 
	C47.289665,50.361233 47.123188,50.571468 47.016041,50.828697 
	C46.546364,50.886909 46.076683,50.945122 45.253159,50.969963 
	C44.941761,50.514210 44.984219,50.091820 45.395203,49.255901 
	C46.547623,47.592789 47.331520,46.343212 48.115421,45.093636 
	C48.115421,45.093636 48.027039,44.989689 48.372128,44.961597 
	C49.004116,44.394585 49.291012,43.855663 49.577911,43.316742 
z"/>
<path fill="#8F1418" opacity="1.000000" stroke="none" 
	d="
M115.680672,41.069004 
	C114.673622,40.749897 113.666580,40.430786 112.346649,39.820206 
	C112.024681,39.341801 112.015587,39.154873 112.006500,38.967949 
	C113.417686,37.978767 114.828873,36.989590 116.619720,35.999908 
	C116.999390,35.999405 117.000000,36.000000 117.000031,36.414062 
	C116.996223,38.209072 116.992393,39.590023 116.661057,40.988327 
	C116.115913,41.026787 115.898293,41.047897 115.680672,41.069004 
z"/>
<path fill="#903236" opacity="1.000000" stroke="none" 
	d="
M49.355988,48.915482 
	C49.729008,47.638828 50.482697,46.374733 51.555767,45.055862 
	C51.162315,46.310070 50.449482,47.619053 49.355988,48.915482 
z"/>
<path fill="#903236" opacity="1.000000" stroke="none" 
	d="
M27.830479,103.824760 
	C28.008644,104.440727 28.001699,104.798828 27.993473,105.426193 
	C27.242949,105.763512 26.493704,105.831566 25.376648,105.807693 
	C25.003542,105.355225 24.998251,104.994698 24.986115,104.365646 
	C25.867966,103.920387 26.756666,103.743637 27.830479,103.824760 
z"/>
<path fill="#903236" opacity="1.000000" stroke="none" 
	d="
M40.941288,103.653030 
	C40.250027,103.985741 39.504604,103.992508 38.386894,103.990524 
	C38.972115,103.763550 39.929623,103.545319 40.941288,103.653030 
z"/>
<path fill="#EBC9C9" opacity="1.000000" stroke="none" 
	d="
M54.162132,37.475761 
	C54.346554,38.106121 54.180779,38.676373 53.959152,39.544846 
	C53.418045,40.145546 52.932789,40.448021 52.159801,40.750710 
	C52.518692,39.639172 53.165318,38.527412 54.162132,37.475761 
z"/>
<path fill="#91383D" opacity="1.000000" stroke="none" 
	d="
M43.981689,53.989983 
	C43.756378,53.982441 43.546173,53.969219 43.058899,53.599556 
	C42.811581,52.812042 42.841331,52.380966 42.871078,51.949890 
	C43.360359,51.608200 43.849640,51.266510 44.638214,50.914425 
	C44.947323,51.367744 44.957146,51.831455 44.734467,52.756721 
	C44.265179,53.415955 44.101585,53.662281 44.011181,53.957241 
	C44.011181,53.957241 43.996803,53.984303 43.981689,53.989983 
z"/>
<path fill="#8A393C" opacity="1.000000" stroke="none" 
	d="
M111.670891,39.040741 
	C112.015587,39.154873 112.024681,39.341801 112.019516,39.809166 
	C111.571571,40.451668 111.137886,40.813736 110.416695,41.222458 
	C110.531219,40.550587 110.933250,39.832066 111.670891,39.040741 
z"/>
<path fill="#903236" opacity="1.000000" stroke="none" 
	d="
M44.236607,53.952316 
	C44.101585,53.662281 44.265179,53.415955 44.692535,53.103134 
	C44.742752,53.307800 44.602394,53.627594 44.236607,53.952316 
z"/>
<path fill="#903236" opacity="1.000000" stroke="none" 
	d="
M52.215111,44.755234 
	C51.992672,44.453598 51.993477,44.032383 52.006920,43.293896 
	C52.159157,43.529633 52.298756,44.082645 52.215111,44.755234 
z"/>
<path fill="#903236" opacity="1.000000" stroke="none" 
	d="
M47.220543,50.767910 
	C47.123188,50.571468 47.289665,50.361233 47.693558,50.101593 
	C47.829983,50.307461 47.681118,50.541435 47.220543,50.767910 
z"/>
<path fill="#EBC9C9" opacity="1.000000" stroke="none" 
	d="
M64.049286,25.218176 
	C61.333027,29.219166 58.238983,33.158249 54.864189,37.246735 
	C55.835312,31.996412 59.339119,28.268730 64.049286,25.218176 
z"/>
<path fill="#EBC9C9" opacity="1.000000" stroke="none" 
	d="
M42.531891,51.993950 
	C42.841331,52.380966 42.811581,52.812042 42.744640,53.567177 
	C40.047966,56.949917 37.388485,60.008598 34.381924,63.079086 
	C36.754135,59.406605 39.473419,55.722309 42.531891,51.993950 
z"/>
<path fill="#EBC9C9" opacity="1.000000" stroke="none" 
	d="
M32.369541,64.918640 
	C30.561159,68.003929 28.400827,71.101990 25.945641,74.319878 
	C27.773056,71.270264 29.895325,68.100838 32.369541,64.918640 
z"/>
<path fill="#EBC9C9" opacity="1.000000" stroke="none" 
	d="
M22.612007,77.006790 
	C21.488039,79.227280 20.018946,81.476570 18.235538,83.855469 
	C16.628948,79.954689 20.482853,79.142303 22.612007,77.006790 
z"/>
<path fill="#EBC9C9" opacity="1.000000" stroke="none" 
	d="
M67.609917,20.023235 
	C67.034088,21.428072 66.094597,22.858849 64.882820,24.473141 
	C65.489105,23.120829 66.367676,21.585003 67.609917,20.023235 
z"/>
<path fill="#EBC9C9" opacity="1.000000" stroke="none" 
	d="
M47.772148,45.075638 
	C47.331520,46.343212 46.547623,47.592789 45.448643,48.938805 
	C45.898663,47.709373 46.663765,46.383507 47.772148,45.075638 
z"/>
<path fill="#EBC9C9" opacity="1.000000" stroke="none" 
	d="
M12.409964,89.956619 
	C12.193810,90.990936 11.607419,92.046951 10.729792,93.222931 
	C10.972281,92.221359 11.506003,91.099838 12.409964,89.956619 
z"/>
<path fill="#EBC9C9" opacity="1.000000" stroke="none" 
	d="
M72.072556,15.593651 
	C71.652664,16.629595 70.898285,17.460531 69.853256,18.357691 
	C70.287758,17.412157 71.012917,16.400398 72.072556,15.593651 
z"/>
<path fill="#EBC9C9" opacity="1.000000" stroke="none" 
	d="
M15.800486,86.072815 
	C15.377309,87.096039 14.587811,88.098740 13.471849,89.170509 
	C13.908313,88.177155 14.671238,87.114723 15.800486,86.072815 
z"/>
<path fill="#EBC9C9" opacity="1.000000" stroke="none" 
	d="
M9.222242,94.608414 
	C9.221093,95.194496 8.942707,95.579346 8.419197,96.005554 
	C7.934155,95.700790 7.694238,95.354668 7.454321,95.008545 
	C7.951216,94.808090 8.448111,94.607635 9.222242,94.608414 
z"/>
<path fill="#EBC9C9" opacity="1.000000" stroke="none" 
	d="
M49.231087,43.334625 
	C49.291012,43.855663 49.004116,44.394585 48.408035,45.018990 
	C48.360653,44.520489 48.622456,43.936497 49.231087,43.334625 
z"/>
<path fill="#EBC9C9" opacity="1.000000" stroke="none" 
	d="
M25.224464,74.537506 
	C25.206528,75.061516 24.880459,75.499084 24.261707,75.933731 
	C24.284794,75.437561 24.600561,74.944321 25.224464,74.537506 
z"/>
<path fill="#EBC9C9" opacity="1.000000" stroke="none" 
	d="
M10.113611,93.410118 
	C10.494738,93.705467 10.433449,93.961861 10.029411,94.270981 
	C9.777407,94.151505 9.678722,93.944572 9.650672,93.728462 
	C9.638106,93.631660 9.767097,93.516487 10.113611,93.410118 
z"/>
<path fill="#EBC9C9" opacity="1.000000" stroke="none" 
	d="
M69.099442,18.511261 
	C69.217346,18.819580 69.032013,19.098312 68.596107,19.444017 
	C68.495766,19.167883 68.645981,18.824778 69.099442,18.511261 
z"/>
<path fill="#8F1418" opacity="1.000000" stroke="none" 
	d="
M148.920822,13.911798 
	C149.625351,13.889530 149.868225,14.026514 150.019836,14.828101 
	C147.397034,16.526054 144.803284,17.792349 142.138824,18.886406 
	C140.829239,19.424141 139.388641,19.642771 138.163818,19.700165 
	C139.545853,17.596518 140.771393,15.798515 141.996948,14.000512 
	C144.132019,10.425373 146.357834,13.355107 148.920822,13.911798 
z"/>
<path fill="#831518" opacity="1.000000" stroke="none" 
	d="
M141.633133,14.006838 
	C140.771393,15.798515 139.545853,17.596518 137.946442,19.810940 
	C137.301575,20.426966 137.111710,20.686033 137.002975,21.004562 
	C135.581360,21.333004 134.159744,21.661444 132.369064,21.994215 
	C135.089767,19.336752 138.179535,16.674955 141.633133,14.006838 
z"/>
<path fill="#F7F7F7" opacity="1.000000" stroke="none" 
	d="
M194.615204,140.941345 
	C194.581451,140.961609 194.581879,140.888458 194.615662,140.905792 
	C194.649429,140.923126 194.714981,140.940857 194.744629,140.923370 
	C194.774261,140.905884 194.648941,140.921082 194.615204,140.941345 
z"/>
<path fill="#F8F6F6" opacity="1.000000" stroke="none" 
	d="
M110.125488,43.316139 
	C112.252205,44.141884 114.388535,44.955334 116.093552,46.311157 
	C117.676399,47.569828 118.798897,49.407413 120.532768,51.436440 
	C123.625877,55.570953 126.310310,59.259140 128.994736,62.947327 
	C128.449554,65.466408 127.904373,67.985489 127.244102,71.036385 
	C126.424454,71.036385 124.447411,71.036385 122.470367,71.036385 
	C122.430771,71.442436 122.391174,71.848480 122.351570,72.254532 
	C122.898033,72.490639 123.443787,72.927689 123.991066,72.929588 
	C127.071648,72.940323 130.042709,73.478874 129.845718,77.297447 
	C129.649338,81.103851 126.930481,83.474335 123.277702,83.578888 
	C111.570671,83.913994 99.852867,83.962776 88.140450,83.898170 
	C86.762215,83.890572 85.391647,82.491661 83.986092,81.311623 
	C84.530235,79.263443 85.105812,77.641357 85.555595,75.635635 
	C85.429794,75.251991 85.418335,74.981850 85.900421,74.926270 
	C87.734680,72.687164 89.086853,70.503639 90.439026,68.320122 
	C90.439026,68.320122 90.454117,68.035263 90.929199,67.958221 
	C92.567108,66.209198 93.729919,64.537209 94.892731,62.865219 
	C94.892738,62.865223 94.979668,62.978405 95.279259,62.948967 
	C97.691422,61.015095 101.147636,60.005489 100.161957,56.037704 
	C100.807999,55.088455 101.454041,54.139210 102.653625,52.934708 
	C103.411697,52.306908 103.616234,51.934361 103.820763,51.561810 
	C104.171837,51.185810 104.522903,50.809811 105.390472,50.197044 
	C106.939766,48.299892 107.972557,46.639511 109.005341,44.979130 
	C109.319206,44.499577 109.633072,44.020023 110.125488,43.316139 
z"/>
<path fill="#F6F7F6" opacity="1.000000" stroke="none" 
	d="
M168.028870,75.877899 
	C169.451355,72.551193 170.634171,69.440491 172.456665,66.765640 
	C173.109711,65.807175 175.784058,65.105972 176.710571,65.662148 
	C179.576813,67.382713 182.229050,69.589081 184.549301,72.005409 
	C185.185791,72.668251 184.745850,74.951431 184.087830,76.073524 
	C183.614212,76.881195 181.951416,77.359833 180.832870,77.336029 
	C179.089035,77.298912 177.356903,76.711212 175.603516,76.353500 
	C175.442474,78.662788 175.301758,80.680412 175.161041,82.698029 
	C174.584702,82.907585 174.008362,83.117142 173.432022,83.326691 
	C171.635254,80.973122 169.838501,78.619545 168.028870,75.877899 
z"/>
<path fill="#CD565C" opacity="1.000000" stroke="none" 
	d="
M183.559753,56.552818 
	C184.222092,58.230343 184.884430,59.907867 185.268188,61.814938 
	C183.605911,61.984512 182.222214,61.924541 180.154648,61.673412 
	C177.643997,61.642681 175.817245,61.803112 173.990479,61.963539 
	C171.945984,61.967113 169.901489,61.970684 166.993103,61.965984 
	C163.417374,62.024300 160.705536,62.090889 157.993698,62.157478 
	C155.948990,62.092007 153.904297,62.026535 150.977417,61.958744 
	C145.062027,62.016182 140.028839,62.075935 134.995636,62.135689 
	C133.931107,62.056118 132.866592,61.976540 131.190277,61.704903 
	C129.594757,60.450363 128.610992,59.387882 128.005936,58.268677 
	C129.609009,58.485451 130.833374,58.758945 132.522491,59.050186 
	C140.309998,59.066349 147.632767,59.064770 155.304779,59.076893 
	C156.119949,59.077755 156.585876,59.064915 157.508209,59.064167 
	C161.624634,59.069916 165.284637,59.063576 169.395477,59.074615 
	C172.244400,59.082336 174.642517,59.072674 177.408859,59.075546 
	C178.513794,59.075790 179.250473,59.063511 180.392883,59.053162 
	C181.718979,58.221001 182.639359,57.386909 183.559753,56.552818 
z"/>
<path fill="#F7F7F7" opacity="1.000000" stroke="none" 
	d="
M149.999390,65.999771 
	C148.977890,69.121414 148.084900,72.294678 146.863556,75.336067 
	C146.449127,76.368057 145.141098,77.811348 144.356583,77.743095 
	C143.194977,77.642036 141.766891,76.591057 141.107437,75.535271 
	C139.559113,73.056320 138.399277,70.334717 137.437225,67.304947 
	C141.861298,66.598976 145.930344,66.299370 149.999390,65.999771 
z"/>
<path fill="#F9F5F3" opacity="1.000000" stroke="none" 
	d="
M150.133850,65.692490 
	C145.930344,66.299370 141.861298,66.598976 137.397339,66.948921 
	C136.335632,65.604729 135.668839,64.210197 134.998840,62.475674 
	C140.028839,62.075935 145.062027,62.016182 150.551300,62.069817 
	C150.761032,63.250546 150.514679,64.317879 150.133850,65.692490 
z"/>
<path fill="#F9F5F3" opacity="1.000000" stroke="none" 
	d="
M158.001541,62.527580 
	C160.705536,62.090889 163.417374,62.024300 166.568039,62.074425 
	C165.298096,64.607162 163.589325,67.023178 161.880554,69.439201 
	C161.297501,69.266182 160.714447,69.093170 160.131393,68.920151 
	C159.424057,66.912666 158.716721,64.905174 158.001541,62.527580 
z"/>
<path fill="#F0CECD" opacity="1.000000" stroke="none" 
	d="
M127.627235,58.325401 
	C128.610992,59.387882 129.594757,60.450363 130.789734,61.749443 
	C130.530136,62.294788 130.059311,62.603531 129.291611,62.929802 
	C126.310310,59.259140 123.625877,55.570953 120.858414,51.539139 
	C120.775375,51.195503 120.997437,51.008228 121.375031,51.105576 
	C123.505646,53.128284 125.258652,55.053646 127.058998,57.226929 
	C127.279968,57.758366 127.453606,58.041882 127.627235,58.325401 
z"/>
<path fill="#F0CECD" opacity="1.000000" stroke="none" 
	d="
M174.232315,62.244999 
	C175.817245,61.803112 177.643997,61.642681 179.740723,61.715286 
	C178.165161,62.141033 176.319656,62.333748 174.232315,62.244999 
z"/>
<path fill="#FACFD0" opacity="1.000000" stroke="none" 
	d="
M147.943344,96.057297 
	C146.971817,94.951225 146.000290,93.845161 144.998734,92.385498 
	C144.968704,92.031906 145.294800,91.695633 145.715118,91.720779 
	C146.955994,92.997322 147.776550,94.248726 148.433105,95.638756 
	C148.269104,95.777390 147.943344,96.057297 147.943344,96.057297 
z"/>
<path fill="#FACFD0" opacity="1.000000" stroke="none" 
	d="
M148.944427,97.041962 
	C148.561874,96.978424 148.335709,96.755524 148.049469,96.271576 
	C147.943344,96.057297 148.269104,95.777390 148.577744,95.819656 
	C149.067062,96.116928 149.195053,96.396080 149.270370,96.699387 
	C149.270370,96.699387 149.054733,96.929359 148.944427,97.041962 
z"/>
<path fill="#D24D53" opacity="1.000000" stroke="none" 
	d="
M149.559769,96.777710 
	C149.195053,96.396080 149.067062,96.116928 148.741745,95.681030 
	C147.776550,94.248726 146.955994,92.997322 145.878143,91.552612 
	C143.590958,88.640358 145.554932,88.198654 147.586334,88.208336 
	C155.502823,88.246048 163.418686,88.413246 171.365982,89.068237 
	C164.089371,89.604195 156.781555,89.604195 148.299225,89.604195 
	C149.681976,91.982658 150.293961,93.035324 150.905945,94.087990 
	C150.957062,94.804977 151.008179,95.521973 151.044525,96.598053 
	C150.636200,96.923447 150.242691,96.889740 149.559769,96.777710 
z"/>
<path fill="#CC1D23" opacity="1.000000" stroke="none" 
	d="
M151.200119,93.828613 
	C150.293961,93.035324 149.681976,91.982658 148.299225,89.604195 
	C156.781555,89.604195 164.089371,89.604195 171.693237,89.312904 
	C175.025497,88.980446 178.061661,88.939285 181.841400,89.235855 
	C187.053879,89.385368 191.522812,89.197159 195.991730,89.008949 
	C197.059326,88.996567 198.126938,88.984192 199.590454,89.037201 
	C200.602112,89.561264 201.217850,90.019920 202.020142,90.711502 
	C187.007004,90.964005 171.806198,90.902420 156.609253,91.115662 
	C154.893143,91.139732 153.198761,92.713890 151.200119,93.828613 
z"/>
<path fill="#D24D53" opacity="1.000000" stroke="none" 
	d="
M195.674957,88.752205 
	C191.522812,89.197159 187.053879,89.385368 182.294266,89.280151 
	C186.455109,88.822968 190.906647,88.659210 195.674957,88.752205 
z"/>
<path fill="#D36D72" opacity="1.000000" stroke="none" 
	d="
M199.783295,135.468063 
	C199.310928,136.128891 198.910889,136.493835 198.246292,136.919800 
	C198.413727,136.011536 198.845749,135.042236 199.612793,134.019867 
	C199.917084,134.368576 199.886368,134.770386 199.783295,135.468063 
z"/>
<path fill="#EB1C24" opacity="1.000000" stroke="none" 
	d="
M154.955536,59.063190 
	C147.632767,59.064770 140.309998,59.066349 132.470642,58.703285 
	C130.286819,56.909698 128.619568,55.480755 126.971420,54.042801 
	C126.990524,54.033791 126.950363,54.025307 126.972511,53.595078 
	C126.995476,51.441406 126.996300,49.717968 127.344269,47.935280 
	C128.844391,46.567650 129.803787,44.990025 131.183990,43.997677 
	C137.048355,39.781281 142.963959,35.625652 149.013412,31.681829 
	C151.848495,29.833544 155.029617,28.516088 158.053925,26.958059 
	C158.053925,26.958059 158.010559,27.005352 158.044312,27.329453 
	C159.106415,28.421320 160.134735,29.189085 161.163071,29.956850 
	C162.784790,32.007118 164.406509,34.057392 166.039047,36.837067 
	C167.531250,41.076679 168.198792,45.266525 173.056747,45.956959 
	C173.056747,45.956959 172.997101,45.994278 173.008240,46.330650 
	C173.704132,47.426514 174.388901,48.186005 175.037933,48.970802 
	C175.002228,48.996101 175.056488,48.927376 175.070679,49.275974 
	C176.066986,50.405926 177.049088,51.187279 178.031189,51.968636 
	C178.031189,51.968639 178.001221,51.992393 178.007050,52.363068 
	C178.670975,54.839573 179.329071,56.945404 179.987152,59.051231 
	C179.250473,59.063511 178.513794,59.075790 177.138611,58.783897 
	C173.981644,58.672230 171.463150,58.864731 168.944656,59.057236 
	C165.284637,59.063576 161.624634,59.069916 157.350891,58.831631 
	C156.143295,58.745731 155.549408,58.904461 154.955536,59.063190 
z"/>
<path fill="#D11C23" opacity="1.000000" stroke="none" 
	d="
M158.072174,26.733965 
	C155.029617,28.516088 151.848495,29.833544 149.013412,31.681829 
	C142.963959,35.625652 137.048355,39.781281 131.183990,43.997677 
	C129.803787,44.990025 128.844391,46.567650 127.133293,47.677887 
	C125.712395,47.318436 124.849609,47.157127 123.995491,46.620880 
	C125.853371,44.187817 127.504616,41.892021 129.608475,40.139622 
	C131.638168,38.448990 134.183731,37.393257 136.414612,35.924831 
	C139.457947,33.921608 142.464951,31.855680 145.400284,29.697960 
	C148.322571,27.549812 151.137039,25.254951 154.375610,23.021851 
	C155.257324,23.000933 155.762192,22.982590 156.267059,22.964245 
	C156.528137,23.059484 156.732864,23.224590 156.963821,23.973284 
	C157.385773,25.011652 157.725128,25.536297 158.064484,26.060944 
	C158.064484,26.060944 158.090424,26.509871 158.072174,26.733965 
z"/>
<path fill="#9A181C" opacity="1.000000" stroke="none" 
	d="
M156.235199,22.583290 
	C155.762192,22.982590 155.257324,23.000933 154.320602,22.677536 
	C152.932144,21.880560 151.975555,21.425323 150.969604,20.618626 
	C149.595444,16.788031 147.356476,18.156765 145.403305,19.390966 
	C141.541824,21.831032 137.796143,24.454399 134.000961,27.000668 
	C133.999329,26.999355 133.991455,26.991392 133.991455,26.991392 
	C134.957291,25.224058 135.923126,23.456726 136.945969,21.346977 
	C137.111710,20.686033 137.301575,20.426966 137.789948,20.116585 
	C139.388641,19.642771 140.829239,19.424141 142.138824,18.886406 
	C144.803284,17.792349 147.397034,16.526054 150.062134,15.044569 
	C151.042053,15.268498 151.979752,15.778596 153.080444,16.575138 
	C154.011948,17.770012 154.780472,18.678442 155.883835,19.611519 
	C156.316208,19.805204 156.413742,19.974241 156.538788,20.433857 
	C156.445282,21.217068 156.324310,21.709702 156.235199,22.583290 
z"/>
<path fill="#D11C25" opacity="1.000000" stroke="none" 
	d="
M173.068146,45.594078 
	C168.198792,45.266525 167.531250,41.076679 166.085693,37.170967 
	C167.206253,37.500584 168.291016,38.225704 169.711914,38.970383 
	C170.559601,39.545532 171.071152,40.101116 171.770599,40.873245 
	C172.332184,42.470257 172.705872,43.850727 173.068146,45.594078 
z"/>
<path fill="#D11C23" opacity="1.000000" stroke="none" 
	d="
M161.089355,29.620323 
	C160.134735,29.189085 159.106415,28.421320 158.058624,27.301525 
	C159.031342,27.727592 160.023499,28.505693 161.089355,29.620323 
z"/>
<path fill="#BC1A1F" opacity="1.000000" stroke="none" 
	d="
M158.059906,25.734144 
	C157.725128,25.536297 157.385773,25.011652 157.044479,24.156431 
	C157.380142,24.353020 157.717743,24.880184 158.059906,25.734144 
z"/>
<path fill="#D11C25" opacity="1.000000" stroke="none" 
	d="
M180.392868,59.053162 
	C179.329071,56.945404 178.670975,54.839573 178.022049,52.355759 
	C179.120743,52.652012 180.210281,53.326244 181.621460,54.011040 
	C182.450851,54.661636 182.958603,55.301670 183.513046,56.247261 
	C182.639359,57.386909 181.718979,58.221001 180.392868,59.053162 
z"/>
<path fill="#CD565C" opacity="1.000000" stroke="none" 
	d="
M175.393585,45.599415 
	C176.132492,46.298882 176.727875,47.129013 177.433945,48.249863 
	C177.544647,48.540577 177.264725,48.782337 176.803268,48.875690 
	C175.913376,48.955154 175.484924,48.941265 175.056488,48.927376 
	C175.056488,48.927376 175.002228,48.996101 175.050293,48.604504 
	C175.060745,47.479984 175.023102,46.747059 174.985458,46.014137 
	C174.985458,46.014137 175.250061,45.730083 175.393585,45.599415 
z"/>
<path fill="#D11C25" opacity="1.000000" stroke="none" 
	d="
M175.070679,49.275974 
	C175.484924,48.941265 175.913376,48.955154 176.662460,48.995590 
	C177.324142,49.792686 177.665176,50.563240 178.018707,51.651215 
	C177.049088,51.187279 176.066986,50.405926 175.070679,49.275974 
z"/>
<path fill="#D11C25" opacity="1.000000" stroke="none" 
	d="
M174.663574,45.973465 
	C175.023102,46.747059 175.060745,47.479984 175.086014,48.579201 
	C174.388901,48.186005 173.704132,47.426514 173.032639,46.304901 
	C173.477844,45.939445 173.909775,45.936119 174.663574,45.973465 
z"/>
<path fill="#CC232E" opacity="1.000000" stroke="none" 
	d="
M160.993378,109.442924 
	C160.525650,108.412834 160.251022,107.564423 159.955902,106.381500 
	C161.912857,107.611488 164.303162,108.862137 165.781158,110.806328 
	C168.784668,114.757225 171.295288,119.082832 173.707733,123.493423 
	C172.539825,123.514252 171.673233,123.295670 170.806625,123.077095 
	C170.225967,122.309082 169.645309,121.541061 168.819489,120.593567 
	C167.407639,118.876602 166.240952,117.339111 165.002380,115.152908 
	C163.953323,113.334122 162.976166,112.164040 161.998993,110.993958 
	C161.728149,110.537506 161.457306,110.081055 160.993378,109.442924 
z"/>
<path fill="#CC232E" opacity="1.000000" stroke="none" 
	d="
M175.927078,130.034119 
	C175.283981,129.245483 174.640869,128.456848 174.210770,127.228088 
	C174.638580,126.501831 174.853378,126.215683 175.068192,125.929535 
	C176.683990,127.394402 178.299774,128.859268 179.601440,130.627899 
	C178.167221,130.632492 177.047150,130.333313 175.927078,130.034119 
z"/>
<path fill="#C62D35" opacity="1.000000" stroke="none" 
	d="
M176.052795,130.344055 
	C177.047150,130.333313 178.167221,130.632492 179.635620,130.968933 
	C179.983948,131.006195 180.006622,131.492111 180.115005,131.958374 
	C180.417648,132.703033 180.675110,132.897964 180.995789,133.009415 
	C181.010742,133.767136 181.025681,134.524872 181.014267,135.660950 
	C179.384766,134.244217 177.781647,132.449097 176.052795,130.344055 
z"/>
<path fill="#C62D35" opacity="1.000000" stroke="none" 
	d="
M175.028687,125.643158 
	C174.853378,126.215683 174.638580,126.501831 174.182037,126.908401 
	C172.931854,125.931992 171.923416,124.835159 170.860809,123.407715 
	C171.673233,123.295670 172.539825,123.514252 173.725128,123.858337 
	C174.358948,124.441490 174.674072,124.899139 175.028687,125.643158 
z"/>
<path fill="#CC232E" opacity="1.000000" stroke="none" 
	d="
M180.892792,132.786682 
	C180.675110,132.897964 180.417648,132.703033 180.120636,132.201538 
	C180.337234,132.091843 180.594543,132.287018 180.892792,132.786682 
z"/>
<path fill="#D3646B" opacity="1.000000" stroke="none" 
	d="
M161.982574,111.325394 
	C162.976166,112.164040 163.953323,113.334122 164.835114,114.874153 
	C163.815201,114.048347 162.890686,112.852592 161.982574,111.325394 
z"/>
<path fill="#D3646B" opacity="1.000000" stroke="none" 
	d="
M156.796951,104.020737 
	C156.205658,103.946899 155.701096,103.585670 155.135788,102.910484 
	C155.677917,102.975471 156.280807,103.354416 156.796951,104.020737 
z"/>
<path fill="#F0CECD" opacity="1.000000" stroke="none" 
	d="
M99.856873,56.185513 
	C101.147636,60.005489 97.691422,61.015095 95.221886,62.906540 
	C96.427216,60.706810 97.989510,58.520065 99.856873,56.185513 
z"/>
<path fill="#F0CECD" opacity="1.000000" stroke="none" 
	d="
M90.155823,68.500641 
	C89.086853,70.503639 87.734680,72.687164 86.008392,74.844910 
	C87.047058,72.773140 88.459831,70.727142 90.155823,68.500641 
z"/>
<path fill="#F0CECD" opacity="1.000000" stroke="none" 
	d="
M108.665421,45.024685 
	C107.972557,46.639511 106.939766,48.299892 105.570389,50.012543 
	C106.264374,48.399956 107.294937,46.735096 108.665421,45.024685 
z"/>
<path fill="#F0CECD" opacity="1.000000" stroke="none" 
	d="
M94.550735,62.910023 
	C93.729919,64.537209 92.567108,66.209198 91.038849,67.867004 
	C91.851845,66.220154 93.030289,64.587486 94.550735,62.910023 
z"/>
<path fill="#F0CECD" opacity="1.000000" stroke="none" 
	d="
M103.501068,51.630791 
	C103.616234,51.934361 103.411697,52.306908 102.877228,52.734200 
	C102.758652,52.425884 102.970009,52.062828 103.501068,51.630791 
z"/>
<path fill="#9A181C" opacity="1.000000" stroke="none" 
	d="
M116.988571,40.970974 
	C116.992393,39.590023 116.996223,38.209072 116.999725,36.413788 
	C119.703606,34.129765 122.293785,32.057629 125.146194,30.451033 
	C127.668945,29.030109 130.483719,28.127636 133.580505,26.993828 
	C133.991455,26.991392 133.999329,26.999355 133.953857,27.361643 
	C133.572052,28.269321 133.353714,29.140528 132.881760,29.311441 
	C125.278030,32.065098 122.251884,38.797081 118.885612,45.242722 
	C118.591385,45.091534 118.297165,44.940342 117.973160,44.175671 
	C117.625114,42.698452 117.306839,41.834713 116.988571,40.970974 
z"/>
<path fill="#BC1A1F" opacity="1.000000" stroke="none" 
	d="
M151.018951,20.970087 
	C151.975555,21.425323 152.932144,21.880560 153.943756,22.680111 
	C151.137039,25.254951 148.322571,27.549812 145.400284,29.697960 
	C142.464951,31.855680 139.457947,33.921608 136.414612,35.924831 
	C134.183731,37.393257 131.638168,38.448990 129.608475,40.139622 
	C127.504616,41.892021 125.853371,44.187817 123.746750,46.812454 
	C123.319664,47.978172 123.149994,48.577385 122.650711,49.140945 
	C121.880920,49.070168 121.440727,49.035038 121.000542,48.999908 
	C121.000542,48.999905 120.885178,48.632420 120.925163,48.024418 
	C120.257233,43.223248 123.203552,41.025024 125.853027,38.797806 
	C130.895203,34.559208 135.926529,30.283932 141.232635,26.392405 
	C144.215744,24.204571 147.739029,22.753231 151.018951,20.970087 
z"/>
<path fill="#AA191D" opacity="1.000000" stroke="none" 
	d="
M150.969604,20.618629 
	C147.739029,22.753231 144.215744,24.204571 141.232635,26.392405 
	C135.926529,30.283932 130.895203,34.559208 125.853027,38.797806 
	C123.203552,41.025024 120.257233,43.223248 120.938423,47.832291 
	C120.231628,47.463627 119.551559,46.679089 118.878555,45.568634 
	C122.251884,38.797081 125.278030,32.065098 132.881760,29.311441 
	C133.353714,29.140528 133.572052,28.269321 133.955490,27.362955 
	C137.796143,24.454399 141.541824,21.831032 145.403305,19.390966 
	C147.356476,18.156765 149.595444,16.788031 150.969604,20.618629 
z"/>
<path fill="#CD565C" opacity="1.000000" stroke="none" 
	d="
M120.959900,49.307892 
	C121.440727,49.035038 121.880920,49.070168 122.840981,49.387207 
	C124.557358,51.121181 125.753860,52.573246 126.950363,54.025307 
	C126.950363,54.025307 126.990524,54.033791 126.970337,54.409313 
	C126.970650,55.516228 126.991158,56.247620 127.011658,56.979012 
	C125.258652,55.053646 123.505646,53.128284 121.485901,51.011734 
	C121.119194,50.418991 121.019226,50.017437 120.959900,49.307892 
z"/>
<path fill="#9B1B1F" opacity="1.000000" stroke="none" 
	d="
M116.661057,40.988327 
	C117.306839,41.834713 117.625114,42.698452 117.911583,43.928986 
	C117.173698,43.445076 116.467621,42.594372 115.721107,41.406334 
	C115.898293,41.047897 116.115913,41.026787 116.661057,40.988327 
z"/>
<path fill="#D11C25" opacity="1.000000" stroke="none" 
	d="
M127.058998,57.226929 
	C126.991158,56.247620 126.970650,55.516228 126.951233,54.418324 
	C128.619568,55.480755 130.286819,56.909698 132.005920,58.685539 
	C130.833374,58.758945 129.609009,58.485451 128.005936,58.268677 
	C127.453606,58.041882 127.279968,57.758366 127.058998,57.226929 
z"/>
<path fill="#D11C25" opacity="1.000000" stroke="none" 
	d="
M169.395477,59.074615 
	C171.463150,58.864731 173.981644,58.672230 176.770386,58.771370 
	C174.642517,59.072674 172.244400,59.082336 169.395477,59.074615 
z"/>
<path fill="#D11C25" opacity="1.000000" stroke="none" 
	d="
M155.304779,59.076893 
	C155.549408,58.904461 156.143295,58.745731 156.894501,58.819538 
	C156.585876,59.064915 156.119949,59.077755 155.304779,59.076893 
z"/>
<path fill="#D11C25" opacity="1.000000" stroke="none" 
	d="
M126.972511,53.595078 
	C125.753860,52.573246 124.557358,51.121181 123.170593,49.422859 
	C123.149994,48.577385 123.319664,47.978172 123.738083,47.187386 
	C124.849609,47.157127 125.712395,47.318436 126.786148,47.737137 
	C126.996300,49.717968 126.995476,51.441406 126.972511,53.595078 
z"/>
</svg>