<svg version="1.1" id="Layer_1" xmlns="http://www.w3.org/2000/svg" xmlns:xlink="http://www.w3.org/1999/xlink" x="0px" y="0px"
	 width="100%" viewBox="0 0 252 147" enable-background="new 0 0 252 147" xml:space="preserve">
<path fill="#F7F6F7" opacity="1.000000" stroke="none" 
	d="
M253.000000,101.000000 
	C253.000000,116.563461 253.000000,132.126923 253.000000,148.000000 
	C246.649384,148.000000 240.293732,148.000000 233.472656,147.776703 
	C233.007248,147.553406 233.079498,147.112640 233.506073,147.044495 
	C234.253418,145.829025 234.837250,144.685028 234.851746,143.533844 
	C234.937607,136.708298 234.890518,129.881073 234.889984,123.054420 
	C234.889145,112.436630 234.889771,101.818832 234.889771,91.167320 
	C233.278946,91.167320 232.126907,91.167320 230.532806,91.095932 
	C227.467834,90.528290 226.769394,91.662003 226.822769,94.219368 
	C226.952774,100.449684 226.780746,106.686310 226.827896,112.928329 
	C226.925430,112.936256 226.914597,112.740845 226.456177,112.818222 
	C217.683655,112.848289 209.369553,112.800980 201.053146,112.849930 
	C201.050842,112.946190 201.242783,112.930550 201.174591,112.469597 
	C201.106415,105.028938 201.106415,98.049232 201.106415,91.200500 
	C198.280075,91.200500 196.156082,91.200500 193.619003,91.323730 
	C193.215332,109.627121 193.224762,127.807289 193.148499,146.316177 
	C193.041885,147.096603 193.020935,147.548294 193.000000,148.000000 
	C187.311966,148.000000 181.623917,148.000000 175.541672,147.673340 
	C175.422699,146.337814 176.237228,145.059738 175.888992,144.362061 
	C172.724426,138.022156 169.357010,131.783508 166.049500,125.514938 
	C178.011627,121.368843 179.269684,104.499092 176.528809,91.123741 
	C162.179459,91.022217 148.289429,91.022217 134.000000,91.022217 
	C134.000000,110.267197 134.000000,129.133591 134.000000,148.000000 
	C128.977905,148.000000 123.955818,148.000000 118.532745,147.689117 
	C118.697044,146.920715 119.262329,146.463196 119.897804,145.541351 
	C119.967995,127.144173 119.967995,109.211319 119.967995,91.246643 
	C117.053543,91.246643 114.651215,91.246643 111.813377,91.246643 
	C111.813377,98.636055 111.813377,105.767464 111.589638,112.913574 
	C111.365898,112.928291 110.955925,113.110031 110.495712,113.039551 
	C102.358559,113.002266 94.681625,113.035454 86.977058,113.024551 
	C86.949432,112.980446 86.854607,113.023338 86.605057,112.684875 
	C86.355507,105.347084 86.355507,98.347748 86.355507,90.993660 
	C83.508797,90.993660 81.252907,90.993660 78.869675,90.732391 
	C78.615829,91.307571 78.489319,92.144028 78.293434,93.445496 
	C78.149376,111.940338 78.074684,129.970169 78.000000,148.000000 
	C74.969406,148.000000 71.938812,148.000000 68.453674,147.531342 
	C67.999420,131.266785 68.062157,115.470238 67.900398,99.675995 
	C67.884758,98.149521 66.477509,96.637291 65.530281,95.108429 
	C65.344307,95.098396 64.977966,95.031021 64.990097,95.016663 
	C65.002220,95.002296 64.969734,95.019279 64.925255,94.773277 
	C64.697067,94.154121 64.414772,94.051056 63.724342,94.054062 
	C59.808964,89.564735 55.860073,85.394966 56.784103,78.779121 
	C56.817951,78.312836 56.758232,78.125793 56.762421,77.615646 
	C56.644745,76.479134 56.463154,75.665733 56.225006,74.558273 
	C55.859997,74.029419 55.551540,73.794624 55.190163,73.397064 
	C55.137238,73.234291 54.854347,73.041542 54.773846,72.763855 
	C54.133385,71.978813 53.573429,71.471451 52.911228,70.699387 
	C52.256081,69.932137 51.703171,69.429588 51.078796,68.665970 
	C50.714951,68.215057 50.422565,68.025230 50.080029,67.900864 
	C50.029877,67.966324 50.160732,67.865936 50.091042,67.613495 
	C49.740669,67.174377 49.459988,66.987694 49.092163,66.892136 
	C49.005028,66.983261 49.193188,66.815628 49.105556,66.519539 
	C47.995831,66.016670 46.973740,65.809883 45.882000,65.315292 
	C42.144234,63.705036 43.014076,67.161598 41.884590,68.797531 
	C41.762508,68.953857 41.375111,69.039276 41.233223,68.654350 
	C40.369274,67.462326 39.647209,66.655228 38.808556,65.401703 
	C38.571178,56.311062 38.450386,47.666843 38.483620,38.668667 
	C38.608349,37.545452 38.579052,36.776196 38.684914,35.797009 
	C38.820072,35.587074 38.793404,35.088570 39.069992,34.887482 
	C39.561222,31.989010 39.907944,29.293961 39.955784,26.593618 
	C40.010818,23.486889 38.628532,21.602516 35.101650,21.678627 
	C34.976940,20.921618 34.933632,20.484509 35.197876,19.761696 
	C35.901749,13.301876 37.347069,7.099066 35.000000,1.000000 
	C107.561287,1.000000 180.122574,1.000000 253.000000,1.000000 
	C253.000000,28.686758 253.000000,56.374722 252.538300,84.545990 
	C251.162720,85.149330 250.248810,85.269356 249.033386,85.199745 
	C245.815720,82.918793 243.240952,83.805695 241.393204,86.369446 
	C239.965805,88.349998 237.714844,90.686798 240.880875,93.378784 
	C240.862823,93.577759 240.980606,93.959595 240.789093,94.215286 
	C237.023239,97.063477 240.697678,100.146843 240.014908,103.206398 
	C240.097153,103.632484 240.188858,103.787971 240.380402,104.258728 
	C244.743164,109.913033 248.404587,109.592491 251.423248,103.637070 
	C251.885162,102.725784 252.471298,101.877449 253.000000,101.000000 
M46.805172,61.410210 
	C46.800804,61.792114 46.796436,62.174023 46.792065,62.555927 
	C46.950523,62.557587 47.246696,62.569981 47.247528,62.559349 
	C47.277145,62.179352 47.279144,61.797203 46.805172,61.410210 
z"/>
<path fill="#5F0C16" opacity="1.000000" stroke="none" 
	d="
M34.890320,20.047400 
	C34.933632,20.484509 34.976940,20.921618 35.047771,22.085283 
	C36.042839,26.945599 37.010384,31.079355 38.018219,35.381924 
	C38.140148,35.791218 38.303894,35.943287 38.549755,36.006943 
	C38.579052,36.776196 38.608349,37.545452 38.158894,38.844868 
	C37.557022,48.252792 37.422218,57.130466 37.355530,66.008652 
	C37.352985,66.347000 38.008377,66.690285 38.493786,67.332291 
	C38.542610,68.054955 38.454826,68.476601 38.104919,69.017227 
	C37.827068,69.755142 37.811340,70.374054 38.070915,71.046906 
	C38.532028,71.079567 38.717842,71.058296 39.204880,71.003357 
	C40.001610,70.640144 40.497108,70.310616 41.024292,70.354362 
	C41.033390,71.475471 41.010799,72.223305 40.693871,73.257896 
	C39.867222,75.305443 38.883171,77.063202 38.871384,78.827461 
	C38.728924,100.149361 38.769119,121.472496 38.620781,142.794327 
	C38.608685,144.533234 37.564575,146.264938 37.000004,148.000000 
	C34.299728,148.000000 31.599461,148.000000 28.445026,147.531357 
	C27.996286,119.445374 27.719790,91.823082 28.204971,64.214172 
	C28.326574,57.294415 25.704227,53.153393 19.806894,49.306042 
	C19.806894,64.861580 19.806894,79.922867 19.597633,94.989830 
	C19.388372,94.995499 18.969770,95.002533 18.686615,94.696915 
	C18.403460,80.778435 18.403460,67.165565 18.403460,53.314850 
	C15.881972,53.161388 14.432482,53.073166 13.055660,52.650948 
	C15.137894,49.621189 17.147457,46.925426 19.208071,44.161182 
	C22.170115,46.984943 24.738335,49.433266 28.067486,52.606998 
	C28.067486,46.093998 28.067486,40.566177 28.034481,35.024551 
	C28.001478,35.010746 28.036886,35.072922 28.301188,34.983353 
	C28.700422,34.597130 28.835356,34.300476 29.099058,33.588081 
	C29.231470,31.147703 29.235115,29.123066 29.584881,27.037624 
	C30.228909,25.984188 30.526812,24.991556 30.923672,23.687500 
	C31.110413,22.955360 31.198198,22.534645 31.477333,21.797527 
	C32.050419,19.659571 32.432159,17.838017 33.051567,14.882393 
	C33.966602,17.452702 34.428463,18.750051 34.890320,20.047400 
z"/>
<path fill="#F7F6F7" opacity="1.000000" stroke="none" 
	d="
M31.285984,22.113930 
	C31.198198,22.534645 31.110413,22.955360 30.552994,23.687092 
	C28.552855,23.835838 27.022346,23.673569 25.491838,23.511299 
	C25.301546,23.946562 25.111254,24.381823 24.920961,24.817085 
	C26.360228,25.577534 27.799492,26.337982 29.238758,27.098429 
	C29.235115,29.123066 29.231470,31.147703 28.885849,33.710060 
	C28.282019,34.465763 28.113024,34.740814 28.036886,35.072922 
	C28.036886,35.072922 28.001478,35.010746 27.640968,35.100693 
	C26.525877,38.419754 25.771294,41.648872 24.815855,45.737526 
	C21.635000,40.597740 17.600822,43.103378 14.310781,43.444321 
	C13.019945,43.578087 12.058640,47.174351 11.002975,49.222458 
	C9.722802,51.706135 8.501581,54.220188 7.254853,56.721100 
	C6.578280,58.411087 6.776497,60.532944 7.123877,62.630093 
	C8.274508,69.576515 8.069875,69.844673 1.000000,70.000000 
	C1.000000,47.101086 1.000000,24.202173 1.000000,1.000000 
	C11.018856,1.000000 21.040770,1.000000 31.531265,1.426386 
	C31.746109,3.480417 31.300089,5.105019 31.274281,6.736269 
	C31.193209,11.860812 31.270201,16.987854 31.285984,22.113930 
M20.307949,34.497410 
	C19.975386,35.032200 19.642822,35.566990 19.310257,36.101780 
	C19.579384,36.233624 19.848511,36.365467 20.117636,36.497311 
	C20.319260,35.973488 20.520882,35.449669 20.307949,34.497410 
M26.589840,14.805266 
	C26.207918,14.800903 25.825998,14.796539 25.444077,14.792175 
	C25.442415,14.950642 25.430025,15.246836 25.440645,15.247663 
	C25.820671,15.277269 26.202845,15.279268 26.589840,14.805266 
z"/>
<path fill="#610510" opacity="1.000000" stroke="none" 
	d="
M12.982990,52.984947 
	C14.432482,53.073166 15.881972,53.161388 18.403460,53.314850 
	C18.403460,67.165565 18.403460,80.778435 18.694927,95.165253 
	C18.988020,110.832710 18.811054,125.729660 19.099186,140.617615 
	C19.186584,145.133469 17.722927,146.477753 13.444158,146.069229 
	C9.999846,145.740356 6.500138,145.991714 3.016811,145.518494 
	C3.005705,137.946518 3.094762,130.839935 2.961134,123.737549 
	C2.894199,120.179871 2.421317,116.629829 2.087854,112.616272 
	C1.695783,108.437469 1.347892,104.718735 1.000000,101.000000 
	C1.000000,93.979050 1.000000,86.958107 1.329638,79.382065 
	C4.492375,74.218811 7.325474,69.610641 10.534546,64.891808 
	C11.203144,61.442169 11.495770,58.103191 11.806660,54.816284 
	C11.824923,54.868351 11.720536,54.832554 12.015596,54.735657 
	C12.535155,54.086723 12.759655,53.534683 12.992028,52.990601 
	C12.999902,52.998554 12.982990,52.984951 12.982990,52.984947 
z"/>
<path fill="#600711" opacity="1.000000" stroke="none" 
	d="
M176.988113,91.225266 
	C179.269684,104.499092 178.011627,121.368843 166.049500,125.514938 
	C169.357010,131.783508 172.724426,138.022156 175.888992,144.362061 
	C176.237228,145.059738 175.422699,146.337814 175.073730,147.673340 
	C173.285645,148.000000 171.571289,148.000000 169.350830,147.662476 
	C164.526566,140.056824 160.208389,132.788696 155.705902,125.143471 
	C154.432983,124.512764 153.292587,123.911781 152.264694,124.065102 
	C147.573395,124.764900 146.958160,122.416328 146.855560,118.363426 
	C146.734680,113.588898 149.461349,113.907982 152.560135,113.988258 
	C155.038849,114.052475 157.530228,114.135857 159.997894,113.958740 
	C161.978668,113.816574 163.932312,113.296494 166.094589,112.657074 
	C167.488708,109.640877 168.686218,106.911720 169.644623,103.846420 
	C161.313446,103.339500 153.221786,103.125290 145.128860,103.052902 
	C144.118332,103.043861 143.101105,103.785103 142.077209,104.401764 
	C142.067444,104.624832 141.871475,105.026093 141.604004,105.340530 
	C141.221954,117.633003 141.193787,129.613281 140.882309,141.586197 
	C140.843842,143.064362 139.295532,144.503235 138.446899,145.960327 
	C137.301865,144.513321 135.185730,143.082245 135.161697,141.616852 
	C134.915848,126.628159 135.069595,111.633476 134.963913,96.641502 
	C134.939529,93.182854 136.275620,91.911537 139.696686,91.950378 
	C150.356796,92.071434 161.019363,92.029022 171.680389,91.959282 
	C173.451157,91.947693 175.218948,91.481422 176.988113,91.225266 
z"/>
<path fill="#610510" opacity="1.000000" stroke="none" 
	d="
M54.854347,73.041542 
	C54.854347,73.041542 55.137238,73.234291 55.243507,73.691986 
	C55.660374,74.383904 55.970966,74.618118 56.281563,74.852333 
	C56.463154,75.665733 56.644745,76.479134 56.555046,77.629654 
	C56.094921,78.143967 55.906086,78.321175 55.717251,78.498383 
	C56.041683,78.685043 56.366112,78.871704 56.690536,79.058372 
	C55.860073,85.394966 59.808964,89.564735 63.836975,94.233032 
	C64.452972,94.792770 64.689827,94.940521 64.969734,95.019279 
	C64.969734,95.019279 65.002220,95.002296 64.994019,95.483551 
	C64.987907,110.713326 64.831459,125.464607 65.088257,140.208694 
	C65.165733,144.656967 64.095406,146.580566 59.345722,146.134750 
	C57.637230,145.974380 55.786057,147.334030 54.000000,148.000000 
	C51.958332,148.000000 49.916668,148.000000 47.459000,147.742981 
	C47.091061,147.320862 47.139118,147.155762 47.438705,146.662735 
	C47.793530,145.685608 47.986706,145.036499 47.987141,144.387238 
	C48.002796,120.850548 48.013344,97.313812 47.964962,73.777206 
	C47.962391,72.524818 47.441597,71.273499 47.081551,69.809433 
	C47.001057,69.597176 46.930130,69.148743 46.787498,68.786316 
	C46.234776,67.760765 45.824692,67.097641 45.451828,66.378098 
	C45.489052,66.321686 45.621109,66.292847 46.053337,66.432938 
	C47.388107,66.653893 48.290649,66.734764 49.193188,66.815628 
	C49.193188,66.815628 49.005028,66.983261 49.164772,67.140915 
	C49.603256,67.487694 49.881996,67.676819 50.160732,67.865936 
	C50.160732,67.865936 50.029877,67.966324 50.170868,68.147568 
	C50.591328,68.528229 50.870796,68.727638 51.150261,68.927048 
	C51.703171,69.429588 52.256081,69.932137 52.935162,71.009857 
	C53.659004,72.070534 54.256676,72.556038 54.854347,73.041542 
z"/>
<path fill="#620913" opacity="1.000000" stroke="none" 
	d="
M230.974884,91.167328 
	C232.126907,91.167320 233.278946,91.167320 234.889771,91.167320 
	C234.889771,101.818832 234.889145,112.436630 234.889984,123.054420 
	C234.890518,129.881073 234.937607,136.708298 234.851746,143.533844 
	C234.837250,144.685028 234.253418,145.829025 233.361130,146.872772 
	C232.526398,147.179474 232.263199,147.589737 232.000000,148.000000 
	C232.000000,148.000000 231.500000,148.000000 231.179779,147.627075 
	C229.906769,145.070084 228.395050,142.954651 228.116653,140.687790 
	C227.523010,135.853806 227.569031,130.941254 227.162598,125.691513 
	C226.434662,124.972542 225.900970,124.325455 225.358887,124.318336 
	C218.059509,124.222466 210.758041,124.156601 203.460022,124.270699 
	C202.656219,124.283264 201.870499,125.453316 201.040543,126.084061 
	C201.004684,126.081604 200.994156,126.010506 200.701996,126.306915 
	C200.272003,130.874115 200.059540,135.144089 200.013641,139.415878 
	C199.942993,145.992142 199.991486,145.992661 193.234192,145.987457 
	C193.224762,127.807289 193.215332,109.627121 193.925323,91.562500 
	C196.244400,91.932487 197.844040,92.186928 199.996307,92.529282 
	C199.996307,96.748016 199.846497,100.859001 200.049667,104.952469 
	C200.182312,107.624985 200.827286,110.272072 201.242783,112.930550 
	C201.242783,112.930550 201.050842,112.946190 201.296967,113.199066 
	C208.998550,113.634644 216.453506,113.866898 223.910019,113.940948 
	C224.907486,113.950859 225.912872,113.160568 226.914597,112.740845 
	C226.914597,112.740845 226.925430,112.936256 227.181488,112.693375 
	C227.625427,107.000473 227.592865,101.528618 228.129547,96.113182 
	C228.300583,94.387520 229.983673,92.811707 230.974884,91.167328 
z"/>
<path fill="#F6F0F0" opacity="1.000000" stroke="none" 
	d="
M169.883743,104.182556 
	C168.686218,106.911720 167.488708,109.640877 165.632416,112.655952 
	C158.690781,112.941864 152.407913,112.941864 146.129379,112.941864 
	C146.129379,117.366997 146.129379,121.268791 146.129379,125.520576 
	C149.583267,125.520576 152.736740,125.520576 155.890213,125.520576 
	C160.208389,132.788696 164.526566,140.056824 168.922363,147.662476 
	C159.645767,148.000000 150.291550,148.000000 140.620087,147.610184 
	C140.865051,146.082932 141.908890,144.948380 141.915680,143.807632 
	C141.992584,130.881012 141.910767,117.953423 141.871475,105.026093 
	C141.871475,105.026093 142.067444,104.624832 142.537369,104.367844 
	C151.966110,104.134750 160.924927,104.158653 169.883743,104.182556 
z"/>
<path fill="#FEF5F8" opacity="1.000000" stroke="none" 
	d="
M19.806892,94.984161 
	C19.806894,79.922867 19.806894,64.861580 19.806894,49.306042 
	C25.704227,53.153393 28.326574,57.294415 28.204971,64.214172 
	C27.719790,91.823082 27.996286,119.445374 27.995430,147.531357 
	C27.250000,148.000000 26.500000,148.000000 25.260139,147.542664 
	C24.787394,132.122513 24.819275,117.159714 24.817425,102.196915 
	C24.815611,87.544243 24.866659,72.888535 24.780058,58.238152 
	C24.186707,58.255054 23.593353,58.271957 23.000000,58.288860 
	C23.000000,88.192574 23.000000,118.096283 23.000000,148.000000 
	C22.250000,148.000000 21.500000,148.000000 20.361811,147.724121 
	C19.958134,147.264771 19.942646,147.081299 19.963966,146.436234 
	C19.936146,128.977829 19.871519,111.980995 19.806892,94.984161 
z"/>
<path fill="#F7F3F3" opacity="1.000000" stroke="none" 
	d="
M112.000000,148.000000 
	C102.979103,148.000000 93.958214,148.000000 84.632210,147.606796 
	C84.947769,146.122162 86.077911,145.042801 86.104118,143.937271 
	C86.245102,137.989761 86.111732,132.035751 86.050934,126.087006 
	C86.028816,126.090012 86.070084,126.113441 86.499992,125.920731 
	C94.853264,125.547806 102.776619,125.367599 110.904419,125.351913 
	C111.417572,125.677330 111.726280,125.838249 112.011711,126.467285 
	C111.992287,133.956940 111.996147,140.978470 112.000000,148.000000 
z"/>
<path fill="#F7F4F4" opacity="1.000000" stroke="none" 
	d="
M227.000000,148.000000 
	C217.979111,148.000000 208.958206,148.000000 199.633347,147.613220 
	C199.906494,146.103363 200.953918,144.991882 200.981918,143.855270 
	C201.128448,137.910522 201.016327,131.959412 200.994141,126.010506 
	C200.994156,126.010506 201.004684,126.081604 201.489258,125.957184 
	C209.015244,125.798134 216.057449,125.698799 223.097321,125.786919 
	C224.405380,125.803299 225.703979,126.574120 226.951859,127.462692 
	C226.931183,134.619080 226.965591,141.309540 227.000000,148.000000 
z"/>
<path fill="#FCF7F9" opacity="1.000000" stroke="none" 
	d="
M46.930130,69.148743 
	C46.930130,69.148743 47.001057,69.597176 47.007790,70.271713 
	C47.072075,96.294395 47.129627,121.642540 47.187180,146.990677 
	C47.139118,147.155762 47.091061,147.320862 47.021500,147.742981 
	C45.933331,148.000000 44.866661,148.000000 43.314178,147.537323 
	C42.884254,125.657608 42.941078,104.240562 42.994469,82.823517 
	C42.999435,80.831291 42.982548,78.839020 42.975800,76.846764 
	C42.561535,76.892776 42.147266,76.938782 41.499649,77.325287 
	C41.183224,100.042183 41.091293,122.418556 41.056339,144.795029 
	C41.055191,145.527893 41.634052,146.261688 42.162136,147.234558 
	C42.254486,147.649368 42.127243,147.824692 42.000000,148.000000 
	C40.611111,148.000000 39.222221,148.000000 37.416672,148.000000 
	C37.564575,146.264938 38.608685,144.533234 38.620781,142.794327 
	C38.769119,121.472496 38.728924,100.149361 38.871384,78.827461 
	C38.883171,77.063202 39.867222,75.305443 41.015915,73.188751 
	C43.398239,71.604805 45.164185,70.376778 46.930130,69.148743 
z"/>
<path fill="#F7F6F6" opacity="1.000000" stroke="none" 
	d="
M10.158572,65.002472 
	C7.325474,69.610641 4.492375,74.218811 1.329638,78.913490 
	C1.000000,77.611107 1.000000,76.222221 1.295046,74.375793 
	C1.904348,73.513496 2.218605,73.108727 2.532861,72.703957 
	C2.021906,72.469307 1.510953,72.234650 1.000000,72.000000 
	C1.000000,71.555557 1.000000,71.111107 1.000000,70.333328 
	C8.069875,69.844673 8.274508,69.576515 7.123877,62.630093 
	C6.776497,60.532944 6.578280,58.411087 7.254853,56.721100 
	C8.501581,54.220188 9.722802,51.706135 11.002975,49.222458 
	C12.058640,47.174351 13.019945,43.578087 14.310781,43.444321 
	C17.600822,43.103378 21.635000,40.597740 24.815855,45.737526 
	C25.771294,41.648872 26.525877,38.419754 27.673973,35.114498 
	C28.067486,40.566177 28.067486,46.093998 28.067486,52.606998 
	C24.738335,49.433266 22.170115,46.984943 19.208071,44.161182 
	C17.147457,46.925426 15.137894,49.621189 13.055660,52.650948 
	C12.982990,52.984951 12.999902,52.998554 12.735720,53.133102 
	C12.221204,53.789284 11.970870,54.310917 11.720536,54.832554 
	C11.720536,54.832554 11.824923,54.868351 11.474209,55.037041 
	C10.801853,58.471310 10.480212,61.736889 10.158572,65.002472 
z"/>
<path fill="#A78688" opacity="1.000000" stroke="none" 
	d="
M23.333332,148.000000 
	C23.000000,118.096283 23.000000,88.192574 23.000000,58.288860 
	C23.593353,58.271957 24.186707,58.255054 24.780058,58.238152 
	C24.866659,72.888535 24.815611,87.544243 24.817425,102.196915 
	C24.819275,117.159714 24.787394,132.122513 24.885139,147.542664 
	C24.555555,148.000000 24.111111,148.000000 23.333332,148.000000 
z"/>
<path fill="#44080D" opacity="1.000000" stroke="none" 
	d="
M141.604004,105.340530 
	C141.910767,117.953423 141.992584,130.881012 141.915680,143.807632 
	C141.908890,144.948380 140.865051,146.082932 140.151428,147.610184 
	C138.285645,148.000000 136.571289,148.000000 134.428467,148.000000 
	C134.000000,129.133591 134.000000,110.267197 134.000000,91.022217 
	C148.289429,91.022217 162.179459,91.022217 176.528809,91.123741 
	C175.218948,91.481422 173.451157,91.947693 171.680389,91.959282 
	C161.019363,92.029022 150.356796,92.071434 139.696686,91.950378 
	C136.275620,91.911537 134.939529,93.182854 134.963913,96.641502 
	C135.069595,111.633476 134.915848,126.628159 135.161697,141.616852 
	C135.185730,143.082245 137.301865,144.513321 138.446899,145.960327 
	C139.295532,144.503235 140.843842,143.064362 140.882309,141.586197 
	C141.193787,129.613281 141.221954,117.633003 141.604004,105.340530 
z"/>
<path fill="#4B0F15" opacity="1.000000" stroke="none" 
	d="
M78.333328,148.000000 
	C78.074684,129.970169 78.149376,111.940338 78.490417,93.255226 
	C78.836845,92.064514 78.916924,91.529091 78.997009,90.993660 
	C81.252907,90.993660 83.508797,90.993660 86.355507,90.993660 
	C86.355507,98.347748 86.355507,105.347084 86.230682,112.559128 
	C85.736855,107.433594 85.405121,102.092377 84.979118,96.758682 
	C84.824944,94.828369 85.878128,91.742455 82.336159,92.275726 
	C81.358803,92.422874 80.110992,95.112389 80.096092,96.646141 
	C79.936401,113.085899 79.999344,129.527832 79.997177,146.307617 
	C79.995392,147.097397 79.997696,147.548691 80.000000,148.000000 
	C79.555557,148.000000 79.111107,148.000000 78.333328,148.000000 
z"/>
<path fill="#F4E6E7" opacity="1.000000" stroke="none" 
	d="
M249.334915,85.389381 
	C250.248810,85.269356 251.162720,85.149330 252.538300,85.014648 
	C253.000000,88.692909 253.000000,92.385818 252.653915,96.652298 
	C251.834015,98.400459 251.368698,99.578568 250.884933,100.749069 
	C248.349976,106.882675 245.918289,107.410423 241.192688,102.535217 
	C242.577835,100.838799 243.827530,99.494118 245.312805,97.895943 
	C245.909042,99.161835 246.744308,100.935234 247.744202,103.058182 
	C247.744202,100.421867 247.457932,98.207611 247.799316,96.094772 
	C248.724106,90.371109 247.856949,89.431267 241.810028,90.016708 
	C244.934860,85.239113 245.785141,85.244080 251.479034,89.366135 
	C250.764328,88.040550 250.049622,86.714966 249.334915,85.389381 
z"/>
<path fill="#FEF5F8" opacity="1.000000" stroke="none" 
	d="
M65.716255,95.118454 
	C66.477509,96.637291 67.884758,98.149521 67.900398,99.675995 
	C68.062157,115.470238 67.999420,131.266785 67.999565,147.531342 
	C66.933327,148.000000 65.866661,148.000000 64.563179,147.614929 
	C64.880913,146.421173 65.918571,145.612564 65.918747,144.803741 
	C65.922348,128.241989 65.807503,111.680222 65.716255,95.118454 
z"/>
<path fill="#F7F6F6" opacity="1.000000" stroke="none" 
	d="
M31.477333,21.797527 
	C31.270201,16.987854 31.193209,11.860812 31.274281,6.736269 
	C31.300089,5.105019 31.746109,3.480417 31.999924,1.426386 
	C32.750000,1.000000 33.500000,1.000000 34.625000,1.000000 
	C37.347069,7.099066 35.901749,13.301876 35.197876,19.761696 
	C34.428463,18.750051 33.966602,17.452702 33.051567,14.882393 
	C32.432159,17.838017 32.050419,19.659571 31.477333,21.797527 
z"/>
<path fill="#634547" opacity="1.000000" stroke="none" 
	d="
M42.250000,148.000000 
	C42.127243,147.824692 42.254486,147.649368 42.175125,146.766876 
	C41.890015,123.034729 41.811508,100.009758 41.733002,76.984795 
	C42.147266,76.938782 42.561535,76.892776 42.975800,76.846764 
	C42.982548,78.839020 42.999435,80.831291 42.994469,82.823517 
	C42.941078,104.240562 42.884254,125.657608 42.914185,147.537323 
	C43.000000,148.000000 42.500000,148.000000 42.250000,148.000000 
z"/>
<path fill="#4B0F15" opacity="1.000000" stroke="none" 
	d="
M65.530281,95.108429 
	C65.807503,111.680222 65.922348,128.241989 65.918747,144.803741 
	C65.918571,145.612564 64.880913,146.421173 64.163185,147.614929 
	C60.969406,148.000000 57.938812,148.000000 54.454109,148.000000 
	C55.786057,147.334030 57.637230,145.974380 59.345722,146.134750 
	C64.095406,146.580566 65.165733,144.656967 65.088257,140.208694 
	C64.831459,125.464607 64.987907,110.713326 64.981895,95.497910 
	C64.977966,95.031021 65.344307,95.098396 65.530281,95.108429 
z"/>
<path fill="#4E1D23" opacity="1.000000" stroke="none" 
	d="
M241.057220,102.886955 
	C245.918289,107.410423 248.349976,106.882675 250.884933,100.749069 
	C251.368698,99.578568 251.834015,98.400459 252.653915,97.112930 
	C253.000000,98.066673 253.000000,99.133339 253.000000,100.600006 
	C252.471298,101.877449 251.885162,102.725784 251.423248,103.637070 
	C248.404587,109.592491 244.743164,109.913033 240.556427,104.120743 
	C240.835831,103.440857 240.977356,103.180687 241.057220,102.886955 
z"/>
<path fill="#44080D" opacity="1.000000" stroke="none" 
	d="
M112.428467,148.000000 
	C111.996147,140.978470 111.992287,133.956940 112.300713,126.767868 
	C112.745941,131.169861 113.201210,135.759155 112.922844,140.303513 
	C112.633759,145.022919 114.560524,146.625549 119.178459,145.984238 
	C119.394699,145.995148 119.827614,146.005676 119.827614,146.005676 
	C119.262329,146.463196 118.697044,146.920715 118.065880,147.689117 
	C116.285645,148.000000 114.571281,148.000000 112.428467,148.000000 
z"/>
<path fill="#47050A" opacity="1.000000" stroke="none" 
	d="
M200.701981,126.306915 
	C201.016327,131.959412 201.128448,137.910522 200.981918,143.855270 
	C200.953918,144.991882 199.906494,146.103363 199.164688,147.613220 
	C197.285645,148.000000 195.571289,148.000000 193.428467,148.000000 
	C193.020935,147.548294 193.041885,147.096603 193.148499,146.316177 
	C199.991486,145.992661 199.942993,145.992142 200.013641,139.415878 
	C200.059540,135.144089 200.272003,130.874115 200.701981,126.306915 
z"/>
<path fill="#450409" opacity="1.000000" stroke="none" 
	d="
M80.399994,148.000000 
	C79.997696,147.548691 79.995392,147.097397 80.428459,146.319336 
	C84.246353,146.486328 85.045906,144.845795 85.078911,141.693665 
	C85.133423,136.487549 85.714119,131.286926 86.073059,126.083992 
	C86.111732,132.035751 86.245102,137.989761 86.104118,143.937271 
	C86.077911,145.042801 84.947769,146.122162 84.163551,147.606796 
	C82.933327,148.000000 81.866661,148.000000 80.399994,148.000000 
z"/>
<path fill="#450409" opacity="1.000000" stroke="none" 
	d="
M227.399994,148.000000 
	C226.965591,141.309540 226.931183,134.619080 227.074219,127.241936 
	C227.285416,126.390472 227.319168,126.225693 227.352936,126.060905 
	C227.569031,130.941254 227.523010,135.853806 228.116653,140.687790 
	C228.395050,142.954651 229.906769,145.070084 230.929779,147.627075 
	C229.933334,148.000000 228.866653,148.000000 227.399994,148.000000 
z"/>
<path fill="#EBCCD1" opacity="1.000000" stroke="none" 
	d="
M19.927160,146.897812 
	C19.942646,147.081299 19.958134,147.264771 19.986811,147.724121 
	C13.666667,148.000000 7.333333,148.000000 1.267900,147.479019 
	C1.713582,146.935944 1.891363,146.913864 2.528803,146.959747 
	C8.634694,146.984390 14.280928,146.941101 19.927160,146.897812 
z"/>
<path fill="#AE696C" opacity="1.000000" stroke="none" 
	d="
M2.069144,146.891800 
	C1.891363,146.913864 1.713582,146.935944 1.267900,146.979019 
	C1.000000,141.645065 1.000000,136.290146 1.209741,130.479889 
	C1.419481,130.024551 1.839611,130.032181 1.887771,130.494492 
	C2.001905,135.968109 2.067879,140.979431 2.081218,146.213379 
	C2.028583,146.436035 2.069144,146.891800 2.069144,146.891800 
z"/>
<path fill="#A0565B" opacity="1.000000" stroke="none" 
	d="
M1.839611,130.032181 
	C1.839611,130.032181 1.419481,130.024551 1.209741,130.012268 
	C1.000000,125.310745 1.000000,120.621490 1.213875,115.477417 
	C1.427750,115.022598 1.855948,115.033806 1.900120,115.495522 
	C1.909398,120.648888 1.874505,125.340530 1.839611,130.032181 
z"/>
<path fill="#94444B" opacity="1.000000" stroke="none" 
	d="
M1.855949,115.033806 
	C1.855948,115.033806 1.427750,115.022598 1.213875,115.011299 
	C1.000000,110.643097 1.000000,106.286201 1.000000,101.464645 
	C1.347892,104.718735 1.695783,108.437469 2.043677,112.942291 
	C1.981102,114.163513 1.918526,114.598663 1.855949,115.033806 
z"/>
<path fill="#F7F6F7" opacity="1.000000" stroke="none" 
	d="
M1.000000,72.333328 
	C1.510953,72.234650 2.021906,72.469307 2.532861,72.703957 
	C2.218605,73.108727 1.904348,73.513496 1.295046,73.959137 
	C1.000000,73.555557 1.000000,73.111107 1.000000,72.333328 
z"/>
<path fill="#450409" opacity="1.000000" stroke="none" 
	d="
M232.250000,148.000000 
	C232.263199,147.589737 232.526398,147.179474 232.934540,146.940918 
	C233.079498,147.112640 233.007248,147.553406 233.003632,147.776703 
	C233.000000,148.000000 232.500000,148.000000 232.250000,148.000000 
z"/>
<path fill="#620913" opacity="1.000000" stroke="none" 
	d="
M86.050934,126.087006 
	C85.714119,131.286926 85.133423,136.487549 85.078911,141.693665 
	C85.045906,144.845795 84.246353,146.486328 80.432541,145.980865 
	C79.999344,129.527832 79.936401,113.085899 80.096092,96.646141 
	C80.110992,95.112389 81.358803,92.422874 82.336159,92.275726 
	C85.878128,91.742455 84.824944,94.828369 84.979118,96.758682 
	C85.405121,102.092377 85.736855,107.433594 86.480240,112.897583 
	C86.854607,113.023338 86.949432,112.980446 87.284218,113.303497 
	C95.397980,113.454384 103.176949,113.282204 110.955925,113.110031 
	C110.955925,113.110031 111.365898,112.928291 111.926712,112.673050 
	C112.665062,106.641556 112.730515,100.857712 113.121269,95.095924 
	C113.193405,94.032448 114.831940,92.100365 115.313354,92.226471 
	C116.635315,92.572754 117.940788,93.630463 118.824883,94.745804 
	C119.320175,95.370651 118.991318,96.668755 118.990974,97.663498 
	C118.985451,113.766777 118.973061,129.870056 118.962219,145.973328 
	C114.560524,146.625549 112.633759,145.022919 112.922844,140.303513 
	C113.201210,135.759155 112.745941,131.169861 112.323990,126.299736 
	C111.726280,125.838249 111.417572,125.677330 111.077698,125.092690 
	C103.295204,124.473305 95.544220,124.234207 87.791809,124.171410 
	C87.223183,124.166801 86.644234,125.436295 86.070084,126.113441 
	C86.070084,126.113441 86.028816,126.090012 86.050934,126.087006 
z"/>
<path fill="#4B0F15" opacity="1.000000" stroke="none" 
	d="
M119.178459,145.984238 
	C118.973061,129.870056 118.985451,113.766777 118.990974,97.663498 
	C118.991318,96.668755 119.320175,95.370651 118.824883,94.745804 
	C117.940788,93.630463 116.635315,92.572754 115.313354,92.226471 
	C114.831940,92.100365 113.193405,94.032448 113.121269,95.095924 
	C112.730515,100.857712 112.665062,106.641556 112.150452,112.658333 
	C111.813377,105.767464 111.813377,98.636055 111.813377,91.246643 
	C114.651215,91.246643 117.053543,91.246643 119.967995,91.246643 
	C119.967995,109.211319 119.967995,127.144173 119.897804,145.541351 
	C119.827614,146.005676 119.394699,145.995148 119.178459,145.984238 
z"/>
<path fill="#421114" opacity="1.000000" stroke="none" 
	d="
M241.192688,102.535217 
	C240.977356,103.180687 240.835831,103.440857 240.456604,103.805466 
	C240.188858,103.787971 240.097153,103.632484 240.081696,102.884659 
	C240.432159,99.514748 240.706375,96.737167 240.980591,93.959595 
	C240.980606,93.959595 240.862823,93.577759 241.012375,93.103622 
	C241.423569,91.880791 241.685211,91.132095 241.946838,90.383400 
	C247.856949,89.431267 248.724106,90.371109 247.799316,96.094772 
	C247.457932,98.207611 247.744202,100.421867 247.744202,103.058182 
	C246.744308,100.935234 245.909042,99.161835 245.312805,97.895943 
	C243.827530,99.494118 242.577835,100.838799 241.192688,102.535217 
z"/>
<path fill="#53040B" opacity="1.000000" stroke="none" 
	d="
M38.357178,67.031273 
	C38.008377,66.690285 37.352985,66.347000 37.355530,66.008652 
	C37.422218,57.130466 37.557022,48.252792 38.004868,39.198830 
	C38.450386,47.666843 38.571178,56.311062 38.686432,65.588165 
	C38.689289,66.537590 38.581383,66.807663 38.357178,67.031273 
z"/>
<path fill="#F7F6F6" opacity="1.000000" stroke="none" 
	d="
M37.977928,35.213112 
	C37.010384,31.079355 36.042839,26.945599 35.129173,22.405186 
	C38.628532,21.602516 40.010818,23.486889 39.955784,26.593618 
	C39.907944,29.293961 39.561222,31.989010 38.862236,34.892593 
	C38.377892,35.098793 37.977928,35.213112 37.977928,35.213112 
z"/>
<path fill="#552326" opacity="1.000000" stroke="none" 
	d="
M241.810028,90.016708 
	C241.685211,91.132095 241.423569,91.880791 241.030426,92.904648 
	C237.714844,90.686798 239.965805,88.349998 241.393204,86.369446 
	C243.240952,83.805695 245.815720,82.918793 249.033386,85.199745 
	C250.049622,86.714966 250.764328,88.040550 251.479034,89.366135 
	C245.785141,85.244080 244.934860,85.239113 241.810028,90.016708 
z"/>
<path fill="#47050A" opacity="1.000000" stroke="none" 
	d="
M201.174591,112.469597 
	C200.827286,110.272072 200.182312,107.624985 200.049667,104.952469 
	C199.846497,100.859001 199.996307,96.748016 199.996307,92.529282 
	C197.844040,92.186928 196.244400,91.932487 194.338440,91.439270 
	C196.156082,91.200500 198.280075,91.200500 201.106415,91.200500 
	C201.106415,98.049232 201.106415,105.028938 201.174591,112.469597 
z"/>
<path fill="#450409" opacity="1.000000" stroke="none" 
	d="
M226.456177,112.818222 
	C225.912872,113.160568 224.907486,113.950859 223.910019,113.940948 
	C216.453506,113.866898 208.998550,113.634644 201.299286,113.102814 
	C209.369553,112.800980 217.683655,112.848289 226.456177,112.818222 
z"/>
<path fill="#47050A" opacity="1.000000" stroke="none" 
	d="
M230.532822,91.095940 
	C229.983673,92.811707 228.300583,94.387520 228.129547,96.113182 
	C227.592865,101.528618 227.625427,107.000473 227.083954,112.685440 
	C226.780746,106.686310 226.952774,100.449684 226.822769,94.219368 
	C226.769394,91.662003 227.467834,90.528290 230.532822,91.095940 
z"/>
<path fill="#450409" opacity="1.000000" stroke="none" 
	d="
M110.495712,113.039551 
	C103.176949,113.282204 95.397980,113.454384 87.311844,113.347603 
	C94.681625,113.035454 102.358559,113.002266 110.495712,113.039551 
z"/>
<path fill="#4E1D23" opacity="1.000000" stroke="none" 
	d="
M240.789093,94.215286 
	C240.706375,96.737167 240.432159,99.514748 240.091156,102.614059 
	C240.697678,100.146843 237.023239,97.063477 240.789093,94.215286 
z"/>
<path fill="#72343A" opacity="1.000000" stroke="none" 
	d="
M46.787498,68.786316 
	C45.164185,70.376778 43.398239,71.604805 41.310249,72.901985 
	C41.010799,72.223305 41.033390,71.475471 41.066589,70.187950 
	C41.239784,69.476219 41.339088,69.273224 41.375111,69.039276 
	C41.375111,69.039276 41.762508,68.953857 42.210403,68.682327 
	C43.577068,67.752037 44.495838,67.093269 45.414604,66.434509 
	C45.824692,67.097641 46.234776,67.760765 46.787498,68.786316 
z"/>
<path fill="#F7F6F6" opacity="1.000000" stroke="none" 
	d="
M41.233223,68.654350 
	C41.339088,69.273224 41.239784,69.476219 41.034904,69.814667 
	C40.497108,70.310616 40.001610,70.640144 39.147301,70.738647 
	C38.676388,70.172989 38.564281,69.838356 38.506374,69.341736 
	C38.560570,69.179756 38.367043,68.898239 38.367043,68.898239 
	C38.454826,68.476601 38.542610,68.054955 38.493786,67.332291 
	C38.581383,66.807663 38.689289,66.537590 38.803024,66.034592 
	C39.647209,66.655228 40.369274,67.462326 41.233223,68.654350 
z"/>
<path fill="#F7F6F6" opacity="1.000000" stroke="none" 
	d="
M45.451828,66.378098 
	C44.495838,67.093269 43.577068,67.752037 42.332489,68.526001 
	C43.014076,67.161598 42.144234,63.705036 45.788960,65.482758 
	C45.765564,65.938034 45.621109,66.292847 45.621109,66.292847 
	C45.621109,66.292847 45.489052,66.321686 45.451828,66.378098 
z"/>
<path fill="#72343A" opacity="1.000000" stroke="none" 
	d="
M46.053337,66.432938 
	C45.621109,66.292847 45.765564,65.938034 45.858604,65.770569 
	C46.973740,65.809883 47.995831,66.016670 49.105556,66.519539 
	C48.290649,66.734764 47.388107,66.653893 46.053337,66.432938 
z"/>
<path fill="#F7F6F6" opacity="1.000000" stroke="none" 
	d="
M47.045086,61.412781 
	C47.279144,61.797203 47.277145,62.179352 47.247528,62.559349 
	C47.246696,62.569981 46.950523,62.557587 46.792065,62.555927 
	C46.796436,62.174023 46.800804,61.792114 47.045086,61.412781 
z"/>
<path fill="#72343A" opacity="1.000000" stroke="none" 
	d="
M54.773846,72.763855 
	C54.256676,72.556038 53.659004,72.070534 53.037403,71.274567 
	C53.573429,71.471451 54.133385,71.978813 54.773846,72.763855 
z"/>
<path fill="#682A30" opacity="1.000000" stroke="none" 
	d="
M78.869675,90.732391 
	C78.916924,91.529091 78.836845,92.064514 78.559784,92.790215 
	C78.489319,92.144028 78.615829,91.307571 78.869675,90.732391 
z"/>
<path fill="#72343A" opacity="1.000000" stroke="none" 
	d="
M56.784103,78.779121 
	C56.366112,78.871704 56.041683,78.685043 55.717251,78.498383 
	C55.906086,78.321175 56.094921,78.143967 56.491135,77.952759 
	C56.758232,78.125793 56.817951,78.312836 56.784103,78.779121 
z"/>
<path fill="#4B0F15" opacity="1.000000" stroke="none" 
	d="
M64.925255,94.773277 
	C64.689827,94.940521 64.452972,94.792770 64.146530,94.397057 
	C64.414772,94.051056 64.697067,94.154121 64.925255,94.773277 
z"/>
<path fill="#72343A" opacity="1.000000" stroke="none" 
	d="
M56.225006,74.558273 
	C55.970966,74.618118 55.660374,74.383904 55.296432,73.854759 
	C55.551540,73.794624 55.859997,74.029419 56.225006,74.558273 
z"/>
<path fill="#72343A" opacity="1.000000" stroke="none" 
	d="
M51.078796,68.665970 
	C50.870796,68.727638 50.591328,68.528229 50.221020,68.082108 
	C50.422565,68.025230 50.714951,68.215057 51.078796,68.665970 
z"/>
<path fill="#72343A" opacity="1.000000" stroke="none" 
	d="
M50.091042,67.613495 
	C49.881996,67.676819 49.603256,67.487694 49.251911,67.049789 
	C49.459988,66.987694 49.740669,67.174377 50.091042,67.613495 
z"/>
<path fill="#72343A" opacity="1.000000" stroke="none" 
	d="
M38.018219,35.381924 
	C37.977928,35.213112 38.377892,35.098793 38.585648,35.093681 
	C38.793404,35.088570 38.820072,35.587074 38.684914,35.797009 
	C38.303894,35.943287 38.140148,35.791218 38.018219,35.381924 
z"/>
<path fill="#4B0F15" opacity="1.000000" stroke="none" 
	d="
M2.528803,146.959747 
	C2.069144,146.891800 2.028583,146.436035 2.303947,146.215302 
	C2.579311,145.994583 3.025007,145.985641 3.025007,145.985641 
	C6.500138,145.991714 9.999846,145.740356 13.444158,146.069229 
	C17.722927,146.477753 19.186584,145.133469 19.099186,140.617615 
	C18.811054,125.729660 18.988020,110.832710 18.978083,95.470871 
	C18.969770,95.002533 19.388372,94.995499 19.597633,94.989830 
	C19.871519,111.980995 19.936146,128.977829 19.963966,146.436234 
	C14.280928,146.941101 8.634694,146.984390 2.528803,146.959747 
z"/>
<path fill="#F7F6F6" opacity="1.000000" stroke="none" 
	d="
M29.584881,27.037624 
	C27.799492,26.337982 26.360228,25.577534 24.920961,24.817085 
	C25.111254,24.381823 25.301546,23.946562 25.491838,23.511299 
	C27.022346,23.673569 28.552855,23.835838 30.454039,23.998516 
	C30.526812,24.991556 30.228909,25.984188 29.584881,27.037624 
z"/>
<path fill="#53040B" opacity="1.000000" stroke="none" 
	d="
M38.104919,69.017227 
	C38.367043,68.898239 38.560570,69.179756 38.294052,69.693604 
	C37.950230,70.469299 37.872921,70.731140 37.795612,70.992973 
	C37.811340,70.374054 37.827068,69.755142 38.104919,69.017227 
z"/>
<path fill="#72343A" opacity="1.000000" stroke="none" 
	d="
M38.070915,71.046906 
	C37.872921,70.731140 37.950230,70.469299 38.239861,69.855591 
	C38.564281,69.838356 38.676388,70.172989 38.846073,70.772324 
	C38.717842,71.058296 38.532028,71.079567 38.070915,71.046906 
z"/>
<path fill="#F7F6F6" opacity="1.000000" stroke="none" 
	d="
M28.301188,34.983353 
	C28.113024,34.740814 28.282019,34.465763 28.757080,34.125801 
	C28.835356,34.300476 28.700422,34.597130 28.301188,34.983353 
z"/>
<path fill="#F7F6F6" opacity="1.000000" stroke="none" 
	d="
M20.515226,34.711628 
	C20.520882,35.449669 20.319260,35.973488 20.117638,36.497311 
	C19.848511,36.365467 19.579384,36.233624 19.310257,36.101780 
	C19.642822,35.566990 19.975386,35.032200 20.515226,34.711628 
z"/>
<path fill="#F7F6F6" opacity="1.000000" stroke="none" 
	d="
M26.587280,15.045191 
	C26.202845,15.279268 25.820671,15.277269 25.440645,15.247663 
	C25.430025,15.246836 25.442415,14.950642 25.444077,14.792175 
	C25.825998,14.796539 26.207918,14.800903 26.587280,15.045191 
z"/>
<path fill="#53040B" opacity="1.000000" stroke="none" 
	d="
M3.016811,145.518494 
	C3.025007,145.985641 2.579311,145.994583 2.356582,145.992661 
	C2.067879,140.979431 2.001905,135.968109 1.887771,130.494492 
	C1.874505,125.340530 1.909398,120.648888 1.900121,115.495522 
	C1.918526,114.598663 1.981102,114.163513 2.087855,113.402359 
	C2.421317,116.629829 2.894199,120.179871 2.961134,123.737549 
	C3.094762,130.839935 3.005705,137.946518 3.016811,145.518494 
z"/>
<path fill="#5F0C16" opacity="1.000000" stroke="none" 
	d="
M10.534544,64.891808 
	C10.480212,61.736889 10.801853,58.471310 11.455946,54.984970 
	C11.495770,58.103191 11.203144,61.442169 10.534544,64.891808 
z"/>
<path fill="#5F0C16" opacity="1.000000" stroke="none" 
	d="
M12.015596,54.735657 
	C11.970870,54.310917 12.221204,53.789284 12.727846,53.125145 
	C12.759655,53.534683 12.535155,54.086723 12.015596,54.735657 
z"/>
<path fill="#450409" opacity="1.000000" stroke="none" 
	d="
M155.705902,125.143471 
	C152.736740,125.520576 149.583267,125.520576 146.129379,125.520576 
	C146.129379,121.268791 146.129379,117.366997 146.129379,112.941864 
	C152.407913,112.941864 158.690781,112.941864 165.435822,112.942986 
	C163.932312,113.296494 161.978668,113.816574 159.997894,113.958740 
	C157.530228,114.135857 155.038849,114.052475 152.560135,113.988258 
	C149.461349,113.907982 146.734680,113.588898 146.855560,118.363426 
	C146.958160,122.416328 147.573395,124.764900 152.264694,124.065102 
	C153.292587,123.911781 154.432983,124.512764 155.705902,125.143471 
z"/>
<path fill="#450409" opacity="1.000000" stroke="none" 
	d="
M169.644623,103.846420 
	C160.924927,104.158653 151.966110,104.134750 142.547134,104.144775 
	C143.101105,103.785103 144.118332,103.043861 145.128860,103.052902 
	C153.221786,103.125290 161.313446,103.339500 169.644623,103.846420 
z"/>
<path fill="#47050A" opacity="1.000000" stroke="none" 
	d="
M47.438709,146.662735 
	C47.129627,121.642540 47.072075,96.294395 47.088287,70.483971 
	C47.441597,71.273499 47.962391,72.524818 47.964962,73.777206 
	C48.013344,97.313812 48.002796,120.850548 47.987141,144.387238 
	C47.986706,145.036499 47.793530,145.685608 47.438709,146.662735 
z"/>
<path fill="#763940" opacity="1.000000" stroke="none" 
	d="
M227.162598,125.691513 
	C227.319168,126.225693 227.285416,126.390472 227.129303,126.776001 
	C225.703979,126.574120 224.405380,125.803299 223.097321,125.786919 
	C216.057449,125.698799 209.015244,125.798134 201.525116,125.959648 
	C201.870499,125.453316 202.656219,124.283264 203.460022,124.270699 
	C210.758041,124.156601 218.059509,124.222466 225.358887,124.318336 
	C225.900970,124.325455 226.434662,124.972542 227.162598,125.691513 
z"/>
<path fill="#53040B" opacity="1.000000" stroke="none" 
	d="
M86.499992,125.920731 
	C86.644234,125.436295 87.223183,124.166801 87.791809,124.171410 
	C95.544220,124.234207 103.295204,124.473305 110.873260,124.928177 
	C102.776619,125.367599 94.853264,125.547806 86.499992,125.920731 
z"/>
<path fill="#EBCCD1" opacity="1.000000" stroke="none" 
	d="
M41.499649,77.325287 
	C41.811508,100.009758 41.890015,123.034729 41.955536,146.527374 
	C41.634052,146.261688 41.055191,145.527893 41.056339,144.795029 
	C41.091293,122.418556 41.183224,100.042183 41.499649,77.325287 
z"/>
</svg>