<svg version="1.1" id="Layer_1" xmlns="http://www.w3.org/2000/svg" xmlns:xlink="http://www.w3.org/1999/xlink" x="0px" y="0px"
	 width="100%" viewBox="0 0 230 92" enable-background="new 0 0 230 92" xml:space="preserve">
<path fill="#FDFEFE" opacity="1.000000" stroke="none" 
	d="
M231.000000,61.000000 
	C231.000000,63.041668 231.000000,65.083336 230.532806,67.521271 
	C215.740799,67.908302 201.415985,67.912971 187.091217,67.886833 
	C159.442978,67.836388 131.794769,67.768555 103.864166,67.490265 
	C94.384872,64.339622 85.146500,61.413509 77.754745,54.824898 
	C69.249191,47.243504 66.176163,37.310555 76.073441,27.676382 
	C80.384323,23.480095 86.047142,20.672655 91.391602,17.108910 
	C92.457825,16.640392 93.228416,16.297426 94.286911,15.986767 
	C94.923637,15.805058 95.272446,15.591041 95.621262,15.377024 
	C95.056572,15.178216 94.491882,14.979408 93.473404,14.827971 
	C82.653168,14.190585 73.571754,17.799746 64.897827,22.924719 
	C62.423313,19.969482 60.091885,17.338097 57.874283,14.394366 
	C59.640553,12.678638 61.292999,11.275252 62.983467,10.272752 
	C63.788265,12.394768 64.221046,15.261682 65.390190,15.602491 
	C67.956131,16.350471 70.981407,16.201424 73.633331,15.599735 
	C74.535538,15.395033 75.624870,11.547926 75.363472,11.384120 
	C73.148811,9.996240 70.714333,8.802621 68.191422,8.128875 
	C66.922043,7.789888 65.332573,8.649565 64.018906,8.649111 
	C66.817223,6.555287 69.484474,4.779551 72.494095,2.996921 
	C73.557640,2.326685 74.278824,1.663342 75.000000,1.000000 
	C126.886024,1.000000 178.772049,1.000000 231.000000,1.000000 
	C231.000000,15.352418 231.000000,29.707550 230.793503,44.478245 
	C230.587006,44.893806 230.160919,44.910908 230.127747,44.449203 
	C230.025284,36.324825 229.956009,28.662149 229.949249,20.622566 
	C229.959198,19.486805 229.906616,18.727949 229.871979,17.719612 
	C229.606018,17.369226 229.322159,17.268322 228.606049,17.097137 
	C224.487106,16.616177 220.800400,16.205500 216.102203,15.682150 
	C216.102203,31.165627 216.102203,45.865917 216.102203,60.834621 
	C220.105301,60.834621 224.561996,60.834621 229.344193,60.903389 
	C230.113113,60.981434 230.556564,60.990715 231.000000,61.000000 
M204.583771,44.986641 
	C202.508011,33.579643 195.449463,27.596291 184.366150,28.005680 
	C181.582855,28.108486 178.683960,29.285549 176.064728,28.784544 
	C169.892029,27.603834 165.061539,30.085417 160.647049,33.609001 
	C151.807938,40.664253 152.509766,52.124905 162.429169,57.499901 
	C172.676041,63.052330 183.710129,63.698921 194.719849,59.766212 
	C198.534515,58.403603 202.038437,56.054028 202.931030,51.501492 
	C194.861832,49.386120 188.009216,53.101643 180.844833,54.955597 
	C176.527740,56.072742 171.648117,52.262260 171.536560,47.194714 
	C182.009781,47.194714 192.473068,47.194714 203.815567,47.182697 
	C204.046066,46.722649 204.276566,46.262600 204.583771,44.986641 
M145.178131,55.707947 
	C146.547119,54.147629 147.916092,52.587315 149.333115,50.972229 
	C143.348740,47.055889 137.761978,47.321758 133.146957,51.387661 
	C129.142151,54.915951 121.308708,55.021893 117.484360,51.599472 
	C114.195969,48.656685 113.791161,42.531662 116.604202,38.281654 
	C120.080994,33.028812 126.470375,32.518425 132.859543,36.983154 
	C138.748688,41.098476 141.716110,40.961994 147.699448,36.258381 
	C143.273422,31.084837 137.841858,27.792162 130.905838,27.822115 
	C127.525528,27.836714 124.141151,28.496378 120.771477,28.957968 
	C116.987930,29.476250 113.015060,29.534637 109.488914,30.804689 
	C103.433540,32.985725 99.436081,37.512280 99.245972,44.209236 
	C99.062881,50.658871 102.589317,55.340652 108.222122,58.054836 
	C120.618484,64.028053 132.851105,64.085197 145.178131,55.707947 
z"/>
<path fill="#FDFDFD" opacity="1.000000" stroke="none" 
	d="
M180.000000,93.000000 
	C177.958328,93.000000 175.916672,93.000000 173.590912,92.717667 
	C175.580032,89.104980 172.488007,90.467476 171.262878,89.941513 
	C170.081696,89.434425 169.110901,88.437302 168.047668,87.655464 
	C168.865402,86.733124 169.650574,85.778709 170.514236,84.901604 
	C170.964844,84.443985 171.553726,84.122528 171.368332,84.257385 
	C169.934692,82.315231 168.729370,80.682381 166.780884,78.042755 
	C169.400696,78.042755 170.374100,78.071144 171.345047,78.034683 
	C172.294647,77.999008 173.241791,77.897202 174.211594,77.822769 
	C173.623718,73.875298 171.846283,73.393654 165.000000,75.105263 
	C165.000000,81.039291 165.000000,87.019646 165.000000,93.000000 
	C164.250000,93.000000 163.500000,93.000000 162.275574,92.665985 
	C157.014603,86.838585 154.590759,81.247276 161.075745,75.267860 
	C161.137772,75.210670 161.018005,74.956314 160.947876,74.630165 
	C155.726944,73.066261 155.780121,79.242401 152.293823,80.651367 
	C152.087387,78.518204 151.892410,76.503609 151.697449,74.489006 
	C151.187271,74.289009 150.677078,74.089012 150.166901,73.889015 
	C149.513092,75.063393 148.336411,76.220657 148.297318,77.415161 
	C148.140137,82.217606 148.334885,87.031570 148.291992,92.128441 
	C148.122940,92.610405 148.061478,92.805199 148.000000,93.000000 
	C146.933334,93.000000 145.866653,93.000000 144.563934,92.621002 
	C143.352249,89.937447 142.376648,87.632889 141.401031,85.328323 
	C141.802750,85.381042 142.204483,85.433762 142.606201,85.486481 
	C142.822922,82.649323 144.281998,78.674080 142.967743,77.239426 
	C140.952576,75.039658 137.028290,74.588791 133.000000,73.045395 
	C133.000000,80.862259 133.000000,86.931129 133.000000,93.000000 
	C132.250000,93.000000 131.500000,93.000000 130.365265,92.609772 
	C128.170883,87.115471 126.438248,81.981636 124.487251,76.932182 
	C124.092964,75.911705 122.872467,75.210472 122.032875,74.362053 
	C121.263832,75.314590 120.197517,76.151962 119.776268,77.239258 
	C117.755211,82.455788 115.908585,87.739899 114.000000,93.000000 
	C113.555557,93.000000 113.111107,93.000000 112.333885,92.553062 
	C111.513557,87.150780 111.154724,82.176674 110.437500,77.254791 
	C110.280823,76.179672 108.844666,75.291008 107.997772,74.316467 
	C107.028717,75.234695 105.690674,75.982368 105.170357,77.108025 
	C104.201340,79.204361 103.708336,81.520729 102.683350,84.820213 
	C101.797295,81.626633 101.526489,79.581543 100.651978,77.839516 
	C99.962196,76.465477 98.529259,75.464508 97.426384,74.297844 
	C96.596085,75.595963 95.274773,76.806358 95.024315,78.208084 
	C94.149719,83.103020 93.645164,88.064072 93.000000,93.000000 
	C62.395279,93.000000 31.790556,93.000000 1.092917,93.000000 
	C1.092917,62.457474 1.092917,31.914572 1.092917,1.000000 
	C11.684689,1.000000 22.373686,1.000000 33.647942,1.225030 
	C34.506672,1.641128 34.780151,1.832197 35.142822,2.249620 
	C35.431854,2.749803 35.695145,2.931931 36.010330,3.012283 
	C35.998760,3.002206 35.973717,2.984468 36.146500,3.269150 
	C38.206093,5.073875 40.092899,6.593919 41.554695,8.111392 
	C37.719906,7.701695 34.194260,7.598223 32.579170,11.255445 
	C32.101711,12.336612 33.299892,15.393803 34.205246,15.616795 
	C36.872826,16.273830 40.012550,16.631777 42.495705,15.761170 
	C43.806252,15.301685 44.134567,12.040680 45.219154,10.149752 
	C46.741661,11.537665 47.951370,12.820389 49.001911,14.383596 
	C48.583088,15.433397 48.323441,16.202715 47.934715,17.204544 
	C47.525700,17.883139 47.245758,18.329222 46.615128,18.844280 
	C45.040836,20.568575 43.817234,22.223890 42.336639,23.692387 
	C31.252296,16.581247 15.845085,12.472705 10.701921,15.530607 
	C14.334597,16.815039 17.657827,17.990059 21.126886,19.446985 
	C21.843473,19.840368 22.414232,19.951843 22.993057,20.033859 
	C23.001122,20.004400 22.948599,20.035591 22.971651,20.385704 
	C26.121319,23.173538 29.577164,25.292599 32.307671,28.113705 
	C38.450253,34.460091 39.922375,42.601849 34.766590,48.780579 
	C30.453110,53.949879 24.640488,58.183586 18.795681,61.662075 
	C13.934610,64.555099 8.061526,65.747673 1.769915,68.004372 
	C4.708880,68.469391 6.802547,68.800659 9.137434,69.272491 
	C15.592584,68.625832 21.806515,67.838608 28.386827,67.067902 
	C30.503111,66.393753 32.253010,65.703110 34.306229,65.005699 
	C35.100163,64.682632 35.590775,64.366325 36.051250,64.028717 
	C36.021114,64.007416 36.025166,64.081116 36.326305,64.056488 
	C37.105309,63.699871 37.583172,63.367878 38.037407,63.016102 
	C38.013783,62.996319 38.019417,63.057686 38.338104,63.005447 
	C38.968540,62.672905 39.280289,62.392609 39.914452,62.073318 
	C44.782204,58.111969 49.327545,54.189617 54.010952,50.559952 
	C55.378063,52.099583 56.607113,53.346519 57.868118,54.740917 
	C58.015190,55.080536 58.184689,55.173038 58.594238,55.467468 
	C69.149940,65.884041 81.787865,69.708694 96.319061,69.438850 
	C98.470413,69.758621 100.295868,69.881912 102.121452,69.883888 
	C145.080963,69.930519 188.040482,69.964058 231.000000,70.000000 
	C231.000000,74.356903 231.000000,78.713799 230.652985,83.458008 
	C227.632782,82.184387 225.043808,81.781380 222.168259,84.314186 
	C223.711884,85.285500 224.885574,86.024033 226.059250,86.762566 
	C225.991104,87.323997 225.922974,87.885437 225.854828,88.446869 
	C223.791870,88.233582 220.633865,88.741669 219.911560,87.645195 
	C218.697983,85.803017 218.250687,82.694206 218.918365,80.570114 
	C219.727188,77.996986 222.271332,77.247208 225.096512,78.785683 
	C226.024323,79.290932 227.445496,78.890144 228.641068,78.903687 
	C228.117310,77.837059 227.858490,76.451851 227.024490,75.758293 
	C223.161987,72.546173 217.426651,74.220779 214.993256,79.119156 
	C212.509766,84.118408 214.199524,88.803131 220.000000,93.000000 
	C217.629440,93.000000 215.258896,93.000000 212.265610,92.560440 
	C211.655838,87.309662 211.813553,82.491463 211.582748,77.691963 
	C211.522980,76.449181 210.245972,75.264923 209.528107,74.053780 
	C209.001465,74.300774 208.474823,74.547760 207.948181,74.794754 
	C207.948181,78.003845 207.948181,81.212929 207.948181,84.650253 
	C203.355347,81.954651 203.620071,74.877975 197.000000,74.241402 
	C197.000000,80.797203 197.000000,86.898605 197.000000,93.000000 
	C195.611115,93.000000 194.222214,93.000000 192.643799,92.637161 
	C192.454254,86.525024 192.454254,80.775726 192.454254,74.957848 
	C189.911148,76.217323 189.911148,76.217323 190.000000,93.000000 
	C187.958328,93.000000 185.916672,93.000000 183.590454,92.607376 
	C183.638062,87.796539 183.970245,83.378326 184.258881,79.539177 
	C185.634201,78.135742 186.715668,77.032173 187.797134,75.928604 
	C186.271698,75.374931 184.770309,74.733932 183.210648,74.304611 
	C182.436722,74.091591 181.501770,74.082718 180.734497,74.306503 
	C179.195068,74.755524 177.720764,75.427757 176.219574,76.007858 
	C177.333878,77.105484 178.448196,78.203117 180.000000,79.731689 
	C180.000000,83.690269 180.000000,88.345131 180.000000,93.000000 
z"/>
<path fill="#95A5C1" opacity="1.000000" stroke="none" 
	d="
M231.000000,69.666672 
	C188.040482,69.964058 145.080963,69.930519 102.121452,69.883888 
	C100.295868,69.881912 98.470413,69.758621 96.261887,69.195633 
	C95.878868,68.699425 95.812798,68.204643 96.269104,68.126877 
	C99.199127,67.935387 101.672836,67.821663 104.146553,67.707932 
	C131.794769,67.768555 159.442978,67.836388 187.091217,67.886833 
	C201.415985,67.912971 215.740799,67.908302 230.532806,67.958771 
	C231.000000,68.444443 231.000000,68.888893 231.000000,69.666672 
z"/>
<path fill="#546695" opacity="1.000000" stroke="none" 
	d="
M93.399994,93.000000 
	C93.645164,88.064072 94.149719,83.103020 95.024315,78.208084 
	C95.274773,76.806358 96.596085,75.595963 97.426384,74.297844 
	C98.529259,75.464508 99.962196,76.465477 100.651978,77.839516 
	C101.526489,79.581543 101.797295,81.626633 102.683350,84.820213 
	C103.708336,81.520729 104.201340,79.204361 105.170357,77.108025 
	C105.690674,75.982368 107.028717,75.234695 107.997772,74.316467 
	C108.844666,75.291008 110.280823,76.179672 110.437500,77.254791 
	C111.154724,82.176674 111.513557,87.150780 112.000549,92.553062 
	C111.250000,93.000000 110.500000,93.000000 109.373444,92.590172 
	C108.497635,89.188896 107.998375,86.197441 107.250046,81.713638 
	C105.473396,86.431679 104.236694,89.715836 103.000000,93.000000 
	C103.000000,93.000000 102.500000,93.000000 102.250984,92.616928 
	C100.865471,88.723930 99.728973,85.213997 98.592468,81.704063 
	C98.377396,81.743668 98.162323,81.783272 97.947250,81.822876 
	C97.631500,85.548584 97.315750,89.274292 97.000000,93.000000 
	C95.933327,93.000000 94.866661,93.000000 93.399994,93.000000 
z"/>
<path fill="#556695" opacity="1.000000" stroke="none" 
	d="
M133.458069,93.000000 
	C133.000000,86.931129 133.000000,80.862259 133.000000,73.045395 
	C137.028290,74.588791 140.952576,75.039658 142.967743,77.239426 
	C144.281998,78.674080 142.822922,82.649323 142.606201,85.486481 
	C142.204483,85.433762 141.802750,85.381042 141.401031,85.328323 
	C142.376648,87.632889 143.352249,89.937447 144.163940,92.621002 
	C140.638718,93.000000 137.277420,93.000000 133.458069,93.000000 
z"/>
<path fill="#4D5F91" opacity="1.000000" stroke="none" 
	d="
M197.375000,93.000000 
	C197.000000,86.898605 197.000000,80.797203 197.000000,74.241402 
	C203.620071,74.877975 203.355347,81.954651 207.948181,84.650253 
	C207.948181,81.212929 207.948181,78.003845 207.948181,74.794754 
	C208.474823,74.547760 209.001465,74.300774 209.528107,74.053780 
	C210.245972,75.264923 211.522980,76.449181 211.582748,77.691963 
	C211.813553,82.491463 211.655838,87.309662 211.821442,92.560440 
	C211.555557,93.000000 211.111099,93.000000 210.191132,92.742722 
	C209.166962,92.315002 208.618301,92.144547 207.766083,91.820251 
	C205.251297,88.373299 203.040070,85.080177 200.000000,80.552673 
	C200.000000,85.796448 200.000000,89.398224 200.000000,93.000000 
	C199.250000,93.000000 198.500000,93.000000 197.375000,93.000000 
z"/>
<path fill="#516293" opacity="1.000000" stroke="none" 
	d="
M220.416656,93.000000 
	C214.199524,88.803131 212.509766,84.118408 214.993256,79.119156 
	C217.426651,74.220779 223.161987,72.546173 227.024490,75.758293 
	C227.858490,76.451851 228.117310,77.837059 228.641068,78.903687 
	C227.445496,78.890144 226.024323,79.290932 225.096512,78.785683 
	C222.271332,77.247208 219.727188,77.996986 218.918365,80.570114 
	C218.250687,82.694206 218.697983,85.803017 219.911560,87.645195 
	C220.633865,88.741669 223.791870,88.233582 225.854828,88.446869 
	C225.922974,87.885437 225.991104,87.323997 226.059250,86.762566 
	C224.885574,86.024033 223.711884,85.285500 222.168259,84.314186 
	C225.043808,81.781380 227.632782,82.184387 230.652985,83.922653 
	C231.000000,84.444443 231.000000,84.888893 230.671982,85.776634 
	C228.562653,88.479958 226.781326,90.739983 225.000000,93.000000 
	C223.611115,93.000000 222.222214,93.000000 220.416656,93.000000 
z"/>
<path fill="#FDFEFE" opacity="1.000000" stroke="none" 
	d="
M35.053627,2.023266 
	C34.780151,1.832197 34.506672,1.641128 34.116600,1.225030 
	C46.687561,1.000000 59.375122,1.000000 72.396988,1.237784 
	C72.431419,1.674947 72.131538,1.874325 71.479553,2.150754 
	C65.384445,4.844000 59.641449,7.460196 53.595280,9.914454 
	C47.519310,7.496500 41.746513,5.240485 35.973717,2.984468 
	C35.973717,2.984468 35.998760,3.002206 35.919968,2.786667 
	C35.632408,2.311238 35.369892,2.128617 35.053627,2.023266 
z"/>
<path fill="#516393" opacity="1.000000" stroke="none" 
	d="
M148.399582,91.841278 
	C148.334885,87.031570 148.140137,82.217606 148.297318,77.415161 
	C148.336411,76.220657 149.513092,75.063393 150.166901,73.889015 
	C150.677078,74.089012 151.187271,74.289009 151.697449,74.489006 
	C151.892410,76.503609 152.087387,78.518204 152.293823,80.651367 
	C155.780121,79.242401 155.726944,73.066261 160.947876,74.630165 
	C161.018005,74.956314 161.137772,75.210670 161.075745,75.267860 
	C154.590759,81.247276 157.014603,86.838585 161.900574,92.665985 
	C160.933334,93.000000 159.866653,93.000000 158.323883,92.666367 
	C156.123260,90.012291 154.398743,87.691856 151.892975,84.320206 
	C151.892975,87.742958 151.892975,89.843925 151.542679,91.976570 
	C150.261444,91.952591 149.330521,91.896935 148.399582,91.841278 
z"/>
<path fill="#536494" opacity="1.000000" stroke="none" 
	d="
M114.399994,93.000000 
	C115.908585,87.739899 117.755211,82.455788 119.776268,77.239258 
	C120.197517,76.151962 121.263832,75.314590 122.032875,74.362053 
	C122.872467,75.210472 124.092964,75.911705 124.487251,76.932182 
	C126.438248,81.981636 128.170883,87.115471 129.990265,92.609772 
	C129.250000,93.000000 128.500000,93.000000 127.287415,92.629333 
	C126.104858,88.949959 123.588768,88.275070 121.012444,89.153419 
	C119.721237,89.593636 118.986435,91.665863 118.000000,93.000000 
	C116.933327,93.000000 115.866661,93.000000 114.399994,93.000000 
z"/>
<path fill="#4D5F91" opacity="1.000000" stroke="none" 
	d="
M165.444168,93.000000 
	C165.000000,87.019646 165.000000,81.039291 165.000000,75.105263 
	C171.846283,73.393654 173.623718,73.875298 174.211594,77.822769 
	C173.241791,77.897202 172.294647,77.999008 171.345047,78.034683 
	C170.374100,78.071144 169.400696,78.042755 166.780884,78.042755 
	C168.729370,80.682381 169.934692,82.315231 171.368332,84.257385 
	C171.553726,84.122528 170.964844,84.443985 170.514236,84.901604 
	C169.650574,85.778709 168.865402,86.733124 168.047668,87.655464 
	C169.110901,88.437302 170.081696,89.434425 171.262878,89.941513 
	C172.488007,90.467476 175.580032,89.104980 173.153412,92.717667 
	C170.629440,93.000000 168.258896,93.000000 165.444168,93.000000 
z"/>
<path fill="#5A6B99" opacity="1.000000" stroke="none" 
	d="
M180.375000,93.000000 
	C180.000000,88.345131 180.000000,83.690269 180.000000,79.731689 
	C178.448196,78.203117 177.333878,77.105484 176.219574,76.007858 
	C177.720764,75.427757 179.195068,74.755524 180.734497,74.306503 
	C181.501770,74.082718 182.436722,74.091591 183.210648,74.304611 
	C184.770309,74.733932 186.271698,75.374931 187.797134,75.928604 
	C186.715668,77.032173 185.634201,78.135742 184.258881,79.539177 
	C183.970245,83.378326 183.638062,87.796539 183.152954,92.607376 
	C182.250000,93.000000 181.500000,93.000000 180.375000,93.000000 
z"/>
<path fill="#43578B" opacity="1.000000" stroke="none" 
	d="
M190.333328,93.000000 
	C189.911148,76.217323 189.911148,76.217323 192.454254,74.957848 
	C192.454254,80.775726 192.454254,86.525024 192.227127,92.637161 
	C191.555557,93.000000 191.111099,93.000000 190.333328,93.000000 
z"/>
<path fill="#F0F2F6" opacity="1.000000" stroke="none" 
	d="
M200.444168,93.000000 
	C200.000000,89.398224 200.000000,85.796448 200.000000,80.552673 
	C203.040070,85.080177 205.251297,88.373299 207.811493,92.080994 
	C208.106979,92.663719 208.053497,92.831856 208.000000,93.000000 
	C205.629440,93.000000 203.258896,93.000000 200.444168,93.000000 
z"/>
<path fill="#F5F6F9" opacity="1.000000" stroke="none" 
	d="
M97.416672,93.000000 
	C97.315750,89.274292 97.631500,85.548584 97.947250,81.822876 
	C98.162323,81.783272 98.377396,81.743668 98.592468,81.704063 
	C99.728973,85.213997 100.865471,88.723930 102.000984,92.616928 
	C100.611107,93.000000 99.222221,93.000000 97.416672,93.000000 
z"/>
<path fill="#F4F5F8" opacity="1.000000" stroke="none" 
	d="
M103.428467,93.000000 
	C104.236694,89.715836 105.473396,86.431679 107.250046,81.713638 
	C107.998375,86.197441 108.497635,89.188896 108.998444,92.590172 
	C107.285645,93.000000 105.571281,93.000000 103.428467,93.000000 
z"/>
<path fill="#F7F8FA" opacity="1.000000" stroke="none" 
	d="
M118.449982,93.000000 
	C118.986435,91.665863 119.721237,89.593636 121.012444,89.153419 
	C123.588768,88.275070 126.104858,88.949959 126.912415,92.629333 
	C124.299988,93.000000 121.599968,93.000000 118.449982,93.000000 
z"/>
<path fill="#3D5187" opacity="1.000000" stroke="none" 
	d="
M231.000000,60.533138 
	C230.556564,60.990715 230.113113,60.981434 229.338104,60.519943 
	C229.001373,59.044952 228.996216,58.022171 228.994385,56.540447 
	C229.385452,52.357971 229.773193,48.634441 230.160919,44.910908 
	C230.160919,44.910908 230.587006,44.893806 230.793503,44.946903 
	C231.000000,50.022091 231.000000,55.044186 231.000000,60.533138 
z"/>
<path fill="#FBFCFD" opacity="1.000000" stroke="none" 
	d="
M151.892975,91.944901 
	C151.892975,89.843925 151.892975,87.742958 151.892975,84.320206 
	C154.398743,87.691856 156.123260,90.012291 157.923889,92.666367 
	C156.285645,93.000000 154.571289,93.000000 152.415131,92.734863 
	C151.946548,92.294785 151.919754,92.119843 151.892975,91.944901 
z"/>
<path fill="#FBFCFD" opacity="1.000000" stroke="none" 
	d="
M225.499481,93.000000 
	C226.781326,90.739983 228.562653,88.479958 230.671982,86.109970 
	C231.000000,88.240196 231.000000,90.480392 231.000000,93.000000 
	C229.337234,93.000000 227.668091,93.000000 225.499481,93.000000 
z"/>
<path fill="#FDFDFC" opacity="1.000000" stroke="none" 
	d="
M71.831665,2.073703 
	C72.131538,1.874325 72.431419,1.674947 72.865646,1.237784 
	C73.444443,1.000000 73.888893,1.000000 74.666672,1.000000 
	C74.278824,1.663342 73.557640,2.326685 72.403152,2.768136 
	C71.969833,2.546244 71.831665,2.073703 71.831665,2.073703 
z"/>
<path fill="#8C98B7" opacity="1.000000" stroke="none" 
	d="
M151.542679,91.976570 
	C151.919754,92.119843 151.946548,92.294785 151.986664,92.734863 
	C150.933350,93.000000 149.866699,93.000000 148.400024,93.000000 
	C148.061478,92.805199 148.122940,92.610405 148.291992,92.128441 
	C149.330521,91.896935 150.261444,91.952591 151.542679,91.976570 
z"/>
<path fill="#596998" opacity="1.000000" stroke="none" 
	d="
M208.333328,93.000000 
	C208.053497,92.831856 208.106979,92.663719 208.115051,92.234833 
	C208.618301,92.144547 209.166962,92.315002 209.857803,92.742722 
	C209.555557,93.000000 209.111099,93.000000 208.333328,93.000000 
z"/>
<path fill="#526494" opacity="1.000000" stroke="none" 
	d="
M202.936356,47.194710 
	C192.473068,47.194714 182.009781,47.194714 171.536560,47.194714 
	C171.648117,52.262260 176.527740,56.072742 180.844833,54.955597 
	C188.009216,53.101643 194.861832,49.386120 202.931030,51.501492 
	C202.038437,56.054028 198.534515,58.403603 194.719849,59.766212 
	C183.710129,63.698921 172.676041,63.052330 162.429169,57.499901 
	C152.509766,52.124905 151.807938,40.664253 160.647049,33.609001 
	C165.061539,30.085417 169.892029,27.603834 176.064728,28.784544 
	C178.683960,29.285549 181.582855,28.108486 184.366150,28.005680 
	C195.449463,27.596291 202.508011,33.579643 204.212616,45.545494 
	C203.539764,46.467804 203.238052,46.831257 202.936356,47.194710 
M174.335052,35.560699 
	C173.130966,36.828812 171.926880,38.096928 170.539780,39.557796 
	C176.877548,46.137711 183.444016,40.892868 189.867920,41.579178 
	C186.807495,34.135212 182.275772,32.316109 174.335052,35.560699 
z"/>
<path fill="#4F6192" opacity="1.000000" stroke="none" 
	d="
M144.883179,55.925514 
	C132.851105,64.085197 120.618484,64.028053 108.222122,58.054836 
	C102.589317,55.340652 99.062881,50.658871 99.245972,44.209236 
	C99.436081,37.512280 103.433540,32.985725 109.488914,30.804689 
	C113.015060,29.534637 116.987930,29.476250 120.771477,28.957968 
	C124.141151,28.496378 127.525528,27.836714 130.905838,27.822115 
	C137.841858,27.792162 143.273422,31.084837 147.699448,36.258381 
	C141.716110,40.961994 138.748688,41.098476 132.859543,36.983154 
	C126.470375,32.518425 120.080994,33.028812 116.604202,38.281654 
	C113.791161,42.531662 114.195969,48.656685 117.484360,51.599472 
	C121.308708,55.021893 129.142151,54.915951 133.146957,51.387661 
	C137.761978,47.321758 143.348740,47.055889 149.333115,50.972229 
	C147.916092,52.587315 146.547119,54.147629 144.883179,55.925514 
z"/>
<path fill="#BCD6E5" opacity="1.000000" stroke="none" 
	d="
M103.864166,67.490265 
	C101.672836,67.821663 99.199127,67.935387 95.883827,68.075058 
	C82.606369,65.173904 70.761292,61.200890 62.975624,49.710442 
	C62.653015,48.941124 62.353420,48.462013 62.042786,47.629044 
	C61.718117,46.168381 61.404495,45.061569 61.134930,43.633572 
	C61.137810,42.883587 61.096638,42.454796 61.229218,41.709850 
	C62.910416,37.923645 64.417862,34.453590 66.188271,30.833370 
	C66.954117,30.060310 67.457001,29.437414 68.255562,28.671188 
	C75.235680,23.105558 82.419075,18.679302 91.095963,17.234459 
	C86.047142,20.672655 80.384323,23.480095 76.073441,27.676382 
	C66.176163,37.310555 69.249191,47.243504 77.754745,54.824898 
	C85.146500,61.413509 94.384872,64.339622 103.864166,67.490265 
z"/>
<path fill="#4F6192" opacity="1.000000" stroke="none" 
	d="
M230.127747,44.449203 
	C229.773193,48.634441 229.385452,52.357971 228.533997,56.540680 
	C224.517410,56.999855 220.964584,56.999855 217.285339,56.999855 
	C218.207306,44.252766 219.067581,32.358627 219.978561,19.763506 
	C223.830536,20.244011 226.858627,20.621744 229.886719,20.999475 
	C229.956009,28.662149 230.025284,36.324825 230.127747,44.449203 
z"/>
<path fill="#4E6091" opacity="1.000000" stroke="none" 
	d="
M229.949249,20.622566 
	C226.858627,20.621744 223.830536,20.244011 219.978561,19.763506 
	C219.067581,32.358627 218.207306,44.252766 217.285339,56.999855 
	C220.964584,56.999855 224.517410,56.999855 228.530640,56.999622 
	C228.996216,58.022171 229.001373,59.044952 229.012634,60.451180 
	C224.561996,60.834621 220.105301,60.834621 216.102203,60.834621 
	C216.102203,45.865917 216.102203,31.165627 216.102203,15.682150 
	C220.800400,16.205500 224.487106,16.616177 228.694275,17.274422 
	C229.376190,17.744860 229.589294,17.893896 229.854050,17.969093 
	C229.906616,18.727949 229.959198,19.486805 229.949249,20.622566 
z"/>
<path fill="#4D5F91" opacity="1.000000" stroke="none" 
	d="
M91.391602,17.108910 
	C82.419075,18.679302 75.235680,23.105558 68.195084,28.336330 
	C65.893631,28.097519 63.948322,28.050234 61.843929,27.838531 
	C61.684841,27.674118 61.300865,27.425270 61.441273,27.140852 
	C62.734753,25.653811 63.887825,24.451187 65.040901,23.248566 
	C73.571754,17.799746 82.653168,14.190585 93.494949,15.121227 
	C93.979866,15.562894 93.989441,15.758676 93.999008,15.954457 
	C93.228416,16.297426 92.457825,16.640392 91.391602,17.108910 
z"/>
<path fill="#ECA04A" opacity="1.000000" stroke="none" 
	d="
M71.479553,2.150753 
	C71.831665,2.073703 71.969833,2.546244 72.060783,2.775030 
	C69.484474,4.779551 66.817223,6.555287 64.051743,8.663952 
	C63.953526,8.996881 63.985733,8.932402 63.696411,8.976080 
	C63.250015,9.337626 63.092941,9.655494 62.964027,9.950420 
	C62.992188,9.927478 62.945446,9.871868 62.945446,9.871868 
	C61.292999,11.275252 59.640553,12.678638 57.622993,14.552429 
	C57.052177,15.353437 56.846481,15.684041 56.470543,16.035336 
	C56.300301,16.056028 55.970566,16.156887 55.566124,16.064064 
	C52.795719,16.304838 50.429756,16.638435 48.063793,16.972033 
	C48.323441,16.202715 48.583088,15.433397 49.283817,14.241531 
	C51.116081,12.571452 52.507267,11.323922 53.898453,10.076391 
	C59.641449,7.460196 65.384445,4.844000 71.479553,2.150753 
z"/>
<path fill="#BCD6E5" opacity="1.000000" stroke="none" 
	d="
M63.920689,8.982038 
	C65.332573,8.649565 66.922043,7.789888 68.191422,8.128875 
	C70.714333,8.802621 73.148811,9.996240 75.363472,11.384120 
	C75.624870,11.547926 74.535538,15.395033 73.633331,15.599735 
	C70.981407,16.201424 67.956131,16.350471 65.390190,15.602491 
	C64.221046,15.261682 63.788265,12.394768 62.983467,10.272753 
	C62.945446,9.871868 62.992188,9.927478 63.221542,9.876192 
	C63.629177,9.527404 63.807457,9.229903 63.985733,8.932402 
	C63.985733,8.932402 63.953526,8.996881 63.920689,8.982038 
z"/>
<path fill="#BCD5E4" opacity="1.000000" stroke="none" 
	d="
M56.640785,16.014645 
	C56.846481,15.684041 57.052177,15.353437 57.509163,14.864772 
	C60.091885,17.338097 62.423313,19.969482 64.897827,22.924717 
	C63.887825,24.451187 62.734753,25.653811 61.142822,27.297228 
	C59.376766,28.631891 58.049564,29.525763 56.722363,30.419634 
	C56.330406,30.124638 55.938450,29.829639 55.546497,29.534643 
	C56.036911,28.006466 56.053040,25.856771 57.099960,25.057848 
	C61.600018,21.623764 60.021645,18.855806 56.640785,16.014645 
z"/>
<path fill="#506192" opacity="1.000000" stroke="none" 
	d="
M94.286911,15.986767 
	C93.989441,15.758676 93.979866,15.562894 93.948738,15.073856 
	C94.491882,14.979408 95.056572,15.178216 95.621262,15.377024 
	C95.272446,15.591041 94.923637,15.805058 94.286911,15.986767 
z"/>
<path fill="#3D5187" opacity="1.000000" stroke="none" 
	d="
M229.871979,17.719612 
	C229.589294,17.893896 229.376190,17.744860 229.126511,17.344702 
	C229.322159,17.268322 229.606018,17.369226 229.871979,17.719612 
z"/>
<path fill="#485B8E" opacity="1.000000" stroke="none" 
	d="
M203.375961,47.188705 
	C203.238052,46.831257 203.539764,46.467804 204.174271,45.953445 
	C204.276566,46.262600 204.046066,46.722649 203.375961,47.188705 
z"/>
<path fill="#506192" opacity="1.000000" stroke="none" 
	d="
M62.053829,47.982903 
	C62.353420,48.462013 62.653015,48.941124 62.692474,49.971775 
	C61.873608,52.749065 62.119263,55.671993 58.408558,55.165878 
	C58.184689,55.173038 58.015190,55.080536 57.908638,54.307545 
	C57.704670,49.166164 57.126087,48.671253 53.872890,50.267265 
	C49.327545,54.189617 44.782204,58.111969 39.593307,62.124226 
	C38.639645,62.495312 38.329533,62.776501 38.019417,63.057686 
	C38.019417,63.057686 38.013783,62.996319 37.727776,63.029526 
	C36.969566,63.402195 36.497368,63.741657 36.025166,64.081116 
	C36.025166,64.081116 36.021114,64.007416 35.743164,64.035583 
	C34.977779,64.379990 34.490345,64.696220 34.002911,65.012459 
	C32.253010,65.703110 30.503111,66.393753 28.249504,66.743149 
	C27.464535,65.511581 27.183273,64.621262 27.138302,63.489174 
	C32.074844,59.901356 37.235199,57.034237 41.351204,53.080032 
	C45.831738,48.775623 47.223396,42.848087 44.412323,36.995674 
	C40.075516,27.966789 32.658279,22.456999 22.948599,20.035591 
	C22.948599,20.035591 23.001122,20.004400 22.893581,19.730394 
	C22.184381,19.359283 21.582722,19.262180 20.981060,19.165077 
	C17.657827,17.990059 14.334597,16.815039 10.701921,15.530607 
	C15.845085,12.472705 31.252296,16.581247 42.567165,23.968987 
	C45.639771,26.485449 48.224850,28.538496 50.920666,31.014774 
	C56.998924,32.481045 61.402481,35.004749 61.055466,42.026001 
	C61.096638,42.454796 61.137810,42.883587 60.854736,43.851562 
	C61.038269,45.588131 61.546051,46.785519 62.053829,47.982903 
z"/>
<path fill="#ECA048" opacity="1.000000" stroke="none" 
	d="
M22.971651,20.385704 
	C32.658279,22.456999 40.075516,27.966789 44.412323,36.995674 
	C47.223396,42.848087 45.831738,48.775623 41.351204,53.080032 
	C37.235199,57.034237 32.074844,59.901356 26.763918,63.568218 
	C20.400900,65.636665 14.648557,67.384300 8.896214,69.131935 
	C6.802547,68.800659 4.708880,68.469391 1.769915,68.004372 
	C8.061526,65.747673 13.934610,64.555099 18.795681,61.662075 
	C24.640488,58.183586 30.453110,53.949879 34.766590,48.780579 
	C39.922375,42.601849 38.450253,34.460091 32.307671,28.113705 
	C29.577164,25.292599 26.121319,23.173538 22.971651,20.385704 
z"/>
<path fill="#4D5F91" opacity="1.000000" stroke="none" 
	d="
M58.594238,55.467468 
	C62.119263,55.671993 61.873608,52.749065 62.715488,50.261978 
	C70.761292,61.200890 82.606369,65.173904 95.427521,68.152824 
	C95.812798,68.204643 95.878868,68.699425 95.936043,68.942642 
	C81.787865,69.708694 69.149940,65.884041 58.594238,55.467468 
z"/>
<path fill="#ED9F47" opacity="1.000000" stroke="none" 
	d="
M44.906364,10.044560 
	C44.134567,12.040680 43.806252,15.301685 42.495705,15.761170 
	C40.012550,16.631777 36.872826,16.273830 34.205246,15.616795 
	C33.299892,15.393803 32.101711,12.336612 32.579170,11.255445 
	C34.194260,7.598223 37.719906,7.701695 41.562263,8.077745 
	C41.994850,8.046670 41.930698,8.020193 41.980583,8.293854 
	C42.363529,8.718229 42.696598,8.868944 43.022240,8.997070 
	C43.014816,8.974483 42.967655,8.980577 43.155243,9.237471 
	C43.888821,9.689419 44.434807,9.884472 44.972916,10.047821 
	C44.965042,10.016118 44.906364,10.044560 44.906364,10.044560 
z"/>
<path fill="#BCD6E5" opacity="1.000000" stroke="none" 
	d="
M53.595280,9.914454 
	C52.507267,11.323922 51.116081,12.571452 49.442989,13.961047 
	C47.951370,12.820389 46.741661,11.537665 45.219154,10.149752 
	C44.906364,10.044560 44.965042,10.016118 44.831333,9.771021 
	C44.120968,9.344141 43.544312,9.162359 42.967655,8.980577 
	C42.967655,8.980577 43.014816,8.974483 42.931545,8.745899 
	C42.542416,8.351609 42.236557,8.185901 41.930698,8.020193 
	C41.930698,8.020193 41.994850,8.046670 41.987282,8.080317 
	C40.092899,6.593919 38.206093,5.073875 36.146500,3.269150 
	C41.746513,5.240485 47.519310,7.496500 53.595280,9.914454 
z"/>
<path fill="#506192" opacity="1.000000" stroke="none" 
	d="
M47.934715,17.204544 
	C50.429756,16.638435 52.795719,16.304838 55.418083,16.376593 
	C55.674480,18.645136 55.674480,20.508329 55.674480,21.544804 
	C53.748337,23.001431 52.352074,24.057343 50.601479,25.042244 
	C49.153366,22.905924 48.059593,20.840614 46.965816,18.775303 
	C47.245758,18.329222 47.525700,17.883139 47.934715,17.204544 
z"/>
<path fill="#ECA048" opacity="1.000000" stroke="none" 
	d="
M46.615128,18.844280 
	C48.059593,20.840614 49.153366,22.905924 50.666077,25.436138 
	C50.993320,27.464542 50.901623,29.028042 50.809929,30.591545 
	C48.224850,28.538496 45.639771,26.485449 42.824165,24.155804 
	C43.817234,22.223890 45.040836,20.568575 46.615128,18.844280 
z"/>
<path fill="#4C5E90" opacity="1.000000" stroke="none" 
	d="
M9.137434,69.272491 
	C14.648557,67.384300 20.400900,65.636665 26.527626,63.809990 
	C27.183273,64.621262 27.464535,65.511581 27.883121,66.726646 
	C21.806515,67.838608 15.592584,68.625832 9.137434,69.272491 
z"/>
<path fill="#4D5F91" opacity="1.000000" stroke="none" 
	d="
M54.010952,50.559952 
	C57.126087,48.671253 57.704670,49.166164 57.876686,54.160088 
	C56.607113,53.346519 55.378063,52.099583 54.010952,50.559952 
z"/>
<path fill="#4C5E90" opacity="1.000000" stroke="none" 
	d="
M34.306229,65.005699 
	C34.490345,64.696220 34.977779,64.379990 35.773300,64.056885 
	C35.590775,64.366325 35.100163,64.682632 34.306229,65.005699 
z"/>
<path fill="#ECA048" opacity="1.000000" stroke="none" 
	d="
M21.126886,19.446985 
	C21.582722,19.262180 22.184381,19.359283 22.885517,19.759853 
	C22.414232,19.951843 21.843473,19.840368 21.126886,19.446985 
z"/>
<path fill="#4C5E90" opacity="1.000000" stroke="none" 
	d="
M36.326305,64.056488 
	C36.497368,63.741657 36.969566,63.402195 37.751404,63.049309 
	C37.583172,63.367878 37.105309,63.699871 36.326305,64.056488 
z"/>
<path fill="#BCD6E5" opacity="1.000000" stroke="none" 
	d="
M35.142822,2.249620 
	C35.369892,2.128617 35.632408,2.311238 35.931534,2.796744 
	C35.695145,2.931931 35.431854,2.749803 35.142822,2.249620 
z"/>
<path fill="#4C5E90" opacity="1.000000" stroke="none" 
	d="
M38.338104,63.005447 
	C38.329533,62.776501 38.639645,62.495312 39.270897,62.163219 
	C39.280289,62.392609 38.968540,62.672905 38.338104,63.005447 
z"/>
<path fill="#EFF0F5" opacity="1.000000" stroke="none" 
	d="
M174.670837,35.353546 
	C182.275772,32.316109 186.807495,34.135212 189.867920,41.579178 
	C183.444016,40.892868 176.877548,46.137711 170.539780,39.557796 
	C171.926880,38.096928 173.130966,36.828812 174.670837,35.353546 
z"/>
<path fill="#4D5F91" opacity="1.000000" stroke="none" 
	d="
M50.920666,31.014774 
	C50.901623,29.028042 50.993320,27.464542 51.020412,25.507149 
	C52.352074,24.057343 53.748337,23.001431 55.674480,21.544804 
	C55.674480,20.508329 55.674480,18.645136 55.822525,16.469416 
	C55.970566,16.156887 56.300301,16.056028 56.470543,16.035336 
	C60.021645,18.855806 61.600018,21.623764 57.099960,25.057848 
	C56.053040,25.856771 56.036911,28.006466 55.546497,29.534643 
	C55.938450,29.829639 56.330406,30.124638 56.722363,30.419634 
	C58.049564,29.525763 59.376766,28.631891 61.002419,27.581646 
	C61.300865,27.425270 61.684841,27.674118 61.852509,28.217896 
	C63.321892,29.502295 64.623604,30.242916 65.925308,30.983536 
	C64.417862,34.453590 62.910416,37.923645 61.229218,41.709850 
	C61.402481,35.004749 56.998924,32.481045 50.920666,31.014774 
z"/>
<path fill="#506192" opacity="1.000000" stroke="none" 
	d="
M66.188278,30.833372 
	C64.623604,30.242916 63.321892,29.502295 62.011597,28.382311 
	C63.948322,28.050234 65.893631,28.097519 67.899414,28.479662 
	C67.457001,29.437414 66.954117,30.060310 66.188278,30.833372 
z"/>
<path fill="#4D5F91" opacity="1.000000" stroke="none" 
	d="
M62.042786,47.629044 
	C61.546051,46.785519 61.038269,45.588131 60.810684,44.172752 
	C61.404495,45.061569 61.718117,46.168381 62.042786,47.629044 
z"/>
<path fill="#FDFEFE" opacity="1.000000" stroke="none" 
	d="
M63.696411,8.976080 
	C63.807457,9.229903 63.629177,9.527404 63.193382,9.899134 
	C63.092941,9.655494 63.250015,9.337626 63.696411,8.976080 
z"/>
<path fill="#FDFDFD" opacity="1.000000" stroke="none" 
	d="
M43.155243,9.237471 
	C43.544312,9.162359 44.120968,9.344141 44.839211,9.802724 
	C44.434807,9.884472 43.888821,9.689419 43.155243,9.237471 
z"/>
<path fill="#FDFDFD" opacity="1.000000" stroke="none" 
	d="
M41.980583,8.293853 
	C42.236557,8.185901 42.542416,8.351609 42.938969,8.768488 
	C42.696598,8.868944 42.363529,8.718229 41.980583,8.293853 
z"/>
</svg>